  0
SECTION
  2
HEADER
  9
$ACADVER
  1
AC1015
  9
$ACADMAINTVER
 70
     6
  9
$DWGCODEPAGE
  3
ANSI_1252
  9
$INSBASE
 10
0.0
 20
0.0
 30
0.0
  9
$EXTMIN
 10
-0.2408326018
 20
-0.6704556928
 30
0.0
  9
$EXTMAX
 10
60.1292818586
 20
53.8823143068
 30
0.0
  9
$LIMMIN
 10
0.0
 20
0.0
  9
$LIMMAX
 10
420.0
 20
297.0
  9
$ORTHOMODE
 70
     0
  9
$REGENMODE
 70
     1
  9
$FILLMODE
 70
     1
  9
$QTEXTMODE
 70
     0
  9
$MIRRTEXT
 70
     1
  9
$LTSCALE
 40
1.0
  9
$ATTMODE
 70
     1
  9
$TEXTSIZE
 40
3.5
  9
$TRACEWID
 40
1.0
  9
$TEXTSTYLE
  7
Standard
  9
$CLAYER
  8
0
  9
$CELTYPE
  6
ByLayer
  9
$CECOLOR
 62
   256
  9
$CELTSCALE
 40
1.0
  9
$DISPSILH
 70
     0
  9
$DIMSCALE
 40
1.0
  9
$DIMASZ
 40
3.302
  9
$DIMEXO
 40
0.0
  9
$DIMDLI
 40
3.75
  9
$DIMRND
 40
0.0
  9
$DIMDLE
 40
0.0
  9
$DIMEXE
 40
1.0
  9
$DIMTP
 40
0.0
  9
$DIMTM
 40
0.0
  9
$DIMTXT
 40
3.5
  9
$DIMCEN
 40
2.5
  9
$DIMTSZ
 40
0.0
  9
$DIMTOL
 70
     0
  9
$DIMLIM
 70
     0
  9
$DIMTIH
 70
     1
  9
$DIMTOH
 70
     1
  9
$DIMSE1
 70
     0
  9
$DIMSE2
 70
     0
  9
$DIMTAD
 70
     1
  9
$DIMZIN
 70
     1
  9
$DIMBLK
  1

  9
$DIMASO
 70
     1
  9
$DIMSHO
 70
     1
  9
$DIMPOST
  1

  9
$DIMAPOST
  1

  9
$DIMALT
 70
     0
  9
$DIMALTD
 70
     3
  9
$DIMALTF
 40
0.0393700787
  9
$DIMLFAC
 40
1.0
  9
$DIMTOFL
 70
     1
  9
$DIMTVP
 40
0.0
  9
$DIMTIX
 70
     0
  9
$DIMSOXD
 70
     0
  9
$DIMSAH
 70
     0
  9
$DIMBLK1
  1

  9
$DIMBLK2
  1

  9
$DIMSTYLE
  2
ISO-25
  9
$DIMCLRD
 70
     0
  9
$DIMCLRE
 70
     0
  9
$DIMCLRT
 70
     0
  9
$DIMTFAC
 40
1.0
  9
$DIMGAP
 40
1.524
  9
$DIMJUST
 70
     0
  9
$DIMSD1
 70
     0
  9
$DIMSD2
 70
     0
  9
$DIMTOLJ
 70
     0
  9
$DIMTZIN
 70
     1
  9
$DIMALTZ
 70
     0
  9
$DIMALTTZ
 70
     0
  9
$DIMUPT
 70
     0
  9
$DIMDEC
 70
     2
  9
$DIMTDEC
 70
     2
  9
$DIMALTU
 70
     2
  9
$DIMALTTD
 70
     3
  9
$DIMTXSTY
  7
Standard
  9
$DIMAUNIT
 70
     0
  9
$DIMADEC
 70
     2
  9
$DIMALTRND
 40
0.0
  9
$DIMAZIN
 70
     0
  9
$DIMDSEP
 70
    44
  9
$DIMATFIT
 70
     3
  9
$DIMFRAC
 70
     0
  9
$DIMLDRBLK
  1

  9
$DIMLUNIT
 70
     2
  9
$DIMLWD
 70
    -2
  9
$DIMLWE
 70
    -2
  9
$DIMTMOVE
 70
     0
  9
$LUNITS
 70
     2
  9
$LUPREC
 70
     2
  9
$SKETCHINC
 40
1.0
  9
$FILLETRAD
 40
0.0
  9
$AUNITS
 70
     0
  9
$AUPREC
 70
     2
  9
$MENU
  1
.
  9
$ELEVATION
 40
0.0
  9
$PELEVATION
 40
0.0
  9
$THICKNESS
 40
0.0
  9
$LIMCHECK
 70
     0
  9
$CHAMFERA
 40
0.0
  9
$CHAMFERB
 40
0.0
  9
$CHAMFERC
 40
0.0
  9
$CHAMFERD
 40
0.0
  9
$SKPOLY
 70
     0
  9
$TDCREATE
 40
2460884.298627581
  9
$TDUCREATE
 40
2460884.590294248
  9
$TDUPDATE
 40
2460884.299239398
  9
$TDUUPDATE
 40
2460884.590906065
  9
$TDINDWG
 40
0.0000000116
  9
$TDUSRTIMER
 40
0.0000000116
  9
$USRTIMER
 70
     1
  9
$ANGBASE
 50
0.0
  9
$ANGDIR
 70
     0
  9
$PDMODE
 70
     0
  9
$PDSIZE
 40
-1.0
  9
$PLINEWID
 40
0.0
  9
$SPLFRAME
 70
     0
  9
$SPLINETYPE
 70
     6
  9
$SPLINESEGS
 70
     8
  9
$HANDSEED
  5
19A
  9
$SURFTAB1
 70
     6
  9
$SURFTAB2
 70
     6
  9
$SURFTYPE
 70
     6
  9
$SURFU
 70
     6
  9
$SURFV
 70
     6
  9
$UCSBASE
  2

  9
$UCSNAME
  2

  9
$UCSORG
 10
0.0
 20
0.0
 30
0.0
  9
$UCSXDIR
 10
1.0
 20
0.0
 30
0.0
  9
$UCSYDIR
 10
0.0
 20
1.0
 30
0.0
  9
$UCSORTHOREF
  2

  9
$UCSORTHOVIEW
 70
     0
  9
$UCSORGTOP
 10
0.0
 20
0.0
 30
0.0
  9
$UCSORGBOTTOM
 10
0.0
 20
0.0
 30
0.0
  9
$UCSORGLEFT
 10
0.0
 20
0.0
 30
0.0
  9
$UCSORGRIGHT
 10
0.0
 20
0.0
 30
0.0
  9
$UCSORGFRONT
 10
0.0
 20
0.0
 30
0.0
  9
$UCSORGBACK
 10
0.0
 20
0.0
 30
0.0
  9
$PUCSBASE
  2

  9
$PUCSNAME
  2

  9
$PUCSORG
 10
0.0
 20
0.0
 30
0.0
  9
$PUCSXDIR
 10
1.0
 20
0.0
 30
0.0
  9
$PUCSYDIR
 10
0.0
 20
1.0
 30
0.0
  9
$PUCSORTHOREF
  2

  9
$PUCSORTHOVIEW
 70
     0
  9
$PUCSORGTOP
 10
0.0
 20
0.0
 30
0.0
  9
$PUCSORGBOTTOM
 10
0.0
 20
0.0
 30
0.0
  9
$PUCSORGLEFT
 10
0.0
 20
0.0
 30
0.0
  9
$PUCSORGRIGHT
 10
0.0
 20
0.0
 30
0.0
  9
$PUCSORGFRONT
 10
0.0
 20
0.0
 30
0.0
  9
$PUCSORGBACK
 10
0.0
 20
0.0
 30
0.0
  9
$USERI1
 70
     0
  9
$USERI2
 70
     0
  9
$USERI3
 70
     0
  9
$USERI4
 70
     0
  9
$USERI5
 70
     0
  9
$USERR1
 40
0.0
  9
$USERR2
 40
0.0
  9
$USERR3
 40
0.0
  9
$USERR4
 40
0.0
  9
$USERR5
 40
0.0
  9
$WORLDVIEW
 70
     1
  9
$SHADEDGE
 70
     3
  9
$SHADEDIF
 70
    70
  9
$TILEMODE
 70
     1
  9
$MAXACTVP
 70
    64
  9
$PINSBASE
 10
0.0
 20
0.0
 30
0.0
  9
$PLIMCHECK
 70
     0
  9
$PEXTMIN
 10
1.0000000000E+20
 20
1.0000000000E+20
 30
1.0000000000E+20
  9
$PEXTMAX
 10
-1.0000000000E+20
 20
-1.0000000000E+20
 30
-1.0000000000E+20
  9
$PLIMMIN
 10
0.0
 20
0.0
  9
$PLIMMAX
 10
420.0
 20
297.0
  9
$UNITMODE
 70
     0
  9
$VISRETAIN
 70
     1
  9
$PLINEGEN
 70
     0
  9
$PSLTSCALE
 70
     1
  9
$TREEDEPTH
 70
  3020
  9
$CMLSTYLE
  2
Standard
  9
$CMLJUST
 70
     0
  9
$CMLSCALE
 40
20.0
  9
$PROXYGRAPHICS
 70
     1
  9
$MEASUREMENT
 70
     1
  9
$CELWEIGHT
370
    -1
  9
$ENDCAPS
280
     0
  9
$JOINSTYLE
280
     0
  9
$LWDISPLAY
290
     1
  9
$INSUNITS
 70
     4
  9
$HYPERLINKBASE
  1

  9
$STYLESHEET
  1

  9
$XEDIT
290
     1
  9
$CEPSNTYPE
380
     0
  9
$PSTYLEMODE
290
     1
  9
$FINGERPRINTGUID
  2
{20b4ec87-ec3d-406c-9f34-707c102ff0fe}
  9
$VERSIONGUID
  2
{FAEB1C32-E019-11D5-929B-00C0DF256EC4}
  9
$EXTNAMES
290
     1
  9
$PSVPSCALE
 40
0.0
  9
$OLESTARTUP
290
     0
  0
ENDSEC
  0
SECTION
  2
CLASSES
  0
CLASS
  1
ACDBDICTIONARYWDFLT
  2
AcDbDictionaryWithDefault
  3
ObjectDBX Classes
 90
        0
280
     0
281
     0
  0
CLASS
  1
VISUALSTYLE
  2
AcDbVisualStyle
  3
ObjectDBX Classes
 90
     4095
280
     0
281
     0
  0
CLASS
  1
MATERIAL
  2
AcDbMaterial
  3
ObjectDBX Classes
 90
     1153
280
     0
281
     0
  0
CLASS
  1
SCALE
  2
AcDbScale
  3
ObjectDBX Classes
 90
     1153
280
     0
281
     0
  0
CLASS
  1
TABLESTYLE
  2
AcDbTableStyle
  3
ObjectDBX Classes
 90
     4095
280
     0
281
     0
  0
CLASS
  1
MLEADERSTYLE
  2
AcDbMLeaderStyle
  3
ACDB_MLEADERSTYLE_CLASS
 90
     4095
280
     0
281
     0
  0
CLASS
  1
SUN
  2
AcDbSun
  3
SCENEOE
 90
     1153
280
     0
281
     0
  0
CLASS
  1
ACDBPLACEHOLDER
  2
AcDbPlaceHolder
  3
ObjectDBX Classes
 90
        0
280
     0
281
     0
  0
CLASS
  1
LAYOUT
  2
AcDbLayout
  3
ObjectDBX Classes
 90
        0
280
     0
281
     0
  0
ENDSEC
  0
SECTION
  2
TABLES
  0
TABLE
  2
VPORT
  5
8
330
0
100
AcDbSymbolTable
 70
     1
  0
VPORT
  5
29
330
8
100
AcDbSymbolTableRecord
100
AcDbViewportTableRecord
  2
*Active
 70
     0
 10
0.0
 20
0.0
 11
1.0
 21
1.0
 12
29.9442246284
 22
26.605929307
 13
0.0
 23
0.0
 14
10.0
 24
10.0
 15
10.0
 25
10.0
 16
0.0
 26
0.0
 36
1.0
 17
0.0
 27
0.0
 37
0.0
 40
55.6438253996
 41
1.1066370133
 42
50.0
 43
0.0
 44
0.0
 50
0.0
 51
0.0
 71
     0
 72
   100
 73
     1
 74
     3
 75
     0
 76
     0
 77
     0
 78
     0
281
     0
 65
     1
110
0.0
120
0.0
130
0.0
111
1.0
121
0.0
131
0.0
112
0.0
122
1.0
132
0.0
 79
     0
146
0.0
  0
ENDTAB
  0
TABLE
  2
LTYPE
  5
5
330
0
100
AcDbSymbolTable
 70
     6
  0
LTYPE
  5
14
330
5
100
AcDbSymbolTableRecord
100
AcDbLinetypeTableRecord
  2
ByBlock
 70
     0
  3

 72
    65
 73
     0
 40
0.0
  0
LTYPE
  5
15
330
5
100
AcDbSymbolTableRecord
100
AcDbLinetypeTableRecord
  2
ByLayer
 70
     0
  3

 72
    65
 73
     0
 40
0.0
  0
LTYPE
  5
16
330
5
100
AcDbSymbolTableRecord
100
AcDbLinetypeTableRecord
  2
Continuous
 70
     0
  3
Solid line
 72
    65
 73
     0
 40
0.0
  0
LTYPE
  5
5E
330
5
100
AcDbSymbolTableRecord
100
AcDbLinetypeTableRecord
  2
HIDDEN
 70
     0
  3
Hidden __ __ __ __ __ __ __ __ __ __ __ __ __ __
 72
    65
 73
     2
 40
1.905
 49
1.27
 74
     0
 49
-0.635
 74
     0
  0
LTYPE
  5
5F
330
5
100
AcDbSymbolTableRecord
100
AcDbLinetypeTableRecord
  2
PHANTOM
 70
     0
  3
Phantom ______  __  __  ______  __  __  ______
 72
    65
 73
     6
 40
12.7
 49
6.35
 74
     0
 49
-1.27
 74
     0
 49
1.27
 74
     0
 49
-1.27
 74
     0
 49
1.27
 74
     0
 49
-1.27
 74
     0
  0
LTYPE
  5
60
330
5
100
AcDbSymbolTableRecord
100
AcDbLinetypeTableRecord
  2
CENTER
 70
     0
  3
Center ____ _ ____ _ ____ _ ____ _ ____ _ ____
 72
    65
 73
     4
 40
10.16
 49
6.35
 74
     0
 49
-1.27
 74
     0
 49
1.27
 74
     0
 49
-1.27
 74
     0
  0
LTYPE
  5
61
330
5
100
AcDbSymbolTableRecord
100
AcDbLinetypeTableRecord
  2
CENTERX2
 70
     0
  3
Center (2x) ________  __  ________  __  _____
 72
    65
 73
     4
 40
20.32
 49
12.7
 74
     0
 49
-2.54
 74
     0
 49
2.54
 74
     0
 49
-2.54
 74
     0
  0
LTYPE
  5
62
330
5
100
AcDbSymbolTableRecord
100
AcDbLinetypeTableRecord
  2
DOT2
 70
     0
  3
Dot (.5x) ........................................
 72
    65
 73
     2
 40
0.635
 49
0.0
 74
     0
 49
-0.635
 74
     0
  0
ENDTAB
  0
TABLE
  2
LAYER
  5
2
330
0
100
AcDbSymbolTable
 70
     1
  0
LAYER
  5
10
330
2
100
AcDbSymbolTableRecord
100
AcDbLayerTableRecord
  2
0
 70
     0
 62
     7
  6
Continuous
370
    -3
390
F
  0
ENDTAB
  0
TABLE
  2
STYLE
  5
3
330
0
100
AcDbSymbolTable
 70
     2
  0
STYLE
  5
11
330
3
100
AcDbSymbolTableRecord
100
AcDbTextStyleTableRecord
  2
Standard
 70
     0
 40
0.0
 41
1.0
 50
0.0
 71
     0
 42
3.5
  3
txt
  4

  0
STYLE
  5
196
330
3
100
AcDbSymbolTableRecord
100
AcDbTextStyleTableRecord
  2
SLDTEXTSTYLE0
 70
     0
 40
0.0
 41
0.7
 50
0.0
 71
     0
 42
3.5
  3
TXT
  4

  0
ENDTAB
  0
TABLE
  2
VIEW
  5
6
330
0
100
AcDbSymbolTable
 70
     0
  0
ENDTAB
  0
TABLE
  2
UCS
  5
7
330
0
100
AcDbSymbolTable
 70
     0
  0
ENDTAB
  0
TABLE
  2
APPID
  5
9
330
0
100
AcDbSymbolTable
 70
     1
  0
APPID
  5
12
330
9
100
AcDbSymbolTableRecord
100
AcDbRegAppTableRecord
  2
ACAD
 70
     0
  0
ENDTAB
  0
TABLE
  2
DIMSTYLE
  5
A
330
0
100
AcDbSymbolTable
 70
     1
100
AcDbDimStyleTable
  0
DIMSTYLE
105
27
330
A
100
AcDbSymbolTableRecord
100
AcDbDimStyleTableRecord
  2
ISO-25
 70
     0
 41
2.5
 42
0.625
 43
3.75
 44
1.25
 73
     0
 74
     0
 77
     1
 78
     8
140
2.5
141
2.5
143
0.0393700787
147
0.625
171
     3
172
     1
178
     0
271
     2
272
     2
274
     3
278
    44
283
     0
284
     8
340
11
  0
ENDTAB
  0
TABLE
  2
BLOCK_RECORD
  5
1
330
0
100
AcDbSymbolTable
 70
     1
  0
BLOCK_RECORD
  5
1F
330
1
100
AcDbSymbolTableRecord
100
AcDbBlockTableRecord
  2
*Model_Space
340
22
  0
BLOCK_RECORD
  5
1B
330
1
100
AcDbSymbolTableRecord
100
AcDbBlockTableRecord
  2
*Paper_Space
340
1E
  0
BLOCK_RECORD
  5
23
330
1
100
AcDbSymbolTableRecord
100
AcDbBlockTableRecord
  2
*Paper_Space0
340
26
  0
ENDTAB
  0
ENDSEC
  0
SECTION
  2
BLOCKS
  0
BLOCK
  5
20
330
1F
100
AcDbEntity
  8
0
100
AcDbBlockBegin
  2
*Model_Space
 70
     0
 10
0.0
 20
0.0
 30
0.0
  3
*Model_Space
  1

  0
ENDBLK
  5
21
330
1F
100
AcDbEntity
  8
0
100
AcDbBlockEnd
  0
BLOCK
  5
1C
330
1B
100
AcDbEntity
 67
     1
  8
0
100
AcDbBlockBegin
  2
*Paper_Space
 70
     0
 10
0.0
 20
0.0
 30
0.0
  3
*Paper_Space
  1

  0
ENDBLK
  5
1D
330
1B
100
AcDbEntity
 67
     1
  8
0
100
AcDbBlockEnd
  0
BLOCK
  5
24
330
23
100
AcDbEntity
  8
0
100
AcDbBlockBegin
  2
*Paper_Space0
 70
     0
 10
0.0
 20
0.0
 30
0.0
  3
*Paper_Space0
  1

  0
ENDBLK
  5
25
330
23
100
AcDbEntity
  8
0
100
AcDbBlockEnd
  0
ENDSEC
  0
SECTION
  2
ENTITIES
  0
LWPOLYLINE
  5
63
330
1F
100
AcDbEntity
  8
0
  6
Continuous
 62
     7
100
AcDbPolyline
 90
        9
 70
   128
 43
0.0
 10
20.6789167144
 20
34.011050338
 10
21.7762809957
 20
34.1322022498
 10
22.8654183087
 20
34.3119052156
 10
23.9432098605
 20
34.5496446479
 10
25.0065693475
 20
34.8447397694
 10
26.0524517928
 20
35.1963455622
 10
27.0778622659
 20
35.6034551875
 10
28.0798644586
 20
36.064902869
 10
29.0555890934
 20
36.5793672309
  0
LWPOLYLINE
  5
64
330
1F
100
AcDbEntity
  8
0
  6
Continuous
 62
     7
100
AcDbPolyline
 90
        9
 70
   128
 43
0.0
 10
21.0117122363
 20
24.6406380454
 10
21.6267170015
 20
23.1893220521
 10
22.4183501573
 20
21.8258884465
 10
23.3741533236
 20
20.5717943568
 10
24.4790844834
 20
19.4467761736
 10
25.715754708
 20
18.4685389464
 10
27.0647018164
 20
17.6524777495
 10
28.5046966624
 20
17.0114354011
 10
30.0130772299
 20
16.5555003485
  0
LWPOLYLINE
  5
65
330
1F
100
AcDbEntity
  8
0
  6
Continuous
 62
     7
100
AcDbPolyline
 90
        9
 70
   128
 43
0.0
 10
32.9088710399
 20
17.487188512
 10
33.1285014239
 20
17.6319165856
 10
33.3474449729
 20
17.7776791366
 10
33.5656968341
 20
17.9244729343
 10
33.7832521704
 20
18.0722947254
 10
34.0001061599
 20
18.2211412335
 10
34.2162539965
 20
18.3710091596
 10
34.4316908895
 20
18.5218951822
 10
34.646412064
 20
18.6737959571
  0
LWPOLYLINE
  5
66
330
1F
100
AcDbEntity
  8
0
  6
Continuous
 62
     7
100
AcDbPolyline
 90
        9
 70
   128
 43
0.0
 10
29.7179571621
 20
38.8433152655
 10
29.7816903455
 20
38.707957898
 10
29.863534715
 20
38.5826804981
 10
29.9619116431
 20
38.4698994367
 10
30.0749236193
 20
38.3717900537
 10
30.2003908501
 20
38.2902446987
 10
30.3358933031
 20
38.2268362322
 10
30.4788173845
 20
38.1827876868
 10
30.6264063513
 20
38.1589486783
  0
LWPOLYLINE
  5
67
330
1F
100
AcDbEntity
  8
0
  6
Continuous
 62
     7
100
AcDbPolyline
 90
        9
 70
   128
 43
0.0
 10
30.9271706539
 20
37.9771331367
 10
31.0430314407
 20
37.9439589465
 10
31.1613804214
 20
37.9213600827
 10
31.2812531527
 20
37.9095207068
 10
31.4016727743
 20
37.9085372997
 10
31.5216579688
 20
37.9184178753
 10
31.6402309593
 20
37.9390819152
 10
31.7564254771
 20
37.9703610253
 10
31.869294636
 20
38.0120003074
  0
LWPOLYLINE
  5
68
330
1F
100
AcDbEntity
  8
0
  6
Continuous
 62
     7
100
AcDbPolyline
 90
        9
 70
   128
 43
0.0
 10
32.7543259205
 20
38.6245391755
 10
32.8500087262
 20
38.7029767281
 10
32.9360708575
 20
38.7918604341
 10
33.0113851374
 20
38.8900261617
 10
33.0749651562
 20
38.9961882103
 10
33.1259781907
 20
39.1089561492
 10
33.1637561107
 20
39.2268530291
 10
33.1878041295
 20
39.3483347255
 10
33.1978072842
 20
39.4718101627
  0
LWPOLYLINE
  5
69
330
1F
100
AcDbEntity
  8
0
  6
Continuous
 62
     7
100
AcDbPolyline
 90
        9
 70
   128
 43
0.0
 10
33.5575404709
 20
38.9423423061
 10
33.4418872035
 20
38.8888609444
 10
33.3364940531
 20
38.8173040108
 10
33.2441515105
 20
38.7295661157
 10
33.167304526
 20
38.6279702925
 10
33.1079877748
 20
38.5152064902
 10
33.0677717843
 20
38.3942603523
 10
33.047721352
 20
38.2683341655
 10
33.0483673525
 20
38.1407620731
  0
LWPOLYLINE
  5
6A
330
1F
100
AcDbEntity
  8
0
  6
Continuous
 62
     7
100
AcDbPolyline
 90
        9
 70
   128
 43
0.0
 10
32.8012234566
 20
38.0944609735
 10
32.5190985979
 20
37.9699574609
 10
32.2450821787
 20
37.8285731855
 10
31.9801800971
 20
37.6708271607
 10
31.7253647928
 20
37.4972984629
 10
31.4815716778
 20
37.3086241054
 10
31.2496957021
 20
37.1054967008
 10
31.0305880686
 20
36.8886619176
 10
30.8250531084
 20
36.6589157434
  0
LWPOLYLINE
  5
6B
330
1F
100
AcDbEntity
  8
0
  6
Continuous
 62
     7
100
AcDbPolyline
 90
        9
 70
   128
 43
0.0
 10
21.7444022516
 20
33.0218721085
 10
22.7189880078
 20
33.1888479563
 10
23.6897218857
 20
33.3766196301
 10
24.656160736
 20
33.5851014102
 10
25.6178633701
 20
33.8141981228
 10
26.5743907617
 20
34.063805183
 10
27.5253062471
 20
34.3338086429
 10
28.4701757243
 20
34.6240852434
 10
29.4085678514
 20
34.9345024703
  0
LWPOLYLINE
  5
6C
330
1F
100
AcDbEntity
  8
0
  6
Continuous
 62
     7
100
AcDbPolyline
 90
        9
 70
   128
 43
0.0
 10
21.7173388318
 20
27.035011728
 10
21.7398901374
 20
26.5791779855
 10
21.7924893524
 20
26.1257387874
 10
21.8749068253
 20
25.6766738795
 10
21.9867827157
 20
25.2339439092
 10
22.127628566
 20
24.7994818653
 10
22.2968294339
 20
24.375184638
 10
22.493646577
 20
23.9629047375
 10
22.7172206785
 20
23.5644422054
  0
LWPOLYLINE
  5
6D
330
1F
100
AcDbEntity
  8
0
  6
Continuous
 62
     7
100
AcDbPolyline
 90
        9
 70
   128
 43
0.0
 10
24.355383916
 20
21.4850362356
 10
24.8984639086
 20
20.94556452
 10
25.466903337
 20
20.4328955964
 10
26.0593735276
 20
19.9482277803
 10
26.674489637
 20
19.4926939372
 10
27.3108138891
 20
19.0673588344
 10
27.966858936
 20
18.6732166529
 10
28.641091334
 20
18.3111886628
 10
29.3319351283
 20
17.9821210707
  0
LWPOLYLINE
  5
6E
330
1F
100
AcDbEntity
  8
0
  6
Continuous
 62
     7
100
AcDbPolyline
 90
        9
 70
   128
 43
0.0
 10
29.3865219205
 20
30.0575907076
 10
28.6651959145
 20
29.5982726253
 10
28.1026436912
 20
28.9543317784
 10
27.7442194708
 20
28.1776841206
 10
27.618820217
 20
27.3309447257
 10
27.7365558985
 20
26.4823796206
 10
28.0879344009
 20
25.7004020248
 10
28.6446268023
 20
25.0480567239
 10
29.3617513142
 20
24.5779372571
  0
LWPOLYLINE
  5
6F
330
1F
100
AcDbEntity
  8
0
  6
Continuous
 62
     7
100
AcDbPolyline
 90
        9
 70
   128
 43
0.0
 10
30.5895543709
 20
30.0067024623
 10
31.4454419407
 20
29.61738081
 10
32.1240833017
 20
28.9660399518
 10
32.5482831374
 20
28.1267697776
 10
32.669788803
 20
27.1950370987
 10
32.4747790536
 20
26.2768263175
 10
31.9854362087
 20
25.4765837232
 10
31.257422917
 20
24.8853367481
 10
30.3735505422
 20
24.5703396149
  0
LWPOLYLINE
  5
70
330
1F
100
AcDbEntity
  8
0
  6
Continuous
 62
     7
100
AcDbPolyline
 90
        9
 70
   128
 43
0.0
 10
30.6135690213
 20
35.3191264033
 10
31.514360063
 20
34.9638961041
 10
32.4264725484
 20
34.6390581561
 10
33.3488792149
 20
34.3449784065
 10
34.2805412064
 20
34.0819880614
 10
35.2204092428
 20
33.8503833124
 10
36.167424802
 20
33.6504250033
 10
37.1205213122
 20
33.4823383362
 10
38.0786253527
 20
33.346312618
  0
LWPOLYLINE
  5
71
330
1F
100
AcDbEntity
  8
0
  6
Continuous
 62
     7
100
AcDbPolyline
 90
        9
 70
   128
 43
0.0
 10
38.0513906769
 20
27.3215676758
 10
38.0058765421
 20
26.6606232865
 10
37.9081834385
 20
26.0055115016
 10
37.7589243542
 20
25.3603429051
 10
37.5590358347
 20
24.7291656912
 10
37.3097721066
 20
24.1159402633
 10
37.0126972073
 20
23.5245143839
 10
36.6696751721
 20
22.9585990317
 10
36.2828583372
 20
22.421745116
  0
LWPOLYLINE
  5
72
330
1F
100
AcDbEntity
  8
0
  6
Continuous
 62
     7
100
AcDbPolyline
 90
        9
 70
   128
 43
0.0
 10
30.3064222606
 20
17.9748036065
 10
30.7765150031
 20
18.2650642493
 10
31.244525308
 20
18.5586614311
 10
31.7104295851
 20
18.8555803532
 10
32.1742043506
 20
19.1558060494
 10
32.6358262278
 20
19.4593233868
 10
33.0952719487
 20
19.7661170665
 10
33.5525183548
 20
20.0761716247
 10
34.0075423986
 20
20.3894714329
  0
LWPOLYLINE
  5
73
330
1F
100
AcDbEntity
  8
0
  6
Continuous
 62
     7
100
AcDbPolyline
 90
        9
 70
   128
 43
0.0
 10
27.9672321933
 20
32.4057777318
 10
28.1395434005
 20
32.4626919968
 10
28.315359058
 20
32.5077514298
 10
28.4938661234
 20
32.5407476577
 10
28.6742391084
 20
32.5615280929
 10
28.8556438957
 20
32.5699966381
 10
29.0372415966
 20
32.5661141315
 10
29.2181924303
 20
32.5498985273
 10
29.3976596074
 20
32.5214248129
  0
LWPOLYLINE
  5
74
330
1F
100
AcDbEntity
  8
0
  6
Continuous
 62
     7
100
AcDbPolyline
 90
        9
 70
   128
 43
0.0
 10
25.6881157987
 20
31.7990937968
 10
25.7698431314
 20
31.8546943197
 10
25.8534280111
 20
31.9074683606
 10
25.9387731212
 20
31.9573544758
 10
26.025779096
 20
32.0042945835
 10
26.1143446358
 20
32.0482340323
 10
26.2043666252
 20
32.0891216641
 10
26.2957402533
 20
32.1269098743
 10
26.3883591352
 20
32.1615546665
  0
LWPOLYLINE
  5
75
330
1F
100
AcDbEntity
  8
0
  6
Continuous
 62
     7
100
AcDbPolyline
 90
        9
 70
   128
 43
0.0
 10
24.546323162
 20
30.8308446148
 10
24.4473275432
 20
30.7372437963
 10
24.3535070443
 20
30.6384557892
 10
24.2651314265
 20
30.5347646375
 10
24.1824547953
 20
30.4264684833
 10
24.10571487
 20
30.3138787097
 10
24.0351323003
 20
30.1973190449
 10
23.9709100314
 20
30.0771246317
 10
23.9132327211
 20
29.9536410639
  0
LWPOLYLINE
  5
76
330
1F
100
AcDbEntity
  8
0
  6
Continuous
 62
     7
100
AcDbPolyline
 90
        9
 70
   128
 43
0.0
 10
23.2875810401
 20
28.4818464101
 10
23.265961283
 20
28.3517957098
 10
23.2503151708
 20
28.2208744098
 10
23.2406754536
 20
28.0893565498
 10
23.2370623087
 20
27.9575174183
 10
23.2394832992
 20
27.8256329762
 10
23.2479333575
 20
27.6939792793
 10
23.2623947961
 20
27.5628319005
 10
23.282837345
 20
27.4324653526
  0
LWPOLYLINE
  5
77
330
1F
100
AcDbEntity
  8
0
  6
Continuous
 62
     7
100
AcDbPolyline
 90
        9
 70
   128
 43
0.0
 10
23.4670995206
 20
25.8181212175
 10
23.484410385
 20
25.684699223
 10
23.5124162825
 20
25.5530750196
 10
23.5509349002
 20
25.4241054548
 10
23.5997154895
 20
25.2986300948
 10
23.6584404984
 20
25.1774657595
 10
23.7267276388
 20
25.0614012045
 10
23.8041323749
 20
24.9511919872
 10
23.8901508173
 20
24.8475555477
  0
LWPOLYLINE
  5
78
330
1F
100
AcDbEntity
  8
0
  6
Continuous
 62
     7
100
AcDbPolyline
 90
        9
 70
   128
 43
0.0
 10
24.7651111288
 20
23.4551474033
 10
24.8583799171
 20
23.3498733924
 10
24.957101231
 20
23.2496931482
 10
25.0609955538
 20
23.1548903178
 10
25.1697687225
 20
23.065733323
 10
25.2831127599
 20
22.9824746004
 10
25.4007067474
 20
22.9053498859
 10
25.5222177328
 20
22.8345775482
 10
25.6473016737
 20
22.7703579699
  0
LWPOLYLINE
  5
79
330
1F
100
AcDbEntity
  8
0
  6
Continuous
 62
     7
100
AcDbPolyline
 90
        9
 70
   128
 43
0.0
 10
27.0076420516
 20
22.0156353436
 10
27.1161259674
 20
21.9708549316
 10
27.2268069527
 20
21.9318617938
 10
27.3393758568
 20
21.8987648447
 10
27.4535182556
 20
21.8716565296
 10
27.5689153301
 20
21.8506125667
 10
27.6852447566
 20
21.8356917354
 10
27.8021816073
 20
21.826935712
 10
27.9193992576
 20
21.8243689536
  0
LWPOLYLINE
  5
7A
330
1F
100
AcDbEntity
  8
0
  6
Continuous
 62
     7
100
AcDbPolyline
 90
       17
 70
   128
 43
0.0
 10
32.1087666933
 20
33.3835553875
 10
32.0197588721
 20
33.5512939393
 10
31.873441085
 20
33.6723918622
 10
31.6920888889
 20
33.7284130951
 10
31.5033115116
 20
33.7108289132
 10
31.3358485974
 20
33.6223163487
 10
31.2151948571
 20
33.4763506372
 10
31.1597187289
 20
33.2951537351
 10
31.1778659504
 20
33.1063112283
 10
31.2668737716
 20
32.9385726764
 10
31.4131915586
 20
32.8174747536
 10
31.5945437547
 20
32.7614535207
 10
31.7833211321
 20
32.7790377026
 10
31.9507840462
 20
32.8675502671
 10
32.0714377865
 20
33.0135159786
 10
32.1269139147
 20
33.1947128806
 10
32.1087666933
 20
33.3835553875
  0
LWPOLYLINE
  5
7B
330
1F
100
AcDbEntity
  8
0
  6
Continuous
 62
     7
100
AcDbPolyline
 90
       17
 70
   128
 43
0.0
 10
31.7866640087
 20
33.2876256241
 10
31.7592517086
 20
33.339285124
 10
31.7141892967
 20
33.3765804152
 10
31.658337117
 20
33.3938336277
 10
31.6001981573
 20
33.3884181163
 10
31.5486235473
 20
33.3611583434
 10
31.5114650538
 20
33.3162043625
 10
31.4943797206
 20
33.2604000096
 10
31.4999686349
 20
33.2022409916
 10
31.527380935
 20
33.1505814917
 10
31.5724433469
 20
33.1132862005
 10
31.6282955267
 20
33.0960329881
 10
31.6864344864
 20
33.1014484995
 10
31.7380090964
 20
33.1287082723
 10
31.7751675898
 20
33.1736622532
 10
31.792252923
 20
33.2294666061
 10
31.7866640087
 20
33.2876256241
  0
LWPOLYLINE
  5
7C
330
1F
100
AcDbEntity
  8
0
  6
Continuous
 62
     7
100
AcDbPolyline
 90
       17
 70
   128
 43
0.0
 10
34.5344091902
 20
33.7861557375
 10
34.4498110888
 20
33.9455840082
 10
34.3107423327
 20
34.0606823695
 10
34.1383748792
 20
34.1139281391
 10
33.9589501107
 20
34.0972151314
 10
33.7997838218
 20
34.0130877501
 10
33.6851076369
 20
33.8743536266
 10
33.6323799658
 20
33.7021337735
 10
33.6496281184
 20
33.5226471022
 10
33.7342262198
 20
33.3632188315
 10
33.873294976
 20
33.2481204702
 10
34.0456624294
 20
33.1948747006
 10
34.2250871979
 20
33.2115877083
 10
34.3842534869
 20
33.2957150896
 10
34.4989296717
 20
33.4344492131
 10
34.5516573428
 20
33.6066690662
 10
34.5344091902
 20
33.7861557375
  0
LWPOLYLINE
  5
7D
330
1F
100
AcDbEntity
  8
0
  6
Continuous
 62
     7
100
AcDbPolyline
 90
       17
 70
   128
 43
0.0
 10
34.2834335466
 20
33.7114092816
 10
34.2468293809
 20
33.7803911942
 10
34.1866566855
 20
33.8301923057
 10
34.1120762077
 20
33.8532308484
 10
34.0344421492
 20
33.845999413
 10
33.9655735917
 20
33.80959892
 10
33.9159551488
 20
33.7495710145
 10
33.8931407785
 20
33.6750544008
 10
33.900603762
 20
33.5973935581
 10
33.9372079277
 20
33.5284116455
 10
33.9973806231
 20
33.478610534
 10
34.0719611009
 20
33.4555719913
 10
34.1495951594
 20
33.4628034267
 10
34.2184637169
 20
33.4992039197
 10
34.2680821599
 20
33.5592318252
 10
34.2908965301
 20
33.6337484388
 10
34.2834335466
 20
33.7114092816
  0
LWPOLYLINE
  5
7E
330
1F
100
AcDbEntity
  8
0
  6
Continuous
 62
     7
100
AcDbPolyline
 90
       17
 70
   128
 43
0.0
 10
37.4686754998
 20
33.0487520038
 10
37.377890902
 20
33.2198389573
 10
37.2286523153
 20
33.3433542403
 10
37.0436799615
 20
33.4004937706
 10
36.8511342049
 20
33.3825585728
 10
36.6803283915
 20
33.292279118
 10
36.5572661578
 20
33.1433996349
 10
36.5006826136
 20
32.9585856753
 10
36.5191920904
 20
32.7659734891
 10
36.6099766882
 20
32.5948865356
 10
36.759215275
 20
32.4713712526
 10
36.9441876287
 20
32.4142317223
 10
37.1367333853
 20
32.4321669201
 10
37.3075391988
 20
32.5224463749
 10
37.4306014324
 20
32.671325858
 10
37.4871849766
 20
32.8561398176
 10
37.4686754998
 20
33.0487520038
  0
LWPOLYLINE
  5
7F
330
1F
100
AcDbEntity
  8
0
  6
Continuous
 62
     7
100
AcDbPolyline
 90
       17
 70
   128
 43
0.0
 10
37.1677686113
 20
32.9591348476
 10
37.134526274
 20
33.0217812695
 10
37.0798800063
 20
33.0670085084
 10
37.012149207
 20
33.0879311273
 10
36.9416452764
 20
33.081363847
 10
36.8791017988
 20
33.0483064765
 10
36.8340404516
 20
32.9937917008
 10
36.8133214166
 20
32.9261189002
 10
36.8200989789
 20
32.8555906453
 10
36.8533413162
 20
32.7929442234
 10
36.9079875839
 20
32.7477169845
 10
36.9757183832
 20
32.7267943656
 10
37.0462223138
 20
32.7333616459
 10
37.1087657914
 20
32.7664190164
 10
37.1538271386
 20
32.8209337921
 10
37.1745461736
 20
32.8886065927
 10
37.1677686113
 20
32.9591348476
  0
LWPOLYLINE
  5
80
330
1F
100
AcDbEntity
  8
0
  6
Continuous
 62
     7
100
AcDbPolyline
 90
       17
 70
   128
 43
0.0
 10
36.9249262775
 20
31.4469515989
 10
36.8186865392
 20
31.64716434
 10
36.6440416237
 20
31.7917068248
 10
36.4275796363
 20
31.8585737703
 10
36.2022549523
 20
31.8375852901
 10
36.0023712124
 20
31.7319366902
 10
35.8583589039
 20
31.5577120121
 10
35.7921425954
 20
31.3414353837
 10
35.8138031196
 20
31.1160329612
 10
35.920042858
 20
30.91582022
 10
36.0946877734
 20
30.7712777352
 10
36.3111497608
 20
30.7044107897
 10
36.5364744448
 20
30.7253992699
 10
36.7363581847
 20
30.8310478699
 10
36.8803704932
 20
31.005272548
 10
36.9465868017
 20
31.2215491763
 10
36.9249262775
 20
31.4469515989
  0
LWPOLYLINE
  5
81
330
1F
100
AcDbEntity
  8
0
  6
Continuous
 62
     7
100
AcDbPolyline
 90
       17
 70
   128
 43
0.0
 10
36.5824379481
 20
31.3449505105
 10
36.5416920666
 20
31.4217376408
 10
36.4747109054
 20
31.4771736863
 10
36.3916917392
 20
31.5028190115
 10
36.3052734835
 20
31.4947693481
 10
36.2286125342
 20
31.4542501845
 10
36.1733798261
 20
31.387430196
 10
36.1479840382
 20
31.3044821202
 10
36.156291449
 20
31.2180340495
 10
36.1970373305
 20
31.1412469192
 10
36.2640184917
 20
31.0858108738
 10
36.3470376579
 20
31.0601655486
 10
36.4334559137
 20
31.0682152119
 10
36.5101168629
 20
31.1087343755
 10
36.565349571
 20
31.175554364
 10
36.5907453589
 20
31.2585024399
 10
36.5824379481
 20
31.3449505105
  0
LWPOLYLINE
  5
82
330
1F
100
AcDbEntity
  8
0
  6
Continuous
 62
     7
100
AcDbPolyline
 90
       17
 70
   128
 43
0.0
 10
37.8974951671
 20
28.950514423
 10
37.8318523539
 20
29.0742207477
 10
37.7239437339
 20
29.1635298468
 10
37.5901974162
 20
29.2048452198
 10
37.4509750653
 20
29.1918769754
 10
37.327472022
 20
29.1265994115
 10
37.2384905053
 20
29.0189504454
 10
37.1975771442
 20
28.8853186563
 10
37.2109606273
 20
28.7460482727
 10
37.2766034405
 20
28.6223419481
 10
37.3845120606
 20
28.5330328489
 10
37.5182583783
 20
28.491717476
 10
37.6574807292
 20
28.5046857203
 10
37.7809837724
 20
28.5699632842
 10
37.8699652892
 20
28.6776122504
 10
37.9108786502
 20
28.8112440395
 10
37.8974951671
 20
28.950514423
  0
LWPOLYLINE
  5
83
330
1F
100
AcDbEntity
  8
0
  6
Continuous
 62
     7
100
AcDbPolyline
 90
       17
 70
   128
 43
0.0
 10
37.7110621018
 20
28.8949902666
 10
37.6810707822
 20
28.9515100246
 10
37.6317687832
 20
28.9923141524
 10
37.5706618872
 20
29.0111905913
 10
37.5070530653
 20
29.0052655747
 10
37.4506261838
 20
28.9754411326
 10
37.4099717241
 20
28.926257766
 10
37.391278959
 20
28.8652031966
 10
37.3973936927
 20
28.8015724291
 10
37.4273850122
 20
28.7450526711
 10
37.4766870112
 20
28.7042485434
 10
37.5377939072
 20
28.6853721045
 10
37.6014027292
 20
28.6912971211
 10
37.6578296106
 20
28.7211215632
 10
37.6984840703
 20
28.7703049298
 10
37.7171768354
 20
28.8313594992
 10
37.7110621018
 20
28.8949902666
  0
LWPOLYLINE
  5
84
330
1F
100
AcDbEntity
  8
0
  6
Continuous
 62
     7
100
AcDbPolyline
 90
       17
 70
   128
 43
0.0
 10
37.7541786308
 20
25.8292776574
 10
37.6800006017
 20
25.9690689142
 10
37.5580611483
 20
26.0699904414
 10
37.406924447
 20
26.1166778514
 10
37.2495996906
 20
26.1020234093
 10
37.1100381469
 20
26.0282581211
 10
37.0094867961
 20
25.9066120832
 10
36.9632536696
 20
25.7556048021
 10
36.9783773419
 20
25.5982257675
 10
37.052555371
 20
25.4584345108
 10
37.1744948244
 20
25.3575129835
 10
37.3256315257
 20
25.3108255735
 10
37.4829562822
 20
25.3254800156
 10
37.6225178258
 20
25.3992453038
 10
37.7230691767
 20
25.5208913418
 10
37.7693023031
 20
25.6718986229
 10
37.7541786308
 20
25.8292776574
  0
LWPOLYLINE
  5
85
330
1F
100
AcDbEntity
  8
0
  6
Continuous
 62
     7
100
AcDbPolyline
 90
       17
 70
   128
 43
0.0
 10
37.5174569076
 20
25.7587763547
 10
37.4885470448
 20
25.8132580672
 10
37.4410228262
 20
25.8525908392
 10
37.3821193833
 20
25.8707866128
 10
37.3208042313
 20
25.8650752463
 10
37.2664120463
 20
25.8363262435
 10
37.2272235454
 20
25.7889163795
 10
37.2092048226
 20
25.7300633764
 10
37.2150990651
 20
25.6687270702
 10
37.2440089279
 20
25.6142453577
 10
37.2915331465
 20
25.5749125857
 10
37.3504365894
 20
25.5567168122
 10
37.4117517414
 20
25.5624281786
 10
37.4661439264
 20
25.5911771814
 10
37.5053324273
 20
25.6385870454
 10
37.5233511501
 20
25.6974400486
 10
37.5174569076
 20
25.7587763547
  0
LWPOLYLINE
  5
86
330
1F
100
AcDbEntity
  8
0
  6
Continuous
 62
     7
100
AcDbPolyline
 90
       17
 70
   128
 43
0.0
 10
36.7870509009
 20
24.4828949022
 10
36.6922886072
 20
24.6614779715
 10
36.5365111833
 20
24.790405034
 10
36.3434343297
 20
24.8500481131
 10
36.1424522472
 20
24.8313270908
 10
35.9641626359
 20
24.7370920728
 10
35.835708473
 20
24.5816894866
 10
35.7766457402
 20
24.388777967
 10
35.7959662034
 20
24.1877265443
 10
35.890728497
 20
24.009143475
 10
36.046505921
 20
23.8802164125
 10
36.2395827746
 20
23.8205733333
 10
36.4405648571
 20
23.8392943557
 10
36.6188544684
 20
23.9335293737
 10
36.7473086313
 20
24.0889319599
 10
36.806371364
 20
24.2818434795
 10
36.7870509009
 20
24.4828949022
  0
LWPOLYLINE
  5
87
330
1F
100
AcDbEntity
  8
0
  6
Continuous
 62
     7
100
AcDbPolyline
 90
       17
 70
   128
 43
0.0
 10
36.4740089814
 20
24.389663648
 10
36.4391095236
 20
24.4554329751
 10
36.381739156
 20
24.5029147783
 10
36.3106319968
 20
24.5248803834
 10
36.2366134666
 20
24.5179857262
 10
36.1709522154
 20
24.4832804557
 10
36.1236445738
 20
24.4260481349
 10
36.1018927011
 20
24.3550018656
 10
36.1090081229
 20
24.2809577985
 10
36.1439075806
 20
24.2151884714
 10
36.2012779483
 20
24.1677066682
 10
36.2723851074
 20
24.1457410631
 10
36.3464036377
 20
24.1526357203
 10
36.4120648888
 20
24.1873409908
 10
36.4593725305
 20
24.2445733116
 10
36.4811244032
 20
24.3156195809
 10
36.4740089814
 20
24.389663648
  0
LWPOLYLINE
  5
88
330
1F
100
AcDbEntity
  8
0
  6
Continuous
 62
     7
100
AcDbPolyline
 90
       17
 70
   128
 43
0.0
 10
31.727151002
 20
19.3140333225
 10
31.6491598996
 20
19.4610104577
 10
31.520952228
 20
19.5671197903
 10
31.3620464431
 20
19.6162071363
 10
31.1966345099
 20
19.6007993922
 10
31.0498988961
 20
19.5232422473
 10
30.9441787685
 20
19.395343074
 10
30.8955690582
 20
19.236573362
 10
30.9114701531
 20
19.0711043606
 10
30.9894612555
 20
18.9241272254
 10
31.1176689271
 20
18.8180178928
 10
31.2765747121
 20
18.7689305468
 10
31.4419866452
 20
18.7843382909
 10
31.5887222591
 20
18.8618954358
 10
31.6944423867
 20
18.9897946091
 10
31.7430520969
 20
19.1485643211
 10
31.727151002
 20
19.3140333225
  0
LWPOLYLINE
  5
89
330
1F
100
AcDbEntity
  8
0
  6
Continuous
 62
     7
100
AcDbPolyline
 90
       17
 70
   128
 43
0.0
 10
31.4770266827
 20
19.2395404111
 10
31.4468667177
 20
19.2963779875
 10
31.3972874868
 20
19.3374115625
 10
31.3358369782
 20
19.3563941463
 10
31.271870475
 20
19.3504358125
 10
31.2151262973
 20
19.3204436634
 10
31.1742432319
 20
19.2709837319
 10
31.1554453548
 20
19.2095858442
 10
31.1615944724
 20
19.145597272
 10
31.1917544374
 20
19.0887596956
 10
31.2413336684
 20
19.0477261206
 10
31.3027841769
 20
19.0287435368
 10
31.3667506802
 20
19.0347018706
 10
31.4234948578
 20
19.0646940197
 10
31.4643779232
 20
19.1141539512
 10
31.4831758003
 20
19.1755518389
 10
31.4770266827
 20
19.2395404111
  0
LWPOLYLINE
  5
8A
330
1F
100
AcDbEntity
  8
0
  6
Continuous
 62
     7
100
AcDbPolyline
 90
       17
 70
   128
 43
0.0
 10
33.8698564311
 20
21.1483291191
 10
33.7816009568
 20
21.3146498453
 10
33.6365199344
 20
21.4347241767
 10
33.4567006346
 20
21.490271885
 10
33.2695189155
 20
21.4728363349
 10
33.1034714972
 20
21.3850719311
 10
32.9838375938
 20
21.2403400083
 10
32.9288303827
 20
21.0606746899
 10
32.9468242131
 20
20.8734283919
 10
33.0350796874
 20
20.7071076657
 10
33.1801607098
 20
20.5870333342
 10
33.3599800097
 20
20.531485626
 10
33.5471617287
 20
20.548921176
 10
33.713209147
 20
20.6366855798
 10
33.8328430504
 20
20.7814175026
 10
33.8878502615
 20
20.961082821
 10
33.8698564311
 20
21.1483291191
  0
LWPOLYLINE
  5
8B
330
1F
100
AcDbEntity
  8
0
  6
Continuous
 62
     7
100
AcDbPolyline
 90
       17
 70
   128
 43
0.0
 10
33.6217058846
 20
21.0744240436
 10
33.5809041042
 20
21.1513165174
 10
33.5138310523
 20
21.2068286149
 10
33.430697993
 20
21.2325091227
 10
33.344161181
 20
21.2244484161
 10
33.2673950614
 20
21.1838736647
 10
33.2120865801
 20
21.1169620066
 10
33.186655952
 20
21.0339001351
 10
33.1949747597
 20
20.9473334673
 10
33.23577654
 20
20.8704409936
 10
33.3028495919
 20
20.814928896
 10
33.3859826512
 20
20.7892483883
 10
33.4725194633
 20
20.7973090948
 10
33.5492855828
 20
20.8378838462
 10
33.6045940641
 20
20.9047955044
 10
33.6300246922
 20
20.9878573758
 10
33.6217058846
 20
21.0744240436
  0
LWPOLYLINE
  5
8C
330
1F
100
AcDbEntity
  8
0
  6
Continuous
 62
     7
100
AcDbPolyline
 90
       17
 70
   128
 43
0.0
 10
33.6753486476
 20
23.1521790118
 10
33.6010912934
 20
23.2921197596
 10
33.4790214394
 20
23.3931492111
 10
33.3277231143
 20
23.4398865481
 10
33.1702301166
 20
23.4252164347
 10
33.0305193275
 20
23.3513722628
 10
32.9298604482
 20
23.229596138
 10
32.8835778806
 20
23.0784273715
 10
32.898717726
 20
22.9208800377
 10
32.9729750802
 20
22.7809392898
 10
33.0950449342
 20
22.6799098383
 10
33.2463432593
 20
22.6331725013
 10
33.403836257
 20
22.6478426147
 10
33.543547046
 20
22.7216867867
 10
33.6442059253
 20
22.8434629114
 10
33.690488493
 20
22.9946316779
 10
33.6753486476
 20
23.1521790118
  0
LWPOLYLINE
  5
8D
330
1F
100
AcDbEntity
  8
0
  6
Continuous
 62
     7
100
AcDbPolyline
 90
       17
 70
   128
 43
0.0
 10
35.0245021263
 20
21.9358029314
 10
34.9549263313
 20
22.0669211066
 10
34.8405523784
 20
22.1615811504
 10
34.698792665
 20
22.2053719293
 10
34.5512288226
 20
22.191626694
 10
34.4203261084
 20
22.1224380322
 10
34.326013274
 20
22.0083392903
 10
34.2826485935
 20
21.8667009676
 10
34.2968339465
 20
21.7190862146
 10
34.3664097415
 20
21.5879680394
 10
34.4807836944
 20
21.4933079955
 10
34.6225434078
 20
21.4495172167
 10
34.7701072502
 20
21.4632624519
 10
34.9010099644
 20
21.5324511137
 10
34.9953227988
 20
21.6465498556
 10
35.0386874793
 20
21.7881881784
 10
35.0245021263
 20
21.9358029314
  0
LWPOLYLINE
  5
8E
330
1F
100
AcDbEntity
  8
0
  6
Continuous
 62
     7
100
AcDbPolyline
 90
       17
 70
   128
 43
0.0
 10
33.4228392381
 20
23.0769757643
 10
33.3968691208
 20
23.1259174169
 10
33.3541774783
 20
23.1612505732
 10
33.301263726
 20
23.1775960805
 10
33.2461835031
 20
23.1724654834
 10
33.1973222743
 20
23.1466398689
 10
33.1621187186
 20
23.1040509526
 10
33.1459322584
 20
23.051182511
 10
33.1512271355
 20
22.9960832851
 10
33.1771972527
 20
22.9471416325
 10
33.2198888953
 20
22.9118084762
 10
33.2728026476
 20
22.8954629689
 10
33.3278828705
 20
22.900593566
 10
33.3767440993
 20
22.9264191805
 10
33.4119476549
 20
22.9690080968
 10
33.4281341152
 20
23.0218765384
 10
33.4228392381
 20
23.0769757643
  0
LWPOLYLINE
  5
8F
330
1F
100
AcDbEntity
  8
0
  6
Continuous
 62
     7
100
AcDbPolyline
 90
       17
 70
   128
 43
0.0
 10
34.8474167733
 20
21.8830627438
 10
34.811704914
 20
21.9503630718
 10
34.7529990592
 20
21.9989501727
 10
34.6802366432
 20
22.0214271007
 10
34.6044950842
 20
22.0143719473
 10
34.5373053479
 20
21.9788587956
 10
34.4888964627
 20
21.9202942012
 10
34.4666382425
 20
21.8475940925
 10
34.4739192995
 20
21.7718264021
 10
34.5096311588
 20
21.7045260741
 10
34.5683370136
 20
21.6559389732
 10
34.6410994296
 20
21.6334620452
 10
34.7168409886
 20
21.6405171986
 10
34.7840307249
 20
21.6760303503
 10
34.8324396101
 20
21.7345949447
 10
34.8546978303
 20
21.8072950534
 10
34.8474167733
 20
21.8830627438
  0
LWPOLYLINE
  5
90
330
1F
100
AcDbEntity
  8
0
  6
Continuous
 62
     7
100
AcDbPolyline
 90
        9
 70
   128
 43
0.0
 10
15.3862088404
 20
7.0787280324
 10
14.4126854809
 20
7.1819721534
 10
13.4774413813
 20
7.4731099361
 10
12.6164174477
 20
7.9409531186
 10
11.862702347
 20
8.5675227499
 10
11.245260928
 20
9.3287401104
 10
10.7878211179
 20
10.1953520438
 10
10.5079620723
 20
11.1340551396
 10
10.4164386173
 20
12.1087755641
  0
LWPOLYLINE
  5
91
330
1F
100
AcDbEntity
  8
0
  6
Continuous
 62
     7
100
AcDbPolyline
 90
        9
 70
   128
 43
0.0
 10
49.5067242858
 20
11.8152449949
 10
49.4063949552
 20
10.8419652008
 10
49.1180684389
 20
9.9075286339
 10
48.6528249631
 20
9.0478451673
 10
48.0285435739
 20
8.2959519547
 10
47.2692150547
 20
7.6807438304
 10
46.4040199749
 20
7.2258628977
 10
45.4662072961
 20
6.9487899758
 10
44.4918166337
 20
6.8601728216
  0
LWPOLYLINE
  5
92
330
1F
100
AcDbEntity
  8
0
  6
Continuous
 62
     7
100
AcDbPolyline
 90
        9
 70
   128
 43
0.0
 10
44.6670582784
 20
45.6264214706
 10
45.6405816378
 20
45.5231773496
 10
46.5758257375
 20
45.2320395669
 10
47.4368496711
 20
44.7641963844
 10
48.1905647717
 20
44.1376267531
 10
48.8080061908
 20
43.3764093926
 10
49.2654460008
 20
42.5097974592
 10
49.5453050464
 20
41.5710943634
 10
49.6368285015
 20
40.5963739389
  0
LWPOLYLINE
  5
93
330
1F
100
AcDbEntity
  8
0
  6
Continuous
 62
     7
100
AcDbPolyline
 90
        9
 70
   128
 43
0.0
 10
15.5614504851
 20
45.8449766814
 10
14.5870598226
 20
45.7563595272
 10
13.6492471438
 20
45.4792866052
 10
12.784052064
 20
45.0244056726
 10
12.0247235449
 20
44.4091975483
 10
11.4004421556
 20
43.6573043356
 10
10.9351986799
 20
42.7976208691
 10
10.6468721635
 20
41.8631843022
 10
10.5465428329
 20
40.8899045081
  0
LINE
  5
94
330
1F
100
AcDbEntity
  8
0
  6
Continuous
 62
     7
100
AcDbLine
 10
19.7054494775
 20
28.3939281076
 30
0.0
 11
19.1231376112
 21
27.9124920655
 31
0.0
  0
LINE
  5
95
330
1F
100
AcDbEntity
  8
0
  6
Continuous
 62
     7
100
AcDbLine
 10
19.1231376112
 20
27.9124920655
 30
0.0
 11
18.7158381645
 21
27.4667591381
 31
0.0
  0
LINE
  5
96
330
1F
100
AcDbEntity
  8
0
  6
Continuous
 62
     7
100
AcDbLine
 10
18.7158381645
 20
27.4667591381
 30
0.0
 11
18.1391874981
 21
26.8356947168
 31
0.0
  0
LINE
  5
97
330
1F
100
AcDbEntity
  8
0
  6
Continuous
 62
     7
100
AcDbLine
 10
18.1391874981
 20
26.8356947168
 30
0.0
 11
17.690744428
 21
26.3449357825
 31
0.0
  0
LINE
  5
98
330
1F
100
AcDbEntity
  8
0
  6
Continuous
 62
     7
100
AcDbLine
 10
17.690744428
 20
26.3449357825
 30
0.0
 11
17.4054657551
 21
26.0327377203
 31
0.0
  0
LINE
  5
99
330
1F
100
AcDbEntity
  8
0
  6
Continuous
 62
     7
100
AcDbLine
 10
17.4054657551
 20
26.0327377203
 30
0.0
 11
17.2508040649
 21
25.809611138
 31
0.0
  0
LINE
  5
9A
330
1F
100
AcDbEntity
  8
0
  6
Continuous
 62
     7
100
AcDbLine
 10
17.2508040649
 20
25.809611138
 30
0.0
 11
17.0763424888
 21
25.4806784814
 31
0.0
  0
LINE
  5
9B
330
1F
100
AcDbEntity
  8
0
  6
Continuous
 62
     7
100
AcDbLine
 10
17.0763424888
 20
25.4806784814
 30
0.0
 11
17.075232457
 21
25.2351217352
 31
0.0
  0
LINE
  5
9C
330
1F
100
AcDbEntity
  8
0
  6
Continuous
 62
     7
100
AcDbLine
 10
17.075232457
 20
25.2351217352
 30
0.0
 11
17.0739693174
 21
24.955695093
 31
0.0
  0
LINE
  5
9D
330
1F
100
AcDbEntity
  8
0
  6
Continuous
 62
     7
100
AcDbLine
 10
17.0739693174
 20
24.955695093
 30
0.0
 11
17.2419635542
 21
23.8539490738
 31
0.0
  0
LINE
  5
9E
330
1F
100
AcDbEntity
  8
0
  6
Continuous
 62
     7
100
AcDbLine
 10
17.2419635542
 20
23.8539490738
 30
0.0
 11
17.4987882067
 21
23.1550841082
 31
0.0
  0
LINE
  5
9F
330
1F
100
AcDbEntity
  8
0
  6
Continuous
 62
     7
100
AcDbLine
 10
17.4987882067
 20
23.1550841082
 30
0.0
 11
17.6500942359
 21
22.7433538407
 31
0.0
  0
LINE
  5
A0
330
1F
100
AcDbEntity
  8
0
  6
Continuous
 62
     7
100
AcDbLine
 10
17.6500942359
 20
22.7433538407
 30
0.0
 11
17.7922304498
 21
22.3565762504
 31
0.0
  0
LINE
  5
A1
330
1F
100
AcDbEntity
  8
0
  6
Continuous
 62
     7
100
AcDbLine
 10
17.7922304498
 20
22.3565762504
 30
0.0
 11
17.9110237943
 21
22.0333187058
 31
0.0
  0
LINE
  5
A2
330
1F
100
AcDbEntity
  8
0
  6
Continuous
 62
     7
100
AcDbLine
 10
17.9110237943
 20
22.0333187058
 30
0.0
 11
18.023138539
 21
21.7282348035
 31
0.0
  0
LINE
  5
A3
330
1F
100
AcDbEntity
  8
0
  6
Continuous
 62
     7
100
AcDbLine
 10
18.2094085117
 20
20.0566956441
 30
0.0
 11
17.5426552886
 21
19.296018315
 31
0.0
  0
LINE
  5
A4
330
1F
100
AcDbEntity
  8
0
  6
Continuous
 62
     7
100
AcDbLine
 10
20.9813059063
 20
20.4872859807
 30
0.0
 11
21.5351016491
 21
18.1875098012
 31
0.0
  0
LINE
  5
A5
330
1F
100
AcDbEntity
  8
0
  6
Continuous
 62
     7
100
AcDbLine
 10
29.9381271206
 20
40.4857089256
 30
0.0
 11
30.2680886489
 21
40.2539389036
 31
0.0
  0
LINE
  5
A6
330
1F
100
AcDbEntity
  8
0
  6
Continuous
 62
     7
100
AcDbLine
 10
30.2680886489
 20
40.2539389036
 30
0.0
 11
30.4446209167
 21
40.2526133155
 31
0.0
  0
LINE
  5
A7
330
1F
100
AcDbEntity
  8
0
  6
Continuous
 62
     7
100
AcDbLine
 10
30.4446209167
 20
40.2526133155
 30
0.0
 11
30.6363824437
 21
40.3658195339
 31
0.0
  0
LINE
  5
A8
330
1F
100
AcDbEntity
  8
0
  6
Continuous
 62
     7
100
AcDbLine
 10
38.0420167101
 20
39.8688733727
 30
0.0
 11
38.3501210872
 21
39.3486189679
 31
0.0
  0
LINE
  5
A9
330
1F
100
AcDbEntity
  8
0
  6
Continuous
 62
     7
100
AcDbLine
 10
37.9005577387
 20
38.7263535721
 30
0.0
 11
37.9360924997
 21
38.4451714125
 31
0.0
  0
LINE
  5
AA
330
1F
100
AcDbEntity
  8
0
  6
Continuous
 62
     7
100
AcDbLine
 10
36.1481081
 20
37.4329888726
 30
0.0
 11
36.5446658773
 21
37.0932183489
 31
0.0
  0
LINE
  5
AB
330
1F
100
AcDbEntity
  8
0
  6
Continuous
 62
     7
100
AcDbLine
 10
36.9387667149
 20
36.2892811461
 30
0.0
 11
37.7345907347
 21
35.2656543572
 31
0.0
  0
LINE
  5
AC
330
1F
100
AcDbEntity
  8
0
  6
Continuous
 62
     7
100
AcDbLine
 10
38.4749806547
 20
34.642330269
 30
0.0
 11
38.9571869572
 21
34.6792443977
 31
0.0
  0
LINE
  5
AD
330
1F
100
AcDbEntity
  8
0
  6
Continuous
 62
     7
100
AcDbLine
 10
38.9571869572
 20
34.6792443977
 30
0.0
 11
39.8547814545
 21
35.4724957395
 31
0.0
  0
LINE
  5
AE
330
1F
100
AcDbEntity
  8
0
  6
Continuous
 62
     7
100
AcDbLine
 10
39.8547814545
 20
35.4724957395
 30
0.0
 11
40.5619469909
 21
36.2987238975
 31
0.0
  0
LINE
  5
AF
330
1F
100
AcDbEntity
  8
0
  6
Continuous
 62
     7
100
AcDbLine
 10
42.6777052671
 20
40.3900469072
 30
0.0
 11
43.1343468257
 21
41.2645511204
 31
0.0
  0
LINE
  5
B0
330
1F
100
AcDbEntity
  8
0
  6
Continuous
 62
     7
100
AcDbLine
 10
43.1343468257
 20
41.2645511204
 30
0.0
 11
43.0452990625
 21
41.3286574589
 31
0.0
  0
LINE
  5
B1
330
1F
100
AcDbEntity
  8
0
  6
Continuous
 62
     7
100
AcDbLine
 10
43.0452990625
 20
41.3286574589
 30
0.0
 11
44.3613254963
 21
42.6355236422
 31
0.0
  0
LINE
  5
B2
330
1F
100
AcDbEntity
  8
0
  6
Continuous
 62
     7
100
AcDbLine
 10
44.3613254963
 20
42.6355236422
 30
0.0
 11
44.2152710718
 21
41.7123562567
 31
0.0
  0
LINE
  5
B3
330
1F
100
AcDbEntity
  8
0
  6
Continuous
 62
     7
100
AcDbLine
 10
44.2152710718
 20
41.7123562567
 30
0.0
 11
44.0696345077
 21
40.7808564258
 31
0.0
  0
LINE
  5
B4
330
1F
100
AcDbEntity
  8
0
  6
Continuous
 62
     7
100
AcDbLine
 10
44.0696345077
 20
40.7808564258
 30
0.0
 11
43.9763751683
 21
40.781556714
 31
0.0
  0
LINE
  5
B5
330
1F
100
AcDbEntity
  8
0
  6
Continuous
 62
     7
100
AcDbLine
 10
43.9763751683
 20
40.781556714
 30
0.0
 11
43.4053129954
 21
39.5696297413
 31
0.0
  0
LINE
  5
B6
330
1F
100
AcDbEntity
  8
0
  6
Continuous
 62
     7
100
AcDbLine
 10
43.0484940113
 20
36.594284351
 30
0.0
 11
43.0472558166
 21
36.3203759087
 31
0.0
  0
LINE
  5
B7
330
1F
100
AcDbEntity
  8
0
  6
Continuous
 62
     7
100
AcDbLine
 10
43.0934262333
 20
36.1533358889
 30
0.0
 11
43.0920141111
 21
35.8409519373
 31
0.0
  0
LINE
  5
B8
330
1F
100
AcDbEntity
  8
0
  6
Continuous
 62
     7
100
AcDbLine
 10
42.5415745651
 20
35.1479516372
 30
0.0
 11
42.5389701717
 21
34.5718182413
 31
0.0
  0
LINE
  5
B9
330
1F
100
AcDbEntity
  8
0
  6
Continuous
 62
     7
100
AcDbLine
 10
39.9040416455
 20
29.9786142177
 30
0.0
 11
39.8961927578
 21
28.2423149826
 31
0.0
  0
LINE
  5
BA
330
1F
100
AcDbEntity
  8
0
  6
Continuous
 62
     7
100
AcDbLine
 10
39.8961927578
 20
28.2423149826
 30
0.0
 11
39.8939967491
 21
27.7565228265
 31
0.0
  0
LINE
  5
BB
330
1F
100
AcDbEntity
  8
0
  6
Continuous
 62
     7
100
AcDbLine
 10
39.8939967491
 20
27.7565228265
 30
0.0
 11
41.8459652556
 21
25.5239539229
 31
0.0
  0
LINE
  5
BC
330
1F
100
AcDbEntity
  8
0
  6
Continuous
 62
     7
100
AcDbLine
 10
41.8459652556
 20
25.5239539229
 30
0.0
 11
42.1235346525
 21
25.206483225
 31
0.0
  0
LINE
  5
BD
330
1F
100
AcDbEntity
  8
0
  6
Continuous
 62
     7
100
AcDbLine
 10
42.4482319455
 20
23.5867924258
 30
0.0
 11
42.7138270434
 21
22.4980185174
 31
0.0
  0
LINE
  5
BE
330
1F
100
AcDbEntity
  8
0
  6
Continuous
 62
     7
100
AcDbLine
 10
42.7138270434
 20
22.4980185174
 30
0.0
 11
43.1041093854
 21
20.8807158566
 31
0.0
  0
LINE
  5
BF
330
1F
100
AcDbEntity
  8
0
  6
Continuous
 62
     7
100
AcDbLine
 10
43.3724082541
 20
20.7378719059
 30
0.0
 11
43.6175573697
 21
19.9721066804
 31
0.0
  0
LINE
  5
C0
330
1F
100
AcDbEntity
  8
0
  6
Continuous
 62
     7
100
AcDbLine
 10
43.8797930301
 20
19.4160463013
 30
0.0
 11
44.6516367609
 21
18.7558535934
 31
0.0
  0
LINE
  5
C1
330
1F
100
AcDbEntity
  8
0
  6
Continuous
 62
     7
100
AcDbLine
 10
46.0110456833
 20
17.3262680053
 30
0.0
 11
45.644283927
 21
17.3290220345
 31
0.0
  0
LINE
  5
C2
330
1F
100
AcDbEntity
  8
0
  6
Continuous
 62
     7
100
AcDbLine
 10
40.3612598084
 20
21.0147857564
 30
0.0
 11
41.0153300334
 21
19.9916469129
 31
0.0
  0
LINE
  5
C3
330
1F
100
AcDbEntity
  8
0
  6
Continuous
 62
     7
100
AcDbLine
 10
41.0527171378
 20
19.6071303683
 30
0.0
 11
41.3603463243
 21
18.9774024635
 31
0.0
  0
LINE
  5
C4
330
1F
100
AcDbEntity
  8
0
  6
Continuous
 62
     7
100
AcDbLine
 10
30.0482751653
 20
37.1043586118
 30
0.0
 11
30.7932554257
 21
36.6613407371
 31
0.0
  0
LINE
  5
C5
330
1F
100
AcDbEntity
  8
0
  6
Continuous
 62
     7
100
AcDbLine
 10
39.6975954278
 20
34.6736846399
 30
0.0
 11
39.9040416455
 21
29.9786142177
 31
0.0
  0
LINE
  5
C6
330
1F
100
AcDbEntity
  8
0
  6
Continuous
 62
     7
100
AcDbLine
 10
39.2806399309
 20
24.2019079477
 30
0.0
 11
39.1207133943
 21
23.8401943212
 31
0.0
  0
LINE
  5
C7
330
1F
100
AcDbEntity
  8
0
  6
Continuous
 62
     7
100
AcDbLine
 10
39.1207133943
 20
23.8401943212
 30
0.0
 11
37.8416238493
 21
21.6182174589
 31
0.0
  0
LINE
  5
C8
330
1F
100
AcDbEntity
  8
0
  6
Continuous
 62
     7
100
AcDbLine
 10
32.9088710399
 20
17.487188512
 30
0.0
 11
30.0130772299
 21
16.5555003485
 31
0.0
  0
LINE
  5
C9
330
1F
100
AcDbEntity
  8
0
  6
Continuous
 62
     7
100
AcDbLine
 10
20.6789167144
 20
34.011050338
 30
0.0
 11
20.6512964953
 21
27.9010170573
 31
0.0
  0
LINE
  5
CA
330
1F
100
AcDbEntity
  8
0
  6
Continuous
 62
     7
100
AcDbLine
 10
30.0482751653
 20
37.1043586118
 30
0.0
 11
29.0555890934
 21
36.5793672309
 31
0.0
  0
LINE
  5
CB
330
1F
100
AcDbEntity
  8
0
  6
Continuous
 62
     7
100
AcDbLine
 10
21.0127452723
 20
24.8691621047
 30
0.0
 11
21.0117122363
 21
24.6406380454
 31
0.0
  0
LINE
  5
CC
330
1F
100
AcDbEntity
  8
0
  6
Continuous
 62
     7
100
AcDbLine
 10
30.6264063513
 20
38.1589486783
 30
0.0
 11
30.9271706539
 21
37.9771331367
 31
0.0
  0
LINE
  5
CD
330
1F
100
AcDbEntity
  8
0
  6
Continuous
 62
     7
100
AcDbLine
 10
31.869294636
 20
38.0120003074
 30
0.0
 11
32.255101097
 21
38.1973845355
 31
0.0
  0
LINE
  5
CE
330
1F
100
AcDbEntity
  8
0
  6
Continuous
 62
     7
100
AcDbLine
 10
30.8250531084
 20
36.6589157434
 30
0.0
 11
30.8343935611
 21
36.6401362982
 31
0.0
  0
LINE
  5
CF
330
1F
100
AcDbEntity
  8
0
  6
Continuous
 62
     7
100
AcDbLine
 10
29.4085678514
 20
34.9345024703
 30
0.0
 11
29.3865219205
 21
30.0575907076
 31
0.0
  0
LINE
  5
D0
330
1F
100
AcDbEntity
  8
0
  6
Continuous
 62
     7
100
AcDbLine
 10
21.7444022516
 20
33.0218721085
 30
0.0
 11
21.7173388318
 21
27.035011728
 31
0.0
  0
LINE
  5
D1
330
1F
100
AcDbEntity
  8
0
  6
Continuous
 62
     7
100
AcDbLine
 10
23.9239077933
 20
21.854371264
 30
0.0
 11
24.355383916
 21
21.4850362356
 31
0.0
  0
LINE
  5
D2
330
1F
100
AcDbEntity
  8
0
  6
Continuous
 62
     7
100
AcDbLine
 10
29.3319351283
 20
17.9821210707
 30
0.0
 11
29.3617513142
 21
24.5779372571
 31
0.0
  0
LINE
  5
D3
330
1F
100
AcDbEntity
  8
0
  6
Continuous
 62
     7
100
AcDbLine
 10
30.6135690213
 20
35.3191264033
 30
0.0
 11
30.5895543709
 21
30.0067024623
 31
0.0
  0
LINE
  5
D4
330
1F
100
AcDbEntity
  8
0
  6
Continuous
 62
     7
100
AcDbLine
 10
30.3735505422
 20
24.5703396149
 30
0.0
 11
30.3064222606
 21
17.9748036065
 31
0.0
  0
LINE
  5
D5
330
1F
100
AcDbEntity
  8
0
  6
Continuous
 62
     7
100
AcDbLine
 10
38.0786253527
 20
33.346312618
 30
0.0
 11
38.0513906769
 21
27.3215676758
 31
0.0
  0
LINE
  5
D6
330
1F
100
AcDbEntity
  8
0
  6
Continuous
 62
     7
100
AcDbLine
 10
36.2828583372
 20
22.421745116
 30
0.0
 11
35.042427973
 21
21.1961149736
 31
0.0
  0
LINE
  5
D7
330
1F
100
AcDbEntity
  8
0
  6
Continuous
 62
     7
100
AcDbLine
 10
35.042427973
 20
21.1961149736
 30
0.0
 11
34.0075423986
 21
20.3894714329
 31
0.0
  0
LINE
  5
D8
330
1F
100
AcDbEntity
  8
0
  6
Continuous
 62
     7
100
AcDbLine
 10
27.3923176106
 20
33.6101164253
 30
0.0
 11
27.9672321933
 21
32.4057777318
 31
0.0
  0
LINE
  5
D9
330
1F
100
AcDbEntity
  8
0
  6
Continuous
 62
     7
100
AcDbLine
 10
27.3923176106
 20
33.6101164253
 30
0.0
 11
26.2963492425
 21
33.2594545865
 31
0.0
  0
LINE
  5
DA
330
1F
100
AcDbEntity
  8
0
  6
Continuous
 62
     7
100
AcDbLine
 10
26.2963492425
 20
33.2594545865
 30
0.0
 11
26.3883591352
 21
32.1615546665
 31
0.0
  0
LINE
  5
DB
330
1F
100
AcDbEntity
  8
0
  6
Continuous
 62
     7
100
AcDbLine
 10
24.7028246814
 20
32.6918176778
 30
0.0
 11
25.6881157987
 21
31.7990937968
 31
0.0
  0
LINE
  5
DC
330
1F
100
AcDbEntity
  8
0
  6
Continuous
 62
     7
100
AcDbLine
 10
24.7028246814
 20
32.6918176778
 30
0.0
 11
23.7683134208
 21
31.7684565585
 31
0.0
  0
LINE
  5
DD
330
1F
100
AcDbEntity
  8
0
  6
Continuous
 62
     7
100
AcDbLine
 10
23.7683134208
 20
31.7684565585
 30
0.0
 11
24.546323162
 21
30.8308446148
 31
0.0
  0
LINE
  5
DE
330
1F
100
AcDbEntity
  8
0
  6
Continuous
 62
     7
100
AcDbLine
 10
22.6161818359
 20
30.3143362201
 30
0.0
 11
22.3240905257
 21
29.2533244022
 31
0.0
  0
LINE
  5
DF
330
1F
100
AcDbEntity
  8
0
  6
Continuous
 62
     7
100
AcDbLine
 10
22.6161818359
 20
30.3143362201
 30
0.0
 11
23.9132327211
 21
29.9536410639
 31
0.0
  0
LINE
  5
E0
330
1F
100
AcDbEntity
  8
0
  6
Continuous
 62
     7
100
AcDbLine
 10
22.3240905257
 20
29.2533244022
 30
0.0
 11
23.2875810401
 21
28.4818464101
 31
0.0
  0
LINE
  5
E1
330
1F
100
AcDbEntity
  8
0
  6
Continuous
 62
     7
100
AcDbLine
 10
22.0301527913
 20
27.1778379223
 30
0.0
 11
23.282837345
 21
27.4324653526
 31
0.0
  0
LINE
  5
E2
330
1F
100
AcDbEntity
  8
0
  6
Continuous
 62
     7
100
AcDbLine
 10
22.0301527913
 20
27.1778379223
 30
0.0
 11
22.308601119
 21
25.8268204298
 31
0.0
  0
LINE
  5
E3
330
1F
100
AcDbEntity
  8
0
  6
Continuous
 62
     7
100
AcDbLine
 10
22.308601119
 20
25.8268204298
 30
0.0
 11
23.4670995206
 21
25.8181212175
 31
0.0
  0
LINE
  5
E4
330
1F
100
AcDbEntity
  8
0
  6
Continuous
 62
     7
100
AcDbLine
 10
23.8901508173
 20
24.8475555477
 30
0.0
 11
22.9854562863
 21
23.953655399
 31
0.0
  0
LINE
  5
E5
330
1F
100
AcDbEntity
  8
0
  6
Continuous
 62
     7
100
AcDbLine
 10
22.9854562863
 20
23.953655399
 30
0.0
 11
23.728575464
 21
22.9777862983
 31
0.0
  0
LINE
  5
E6
330
1F
100
AcDbEntity
  8
0
  6
Continuous
 62
     7
100
AcDbLine
 10
23.728575464
 20
22.9777862983
 30
0.0
 11
24.7651111288
 21
23.4551474033
 31
0.0
  0
LINE
  5
E7
330
1F
100
AcDbEntity
  8
0
  6
Continuous
 62
     7
100
AcDbLine
 10
25.6473016737
 20
22.7703579699
 30
0.0
 11
25.2676231422
 21
21.6385197949
 31
0.0
  0
LINE
  5
E8
330
1F
100
AcDbEntity
  8
0
  6
Continuous
 62
     7
100
AcDbLine
 10
25.2676231422
 20
21.6385197949
 30
0.0
 11
26.3381928366
 21
21.0639687849
 31
0.0
  0
LINE
  5
E9
330
1F
100
AcDbEntity
  8
0
  6
Continuous
 62
     7
100
AcDbLine
 10
26.3381928366
 20
21.0639687849
 30
0.0
 11
27.0076420516
 21
22.0156353436
 31
0.0
  0
LINE
  5
EA
330
1F
100
AcDbEntity
  8
0
  6
Continuous
 62
     7
100
AcDbLine
 10
27.9193992576
 20
21.8243689536
 30
0.0
 11
28.0368729496
 21
20.4966678113
 31
0.0
  0
LINE
  5
EB
330
1F
100
AcDbEntity
  8
0
  6
Continuous
 62
     7
100
AcDbLine
 10
28.0368729496
 20
20.4966678113
 30
0.0
 11
29.3432577157
 21
20.4868581141
 31
0.0
  0
LINE
  5
EC
330
1F
100
AcDbEntity
  8
0
  6
Continuous
 62
     7
100
AcDbLine
 10
31.5287914236
 20
32.7522551948
 30
0.0
 11
31.514401992
 21
29.5690832837
 31
0.0
  0
LINE
  5
ED
330
1F
100
AcDbEntity
  8
0
  6
Continuous
 62
     7
100
AcDbLine
 10
31.8457448483
 20
32.8024114182
 30
0.0
 11
31.8408200234
 21
31.7129615344
 31
0.0
  0
LINE
  5
EE
330
1F
100
AcDbEntity
  8
0
  6
Continuous
 62
     7
100
AcDbLine
 10
31.8408200234
 20
31.7129615344
 30
0.0
 11
32.4189057999
 21
32.284149868
 31
0.0
  0
LINE
  5
EF
330
1F
100
AcDbEntity
  8
0
  6
Continuous
 62
     7
100
AcDbLine
 10
32.4189057999
 20
32.284149868
 30
0.0
 11
32.429546404
 21
34.6380213116
 31
0.0
  0
LINE
  5
F0
330
1F
100
AcDbEntity
  8
0
  6
Continuous
 62
     7
100
AcDbLine
 10
32.8759251336
 20
34.4915109284
 30
0.0
 11
32.8651727858
 21
32.1129200054
 31
0.0
  0
LINE
  5
F1
330
1F
100
AcDbEntity
  8
0
  6
Continuous
 62
     7
100
AcDbLine
 10
32.8651727858
 20
32.1129200054
 30
0.0
 11
31.895135914
 21
31.1544571494
 31
0.0
  0
LINE
  5
F2
330
1F
100
AcDbEntity
  8
0
  6
Continuous
 62
     7
100
AcDbLine
 10
31.895135914
 20
31.1544571494
 30
0.0
 11
31.8865112114
 21
29.2465352912
 31
0.0
  0
LINE
  5
F3
330
1F
100
AcDbEntity
  8
0
  6
Continuous
 62
     7
100
AcDbLine
 10
33.0143841682
 20
30.6231393517
 30
0.0
 11
31.8865112114
 21
29.2465352912
 31
0.0
  0
LINE
  5
F4
330
1F
100
AcDbEntity
  8
0
  6
Continuous
 62
     7
100
AcDbLine
 10
33.0143841682
 20
30.6231393517
 30
0.0
 11
33.0194511767
 21
31.7440424967
 31
0.0
  0
LINE
  5
F5
330
1F
100
AcDbEntity
  8
0
  6
Continuous
 62
     7
100
AcDbLine
 10
33.0194511767
 20
31.7440424967
 30
0.0
 11
33.9237540499
 21
32.6375556606
 31
0.0
  0
LINE
  5
F6
330
1F
100
AcDbEntity
  8
0
  6
Continuous
 62
     7
100
AcDbLine
 10
33.9237540499
 20
32.6375556606
 30
0.0
 11
33.9264032813
 21
33.2236079277
 31
0.0
  0
LINE
  5
F7
330
1F
100
AcDbEntity
  8
0
  6
Continuous
 62
     7
100
AcDbLine
 10
34.3378229292
 20
33.2624961785
 30
0.0
 11
34.334382773
 21
32.5014787184
 31
0.0
  0
LINE
  5
F8
330
1F
100
AcDbEntity
  8
0
  6
Continuous
 62
     7
100
AcDbLine
 10
34.334382773
 20
32.5014787184
 30
0.0
 11
33.3718289514
 21
31.7413964774
 31
0.0
  0
LINE
  5
F9
330
1F
100
AcDbEntity
  8
0
  6
Continuous
 62
     7
100
AcDbLine
 10
33.3718289514
 20
31.7413964774
 30
0.0
 11
33.3677036664
 21
30.8288175892
 31
0.0
  0
LINE
  5
FA
330
1F
100
AcDbEntity
  8
0
  6
Continuous
 62
     7
100
AcDbLine
 10
33.3677036664
 20
30.8288175892
 30
0.0
 11
35.3385852286
 21
32.7761835355
 31
0.0
  0
LINE
  5
FB
330
1F
100
AcDbEntity
  8
0
  6
Continuous
 62
     7
100
AcDbLine
 10
35.3385852286
 20
32.7761835355
 30
0.0
 11
35.3433153172
 21
33.8225546152
 31
0.0
  0
LINE
  5
FC
330
1F
100
AcDbEntity
  8
0
  6
Continuous
 62
     7
100
AcDbLine
 10
35.8643462996
 20
33.7108149442
 30
0.0
 11
35.7482043134
 21
32.4892857723
 31
0.0
  0
LINE
  5
FD
330
1F
100
AcDbEntity
  8
0
  6
Continuous
 62
     7
100
AcDbLine
 10
35.7482043134
 20
32.4892857723
 30
0.0
 11
32.0681608893
 21
29.039081731
 31
0.0
  0
LINE
  5
FE
330
1F
100
AcDbEntity
  8
0
  6
Continuous
 62
     7
100
AcDbLine
 10
34.0720188442
 20
29.2301242241
 30
0.0
 11
32.4056669666
 21
29.3555086579
 31
0.0
  0
LINE
  5
FF
330
1F
100
AcDbEntity
  8
0
  6
Continuous
 62
     7
100
AcDbLine
 10
34.0720188442
 20
29.2301242241
 30
0.0
 11
35.8607443994
 21
31.003926581
 31
0.0
  0
LINE
  5
100
330
1F
100
AcDbEntity
  8
0
  6
Continuous
 62
     7
100
AcDbLine
 10
36.0747145873
 20
30.7825882742
 30
0.0
 11
34.318690804
 21
29.0301647295
 31
0.0
  0
LINE
  5
101
330
1F
100
AcDbEntity
  8
0
  6
Continuous
 62
     7
100
AcDbLine
 10
34.318690804
 20
29.0301647295
 30
0.0
 11
32.2516836587
 21
28.7780575603
 31
0.0
  0
LINE
  5
102
330
1F
100
AcDbEntity
  8
0
  6
Continuous
 62
     7
100
AcDbLine
 10
34.7042019241
 20
28.1254235336
 30
0.0
 11
32.5754848373
 21
28.0326535957
 31
0.0
  0
LINE
  5
103
330
1F
100
AcDbEntity
  8
0
  6
Continuous
 62
     7
100
AcDbLine
 10
34.7042019241
 20
28.1254235336
 30
0.0
 11
38.0712108606
 21
31.7061086246
 31
0.0
  0
LINE
  5
104
330
1F
100
AcDbEntity
  8
0
  6
Continuous
 62
     7
100
AcDbLine
 10
38.0683238657
 20
31.0674592751
 30
0.0
 11
34.9718796006
 21
27.7934832074
 31
0.0
  0
LINE
  5
105
330
1F
100
AcDbEntity
  8
0
  6
Continuous
 62
     7
100
AcDbLine
 10
34.9718796006
 20
27.7934832074
 30
0.0
 11
32.6588949119
 21
27.575327956
 31
0.0
  0
LINE
  5
106
330
1F
100
AcDbEntity
  8
0
  6
Continuous
 62
     7
100
AcDbLine
 10
32.669788803
 20
27.1950370987
 30
0.0
 11
35.5678577247
 21
27.1732753795
 31
0.0
  0
LINE
  5
107
330
1F
100
AcDbEntity
  8
0
  6
Continuous
 62
     7
100
AcDbLine
 10
35.5678577247
 20
27.1732753795
 30
0.0
 11
35.9478323716
 21
26.7886920992
 31
0.0
  0
LINE
  5
108
330
1F
100
AcDbEntity
  8
0
  6
Continuous
 62
     7
100
AcDbLine
 10
35.9478323716
 20
26.7886920992
 30
0.0
 11
37.3755977564
 21
27.7754335885
 31
0.0
  0
LINE
  5
109
330
1F
100
AcDbEntity
  8
0
  6
Continuous
 62
     7
100
AcDbLine
 10
37.3755977564
 20
27.7754335885
 30
0.0
 11
37.3790855003
 21
28.5469782106
 31
0.0
  0
LINE
  5
10A
330
1F
100
AcDbEntity
  8
0
  6
Continuous
 62
     7
100
AcDbLine
 10
37.704208128
 20
28.5445368513
 30
0.0
 11
37.6996557432
 21
27.5374766747
 31
0.0
  0
LINE
  5
10B
330
1F
100
AcDbEntity
  8
0
  6
Continuous
 62
     7
100
AcDbLine
 10
37.6996557432
 20
27.5374766747
 30
0.0
 11
36.3009210066
 21
26.4174958621
 31
0.0
  0
LINE
  5
10C
330
1F
100
AcDbEntity
  8
0
  6
Continuous
 62
     7
100
AcDbLine
 10
36.3009210066
 20
26.4174958621
 30
0.0
 11
36.6794415174
 21
25.9453368621
 31
0.0
  0
LINE
  5
10D
330
1F
100
AcDbEntity
  8
0
  6
Continuous
 62
     7
100
AcDbLine
 10
36.6794415174
 20
25.9453368621
 30
0.0
 11
37.0314207126
 21
25.9426938358
 31
0.0
  0
LINE
  5
10E
330
1F
100
AcDbEntity
  8
0
  6
Continuous
 62
     7
100
AcDbLine
 10
36.9918136656
 20
25.5604039477
 30
0.0
 11
36.6030655763
 21
25.5633230731
 31
0.0
  0
LINE
  5
10F
330
1F
100
AcDbEntity
  8
0
  6
Continuous
 62
     7
100
AcDbLine
 10
36.6030655763
 20
25.5633230731
 30
0.0
 11
35.353441757
 21
26.6099747764
 31
0.0
  0
LINE
  5
110
330
1F
100
AcDbEntity
  8
0
  6
Continuous
 62
     7
100
AcDbLine
 10
35.353441757
 20
26.6099747764
 30
0.0
 11
32.5889224122
 21
26.6307336663
 31
0.0
  0
LINE
  5
111
330
1F
100
AcDbEntity
  8
0
  6
Continuous
 62
     7
100
AcDbLine
 10
32.2962641069
 20
25.9097033615
 30
0.0
 11
35.0636416686
 21
25.8889230091
 31
0.0
  0
LINE
  5
112
330
1F
100
AcDbEntity
  8
0
  6
Continuous
 62
     7
100
AcDbLine
 10
35.0636416686
 20
25.8889230091
 30
0.0
 11
36.0476364482
 21
24.7924717595
 31
0.0
  0
LINE
  5
113
330
1F
100
AcDbEntity
  8
0
  6
Continuous
 62
     7
100
AcDbLine
 10
34.9615092387
 20
25.4993936427
 30
0.0
 11
32.0238540875
 21
25.5214526165
 31
0.0
  0
LINE
  5
114
330
1F
100
AcDbEntity
  8
0
  6
Continuous
 62
     7
100
AcDbLine
 10
34.9615092387
 20
25.4993936427
 30
0.0
 11
35.8395664043
 21
24.5887239371
 31
0.0
  0
LINE
  5
115
330
1F
100
AcDbEntity
  8
0
  6
Continuous
 62
     7
100
AcDbLine
 10
34.0525194521
 20
24.9165474794
 30
0.0
 11
31.3452775441
 21
24.9368762707
 31
0.0
  0
LINE
  5
116
330
1F
100
AcDbEntity
  8
0
  6
Continuous
 62
     7
100
AcDbLine
 10
33.8874358155
 20
24.6033825663
 30
0.0
 11
30.8671707328
 21
24.704192998
 31
0.0
  0
LINE
  5
117
330
1F
100
AcDbEntity
  8
0
  6
Continuous
 62
     7
100
AcDbLine
 10
34.0525194521
 20
24.9165474794
 30
0.0
 11
36.3853353194
 21
22.5554373739
 31
0.0
  0
LINE
  5
118
330
1F
100
AcDbEntity
  8
0
  6
Continuous
 62
     7
100
AcDbLine
 10
33.8874358155
 20
24.6033825663
 30
0.0
 11
36.1614509859
 21
22.3017863392
 31
0.0
  0
LINE
  5
119
330
1F
100
AcDbEntity
  8
0
  6
Continuous
 62
     7
100
AcDbLine
 10
30.7638105544
 20
23.1110853711
 30
0.0
 11
30.7710266554
 21
24.7074020958
 31
0.0
  0
LINE
  5
11A
330
1F
100
AcDbEntity
  8
0
  6
Continuous
 62
     7
100
AcDbLine
 10
31.0216184067
 20
24.6990378424
 30
0.0
 11
31.005027775
 21
21.0289253286
 31
0.0
  0
LINE
  5
11B
330
1F
100
AcDbEntity
  8
0
  6
Continuous
 62
     7
100
AcDbLine
 10
30.7635591847
 20
23.0554783952
 30
0.0
 11
30.7541288965
 21
20.9693481248
 31
0.0
  0
LINE
  5
11C
330
1F
100
AcDbEntity
  8
0
  6
Continuous
 62
     7
100
AcDbLine
 10
30.7541288965
 20
20.9693481248
 30
0.0
 11
31.2446047586
 21
20.2293602038
 31
0.0
  0
LINE
  5
11D
330
1F
100
AcDbEntity
  8
0
  6
Continuous
 62
     7
100
AcDbLine
 10
31.2446047586
 20
20.2293602038
 30
0.0
 11
31.2418122162
 21
19.6116052543
 31
0.0
  0
LINE
  5
11E
330
1F
100
AcDbEntity
  8
0
  6
Continuous
 62
     7
100
AcDbLine
 10
31.005027775
 20
21.0289253286
 30
0.0
 11
31.451056339
 21
20.3083583043
 31
0.0
  0
LINE
  5
11F
330
1F
100
AcDbEntity
  8
0
  6
Continuous
 62
     7
100
AcDbLine
 10
31.451056339
 20
20.3083583043
 30
0.0
 11
31.4478462708
 21
19.5982399929
 31
0.0
  0
LINE
  5
120
330
1F
100
AcDbEntity
  8
0
  6
Continuous
 62
     7
100
AcDbLine
 10
31.8658270101
 20
24.670859841
 30
0.0
 11
31.8546568122
 21
22.1998338057
 31
0.0
  0
LINE
  5
121
330
1F
100
AcDbEntity
  8
0
  6
Continuous
 62
     7
100
AcDbLine
 10
31.8546568122
 20
22.1998338057
 30
0.0
 11
32.9696185351
 21
21.2116797852
 31
0.0
  0
LINE
  5
122
330
1F
100
AcDbEntity
  8
0
  6
Continuous
 62
     7
100
AcDbLine
 10
32.1939053528
 20
24.6599092394
 30
0.0
 11
32.1845347455
 21
22.5869813589
 31
0.0
  0
LINE
  5
123
330
1F
100
AcDbEntity
  8
0
  6
Continuous
 62
     7
100
AcDbLine
 10
32.1845347455
 20
22.5869813589
 30
0.0
 11
33.2799780602
 21
21.4758229258
 31
0.0
  0
LINE
  5
124
330
1F
100
AcDbEntity
  8
0
  6
Continuous
 62
     7
100
AcDbLine
 10
33.6703653164
 20
22.9031329878
 30
0.0
 11
34.5226144532
 21
22.1818456073
 31
0.0
  0
LINE
  5
125
330
1F
100
AcDbEntity
  8
0
  6
Continuous
 62
     7
100
AcDbLine
 10
33.484033773
 20
22.6814875743
 30
0.0
 11
34.3045193033
 21
21.960842791
 31
0.0
  0
LINE
  5
127
330
1F
100
AcDbEntity
  8
0
  6
Continuous
 62
     7
100
AcDbLine
 10
15.5614504851
 20
45.8449766814
 30
0.0
 11
44.6670582784
 21
45.6264214706
 31
0.0
  0
LINE
  5
128
330
1F
100
AcDbEntity
  8
0
  6
Continuous
 62
     7
100
AcDbLine
 10
49.6368285015
 20
40.5963739389
 30
0.0
 11
49.5067242858
 21
11.8152449949
 31
0.0
  0
LINE
  5
129
330
1F
100
AcDbEntity
  8
0
  6
Continuous
 62
     7
100
AcDbLine
 10
44.4918166337
 20
6.8601728216
 30
0.0
 11
15.3862088404
 21
7.0787280324
 31
0.0
  0
LINE
  5
12A
330
1F
100
AcDbEntity
  8
0
  6
Continuous
 62
     7
100
AcDbLine
 10
10.4164386173
 20
12.1087755641
 30
0.0
 11
10.5465428329
 21
40.8899045081
 31
0.0
  0
SPLINE
  5
12B
330
1F
100
AcDbEntity
  8
0
  6
Continuous
 62
     7
100
AcDbSpline
210
0.0
220
0.0
230
1.0
 70
     8
 71
     3
 72
    26
 73
    22
 74
     0
 42
0.00000001
 43
0.00000001
 40
0.0
 40
0.0
 40
0.0
 40
0.0
 40
0.0939054154932344
 40
0.1639923549602867
 40
0.2017732578464278
 40
0.2342484402312097
 40
0.3743859818847025
 40
0.4216094208426958
 40
0.4678487332236121
 40
0.4914951891649227
 40
0.5152065813989307
 40
0.562315996654908
 40
0.6547871768681057
 40
0.6723213079217885
 40
0.6775497357812295
 40
0.7027860769813126
 40
0.7493891981686678
 40
0.8753107184222398
 40
0.9373913981790357
 40
0.9683830259233763
 40
1.0
 40
1.0
 40
1.0
 40
1.0
 10
22.63518685552035
 20
42.81837217246648
 30
0.0
 10
22.87126206766928
 20
43.40841880832255
 30
0.0
 10
23.29180874158913
 20
43.62755270647261
 30
0.0
 10
23.54522493221168
 20
43.59094364875784
 30
0.0
 10
23.74727751312902
 20
43.67736993451846
 30
0.0
 10
24.60420784150594
 20
44.08337486157322
 30
0.0
 10
24.92350454227081
 20
44.10215702900287
 30
0.0
 10
25.23275163181282
 20
44.05137971697845
 30
0.0
 10
25.36115399775406
 20
43.95521404007955
 30
0.0
 10
25.5128249648341
 20
44.00765380044821
 30
0.0
 10
25.831835542317
 20
44.01556083208068
 30
0.0
 10
26.39394416586593
 20
43.73737652979474
 30
0.0
 10
26.44198801676957
 20
43.62859498427543
 30
0.0
 10
26.4773956448371
 20
43.62759289565552
 30
0.0
 10
26.64326554609108
 20
43.6685007371717
 30
0.0
 10
26.94791733738671
 20
43.5847836254359
 30
0.0
 10
27.5565556223325
 20
42.98525064478678
 30
0.0
 10
27.82634839841726
 20
42.66181599908681
 30
0.0
 10
27.9367054649092
 20
42.4828731220077
 30
0.0
 10
27.92859925088687
 20
42.26885538597286
 30
0.0
 10
27.94151957126902
 20
42.34266987039923
 30
0.0
 10
27.92859925088687
 20
42.26885538597286
 30
0.0
  0
SPLINE
  5
12C
330
1F
100
AcDbEntity
  8
0
  6
Continuous
 62
     7
100
AcDbSpline
210
0.0
220
0.0
230
1.0
 70
     8
 71
     3
 72
    32
 73
    28
 74
     0
 42
0.00000001
 43
0.00000001
 40
0.0
 40
0.0
 40
0.0
 40
0.0
 40
0.0622940674295242
 40
0.1251044256271192
 40
0.1879916474463216
 40
0.2036805635601291
 40
0.2115424661658627
 40
0.2194495697266584
 40
0.2507254208266051
 40
0.3756657527920088
 40
0.4375320337583959
 40
0.4997055678986729
 40
0.5311714786984804
 40
0.5622745241748794
 40
0.5661376625377645
 40
0.5705018584063093
 40
0.5758930132892477
 40
0.5819021154338757
 40
0.594000688239335
 40
0.6099360796289095
 40
0.6253897052974726
 40
0.6489043915104342
 40
0.6611341281728754
 40
0.6724058744806785
 40
0.719065241470551
 40
0.812896286002633
 40
1.0
 40
1.0
 40
1.0
 40
1.0
 10
27.92858585554004
 20
42.26885548655907
 30
0.0
 10
28.22054895263581
 20
41.9389442632989
 30
0.0
 10
28.25979569025216
 20
41.49701323469035
 30
0.0
 10
28.24457368971456
 20
41.05322321593793
 30
0.0
 10
28.20651396647767
 20
40.94928826497516
 30
0.0
 10
28.20434116038121
 20
40.89381817452067
 30
0.0
 10
28.17548171618219
 20
40.84610321276158
 30
0.0
 10
28.08452245419218
 20
40.64511356576146
 30
0.0
 10
27.93485992704123
 20
39.77604567300235
 30
0.0
 10
27.69979202857969
 20
39.40849981032634
 30
0.0
 10
27.38253320291183
 20
39.10595830112672
 30
0.0
 10
27.29850012172342
 20
38.90050814218472
 30
0.0
 10
27.14165608292026
 20
38.74722291773169
 30
0.0
 10
27.14008989764675
 20
38.71999191729457
 30
0.0
 10
27.15037992915624
 20
38.69091092868833
 30
0.0
 10
27.18289678908084
 20
38.67101606046636
 30
0.0
 10
27.22501508914483
 20
38.66573504787426
 30
0.0
 10
27.2978747383949
 20
38.62090295623388
 30
0.0
 10
27.37113206367066
 20
38.53526573048924
 30
0.0
 10
27.38558490122162
 20
38.42705363885916
 30
0.0
 10
27.48037001793276
 20
38.29042789652289
 30
0.0
 10
27.47302687850679
 20
38.20439876047861
 30
0.0
 10
27.51800288043528
 20
38.13859182136951
 30
0.0
 10
27.8438780060204
 20
38.08901188498495
 30
0.0
 10
28.43308050273347
 20
37.78416814094129
 30
0.0
 10
29.41745246368315
 20
36.89992050983405
 30
0.0
 10
29.10117100528267
 20
37.19562985108216
 30
0.0
 10
29.41745246368315
 20
36.89992050983405
 30
0.0
  0
SPLINE
  5
12D
330
1F
100
AcDbEntity
  8
0
  6
Continuous
 62
     7
100
AcDbSpline
210
0.0
220
0.0
230
1.0
 70
     8
 71
     3
 72
    53
 73
    49
 74
     0
 42
0.00000001
 43
0.00000001
 40
0.0
 40
0.0
 40
0.0
 40
0.0
 40
0.0059695149668822
 40
0.0097243096006935
 40
0.0170677744703383
 40
0.0287264264983089
 40
0.0346975288450842
 40
0.0400274621574325
 40
0.0641490365224749
 40
0.0782412490309191
 40
0.0837138230256842
 40
0.0887899009025801
 40
0.0912312214190699
 40
0.0944827973466766
 40
0.1020547492024051
 40
0.1138164483880632
 40
0.1602000755904928
 40
0.2071820223313906
 40
0.2187360276956625
 40
0.2305130353024279
 40
0.2539954960975453
 40
0.3238102283524225
 40
0.3413245567336269
 40
0.3502691128110191
 40
0.3595627643196214
 40
0.367368498861279
 40
0.3761706217752799
 40
0.3935862342045412
 40
0.428745906586199
 40
0.4631684572390455
 40
0.4982315948740439
 40
0.515682233888758
 40
0.5326458918995763
 40
0.6110981695698998
 40
0.6309349512478616
 40
0.6502604280068145
 40
0.6899319889702814
 40
0.6916670846226733
 40
0.6930337885851646
 40
0.6981639463919418
 40
0.7030706363896366
 40
0.7423942479719721
 40
0.8122381208015267
 40
0.9059831774208065
 40
0.9527154163831926
 40
0.9754243965352092
 40
0.9879845996528841
 40
1.0
 40
1.0
 40
1.0
 40
1.0
 10
22.63518685552035
 20
42.81837217246648
 30
0.0
 10
22.59361978398191
 20
42.84884824529604
 30
0.0
 10
22.56145619721265
 20
42.85262156483459
 30
0.0
 10
22.51377466918029
 20
42.81110687524816
 30
0.0
 10
22.44041126388025
 20
42.74260683636826
 30
0.0
 10
22.38896114792732
 20
42.74456215868881
 30
0.0
 10
22.34694428209657
 20
42.72607702306644
 30
0.0
 10
22.22706378071531
 20
42.5564820345687
 30
0.0
 10
22.21110839244539
 20
42.4360747141605
 30
0.0
 10
22.19328150805671
 20
42.39243932222602
 30
0.0
 10
22.15082873247217
 20
42.38192928427393
 30
0.0
 10
22.13890263501689
 20
42.36462002350324
 30
0.0
 10
22.1355131406593
 20
42.33679976709628
 30
0.0
 10
22.13935354641983
 20
42.27161373586029
 30
0.0
 10
22.1389797953466
 20
42.17020267674815
 30
0.0
 10
22.19382758982698
 20
41.77388463917712
 30
0.0
 10
22.53045302857072
 20
41.54755677915362
 30
0.0
 10
22.57333838645197
 20
41.45751094933112
 30
0.0
 10
22.55879578670983
 20
41.35705641099171
 30
0.0
 10
22.50322673998114
 20
41.16252541013275
 30
0.0
 10
22.58451753948964
 20
40.5658339037078
 30
0.0
 10
22.62113009044309
 20
40.41921676520972
 30
0.0
 10
22.64362805945411
 20
40.34538178556389
 30
0.0
 10
22.70895788628133
 20
40.29878874768065
 30
0.0
 10
22.72410237870456
 20
40.23316636085542
 30
0.0
 10
22.70693073303975
 20
40.15929150231029
 30
0.0
 10
22.59784031177353
 20
40.05643459536774
 30
0.0
 10
22.48853936508725
 20
39.77399596900548
 30
0.0
 10
22.56692518435534
 20
39.48749952227462
 30
0.0
 10
22.67406415655941
 20
39.20447778188935
 30
0.0
 10
22.77940757195343
 20
39.09673359967119
 30
0.0
 10
22.81917575293292
 20
38.95585978990684
 30
0.0
 10
22.96468078039028
 20
38.29482273912861
 30
0.0
 10
23.04611003203735
 20
38.14417090166866
 30
0.0
 10
23.15154643123898
 20
38.01483089071314
 30
0.0
 10
23.35061026503876
 20
37.73607416055874
 30
0.0
 10
23.35570861987494
 20
37.7219940535288
 30
0.0
 10
23.3531700132013
 20
37.71049423306849
 30
0.0
 10
23.31092945729655
 20
37.69749972498624
 30
0.0
 10
23.26910653565254
 20
37.70399009046799
 30
0.0
 10
22.93007950500008
 20
37.70800055528766
 30
0.0
 10
22.38613321366701
 20
37.45126435348109
 30
0.0
 10
21.70804125313352
 20
37.0134230933762
 30
0.0
 10
21.39917431726846
 20
36.75559859084047
 30
0.0
 10
21.20848564891509
 20
36.71175363328574
 30
0.0
 10
21.10216760493077
 20
36.73265242700783
 30
0.0
 10
21.00755409539173
 20
36.69074174824807
 30
0.0
 10
21.03853565336656
 20
36.71058246009254
 30
0.0
 10
21.00755409539173
 20
36.69074174824807
 30
0.0
  0
SPLINE
  5
12E
330
1F
100
AcDbEntity
  8
0
  6
Continuous
 62
     7
100
AcDbSpline
210
0.0
220
0.0
230
1.0
 70
     8
 71
     3
 72
    19
 73
    15
 74
     0
 42
0.00000001
 43
0.00000001
 40
0.0
 40
0.0
 40
0.0
 40
0.0
 40
0.0628885525162549
 40
0.1249491983522498
 40
0.24946524761594
 40
0.5002780824654385
 40
0.564956663419344
 40
0.6262700154820616
 40
0.754332169457838
 40
0.7690693879611262
 40
0.7843616767538556
 40
0.8155941435146081
 40
0.8766692961206374
 40
1.0
 40
1.0
 40
1.0
 40
1.0
 10
21.00755113820244
 20
36.69074177045373
 30
0.0
 10
20.86479625242721
 20
36.63609551586259
 30
0.0
 10
20.71516892773713
 20
36.61626999949543
 30
0.0
 10
20.42742129357598
 20
36.52236474276695
 30
0.0
 10
19.84262269412811
 20
36.34976946640045
 30
0.0
 10
19.68530791227968
 20
36.35416445397448
 30
0.0
 10
19.56955142817372
 20
36.44861117122399
 30
0.0
 10
19.38060839173074
 20
36.69694107624669
 30
0.0
 10
19.34516769634143
 20
36.70248761104843
 30
0.0
 10
19.31539661662271
 20
36.72489360799887
 30
0.0
 10
19.26745889794818
 20
36.78400037655199
 30
0.0
 10
19.15183639750963
 20
36.87769134589004
 30
0.0
 10
18.93371827784399
 20
37.08442175084069
 30
0.0
 10
19.00226803642034
 20
37.01137833216127
 30
0.0
 10
18.93371827784399
 20
37.08442175084069
 30
0.0
  0
SPLINE
  5
12F
330
1F
100
AcDbEntity
  8
0
  6
Continuous
 62
     7
100
AcDbSpline
210
0.0
220
0.0
230
1.0
 70
     8
 71
     3
 72
    18
 73
    14
 74
     0
 42
0.00000001
 43
0.00000001
 40
0.0
 40
0.0
 40
0.0
 40
0.0
 40
0.1465363374871196
 40
0.26849037228823
 40
0.4546572818206585
 40
0.4949406904144762
 40
0.5423505281503088
 40
0.6374519802858465
 40
0.6588368485905539
 40
0.6790303221079291
 40
0.7284496895226971
 40
0.8202706248175149
 40
1.0
 40
1.0
 40
1.0
 40
1.0
 10
18.93370358877633
 20
37.0844218611415
 30
0.0
 10
18.37705862399824
 20
37.54383740161857
 30
0.0
 10
18.33139572291461
 20
38.14204186990992
 30
0.0
 10
17.99289925491382
 20
38.9938071811862
 30
0.0
 10
17.98581242568793
 20
39.19182822440513
 30
0.0
 10
18.09304633492921
 20
39.39856079506903
 30
0.0
 10
18.23293941199062
 20
39.84446970955868
 30
0.0
 10
18.29952245610895
 20
39.92568645074126
 30
0.0
 10
18.39562355712026
 20
39.95045057587419
 30
0.0
 10
18.63648640035717
 20
39.91722447844163
 30
0.0
 10
19.06618071511921
 20
40.05482266425556
 30
0.0
 10
19.78867145508702
 20
40.5619216072995
 30
0.0
 10
19.56096259051679
 20
40.38437417856395
 30
0.0
 10
19.78867145508702
 20
40.5619216072995
 30
0.0
  0
SPLINE
  5
130
330
1F
100
AcDbEntity
  8
0
  6
Continuous
 62
     7
100
AcDbSpline
210
0.0
220
0.0
230
1.0
 70
     8
 71
     3
 72
    19
 73
    15
 74
     0
 42
0.00000001
 43
0.00000001
 40
0.0
 40
0.0
 40
0.0
 40
0.0
 40
0.2143869413116025
 40
0.3322321367790622
 40
0.4329926960149209
 40
0.5017110870598394
 40
0.5689895762626087
 40
0.6622675390261364
 40
0.7090720747012943
 40
0.7527825713944224
 40
0.800679780954919
 40
0.8454752853644673
 40
0.9342083195777223
 40
1.0
 40
1.0
 40
1.0
 40
1.0
 10
19.78866417967435
 20
40.56192166193088
 30
0.0
 10
20.2817315394796
 20
41.59829517477549
 30
0.0
 10
20.20722623648517
 20
42.22571148875362
 30
0.0
 10
19.86295458621583
 20
42.64279711620902
 30
0.0
 10
19.49707137499152
 20
42.68586128095234
 30
0.0
 10
19.2491830111023
 20
42.42474949295094
 30
0.0
 10
19.00293146052003
 20
41.99041470701808
 30
0.0
 10
18.8240333100524
 20
41.81510999266077
 30
0.0
 10
18.59101086518525
 20
41.79178093474776
 30
0.0
 10
18.33431781542034
 20
41.79144591261336
 30
0.0
 10
18.16809805770676
 20
41.96517435155599
 30
0.0
 10
17.96574961214536
 20
42.3961523485321
 30
0.0
 10
18.1774188246278
 20
42.67753072118239
 30
0.0
 10
18.08019305840173
 20
42.58665545402051
 30
0.0
 10
18.1774188246278
 20
42.67753072118239
 30
0.0
  0
SPLINE
  5
131
330
1F
100
AcDbEntity
  8
0
  6
Continuous
 62
     7
100
AcDbSpline
210
0.0
220
0.0
230
1.0
 70
     8
 71
     3
 72
     9
 73
     5
 74
     0
 42
0.00000001
 43
0.00000001
 40
0.0
 40
0.0
 40
0.0
 40
0.0
 40
0.5635633673852041
 40
1.0
 40
1.0
 40
1.0
 40
1.0
 10
18.17741677023094
 20
42.67753073660892
 30
0.0
 10
18.53514224869668
 20
43.14271531271005
 30
0.0
 10
18.72302599060654
 20
43.55667491376626
 30
0.0
 10
18.66688259557543
 20
43.41478155923755
 30
0.0
 10
18.72302599060654
 20
43.55667491376626
 30
0.0
  0
SPLINE
  5
132
330
1F
100
AcDbEntity
  8
0
  6
Continuous
 62
     7
100
AcDbSpline
210
0.0
220
0.0
230
1.0
 70
     8
 71
     3
 72
    15
 73
    11
 74
     0
 42
0.00000001
 43
0.00000001
 40
0.0
 40
0.0
 40
0.0
 40
0.0
 40
0.0613259672385078
 40
0.1249648372632005
 40
0.2505009887036047
 40
0.5025383498757255
 40
0.5659039086588172
 40
0.626500995829163
 40
0.7513995502518739
 40
1.0
 40
1.0
 40
1.0
 40
1.0
 10
18.7230251264441
 20
43.55667492025529
 30
0.0
 10
18.62687423699482
 20
43.68900691201689
 30
0.0
 10
18.48601065522734
 20
43.78370178398996
 30
0.0
 10
18.15169209125222
 20
43.78961326478736
 30
0.0
 10
17.48041365211796
 20
43.79034436072354
 30
0.0
 10
17.3227099929268
 20
43.73070871724612
 30
0.0
 10
17.17143134482007
 20
43.67491566922268
 30
0.0
 10
16.8796330381401
 20
43.51604711817382
 30
0.0
 10
16.44572851860472
 20
43.01717744884479
 30
0.0
 10
16.57476142625851
 20
43.20099840414859
 30
0.0
 10
16.44572851860472
 20
43.01717744884479
 30
0.0
  0
SPLINE
  5
133
330
1F
100
AcDbEntity
  8
0
  6
Continuous
 62
     7
100
AcDbSpline
210
0.0
220
0.0
230
1.0
 70
     8
 71
     3
 72
     9
 73
     5
 74
     0
 42
0.00000001
 43
0.00000001
 40
0.0
 40
0.0
 40
0.0
 40
0.0
 40
0.5603561459943651
 40
1.0
 40
1.0
 40
1.0
 40
1.0
 10
16.44571670412592
 20
43.01717753756019
 30
0.0
 10
16.30056294951063
 20
42.7419443663149
 30
0.0
 10
16.22555646629437
 20
42.50952556651301
 30
0.0
 10
16.24770987049497
 20
42.58820580141104
 30
0.0
 10
16.22555646629438
 20
42.50952556651302
 30
0.0
  0
SPLINE
  5
134
330
1F
100
AcDbEntity
  8
0
  6
Continuous
 62
     7
100
AcDbSpline
210
0.0
220
0.0
230
1.0
 70
     8
 71
     3
 72
    19
 73
    15
 74
     0
 42
0.00000001
 43
0.00000001
 40
0.0
 40
0.0
 40
0.0
 40
0.0
 40
0.2448668373857448
 40
0.3075826054320142
 40
0.3404710000230836
 40
0.3695127951499683
 40
0.4992727525092905
 40
0.6313310888575969
 40
0.7510047633906369
 40
0.8136118661209895
 40
0.8460257887749724
 40
0.8758747260638675
 40
0.9370767393447879
 40
1.0
 40
1.0
 40
1.0
 40
1.0
 10
16.22555110569695
 20
42.50952560676596
 30
0.0
 10
16.35574550908317
 20
41.48302109553808
 30
0.0
 10
16.46608234198311
 20
41.24184727496743
 30
0.0
 10
16.54743507197688
 20
41.12899491248921
 30
0.0
 10
16.61064062450589
 20
41.0236685577041
 30
0.0
 10
16.40820927301697
 20
40.51490924585862
 30
0.0
 10
16.25931004217846
 20
39.97776815502953
 30
0.0
 10
15.82177030355788
 20
39.72593265522999
 30
0.0
 10
15.72860612826522
 20
39.47870759221541
 30
0.0
 10
15.71886412924074
 20
39.34216397299858
 30
0.0
 10
15.61867967246607
 20
39.26591695931361
 30
0.0
 10
15.45250572999738
 20
39.06837935607352
 30
0.0
 10
15.44705725038994
 20
38.80265708394711
 30
0.0
 10
15.43651257235291
 20
38.89481547773762
 30
0.0
 10
15.44705725038994
 20
38.80265708394711
 30
0.0
  0
SPLINE
  5
135
330
1F
100
AcDbEntity
  8
0
  6
Continuous
 62
     7
100
AcDbSpline
210
0.0
220
0.0
230
1.0
 70
     8
 71
     3
 72
    22
 73
    18
 74
     0
 42
0.00000001
 43
0.00000001
 40
0.0
 40
0.0
 40
0.0
 40
0.0
 40
0.0180481688096009
 40
0.0327191311968269
 40
0.0641421367601887
 40
0.1569800750309879
 40
0.2002721463237347
 40
0.2475911971686952
 40
0.3402315411574172
 40
0.4323378886206973
 40
0.4566400753837541
 40
0.4796143275227984
 40
0.526685866244657
 40
0.6203344595173711
 40
0.813100131851192
 40
0.9060296079003258
 40
1.0
 40
1.0
 40
1.0
 40
1.0
 10
15.44705007014291
 20
38.80265713786387
 30
0.0
 10
15.38819267175132
 20
38.79454399238697
 30
0.0
 10
15.35170789150736
 20
38.76297636851008
 30
0.0
 10
15.30171553095775
 20
38.67251130762903
 30
0.0
 10
15.20789557268211
 20
38.38178161308288
 30
0.0
 10
15.1222218118337
 20
38.26806891026217
 30
0.0
 10
15.01995396084478
 20
38.15078291123012
 30
0.0
 10
14.98946615271323
 20
37.8472905978465
 30
0.0
 10
15.11245014705836
 20
37.56962258424623
 30
0.0
 10
15.16607241604159
 20
37.51004360334272
 30
0.0
 10
15.16487809595629
 20
37.43439098234929
 30
0.0
 10
15.10527073924465
 20
37.29145782378745
 30
0.0
 10
14.96559631276795
 20
37.01688669269824
 30
0.0
 10
14.68686225220718
 20
36.44731433942604
 30
0.0
 10
14.4916671825095
 20
36.21216686798281
 30
0.0
 10
14.2069648309802
 20
36.09169166890524
 30
0.0
 10
14.30851096231462
 20
36.12219434113167
 30
0.0
 10
14.2069648309802
 20
36.09169166890524
 30
0.0
  0
SPLINE
  5
136
330
1F
100
AcDbEntity
  8
0
  6
Continuous
 62
     7
100
AcDbSpline
210
0.0
220
0.0
230
1.0
 70
     8
 71
     3
 72
    46
 73
    42
 74
     0
 42
0.00000001
 43
0.00000001
 40
0.0
 40
0.0
 40
0.0
 40
0.0
 40
0.0525081748730468
 40
0.1041852845119246
 40
0.1221215316532219
 40
0.1393431255606083
 40
0.1449707184478096
 40
0.1510175922205171
 40
0.1628080682625483
 40
0.1864538134109055
 40
0.2020942246534283
 40
0.2099715874492199
 40
0.2180303272042771
 40
0.2259385187028542
 40
0.2338419129085861
 40
0.2495801353575336
 40
0.2732512904879088
 40
0.2850178997532323
 40
0.2966644705374734
 40
0.3311184377253986
 40
0.3667314326146383
 40
0.4017017428835473
 40
0.4369546491415525
 40
0.4463400225041491
 40
0.4538354802554939
 40
0.4713741800879596
 40
0.5018457340061644
 40
0.5037775133029809
 40
0.505053090107364
 40
0.5197224158055669
 40
0.5791978095948261
 40
0.6857039384040694
 40
0.7151325852472624
 40
0.7445029072132953
 40
0.7493720132525201
 40
0.7609309610922537
 40
0.7874917541235016
 40
0.8936044074263096
 40
0.9474446491679446
 40
0.9740905052743413
 40
1.0
 40
1.0
 40
1.0
 40
1.0
 10
14.2069640541068
 20
36.09169167473881
 30
0.0
 10
13.57422375813578
 20
35.2291727538682
 30
0.0
 10
13.6082724269485
 20
34.17531046474869
 30
0.0
 10
13.79588256999315
 20
33.86057548829476
 30
0.0
 10
14.12004193789345
 20
33.72411699421327
 30
0.0
 10
14.22603639413054
 20
33.76791399242006
 30
0.0
 10
14.2960609994524
 20
33.86927030464778
 30
0.0
 10
14.42761593609156
 20
34.07025898149077
 30
0.0
 10
14.61856821262654
 20
34.51270077551833
 30
0.0
 10
14.77444028029899
 20
34.79066275999743
 30
0.0
 10
14.92782689043184
 20
34.83814729979321
 30
0.0
 10
15.09084359232689
 20
34.81634626642942
 30
0.0
 10
15.17275694256121
 20
34.67710265731737
 30
0.0
 10
15.16159476940815
 20
34.51627871670441
 30
0.0
 10
15.05157745628503
 20
34.2149566386039
 30
0.0
 10
14.85346910427945
 20
33.77512159820905
 30
0.0
 10
14.82971052256872
 20
33.53631026912266
 30
0.0
 10
14.96895189747309
 20
33.34336089869061
 30
0.0
 10
15.66701883234555
 20
33.42344035171708
 30
0.0
 10
16.2287209968642
 20
33.88258893386063
 30
0.0
 10
16.50160749791509
 20
34.54097756974933
 30
0.0
 10
16.36748912241629
 20
35.24798709670383
 30
0.0
 10
16.26037006134257
 20
35.40701607665287
 30
0.0
 10
16.24997370271009
 20
35.55961477599216
 30
0.0
 10
16.43955431919231
 20
35.86251497653816
 30
0.0
 10
16.64825823665339
 20
36.44748521867062
 30
0.0
 10
16.67073678198722
 20
36.47979022773662
 30
0.0
 10
16.69580249524429
 20
36.48670782893742
 30
0.0
 10
16.85408823240844
 20
36.23224193673319
 30
0.0
 10
17.53455977916459
 20
35.22558457860497
 30
0.0
 10
18.92423916814645
 20
33.55105021431061
 30
0.0
 10
19.41047045971152
 20
33.19741568328123
 30
0.0
 10
20.00292581179025
 20
33.28513680887365
 30
0.0
 10
20.09567131663564
 20
33.32043361028402
 30
0.0
 10
20.17636617653498
 20
33.09860568434452
 30
0.0
 10
20.17429276286659
 20
32.55672554919002
 30
0.0
 10
20.15965908448362
 20
30.39192037940593
 30
0.0
 10
20.15354334486954
 20
29.29351315333982
 30
0.0
 10
20.0917250618848
 20
28.75359879966837
 30
0.0
 10
19.70544947752061
 20
28.39392810762863
 30
0.0
 10
19.86142581104388
 20
28.49955389630461
 30
0.0
 10
19.70544947752061
 20
28.39392810762863
 30
0.0
  0
SPLINE
  5
137
330
1F
100
AcDbEntity
  8
0
  6
Continuous
 62
     7
100
AcDbSpline
210
0.0
220
0.0
230
1.0
 70
     8
 71
     3
 72
    10
 73
     6
 74
     0
 42
0.00000001
 43
0.00000001
 40
0.0
 40
0.0
 40
0.0
 40
0.0
 40
0.2432045456714841
 40
0.4979897691334771
 40
1.0
 40
1.0
 40
1.0
 40
1.0
 10
18.0231263851676
 20
21.72823489473218
 30
0.0
 10
17.844696014733
 20
21.33927676581854
 30
0.0
 10
17.94695501620706
 20
20.90195599591432
 30
0.0
 10
18.20940851166323
 20
20.05669564411178
 30
0.0
 10
18.13171993734766
 20
20.3348161185815
 30
0.0
 10
18.20940851166323
 20
20.05669564411178
 30
0.0
  0
SPLINE
  5
138
330
1F
100
AcDbEntity
  8
0
  6
Continuous
 62
     7
100
AcDbSpline
210
0.0
220
0.0
230
1.0
 70
     8
 71
     3
 72
    10
 73
     6
 74
     0
 42
0.00000001
 43
0.00000001
 40
0.0
 40
0.0
 40
0.0
 40
0.0
 40
0.5018001566932528
 40
0.7485237746261583
 40
1.0
 40
1.0
 40
1.0
 40
1.0
 10
17.54264488132177
 20
19.29601839314757
 30
0.0
 10
16.41170925975256
 20
18.94265248178143
 30
0.0
 10
16.11300354080301
 20
18.4427816948586
 30
0.0
 10
16.11407683869864
 20
17.8484527435445
 30
0.0
 10
16.09071312391652
 20
18.04919761997299
 30
0.0
 10
16.11407683869864
 20
17.8484527435445
 30
0.0
  0
LINE
  5
139
330
1F
100
AcDbEntity
  8
0
  6
Continuous
 62
     7
100
AcDbLine
 10
0.0
 20
39.9780273438
 30
0.0
 11
0.0
 21
0.0
 31
0.0
  0
SPLINE
  5
13A
330
1F
100
AcDbEntity
  8
0
  6
Continuous
 62
     7
100
AcDbSpline
210
0.0
220
0.0
230
1.0
 70
     8
 71
     3
 72
    35
 73
    31
 74
     0
 42
0.00000001
 43
0.00000001
 40
0.0
 40
0.0
 40
0.0
 40
0.0
 40
0.0506733951980479
 40
0.0666352650362367
 40
0.0675146722189006
 40
0.0685395888906245
 40
0.0715528096434553
 40
0.0848091841904582
 40
0.1290298733021515
 40
0.1748849920174687
 40
0.2207432146400226
 40
0.2646538788267961
 40
0.4476343408975071
 40
0.4923161192082899
 40
0.5178617763620709
 40
0.5359726292988857
 40
0.5400770997339542
 40
0.5876610262088077
 40
0.5996538508594725
 40
0.6096430704755315
 40
0.6337372350993259
 40
0.6566293941483504
 40
0.6788697496443343
 40
0.7249939110892974
 40
0.8169567348834332
 40
0.9527267612303377
 40
0.9704281861893397
 40
0.987441676574489
 40
0.9923218753719878
 40
0.9999999999999999
 40
0.9999999999999999
 40
0.9999999999999999
 40
0.9999999999999999
 10
20.60602579635185
 20
24.37305816267544
 30
0.0
 10
20.38725414385654
 20
24.31442847358655
 30
0.0
 10
20.32337636829952
 20
24.28272440613583
 30
0.0
 10
20.32362838157614
 20
24.27879794046397
 30
0.0
 10
20.32626254861834
 20
24.27503776782394
 30
0.0
 10
20.33757987070393
 20
24.26768393594287
 30
0.0
 10
20.39228587823338
 20
24.24464553004407
 30
0.0
 10
20.49895137495687
 20
24.07774422224977
 30
0.0
 10
20.5367362076975
 20
23.87602120431341
 30
0.0
 10
20.53664941073351
 20
23.67088691099136
 30
0.0
 10
20.61502649300848
 20
23.49054664589811
 30
0.0
 10
20.60636525670624
 20
22.67210389241508
 30
0.0
 10
20.61072224657694
 20
22.472266313074
 30
0.0
 10
20.60025897401646
 20
22.35850596844646
 30
0.0
 10
20.59647184501987
 20
22.27759177381476
 30
0.0
 10
20.61344213985727
 20
22.270535717848
 30
0.0
 10
20.82578314841223
 20
22.25530898268119
 30
0.0
 10
20.87275898566799
 20
22.22926522236666
 30
0.0
 10
20.89342219824341
 20
22.18958463413337
 30
0.0
 10
20.88150130079898
 20
22.08250277498894
 30
0.0
 10
20.92499407718547
 20
21.98966721893407
 30
0.0
 10
20.94227000840968
 20
21.8916409290136
 30
0.0
 10
20.93931647297842
 20
21.68534672030539
 30
0.0
 10
20.93785419045952
 20
21.27398243797975
 30
0.0
 10
21.02647368406243
 20
20.67288755875543
 30
0.0
 10
21.01935973577723
 20
20.59404644727701
 30
0.0
 10
20.9681132825742
 20
20.53793663636078
 30
0.0
 10
20.96338478935068
 20
20.5166388075341
 30
0.0
 10
20.98130590630451
 20
20.48728598066737
 30
0.0
 10
20.97294891146283
 20
20.49650235320469
 30
0.0
 10
20.98130590630451
 20
20.48728598066738
 30
0.0
  0
SPLINE
  5
13C
330
1F
100
AcDbEntity
  8
0
  6
Continuous
 62
     7
100
AcDbSpline
210
0.0
220
0.0
230
1.0
 70
     8
 71
     3
 72
     9
 73
     5
 74
     0
 42
0.00000001
 43
0.00000001
 40
0.0
 40
0.0
 40
0.0
 40
0.0
 40
0.5590551669749304
 40
1.0
 40
1.0
 40
1.0
 40
1.0
 10
30.63638229374235
 20
40.365819535043
 30
0.0
 10
30.95963294842897
 20
40.94910944713569
 30
0.0
 10
31.09737236208485
 20
41.45702180391285
 30
0.0
 10
31.06007372813307
 20
41.28420094424317
 30
0.0
 10
31.09737236208485
 20
41.45702180391285
 30
0.0
  0
SPLINE
  5
13D
330
1F
100
AcDbEntity
  8
0
  6
Continuous
 62
     7
100
AcDbSpline
210
0.0
220
0.0
230
1.0
 70
     8
 71
     3
 72
    22
 73
    18
 74
     0
 42
0.00000001
 43
0.00000001
 40
0.0
 40
0.0
 40
0.0
 40
0.0
 40
0.1262388415521694
 40
0.2507742466920431
 40
0.3098745664201492
 40
0.3563929776266595
 40
0.4026649071955871
 40
0.4394124537347408
 40
0.484414977347189
 40
0.5105566175203071
 40
0.5325117844805896
 40
0.5487019861749431
 40
0.5627116652809467
 40
0.5857250462500471
 40
0.6273249469761468
 40
0.811992976566695
 40
1.0
 40
1.0
 40
1.0
 40
1.0
 10
31.09736619631644
 20
41.45702185021186
 30
0.0
 10
31.37754102775035
 20
42.20934468687743
 30
0.0
 10
31.91817863666219
 20
42.78749160768022
 30
0.0
 10
32.24584914768237
 20
42.97132129296345
 30
0.0
 10
32.51593486383518
 20
43.09188891753966
 30
0.0
 10
32.81045180321805
 20
43.09409380123845
 30
0.0
 10
33.0443570739893
 20
43.09449801087959
 30
0.0
 10
33.32693455064455
 20
43.04669047152442
 30
0.0
 10
33.45038503595702
 20
42.9347426219401
 30
0.0
 10
33.58305548062415
 20
42.89042619458917
 30
0.0
 10
33.66663463372834
 20
42.95046958862085
 30
0.0
 10
33.7286966599743
 20
43.01432331832292
 30
0.0
 10
33.84202097838985
 20
43.10681152609809
 30
0.0
 10
34.05047645226272
 20
43.26948427657065
 30
0.0
 10
35.18214597909193
 20
43.58397720605235
 30
0.0
 10
36.37834692307916
 20
43.54534430465712
 30
0.0
 10
35.98406315922606
 20
43.57538319065849
 30
0.0
 10
36.37834692307917
 20
43.54534430465713
 30
0.0
  0
SPLINE
  5
13E
330
1F
100
AcDbEntity
  8
0
  6
Continuous
 62
     7
100
AcDbSpline
210
0.0
220
0.0
230
1.0
 70
     8
 71
     3
 72
    15
 73
    11
 74
     0
 42
0.00000001
 43
0.00000001
 40
0.0
 40
0.0
 40
0.0
 40
0.0
 40
0.3730031889180602
 40
0.5593333764379564
 40
0.7442145524373011
 40
0.932433254698033
 40
0.9560727463779642
 40
0.968024170311836
 40
0.9772570505585871
 40
1.0
 40
1.0
 40
1.0
 40
1.0
 10
36.37833281615023
 20
43.54534441058664
 30
0.0
 10
38.12633326897898
 20
42.62127760051163
 30
0.0
 10
38.73416185527827
 20
41.84245211143271
 30
0.0
 10
38.80720504900635
 20
40.86610498341124
 30
0.0
 10
38.14785798255375
 20
40.12089312560472
 30
0.0
 10
38.05544032105767
 20
40.03677145610214
 30
0.0
 10
38.00095697048076
 20
40.00475947572556
 30
0.0
 10
37.9709317236358
 20
39.96627460120454
 30
0.0
 10
38.04201671009287
 20
39.86887337272815
 30
0.0
 10
38.00144849406539
 20
39.90061195069821
 30
0.0
 10
38.04201671009287
 20
39.86887337272815
 30
0.0
  0
SPLINE
  5
13F
330
1F
100
AcDbEntity
  8
0
  6
Continuous
 62
     7
100
AcDbSpline
210
0.0
220
0.0
230
1.0
 70
     8
 71
     3
 72
    10
 73
     6
 74
     0
 42
0.00000001
 43
0.00000001
 40
0.0
 40
0.0
 40
0.0
 40
0.0
 40
0.2529723328760979
 40
0.5051586519794742
 40
1.0
 40
1.0
 40
1.0
 40
1.0
 10
38.35011994318476
 20
39.34861897651922
 30
0.0
 10
38.40893818010508
 20
39.1246618430141
 30
0.0
 10
38.31083853994337
 20
38.91619372984933
 30
0.0
 10
37.90055773868939
 20
38.7263535721113
 30
0.0
 10
38.05357199844156
 20
38.76520211522892
 30
0.0
 10
37.90055773868939
 20
38.7263535721113
 30
0.0
  0
SPLINE
  5
140
330
1F
100
AcDbEntity
  8
0
  6
Continuous
 62
     7
100
AcDbSpline
210
0.0
220
0.0
230
1.0
 70
     8
 71
     3
 72
    11
 73
     7
 74
     0
 42
0.00000001
 43
0.00000001
 40
0.0
 40
0.0
 40
0.0
 40
0.0
 40
0.24347117596253
 40
0.5088781777411994
 40
0.752932788428162
 40
0.9999999999999999
 40
0.9999999999999999
 40
0.9999999999999999
 40
0.9999999999999999
 10
37.93606453158516
 20
38.44517162247421
 30
0.0
 10
37.86615652852466
 20
38.26426845794729
 30
0.0
 10
37.73819613763259
 20
38.09609586176879
 30
0.0
 10
37.70837708999444
 20
37.90388093436997
 30
0.0
 10
37.59443851868372
 20
37.74351257313378
 30
0.0
 10
37.64225506027478
 20
37.79286629296951
 30
0.0
 10
37.59443851868372
 20
37.74351257313378
 30
0.0
  0
SPLINE
  5
141
330
1F
100
AcDbEntity
  8
0
  6
Continuous
 62
     7
100
AcDbSpline
210
0.0
220
0.0
230
1.0
 70
     8
 71
     3
 72
    10
 73
     6
 74
     0
 42
0.00000001
 43
0.00000001
 40
0.0
 40
0.0
 40
0.0
 40
0.0
 40
0.2590128856562994
 40
0.501379577278478
 40
0.9999999999999999
 40
0.9999999999999999
 40
0.9999999999999999
 40
0.9999999999999999
 10
37.59442897671981
 20
37.74351264478478
 30
0.0
 10
37.34042262977547
 20
37.37350701076954
 30
0.0
 10
36.93713545621173
 20
37.25552840113858
 30
0.0
 10
36.10505762068799
 20
37.49495153992478
 30
0.0
 10
36.37308120088943
 20
37.37209796894307
 30
0.0
 10
36.10505762068799
 20
37.49495153992478
 30
0.0
  0
SPLINE
  5
142
330
1F
100
AcDbEntity
  8
0
  6
Continuous
 62
     7
100
AcDbSpline
210
0.0
220
0.0
230
1.0
 70
     8
 71
     3
 72
    10
 73
     6
 74
     0
 42
0.00000001
 43
0.00000001
 40
0.0
 40
0.0
 40
0.0
 40
0.0
 40
0.2320799403097927
 40
0.3311038747872104
 40
1.0
 40
1.0
 40
1.0
 40
1.0
 10
36.10503506643536
 20
37.4949517092856
 30
0.0
 10
36.08224046405295
 20
37.48082097229135
 30
0.0
 10
36.07981874877925
 20
37.4696280031628
 30
0.0
 10
36.14810809999994
 20
37.43298887255926
 30
0.0
 10
36.11401815658538
 20
37.43872506428787
 30
0.0
 10
36.14810809999994
 20
37.43298887255926
 30
0.0
  0
SPLINE
  5
143
330
1F
100
AcDbEntity
  8
0
  6
Continuous
 62
     7
100
AcDbSpline
210
0.0
220
0.0
230
1.0
 70
     8
 71
     3
 72
    11
 73
     7
 74
     0
 42
0.00000001
 43
0.00000001
 40
0.0
 40
0.0
 40
0.0
 40
0.0
 40
0.2469237262117414
 40
0.5007407447920666
 40
0.7494943774827261
 40
1.0
 40
1.0
 40
1.0
 40
1.0
 10
36.54464430525272
 20
37.09321851087276
 30
0.0
 10
36.62408585927753
 20
36.87024783931911
 30
0.0
 10
36.6010846169463
 20
36.62832777681209
 30
0.0
 10
36.76315681286528
 20
36.45324880996471
 30
0.0
 10
36.93876671488095
 20
36.28928114613718
 30
0.0
 10
36.88414060570404
 20
36.34438550631275
 30
0.0
 10
36.93876671488095
 20
36.28928114613718
 30
0.0
  0
SPLINE
  5
144
330
1F
100
AcDbEntity
  8
0
  6
Continuous
 62
     7
100
AcDbSpline
210
0.0
220
0.0
230
1.0
 70
     8
 71
     3
 72
    11
 73
     7
 74
     0
 42
0.00000001
 43
0.00000001
 40
0.0
 40
0.0
 40
0.0
 40
0.0
 40
0.4928034405317241
 40
0.7507199618230501
 40
0.8712301354163728
 40
1.0
 40
1.0
 40
1.0
 40
1.0
 10
37.73457539879728
 20
35.26565447240441
 30
0.0
 10
38.19820015271869
 20
35.04580656999582
 30
0.0
 10
38.40823991238753
 20
34.87834227276313
 30
0.0
 10
38.48104200179001
 20
34.77610229794506
 30
0.0
 10
38.4749806547395
 20
34.64233026898063
 30
0.0
 10
38.48415953921565
 20
34.6888013887872
 30
0.0
 10
38.4749806547395
 20
34.64233026898063
 30
0.0
  0
SPLINE
  5
145
330
1F
100
AcDbEntity
  8
0
  6
Continuous
 62
     7
100
AcDbSpline
210
0.0
220
0.0
230
1.0
 70
     8
 71
     3
 72
    18
 73
    14
 74
     0
 42
0.00000001
 43
0.00000001
 40
0.0
 40
0.0
 40
0.0
 40
0.0
 40
0.2497972638862594
 40
0.4997677657286478
 40
0.5632899320055105
 40
0.6280899735353488
 40
0.6580363303840332
 40
0.6884468158068018
 40
0.7501589497043679
 40
0.8747079737379163
 40
0.9381333176803789
 40
0.9688821637738343
 40
1.0
 40
1.0
 40
1.0
 40
1.0
 10
40.56193880564647
 20
36.29872395894991
 30
0.0
 10
40.51964327881958
 20
37.33150216440455
 30
0.0
 10
41.07812363168334
 20
38.20029568186879
 30
0.0
 10
41.34086099366075
 20
38.1936328241412
 30
0.0
 10
41.52499892261963
 20
38.38794102113918
 30
0.0
 10
41.56007943667366
 20
38.50666646858073
 30
0.0
 10
41.4965116152291
 20
38.61543645108223
 30
0.0
 10
41.4451656164621
 20
38.86570262252986
 30
0.0
 10
41.62847181486449
 20
39.34675826218946
 30
0.0
 10
41.80469511174208
 20
39.54066625033409
 30
0.0
 10
41.93154498787836
 20
39.54990247140145
 30
0.0
 10
42.06023707924086
 20
39.55304147063188
 30
0.0
 10
42.01788479867608
 20
39.55128781499661
 30
0.0
 10
42.06023707924086
 20
39.55304147063188
 30
0.0
  0
SPLINE
  5
146
330
1F
100
AcDbEntity
  8
0
  6
Continuous
 62
     7
100
AcDbSpline
210
0.0
220
0.0
230
1.0
 70
     8
 71
     3
 72
    10
 73
     6
 74
     0
 42
0.00000001
 43
0.00000001
 40
0.0
 40
0.0
 40
0.0
 40
0.0
 40
0.4980445814829189
 40
0.7442164910886108
 40
1.0
 40
1.0
 40
1.0
 40
1.0
 10
42.06021843580127
 20
39.55304161062624
 30
0.0
 10
42.39228060252598
 20
39.954802062233
 30
0.0
 10
42.56215386146016
 20
40.14848796918999
 30
0.0
 10
42.67770526708662
 20
40.39004690723341
 30
0.0
 10
42.64467111108495
 20
40.3058845369856
 30
0.0
 10
42.67770526708662
 20
40.39004690723341
 30
0.0
  0
SPLINE
  5
147
330
1F
100
AcDbEntity
  8
0
  6
Continuous
 62
     7
100
AcDbSpline
210
0.0
220
0.0
230
1.0
 70
     8
 71
     3
 72
    12
 73
     8
 74
     0
 42
0.00000001
 43
0.00000001
 40
0.0
 40
0.0
 40
0.0
 40
0.0
 40
0.2544566529466414
 40
0.5011407528442342
 40
0.6356237715581183
 40
0.7429989493653402
 40
1.0
 40
1.0
 40
1.0
 40
1.0
 10
43.40531030176982
 20
39.56962976152381
 30
0.0
 10
43.51811918747528
 20
39.35346511919683
 30
0.0
 10
43.4476168547441
 20
39.12835429659039
 30
0.0
 10
43.36141248186882
 20
39.03303837690385
 30
0.0
 10
43.34322469481818
 20
38.93194908609448
 30
0.0
 10
43.49740278297143
 20
38.73984483929011
 30
0.0
 10
43.42564454742443
 20
38.79579387643275
 30
0.0
 10
43.49740278297143
 20
38.73984483929011
 30
0.0
  0
SPLINE
  5
148
330
1F
100
AcDbEntity
  8
0
  6
Continuous
 62
     7
100
AcDbSpline
210
0.0
220
0.0
230
1.0
 70
     8
 71
     3
 72
     9
 73
     5
 74
     0
 42
0.00000001
 43
0.00000001
 40
0.0
 40
0.0
 40
0.0
 40
0.0
 40
0.5572558343738697
 40
1.0
 40
1.0
 40
1.0
 40
1.0
 10
43.497378979224
 20
38.73984501803343
 30
0.0
 10
43.50355378752801
 20
38.42497652759728
 30
0.0
 10
43.42628828529431
 20
38.18723919568473
 30
0.0
 10
43.45810694003526
 20
38.26556788948683
 30
0.0
 10
43.42628828529431
 20
38.18723919568473
 30
0.0
  0
SPLINE
  5
149
330
1F
100
AcDbEntity
  8
0
  6
Continuous
 62
     7
100
AcDbSpline
210
0.0
220
0.0
230
1.0
 70
     8
 71
     3
 72
    15
 73
    11
 74
     0
 42
0.00000001
 43
0.00000001
 40
0.0
 40
0.0
 40
0.0
 40
0.0
 40
0.249116651456654
 40
0.3788506703093358
 40
0.5012213223499796
 40
0.7500652699391823
 40
0.8134936243731682
 40
0.8431679734875069
 40
0.8754886522534868
 40
0.9999999999999999
 40
0.9999999999999999
 40
0.9999999999999999
 40
0.9999999999999999
 10
43.42625975778256
 20
38.18723940989899
 30
0.0
 10
43.03437139670216
 20
37.9126090634801
 30
0.0
 10
42.86865808819238
 20
37.72649854017684
 30
0.0
 10
43.00137863902366
 20
37.53168161499008
 30
0.0
 10
43.07024487659898
 20
37.05775126092266
 30
0.0
 10
43.07077894185408
 20
36.93573282105456
 30
0.0
 10
43.05585577528766
 20
36.88067781148821
 30
0.0
 10
43.01746909336691
 20
36.83188325918689
 30
0.0
 10
43.04849401134947
 20
36.59428435097808
 30
0.0
 10
43.01105830289652
 20
36.68178435686085
 30
0.0
 10
43.04849401134947
 20
36.59428435097808
 30
0.0
  0
SPLINE
  5
14A
330
1F
100
AcDbEntity
  8
0
  6
Continuous
 62
     7
100
AcDbSpline
210
0.0
220
0.0
230
1.0
 70
     8
 71
     3
 72
    11
 73
     7
 74
     0
 42
0.00000001
 43
0.00000001
 40
0.0
 40
0.0
 40
0.0
 40
0.0
 40
0.2531280392764775
 40
0.4356403791255248
 40
0.6260721938955791
 40
0.9999999999999999
 40
0.9999999999999999
 40
0.9999999999999999
 40
0.9999999999999999
 10
43.04724840683827
 20
36.32037596434895
 30
0.0
 10
43.01113309975444
 20
36.28219159744107
 30
0.0
 10
43.02087687982407
 20
36.24548120713692
 30
0.0
 10
43.04813800502981
 20
36.21667809264303
 30
0.0
 10
43.09342623326386
 20
36.15333588887366
 30
0.0
 10
43.0798503406989
 20
36.17593818303355
 30
0.0
 10
43.09342623326386
 20
36.15333588887366
 30
0.0
  0
SPLINE
  5
14B
330
1F
100
AcDbEntity
  8
0
  6
Continuous
 62
     7
100
AcDbSpline
210
0.0
220
0.0
230
1.0
 70
     8
 71
     3
 72
    10
 73
     6
 74
     0
 42
0.00000001
 43
0.00000001
 40
0.0
 40
0.0
 40
0.0
 40
0.0
 40
0.3166223523294979
 40
0.5626244239331303
 40
1.0
 40
1.0
 40
1.0
 40
1.0
 10
43.09200902928193
 20
35.84095197541573
 30
0.0
 10
42.98509105871061
 20
35.61282801285628
 30
0.0
 10
42.846947647824
 20
35.47424898866865
 30
0.0
 10
42.55474846555616
 20
35.28536315920514
 30
0.0
 10
42.65494448736923
 20
35.3436092186347
 30
0.0
 10
42.55474846555617
 20
35.28536315920515
 30
0.0
  0
SPLINE
  5
14C
330
1F
100
AcDbEntity
  8
0
  6
Continuous
 62
     7
100
AcDbSpline
210
0.0
220
0.0
230
1.0
 70
     8
 71
     3
 72
     9
 73
     5
 74
     0
 42
0.00000001
 43
0.00000001
 40
0.0
 40
0.0
 40
0.0
 40
0.0
 40
0.5598638895800824
 40
1.0
 40
1.0
 40
1.0
 40
1.0
 10
42.5547224388205
 20
35.28536335464098
 30
0.0
 10
42.54298943935054
 20
35.20882876170521
 30
0.0
 10
42.54157456509898
 20
35.14795163715507
 30
0.0
 10
42.54147335235656
 20
35.16829606363731
 30
0.0
 10
42.54157456509898
 20
35.14795163715507
 30
0.0
  0
SPLINE
  5
14D
330
1F
100
AcDbEntity
  8
0
  6
Continuous
 62
     7
100
AcDbSpline
210
0.0
220
0.0
230
1.0
 70
     8
 71
     3
 72
     9
 73
     5
 74
     0
 42
0.00000001
 43
0.00000001
 40
0.0
 40
0.0
 40
0.0
 40
0.0
 40
0.5580266327528496
 40
1.0
 40
1.0
 40
1.0
 40
1.0
 10
42.53896890130391
 20
34.57181825080613
 30
0.0
 10
43.17940643935763
 20
33.29291295045033
 30
0.0
 10
43.10366147817552
 20
32.16418005772395
 30
0.0
 10
43.17185415323469
 20
32.54895463260776
 30
0.0
 10
43.10366147817552
 20
32.16418005772396
 30
0.0
  0
SPLINE
  5
14E
330
1F
100
AcDbEntity
  8
0
  6
Continuous
 62
     7
100
AcDbSpline
210
0.0
220
0.0
230
1.0
 70
     8
 71
     3
 72
    10
 73
     6
 74
     0
 42
0.00000001
 43
0.00000001
 40
0.0
 40
0.0
 40
0.0
 40
0.0
 40
0.2518230889642274
 40
0.504475140841429
 40
1.0
 40
1.0
 40
1.0
 40
1.0
 10
43.10365807959636
 20
32.16418008324403
 30
0.0
 10
42.66772431429926
 20
31.21474405981606
 30
0.0
 10
41.88994823788448
 20
30.5126727714105
 30
0.0
 10
39.90404164550214
 20
29.97861421772349
 30
0.0
 10
40.59981288881748
 20
30.0736609645413
 30
0.0
 10
39.90404164550214
 20
29.97861421772349
 30
0.0
  0
SPLINE
  5
14F
330
1F
100
AcDbEntity
  8
0
  6
Continuous
 62
     7
100
AcDbSpline
210
0.0
220
0.0
230
1.0
 70
     8
 71
     3
 72
    11
 73
     7
 74
     0
 42
0.00000001
 43
0.00000001
 40
0.0
 40
0.0
 40
0.0
 40
0.0
 40
0.1287707352732495
 40
0.2525223700175047
 40
0.5024410402244412
 40
1.0
 40
1.0
 40
1.0
 40
1.0
 10
42.12353153650888
 20
25.20648324838682
 30
0.0
 10
42.24109371202047
 20
25.024446463916
 30
0.0
 10
42.24667769787234
 20
24.8165324632809
 30
0.0
 10
42.2376715626211
 20
24.3966521226632
 30
0.0
 10
42.44823194549237
 20
23.58679242579758
 30
0.0
 10
42.35381391121451
 20
23.8550083872092
 30
0.0
 10
42.44823194549237
 20
23.58679242579758
 30
0.0
  0
SPLINE
  5
150
330
1F
100
AcDbEntity
  8
0
  6
Continuous
 62
     7
100
AcDbSpline
210
0.0
220
0.0
230
1.0
 70
     8
 71
     3
 72
     9
 73
     5
 74
     0
 42
0.00000001
 43
0.00000001
 40
0.0
 40
0.0
 40
0.0
 40
0.0
 40
0.5472278457582015
 40
1.0
 40
1.0
 40
1.0
 40
1.0
 10
43.10410253355727
 20
20.88071590804092
 30
0.0
 10
43.28030599438238
 20
20.85332990913983
 30
0.0
 10
43.37240825414283
 20
20.73787190586949
 30
0.0
 10
43.3457588414181
 20
20.78336071021746
 30
0.0
 10
43.37240825414283
 20
20.73787190586949
 30
0.0
  0
SPLINE
  5
151
330
1F
100
AcDbEntity
  8
0
  6
Continuous
 62
     7
100
AcDbSpline
210
0.0
220
0.0
230
1.0
 70
     8
 71
     3
 72
    11
 73
     7
 74
     0
 42
0.00000001
 43
0.00000001
 40
0.0
 40
0.0
 40
0.0
 40
0.0
 40
0.2422105477396936
 40
0.4868757558213764
 40
0.7308208915894694
 40
1.0
 40
1.0
 40
1.0
 40
1.0
 10
43.61754057253623
 20
19.97210680651743
 30
0.0
 10
43.72407368860542
 20
19.85302308543026
 30
0.0
 10
43.72999479481579
 20
19.69194843405319
 30
0.0
 10
43.74525610357027
 20
19.53193781105877
 30
0.0
 10
43.87979303012047
 20
19.41604630125006
 30
0.0
 10
43.82491705291417
 20
19.44931018991511
 30
0.0
 10
43.87979303012047
 20
19.41604630125006
 30
0.0
  0
SPLINE
  5
152
330
1F
100
AcDbEntity
  8
0
  6
Continuous
 62
     7
100
AcDbSpline
210
0.0
220
0.0
230
1.0
 70
     8
 71
     3
 72
    12
 73
     8
 74
     0
 42
0.00000001
 43
0.00000001
 40
0.0
 40
0.0
 40
0.0
 40
0.0
 40
0.1232112787399344
 40
0.249369054869288
 40
0.5004023082708705
 40
0.7473076744690239
 40
0.9999999999999999
 40
0.9999999999999999
 40
0.9999999999999999
 40
0.9999999999999999
 10
44.6516267027591
 20
18.75585366895206
 30
0.0
 10
44.93464775050744
 20
18.69497702312776
 30
0.0
 10
45.2266944884421
 20
18.64446057417433
 30
0.0
 10
45.7785344724703
 20
18.43558986714709
 30
0.0
 10
46.04276321043039
 20
17.9187149942098
 30
0.0
 10
46.01104568332279
 20
17.3262680053002
 30
0.0
 10
46.0421828813217
 20
17.52263979846948
 30
0.0
 10
46.01104568332279
 20
17.3262680053002
 30
0.0
  0
SPLINE
  5
153
330
1F
100
AcDbEntity
  8
0
  6
Continuous
 62
     7
100
AcDbSpline
210
0.0
220
0.0
230
1.0
 70
     8
 71
     3
 72
    12
 73
     8
 74
     0
 42
0.00000001
 43
0.00000001
 40
0.0
 40
0.0
 40
0.0
 40
0.0
 40
0.1066215108384896
 40
0.2538065603123132
 40
0.3785193464619054
 40
0.5036124027659308
 40
1.0
 40
1.0
 40
1.0
 40
1.0
 10
39.12069848905249
 20
23.84019443308058
 30
0.0
 10
39.33463402364264
 20
23.79160348907163
 30
0.0
 10
39.58199721037565
 20
23.61646916033627
 30
0.0
 10
39.67623804602067
 20
23.37767427382564
 30
0.0
 10
39.63638412455891
 20
23.12365927477306
 30
0.0
 10
39.82183721263518
 20
22.11932714755873
 30
0.0
 10
39.69728957240284
 20
22.45381677783748
 30
0.0
 10
39.82183721263519
 20
22.11932714755873
 30
0.0
  0
SPLINE
  5
154
330
1F
100
AcDbEntity
  8
0
  6
Continuous
 62
     7
100
AcDbSpline
210
0.0
220
0.0
230
1.0
 70
     8
 71
     3
 72
    11
 73
     7
 74
     0
 42
0.00000001
 43
0.00000001
 40
0.0
 40
0.0
 40
0.0
 40
0.0
 40
0.3140667390311966
 40
0.5599865188838193
 40
0.8062582554844319
 40
1.0
 40
1.0
 40
1.0
 40
1.0
 10
39.82183630885405
 20
22.11932715434526
 30
0.0
 10
39.97700877775898
 20
21.76497150333375
 30
0.0
 10
40.11290900994265
 20
21.49423219588196
 30
0.0
 10
40.23111536280145
 20
21.21488266968232
 30
0.0
 10
40.36125980842931
 20
21.01478575638884
 30
0.0
 10
40.31458637150914
 20
21.07976587657637
 30
0.0
 10
40.36125980842931
 20
21.01478575638884
 30
0.0
  0
SPLINE
  5
155
330
1F
100
AcDbEntity
  8
0
  6
Continuous
 62
     7
100
AcDbSpline
210
0.0
220
0.0
230
1.0
 70
     8
 71
     3
 72
     9
 73
     5
 74
     0
 42
0.00000001
 43
0.00000001
 40
0.0
 40
0.0
 40
0.0
 40
0.0
 40
0.5603743700635363
 40
0.9999999999999999
 40
0.9999999999999999
 40
0.9999999999999999
 40
0.9999999999999999
 10
41.01532075195083
 20
19.99164698260537
 30
0.0
 10
40.99190041704492
 20
19.77071317640529
 30
0.0
 10
41.05271713777526
 20
19.60713036834371
 30
0.0
 10
41.02664253731693
 20
19.66094398464032
 30
0.0
 10
41.05271713777526
 20
19.60713036834371
 30
0.0
  0
SPLINE
  5
156
330
1F
100
AcDbEntity
  8
0
  6
Continuous
 62
     7
100
AcDbSpline
210
0.0
220
0.0
230
1.0
 70
     8
 71
     3
 72
     9
 73
     5
 74
     0
 42
0.00000001
 43
0.00000001
 40
0.0
 40
0.0
 40
0.0
 40
0.0
 40
0.5600149451172508
 40
1.0
 40
1.0
 40
1.0
 40
1.0
 10
41.36032898617252
 20
18.9774025936599
 30
0.0
 10
41.25861946453291
 20
18.64295098690747
 30
0.0
 10
41.20238098423178
 20
18.37405498253437
 30
0.0
 10
41.21939130819219
 20
18.46413639480841
 30
0.0
 10
41.20238098423179
 20
18.37405498253438
 30
0.0
  0
SPLINE
  5
157
330
1F
100
AcDbEntity
  8
0
  6
Continuous
 62
     7
100
AcDbSpline
210
0.0
220
0.0
230
1.0
 70
     8
 71
     3
 72
     9
 73
     5
 74
     0
 42
0.00000001
 43
0.00000001
 40
0.0
 40
0.0
 40
0.0
 40
0.0
 40
0.5601369589496358
 40
1.0
 40
1.0
 40
1.0
 40
1.0
 10
41.20235581353916
 20
18.37405517154214
 30
0.0
 10
41.10470558445819
 20
17.84683875581361
 30
0.0
 10
41.11151906816933
 20
17.4255944892272
 30
0.0
 10
41.10312677085787
 20
17.56653949911834
 30
0.0
 10
41.11151906816933
 20
17.4255944892272
 30
0.0
  0
SPLINE
  5
158
330
1F
100
AcDbEntity
  8
0
  6
Continuous
 62
     7
100
AcDbSpline
210
0.0
220
0.0
230
1.0
 70
     8
 71
     3
 72
     9
 73
     5
 74
     0
 42
0.00000001
 43
0.00000001
 40
0.0
 40
0.0
 40
0.0
 40
0.0
 40
0.5598273413713928
 40
1.0
 40
1.0
 40
1.0
 40
1.0
 10
20.65128513126136
 20
27.90101714258993
 30
0.0
 10
20.81613345332417
 20
26.19922576302374
 30
0.0
 10
21.01274527230345
 20
24.86916210474346
 30
0.0
 10
20.94229293244663
 20
25.31193009929932
 30
0.0
 10
21.01274527230345
 20
24.86916210474346
 30
0.0
  0
SPLINE
  5
159
330
1F
100
AcDbEntity
  8
0
  6
Continuous
 62
     7
100
AcDbSpline
210
0.0
220
0.0
230
1.0
 70
     8
 71
     3
 72
     9
 73
     5
 74
     0
 42
0.00000001
 43
0.00000001
 40
0.0
 40
0.0
 40
0.0
 40
0.0
 40
0.5593072679849069
 40
1.0
 40
1.0
 40
1.0
 40
1.0
 10
30.79324255151684
 20
36.66134083379244
 30
0.0
 10
35.68027444378287
 20
35.10067760364343
 30
0.0
 10
39.69759542775807
 20
34.67368463994831
 30
0.0
 10
38.34624440623296
 20
34.75705871451422
 30
0.0
 10
39.69759542775807
 20
34.67368463994831
 30
0.0
  0
SPLINE
  5
15A
330
1F
100
AcDbEntity
  8
0
  6
Continuous
 62
     7
100
AcDbSpline
210
0.0
220
0.0
230
1.0
 70
     8
 71
     3
 72
     9
 73
     5
 74
     0
 42
0.00000001
 43
0.00000001
 40
0.0
 40
0.0
 40
0.0
 40
0.0
 40
0.5602854465455187
 40
1.0
 40
1.0
 40
1.0
 40
1.0
 10
39.89397910551223
 20
27.75652295895747
 30
0.0
 10
39.8840569797706
 20
26.38499861252123
 30
0.0
 10
39.8362595272776
 20
25.30977332452712
 30
0.0
 10
39.85512421300768
 20
25.66809723892315
 30
0.0
 10
39.8362595272776
 20
25.30977332452712
 30
0.0
  0
SPLINE
  5
15B
330
1F
100
AcDbEntity
  8
0
  6
Continuous
 62
     7
100
AcDbSpline
210
0.0
220
0.0
230
1.0
 70
     8
 71
     3
 72
     9
 73
     5
 74
     0
 42
0.00000001
 43
0.00000001
 40
0.0
 40
0.0
 40
0.0
 40
0.0
 40
0.5600196863750334
 40
1.0
 40
1.0
 40
1.0
 40
1.0
 10
39.83625862349647
 20
25.30977333131365
 30
0.0
 10
39.54995352048103
 20
24.67665532103093
 30
0.0
 10
39.28063993091165
 20
24.20190794766911
 30
0.0
 10
39.37366533566836
 20
24.35849521155415
 30
0.0
 10
39.28063993091165
 20
24.20190794766911
 30
0.0
  0
SPLINE
  5
15C
330
1F
100
AcDbEntity
  8
0
  6
Continuous
 62
     7
100
AcDbSpline
210
0.0
220
0.0
230
1.0
 70
     8
 71
     3
 72
     9
 73
     5
 74
     0
 42
0.00000001
 43
0.00000001
 40
0.0
 40
0.0
 40
0.0
 40
0.0
 40
0.5599873311916747
 40
1.0
 40
1.0
 40
1.0
 40
1.0
 10
37.84160855956461
 20
21.61821757375714
 30
0.0
 10
37.30400506099448
 20
21.02918126121127
 30
0.0
 10
36.86775050305855
 20
20.57936168251414
 30
0.0
 10
37.01418292487342
 20
20.72834682728359
 30
0.0
 10
36.86775050305855
 20
20.57936168251414
 30
0.0
  0
SPLINE
  5
15E
330
1F
100
AcDbEntity
  8
0
  6
Continuous
 62
     7
100
AcDbSpline
210
0.0
220
0.0
230
1.0
 70
     8
 71
     3
 72
     9
 73
     5
 74
     0
 42
0.00000001
 43
0.00000001
 40
0.0
 40
0.0
 40
0.0
 40
0.0
 40
0.5603282640624442
 40
1.0
 40
1.0
 40
1.0
 40
1.0
 10
36.3184701982534
 20
20.02691582736319
 30
0.0
 10
35.40195489615841
 20
19.24337183810013
 30
0.0
 10
34.64641206400727
 20
18.67379595713722
 30
0.0
 10
34.90092573246218
 20
18.86033901058295
 30
0.0
 10
34.64641206400727
 20
18.67379595713722
 30
0.0
  0
SPLINE
  5
15F
330
1F
100
AcDbEntity
  8
0
  6
Continuous
 62
     7
100
AcDbSpline
210
0.0
220
0.0
230
1.0
 70
     8
 71
     3
 72
     9
 73
     5
 74
     0
 42
0.00000001
 43
0.00000001
 40
0.0
 40
0.0
 40
0.0
 40
0.0
 40
0.5552652595748198
 40
1.0
 40
1.0
 40
1.0
 40
1.0
 10
29.93812490974764
 20
40.48570894220047
 30
0.0
 10
30.06949957173953
 20
39.69826505238881
 30
0.0
 10
30.55713588304884
 20
39.28372477478214
 30
0.0
 10
30.36624505849252
 20
39.40588286401988
 30
0.0
 10
30.55713588304884
 20
39.28372477478214
 30
0.0
  0
SPLINE
  5
160
330
1F
100
AcDbEntity
  8
0
  6
Continuous
 62
     7
100
AcDbSpline
210
0.0
220
0.0
230
1.0
 70
     8
 71
     3
 72
    11
 73
     7
 74
     0
 42
0.00000001
 43
0.00000001
 40
0.0
 40
0.0
 40
0.0
 40
0.0
 40
0.2152363117486069
 40
0.2643298576744731
 40
0.3116787673923865
 40
1.0
 40
1.0
 40
1.0
 40
1.0
 10
30.55712630295094
 20
39.28372484671949
 30
0.0
 10
30.63725766425132
 20
39.19778925060886
 30
0.0
 10
30.64088294997935
 20
39.17126387816313
 30
0.0
 10
30.63009711813126
 20
39.14784784160065
 30
0.0
 10
30.26274865794406
 20
39.07264767577362
 30
0.0
 10
30.41084690045473
 20
39.05762259172107
 30
0.0
 10
30.26274865794406
 20
39.07264767577362
 30
0.0
  0
SPLINE
  5
161
330
1F
100
AcDbEntity
  8
0
  6
Continuous
 62
     7
100
AcDbSpline
210
0.0
220
0.0
230
1.0
 70
     8
 71
     3
 72
    15
 73
    11
 74
     0
 42
0.00000001
 43
0.00000001
 40
0.0
 40
0.0
 40
0.0
 40
0.0
 40
0.7442637071048711
 40
0.7663818406999425
 40
0.7965224743094053
 40
0.8785657289608622
 40
0.9597396318130462
 40
0.9871667950917593
 40
0.995482876755059
 40
1.0
 40
1.0
 40
1.0
 40
1.0
 10
30.26274664023481
 20
39.07264769092469
 30
0.0
 10
29.67640604579772
 20
39.03343042597228
 30
0.0
 10
29.66687550847205
 20
39.01881975170884
 30
0.0
 10
29.66719881007067
 20
38.99501653747364
 30
0.0
 10
29.68611357881829
 20
38.9329864870843
 30
0.0
 10
29.71056242154202
 20
38.8736495519532
 30
0.0
 10
29.7178033156108
 20
38.85321273179083
 30
0.0
 10
29.71894258994095
 20
38.84674103616717
 30
0.0
 10
29.71795716213266
 20
38.84331526546062
 30
0.0
 10
29.71837956962555
 20
38.84445066288698
 30
0.0
 10
29.71795716213266
 20
38.84331526546062
 30
0.0
  0
LINE
  5
162
330
1F
100
AcDbEntity
  8
0
  6
Continuous
 62
     7
100
AcDbLine
 10
0.0
 20
39.9780273438
 30
0.0
 11
0.0
 21
0.0
 31
0.0
  0
LINE
  5
163
330
1F
100
AcDbEntity
  8
0
  6
Continuous
 62
     7
100
AcDbLine
 10
0.0
 20
39.9780273438
 30
0.0
 11
0.0
 21
0.0
 31
0.0
  0
LWPOLYLINE
  5
164
330
1F
100
AcDbEntity
  8
0
  6
Continuous
 62
     7
100
AcDbPolyline
 90
        2
 70
   128
 43
0.0
 10
0.0
 20
0.0
 10
0.0
 20
0.0
  0
LINE
  5
166
330
1F
100
AcDbEntity
  8
0
  6
Continuous
 62
     7
100
AcDbLine
 10
0.0
 20
39.9780273438
 30
0.0
 11
0.0
 21
0.0
 31
0.0
  0
LWPOLYLINE
  5
167
330
1F
100
AcDbEntity
  8
0
  6
Continuous
 62
     7
100
AcDbPolyline
 90
      211
 70
   128
 43
0.0
 10
19.5392217477
 20
14.7540464093
 10
17.8124705918
 20
14.767012655
 10
17.8124705918
 20
14.767012655
 10
17.8149680856
 20
15.3194981387
 10
17.8149680856
 20
15.3194981387
 10
17.8119094194
 20
15.4955515262
 10
17.7996945739
 20
15.6356966477
 10
17.7783293573
 20
15.7412183532
 10
17.7478137696
 20
15.8121166426
 10
17.7081942757
 20
15.8586703157
 10
17.6556687695
 20
15.8924719649
 10
17.5928068372
 20
15.913502295
 10
17.5170330844
 20
15.9204957511
 10
17.5170330844
 20
15.9204957511
 10
17.4347656685
 20
15.9121192455
 10
17.3627010919
 20
15.8869625098
 10
17.3008335464
 20
15.8437406942
 10
17.2491688402
 20
15.7837386486
 10
17.2089859582
 20
15.7056618754
 10
17.1815696935
 20
15.6095007271
 10
17.1630656669
 20
15.4952841464
 10
17.1573282575
 20
15.3629831906
 10
17.1573282575
 20
15.3629831906
 10
17.1616949493
 20
15.1920595553
 10
17.1777293254
 20
15.0441763914
 10
17.2041407844
 20
14.9180584962
 10
17.2422199277
 20
14.8149810723
 10
17.2422199277
 20
14.8149810723
 10
17.2689914904
 20
14.7685238748
 10
17.3060297819
 20
14.7194197969
 10
17.354619595
 20
14.667659191
 10
17.4160515311
 20
14.6145172594
 10
17.4864712108
 20
14.560022945
 10
17.5697272054
 20
14.502862455
 10
17.6645405298
 20
14.4443302869
 10
17.7696205829
 20
14.3831512384
 10
17.7696205829
 20
14.3831512384
 10
18.073338261
 20
14.2086948707
 10
18.3475405463
 20
14.0421694967
 10
18.5922216307
 20
13.8822902666
 10
18.8061025293
 20
13.7303516778
 10
18.9917528282
 20
13.5863344351
 10
19.1466029412
 20
13.4502578338
 10
19.2732224546
 20
13.3221025787
 10
19.369035974
 20
13.2006031149
 10
19.369035974
 20
13.2006031149
 10
19.4455543643
 20
13.0741089647
 10
19.511713096
 20
12.9297040956
 10
19.566233184
 20
12.7686830051
 10
19.6116725984
 20
12.5884566981
 10
19.6467581624
 20
12.3916045221
 10
19.6714782595
 20
12.1755567772
 10
19.6858445062
 20
11.9428831633
 10
19.6898510942
 20
11.6922988304
 10
19.6898510942
 20
11.6922988304
 10
19.6864567543
 20
11.5098694309
 10
19.6766907219
 20
11.3390519189
 10
19.6618435983
 20
11.1811214968
 10
19.6419153835
 20
11.0360781646
 10
19.6156212845
 20
10.9039315698
 10
19.5842402861
 20
10.7833872149
 10
19.5477781965
 20
10.6757299499
 10
19.5049444145
 20
10.5796845724
 10
19.4544425308
 20
10.4926910299
 10
19.3936797265
 20
10.4096292179
 10
19.3226501937
 20
10.3292142864
 10
19.2413597403
 20
10.2527310852
 10
19.1498083664
 20
10.1801796145
 10
19.046711279
 20
10.1115695217
 10
18.9346380641
 20
10.0468815117
 10
18.8110133275
 20
9.9848500298
 10
18.5433000946
 20
9.8814990263
 10
18.2564485519
 20
9.8078442854
 10
17.9466101283
 20
9.7651995998
 10
17.6176333949
 20
9.7522511768
 10
17.6176333949
 20
9.7522511768
 10
17.4339254047
 20
9.7574853284
 10
17.2579726382
 20
9.7729403943
 10
17.0884786859
 20
9.7960563222
 10
16.9267341492
 20
9.8281083144
 10
16.7701694418
 20
9.8691156661
 10
16.6213541499
 20
9.9190590821
 10
16.4789976723
 20
9.9766633601
 10
16.3443964184
 20
10.0444885524
 10
16.2188177568
 20
10.1186704616
 10
16.1035406726
 20
10.1979145901
 10
16.0011289439
 20
10.2809167928
 10
15.9090187926
 20
10.3689812149
 10
15.8284950117
 20
10.4620982087
 10
15.7595576013
 20
10.5602677743
 10
15.7009159602
 20
10.6622147093
 10
15.6551454827
 20
10.7692045684
 10
15.6171244207
 20
10.885130492
 10
15.5842889961
 20
11.0112966249
 10
15.5579356183
 20
11.1502630197
 10
15.5354830849
 20
11.2994792714
 10
15.5182278051
 20
11.4615054326
 10
15.5061581628
 20
11.6337718031
 10
15.499279966
 20
11.8175632331
 10
15.4975932148
 20
12.0128797224
 10
15.4975932148
 20
12.0128797224
 10
15.4997131804
 20
12.4818499586
 10
15.4997131804
 20
12.4818499586
 10
17.2264751189
 20
12.4688836319
 10
17.2264751189
 20
12.4688836319
 10
17.2223803907
 20
11.5630644086
 10
17.2223803907
 20
11.5630644086
 10
17.22321215
 20
11.462836464
 10
17.2266599606
 20
11.372868024
 10
17.2314332212
 20
11.2918838861
 10
17.2401015179
 20
11.2198647553
 10
17.2500952647
 20
11.1568299266
 10
17.2639898557
 20
11.104044955
 10
17.2792098968
 20
11.0602442855
 10
17.2970401809
 20
11.0254182706
 10
17.3430545997
 20
10.9723921099
 10
17.4032714402
 20
10.9346780254
 10
17.4789754955
 20
10.9122663698
 10
17.5701609575
 20
10.9038722929
 10
17.5701609575
 20
10.9038722929
 10
17.6627067182
 20
10.912171618
 10
17.7424916697
 20
10.9398401682
 10
17.8095041958
 20
10.9843082435
 10
17.8637559126
 20
11.0481455439
 10
17.9065258052
 20
11.1300575718
 10
17.9365348886
 20
11.2313388248
 10
17.9550505315
 20
11.3481251055
 10
17.9620901583
 20
11.4842709636
 10
17.9620901583
 20
11.4842709636
 10
17.9602059308
 20
11.6359025543
 10
17.9531244497
 20
11.7747242356
 10
17.9408399067
 20
11.8994511576
 10
17.922073317
 20
12.0113778177
 10
17.8993826504
 20
12.107915221
 10
17.870209937
 20
12.1916523625
 10
17.8371189549
 20
12.2612850972
 10
17.7975459261
 20
12.31811757
 10
17.7975459261
 20
12.31811757
 10
17.7463923348
 20
12.371182321
 10
17.6772864888
 20
12.4320912377
 10
17.591507373
 20
12.4995498226
 10
17.4890666037
 20
12.5761277755
 10
17.3699525646
 20
12.6592553966
 10
17.2328862707
 20
12.7502271833
 10
17.079146707
 20
12.8477486382
 10
16.9074606966
 20
12.9543991087
 10
16.9074606966
 20
12.9543991087
 10
16.7357746863
 20
13.0610495793
 10
16.5781923595
 20
13.1611696768
 10
16.4372774944
 20
13.2534552562
 10
16.3104663129
 20
13.3392104626
 10
16.2003167849
 20
13.4158463009
 10
16.1042709405
 20
13.4859517662
 10
16.0236077646
 20
13.5482323609
 10
15.9583330654
 20
13.6039729351
 10
15.8483519731
 20
13.7178694223
 10
15.7474515544
 20
13.850971126
 10
15.6569166024
 20
14.0032683986
 10
15.5767471172
 20
14.1747612401
 10
15.5108149024
 20
14.3692752577
 10
15.4655497317
 20
14.5880470636
 10
15.437103034
 20
14.8323904504
 10
15.4293233803
 20
15.1009916254
 10
15.4293233803
 20
15.1009916254
 10
15.4340664028
 20
15.2975447269
 10
15.4438847083
 20
15.4799258885
 10
15.4613478831
 20
15.6481158152
 10
15.4851769422
 20
15.8034090045
 10
15.5153660775
 20
15.9445206063
 10
15.551921097
 20
16.0727354707
 10
15.5961209859
 20
16.1867591001
 10
15.6453961578
 20
16.2866107897
 10
15.7023394315
 20
16.3774106442
 10
15.7682530244
 20
16.4630035659
 10
15.8405673504
 20
16.5434088499
 10
15.9231367887
 20
16.6185975535
 10
16.0121069601
 20
16.6885986195
 10
16.1100532589
 20
16.7546776026
 10
16.2156792757
 20
16.8142744505
 10
16.3289908187
 20
16.8686740132
 10
16.5773740737
 20
16.9593212305
 10
16.8487674422
 20
17.0240977924
 10
17.1457347022
 20
17.0616995539
 10
17.4657062676
 20
17.0721458099
 10
17.4657062676
 20
17.0721458099
 10
17.6442750854
 20
17.0669502486
 10
17.816390897
 20
17.0553786752
 10
17.9807572931
 20
17.0348710375
 10
18.1386764911
 20
17.0092722378
 10
18.2901310667
 20
16.9747277262
 10
18.4351326361
 20
16.9338072026
 10
18.5723905981
 20
16.8852354646
 10
18.7031897459
 20
16.8290028646
 10
18.8262569025
 20
16.7676887502
 10
18.9377493048
 20
16.703891764
 10
19.0376553367
 20
16.635042206
 10
19.1285562005
 20
16.563690481
 10
19.2065859008
 20
16.4872958318
 10
19.2756104331
 20
16.4083990156
 10
19.3330485948
 20
16.3244496277
 10
19.3789120024
 20
16.2380173679
 10
19.4170201863
 20
16.1413641938
 10
19.4512042933
 20
16.0293217628
 10
19.4789005455
 20
15.9031942201
 10
19.5026669126
 20
15.7603925706
 10
19.5199396168
 20
15.6022209594
 10
19.532003451
 20
15.4286697389
 10
19.5388584153
 20
15.2397389091
 10
19.5405045096
 20
15.03542847
 10
19.5405045096
 20
15.03542847
 10
19.5392325302
 20
14.7540463283
  0
LWPOLYLINE
  5
168
330
1F
100
AcDbEntity
  8
0
  6
Continuous
 62
     7
100
AcDbPolyline
 90
       54
 70
   128
 43
0.0
 10
20.2067020478
 20
16.8870971818
 10
22.0516742265
 20
16.8732432095
 10
22.0516742265
 20
16.8732432095
 10
22.2341090399
 20
16.8705884054
 10
22.4049574828
 20
16.8628810295
 10
22.5642311714
 20
16.8526907817
 10
22.714499692
 20
16.839998367
 10
22.851897049
 20
16.8222630281
 10
22.9802834299
 20
16.8007406723
 10
23.0970950566
 20
16.7767354446
 10
23.2023261209
 20
16.7489624951
 10
23.3909061098
 20
16.684586655
 10
23.5537263471
 20
16.6062704166
 10
23.6920832423
 20
16.5165738322
 10
23.8046803858
 20
16.4129368496
 10
23.8979591678
 20
16.2991657807
 10
23.9744775581
 20
16.1726716305
 10
24.0342471729
 20
16.036024099
 10
24.0772563961
 20
15.8866534862
 10
24.0935869865
 20
15.8042976703
 10
24.1085863188
 20
15.7116727023
 10
24.1196789987
 20
15.6075130273
 10
24.1294404204
 20
15.4930842001
 10
24.136585791
 20
15.3683958684
 10
24.1423999034
 20
15.2334383846
 10
24.1443131714
 20
15.0882310438
 10
24.1448893733
 20
14.9314697008
 10
24.1448893733
 20
14.9314697008
 10
24.1421769789
 20
14.3314447685
 10
24.1421769789
 20
14.3314447685
 10
24.1388871852
 20
14.1721426684
 10
24.1317952852
 20
14.0244331606
 10
24.120895471
 20
13.8870313951
 10
24.1049145655
 20
13.7625167196
 10
24.0838351445
 20
13.647034584
 10
24.0589594255
 20
13.5444298908
 10
24.0302757921
 20
13.45213294
 10
23.9965052594
 20
13.371438229
 10
23.9110642123
 20
13.2294566225
 10
23.7961542375
 20
13.1056848094
 10
23.6517753349
 20
13.0001227898
 10
23.4779216964
 20
12.9114857137
 10
23.2746049383
 20
12.8423432809
 10
23.0431156618
 20
12.793970694
 10
22.7834538669
 20
12.7663679529
 10
22.4943289524
 20
12.7582598553
 10
22.4943289524
 20
12.7582598553
 10
21.9971140193
 20
12.7619934627
 10
21.9971140193
 20
12.7619934627
 10
21.9841038191
 20
9.8839295477
 10
21.9841038191
 20
9.8839295477
 10
20.1751151217
 20
9.8975133185
 10
20.1751151217
 20
9.8975133185
 10
20.2067113221
 20
16.8870971121
  0
LWPOLYLINE
  5
169
330
1F
100
AcDbEntity
  8
0
  6
Continuous
 62
     7
100
AcDbPolyline
 90
       25
 70
   128
 43
0.0
 10
22.0104945321
 20
15.7222877859
 10
22.0023355237
 20
13.9170735786
 10
22.0023355237
 20
13.9170735786
 10
22.0742723216
 20
13.9139636151
 10
22.1359365827
 20
13.912215682
 10
22.1359365827
 20
13.912215682
 10
22.2516028112
 20
13.919056501
 10
22.3467820475
 20
13.9414698805
 10
22.4240496859
 20
13.9807213755
 10
22.4821093171
 20
14.0342509335
 10
22.5248675935
 20
14.1135932615
 10
22.55492895
 20
14.2264381642
 10
22.5735781797
 20
14.3727759939
 10
22.5808152828
 20
14.5526067508
 10
22.5808152828
 20
14.5526067508
 10
22.5834521716
 20
15.1359286336
 10
22.5834521716
 20
15.1359286336
 10
22.5777774542
 20
15.3017225165
 10
22.5565458245
 20
15.4367957711
 10
22.5223152524
 20
15.5385594024
 10
22.4738125611
 20
15.6095927577
 10
22.4033638408
 20
15.6576628224
 10
22.3020220045
 20
15.6931159289
 10
22.1710660374
 20
15.7146575799
 10
22.0104959394
 20
15.7222877753
  0
LWPOLYLINE
  5
16A
330
1F
100
AcDbEntity
  8
0
  6
Continuous
 62
     7
100
AcDbPolyline
 90
       40
 70
   128
 43
0.0
 10
28.593839533
 20
16.82411782
 10
27.2580525916
 20
12.3742826988
 10
27.2580525916
 20
12.3742826988
 10
27.2466163934
 20
9.8444131235
 10
27.2466163934
 20
9.8444131235
 10
25.5198544549
 20
9.8573794502
 10
25.5198544549
 20
9.8573794502
 10
25.5312906532
 20
12.3872490255
 10
25.5312906532
 20
12.3872490255
 10
24.2358225118
 20
16.8568423498
 10
24.2358225118
 20
16.8568423498
 10
25.8598010015
 20
16.8446478283
 10
25.8598010015
 20
16.8446478283
 10
25.904874504
 20
16.5834759737
 10
25.9474248853
 20
16.3326022139
 10
25.9887427466
 20
16.0933017513
 10
26.028828088
 20
15.8655745859
 10
26.0676751012
 20
15.6481358679
 10
26.1040106095
 20
15.4435649445
 10
26.1403925828
 20
15.2492728209
 10
26.174257243
 20
15.066563642
 10
26.206883575
 20
14.8941429104
 10
26.2369984021
 20
14.7345899736
 10
26.2671596942
 20
14.5853158364
 10
26.2948036733
 20
14.4476246441
 10
26.3224941173
 20
14.3202122514
 10
26.3476730563
 20
14.2056676535
 10
26.3703288742
 20
14.1014211504
 10
26.3930369651
 20
14.008738297
 10
26.3930369651
 20
14.008738297
 10
26.4624204036
 20
14.2934636676
 10
26.5318909641
 20
14.5974617877
 10
26.6027392476
 20
14.9220078597
 10
26.673674653
 20
15.265826681
 10
26.7459819734
 20
15.6289086042
 10
26.8196612087
 20
16.0112536293
 10
26.8947181672
 20
16.4141466062
 10
26.9698622476
 20
16.8363123325
 10
26.9698622476
 20
16.8363123325
 10
28.5938407373
 20
16.824117811
  0
LWPOLYLINE
  5
16B
330
1F
100
AcDbEntity
  8
0
  6
Continuous
 62
     7
100
AcDbPolyline
 90
       22
 70
   128
 43
0.0
 10
34.8019415221
 20
16.7775009258
 10
33.6776350384
 20
13.6302447682
 10
33.6776350384
 20
13.6302447682
 10
34.8525915983
 20
9.7872995416
 10
34.8525915983
 20
9.7872995416
 10
32.9613761419
 20
9.8015007566
 10
32.9613761419
 20
9.8015007566
 10
32.1937664794
 20
12.8036365873
 10
32.1937664794
 20
12.8036365873
 10
32.1802219317
 20
9.8073664758
 10
32.1802219317
 20
9.8073664758
 10
30.3712332343
 20
9.8209502466
 10
30.3712332343
 20
9.8209502466
 10
30.4028294347
 20
16.8105340402
 10
30.4028294347
 20
16.8105340402
 10
32.2118181321
 20
16.7969502693
 10
32.2118181321
 20
16.7969502693
 10
32.1995397557
 20
14.0807774496
 10
32.1995397557
 20
14.0807774496
 10
33.0751991013
 20
16.790467106
 10
33.0751991013
 20
16.790467106
 10
34.8019610397
 20
16.7775007793
  0
LWPOLYLINE
  5
16C
330
1F
100
AcDbEntity
  8
0
  6
Continuous
 62
     7
100
AcDbPolyline
 90
        8
 70
   128
 43
0.0
 10
36.9809621398
 20
16.76113857
 10
36.9493739521
 20
9.7715547163
 10
36.9493739521
 20
9.7715547163
 10
35.1403852547
 20
9.7851384871
 10
35.1403852547
 20
9.7851384871
 10
35.1719814551
 20
16.7747222807
 10
35.1719814551
 20
16.7747222807
 10
36.9809701525
 20
16.7611385099
  0
LWPOLYLINE
  5
16D
330
1F
100
AcDbEntity
  8
0
  6
Continuous
 62
     7
100
AcDbPolyline
 90
       58
 70
   128
 43
0.0
 10
37.6387628414
 20
16.7561991174
 10
39.0199368164
 20
16.745827825
 10
39.0199368164
 20
16.745827825
 10
39.3411292855
 20
16.7421310839
 10
39.6340330737
 20
16.7335071894
 10
39.9012293835
 20
16.7225065462
 10
40.1414276136
 20
16.7078539521
 10
40.3533371628
 20
16.6882742045
 10
40.5382544405
 20
16.6663273558
 10
40.6974584317
 20
16.6407189085
 10
40.82837955
 20
16.6114681577
 10
41.050329311
 20
16.5391323812
 10
41.2426475167
 20
16.4490305991
 10
41.4078921371
 20
16.3385738165
 10
41.5434993942
 20
16.2090661785
 10
41.6546316928
 20
16.0656084946
 10
41.7413238817
 20
15.9159098646
 10
41.8061339308
 20
15.7573812935
 10
41.8477828553
 20
15.5913172787
 10
41.8614857782
 20
15.4961322583
 10
41.8738109781
 20
15.3803992861
 10
41.8834736617
 20
15.2441280096
 10
41.8917644303
 20
15.0885936313
 10
41.8973868746
 20
14.9112360987
 10
41.9016374039
 20
14.7146154642
 10
41.9032196089
 20
14.4961716755
 10
41.9034298988
 20
14.258464785
 10
41.9034298988
 20
14.258464785
 10
41.8923654206
 20
11.8108256073
 10
41.8923654206
 20
11.8108256073
 10
41.8900642056
 20
11.5859865115
 10
41.8852747181
 20
11.3791546103
 10
41.8767237813
 20
11.1929092512
 10
41.8669751733
 20
11.0259462891
 10
41.8534593078
 20
10.8782850191
 10
41.8374667861
 20
10.7512006436
 10
41.8177011989
 20
10.6421331103
 10
41.7967437485
 20
10.5536328239
 10
41.7433876804
 20
10.4037009285
 10
41.6721258225
 20
10.2718919985
 10
41.585521953
 20
10.1569018887
 10
41.4810064855
 20
10.0587498944
 10
41.3624337995
 20
9.9774070727
 10
41.2310712636
 20
9.9090092264
 10
41.0856340848
 20
9.8535660028
 10
40.9274128643
 20
9.8123526045
 10
40.8399714272
 20
9.7963055894
 10
40.7422632616
 20
9.7829054547
 10
40.6329977661
 20
9.7708769981
 10
40.5147561432
 20
9.7627706243
 10
40.3849571904
 20
9.7560359285
 10
40.246170494
 20
9.7506536157
 10
40.095838084
 20
9.7492126808
 10
39.9352331373
 20
9.7491337764
 10
39.9352331373
 20
9.7491337764
 10
37.6071880239
 20
9.7666151633
 10
37.6071880239
 20
9.7666151633
 10
37.6387842243
 20
16.7561989569
  0
LWPOLYLINE
  5
16E
330
1F
100
AcDbEntity
  8
0
  6
Continuous
 62
     7
100
AcDbPolyline
 90
       38
 70
   128
 43
0.0
 10
39.4425553257
 20
15.5913897215
 10
39.4213808013
 20
10.9042569585
 10
39.4213808013
 20
10.9042569585
 10
39.5280302456
 20
10.9060259105
 10
39.6244245776
 20
10.913011443
 10
39.7105637971
 20
10.9252135558
 10
39.7851573031
 20
10.9413570465
 10
39.8482167116
 20
10.9640116152
 10
39.9022999928
 20
10.9905882667
 10
39.9448491767
 20
11.0236759961
 10
39.9758526469
 20
11.0607051034
 10
40.0004844248
 20
11.1093460982
 10
40.0213373289
 20
11.1747190853
 10
40.0397019605
 20
11.2580992669
 10
40.0555783197
 20
11.3594866431
 10
40.0676699971
 20
11.4763211616
 10
40.0759886089
 20
11.6111725222
 10
40.0818189482
 20
11.7640310775
 10
40.0838704138
 20
11.9336216249
 10
40.0838704138
 20
11.9336216249
 10
40.0963869233
 20
14.7024732931
 10
40.0963869233
 20
14.7024732931
 10
40.0969096546
 20
14.8181097897
 10
40.0948105265
 20
14.9222019317
 10
40.0926649334
 20
15.0160152741
 10
40.0891880822
 20
15.0995594643
 10
40.0843741648
 20
15.1715496525
 10
40.0795079742
 20
15.2319761909
 10
40.0720257324
 20
15.2821432248
 10
40.0644970257
 20
15.3220314591
 10
40.041661156
 20
15.3864476133
 10
40.0085062845
 20
15.4419469984
 10
39.9637418101
 20
15.4872544118
 10
39.9073735408
 20
15.5236547036
 10
39.8316985261
 20
15.552490609
 10
39.7302928005
 20
15.573810366
 10
39.5992961765
 20
15.5863580673
 10
39.4425688416
 20
15.59138962
  0
LWPOLYLINE
  5
16F
330
1F
100
AcDbEntity
  8
0
  6
Continuous
 62
     7
100
AcDbPolyline
 90
      211
 70
   128
 43
0.0
 10
46.5095861327
 20
14.5515248294
 10
44.7828475348
 20
14.5644909808
 10
44.7828475348
 20
14.5644909808
 10
44.7853450285
 20
15.1169764645
 10
44.7853450285
 20
15.1169764645
 10
44.7822863623
 20
15.293029852
 10
44.7700715169
 20
15.4331749735
 10
44.7487063003
 20
15.538696679
 10
44.7181907126
 20
15.6095949684
 10
44.6785712187
 20
15.6561486416
 10
44.6260457125
 20
15.6899502907
 10
44.5631837801
 20
15.7109806208
 10
44.4874100273
 20
15.7179740769
 10
44.4874100273
 20
15.7179740769
 10
44.4051426115
 20
15.7095975713
 10
44.3330780349
 20
15.6844408357
 10
44.2712104894
 20
15.6412190201
 10
44.2195457832
 20
15.5812169744
 10
44.1793629012
 20
15.5031402012
 10
44.1519466365
 20
15.4069790529
 10
44.1334426098
 20
15.2927624722
 10
44.1277052005
 20
15.1604615164
 10
44.1277052005
 20
15.1604615164
 10
44.1320718923
 20
14.9895378812
 10
44.1481062683
 20
14.8416547172
 10
44.1745177274
 20
14.7155368221
 10
44.2125968706
 20
14.6124593982
 10
44.2125968706
 20
14.6124593982
 10
44.2393684334
 20
14.5660022007
 10
44.2764067248
 20
14.5168981227
 10
44.324996538
 20
14.4651375168
 10
44.3864284741
 20
14.4119955853
 10
44.4568481538
 20
14.3575012708
 10
44.5401041484
 20
14.3003407808
 10
44.6349174728
 20
14.2418086127
 10
44.7399975259
 20
14.1806295642
 10
44.7399975259
 20
14.1806295642
 10
45.0437152039
 20
14.0061731965
 10
45.3179174892
 20
13.8396478226
 10
45.5625985737
 20
13.6797685924
 10
45.7764794722
 20
13.5278300036
 10
45.9621297711
 20
13.3838127609
 10
46.1169798842
 20
13.2477361596
 10
46.2435993976
 20
13.1195809045
 10
46.339412917
 20
12.9980814407
 10
46.339412917
 20
12.9980814407
 10
46.4159313073
 20
12.8715872906
 10
46.4820900389
 20
12.7271824215
 10
46.536610127
 20
12.5661613309
 10
46.5820495414
 20
12.3859350239
 10
46.6171351053
 20
12.1890828479
 10
46.6418552025
 20
11.973035103
 10
46.6562214492
 20
11.7403614891
 10
46.6602280372
 20
11.4897771563
 10
46.6602280372
 20
11.4897771563
 10
46.6568336972
 20
11.3073477568
 10
46.6470676648
 20
11.1365302448
 10
46.6322205413
 20
10.9785998226
 10
46.6122923265
 20
10.8335564904
 10
46.5859982274
 20
10.7014098956
 10
46.5546172291
 20
10.5808655407
 10
46.5181551395
 20
10.4732082757
 10
46.4753213575
 20
10.3771628982
 10
46.4248194738
 20
10.2901693558
 10
46.3640566695
 20
10.2071075438
 10
46.2930271366
 20
10.1266926122
 10
46.2117366833
 20
10.0502094111
 10
46.1201853094
 20
9.9776579403
 10
46.0170882219
 20
9.9090478475
 10
45.9050150071
 20
9.8443598376
 10
45.7813902705
 20
9.7823283556
 10
45.5136770376
 20
9.6789773521
 10
45.2268254949
 20
9.6053226113
 10
44.9169870713
 20
9.5626779256
 10
44.5880103379
 20
9.5497295026
 10
44.5880103379
 20
9.5497295026
 10
44.4043023477
 20
9.5549636542
 10
44.2283495811
 20
9.5704187201
 10
44.0588556289
 20
9.593534648
 10
43.8971110922
 20
9.6255866402
 10
43.7405463847
 20
9.6665939919
 10
43.5917310929
 20
9.716537408
 10
43.4493746153
 20
9.774141686
 10
43.3147733613
 20
9.8419668783
 10
43.1891946998
 20
9.9161487874
 10
43.0739176156
 20
9.9953929159
 10
42.9715058869
 20
10.0783951186
 10
42.8793957356
 20
10.1664595407
 10
42.7988719547
 20
10.2595765345
 10
42.7299345443
 20
10.3577461001
 10
42.6712929032
 20
10.4596930351
 10
42.6255224256
 20
10.5666828943
 10
42.5875013636
 20
10.6826088178
 10
42.5546659391
 20
10.8087749508
 10
42.5283125613
 20
10.9477413455
 10
42.5058600278
 20
11.0969575973
 10
42.4886047481
 20
11.2589837584
 10
42.4765351057
 20
11.4312501289
 10
42.469656909
 20
11.6150415589
 10
42.4679701578
 20
11.8103580483
 10
42.4679701578
 20
11.8103580483
 10
42.4700901234
 20
12.2793282844
 10
42.4700901234
 20
12.2793282844
 10
44.1968520618
 20
12.2663619577
 10
44.1968520618
 20
12.2663619577
 10
44.1927573337
 20
11.3605427345
 10
44.1927573337
 20
11.3605427345
 10
44.193589093
 20
11.2603147899
 10
44.1970369036
 20
11.1703463498
 10
44.2018101641
 20
11.089362212
 10
44.2104784609
 20
11.0173430811
 10
44.2204722076
 20
10.9543082525
 10
44.2343667987
 20
10.9015232808
 10
44.2495868398
 20
10.8577226113
 10
44.2674171239
 20
10.8228965965
 10
44.3134315427
 20
10.7698704357
 10
44.3736483832
 20
10.7321563513
 10
44.4493524385
 20
10.7097446956
 10
44.5405379005
 20
10.7013506188
 10
44.5405379005
 20
10.7013506188
 10
44.6330836612
 20
10.7096499438
 10
44.7128686127
 20
10.737318494
 10
44.7798811388
 20
10.7817865693
 10
44.8341328556
 20
10.8456238697
 10
44.8769027482
 20
10.9275358977
 10
44.9069118316
 20
11.0288171507
 10
44.9254274745
 20
11.1456034313
 10
44.9324671013
 20
11.2817492895
 10
44.9324671013
 20
11.2817492895
 10
44.9305828738
 20
11.4333808801
 10
44.9235013927
 20
11.5722025614
 10
44.9112168497
 20
11.6969294834
 10
44.89245026
 20
11.8088561435
 10
44.8697595934
 20
11.9053935469
 10
44.84058688
 20
11.9891306884
 10
44.8074958979
 20
12.058763423
 10
44.767922869
 20
12.1155958958
 10
44.767922869
 20
12.1155958958
 10
44.7167692778
 20
12.1686606469
 10
44.6476634318
 20
12.2295695636
 10
44.561884316
 20
12.2970281484
 10
44.4594435467
 20
12.3736061013
 10
44.3403295076
 20
12.4567337224
 10
44.2032632137
 20
12.5477055091
 10
44.04952365
 20
12.645226964
 10
43.8778376396
 20
12.7518774346
 10
43.8778376396
 20
12.7518774346
 10
43.7061516293
 20
12.8585279051
 10
43.5485693025
 20
12.9586480026
 10
43.4076544374
 20
13.050933582
 10
43.2808432559
 20
13.1366887884
 10
43.1706937279
 20
13.2133246267
 10
43.0746478835
 20
13.283430092
 10
42.9939847076
 20
13.3457106867
 10
42.9287100084
 20
13.4014512609
 10
42.8187289161
 20
13.5153477481
 10
42.7178284973
 20
13.6484494518
 10
42.6272935454
 20
13.8007467244
 10
42.5471240601
 20
13.9722395659
 10
42.4811918453
 20
14.1667535835
 10
42.4359266747
 20
14.3855253894
 10
42.4074799769
 20
14.6298687762
 10
42.3997003233
 20
14.8984699512
 10
42.3997003233
 20
14.8984699512
 10
42.4044433458
 20
15.0950230527
 10
42.4142616513
 20
15.2774042144
 10
42.4317248261
 20
15.4455941411
 10
42.4555538852
 20
15.6008873303
 10
42.4857430205
 20
15.7419989321
 10
42.52229804
 20
15.8702137965
 10
42.5664979289
 20
15.984237426
 10
42.6157731008
 20
16.0840891156
 10
42.6727163744
 20
16.17488897
 10
42.7386299674
 20
16.2604818917
 10
42.8109442933
 20
16.3408871757
 10
42.8935137317
 20
16.4160758793
 10
42.9824839031
 20
16.4860769453
 10
43.0804302019
 20
16.5521559284
 10
43.1860562187
 20
16.6117527763
 10
43.2993677616
 20
16.666152339
 10
43.5477510167
 20
16.7567995563
 10
43.8191443852
 20
16.8215761183
 10
44.1161116452
 20
16.8591778797
 10
44.4360832106
 20
16.8696241357
 10
44.4360832106
 20
16.8696241357
 10
44.6146520284
 20
16.8644285744
 10
44.78676784
 20
16.8528570011
 10
44.951134236
 20
16.8323493634
 10
45.1090534341
 20
16.8067505636
 10
45.2605080097
 20
16.772206052
 10
45.4055095791
 20
16.7312855284
 10
45.5427675411
 20
16.6827137904
 10
45.6735666889
 20
16.6264811905
 10
45.7966338454
 20
16.5651670761
 10
45.9081262478
 20
16.5013700898
 10
46.0080322797
 20
16.4325205318
 10
46.0989331435
 20
16.3611688068
 10
46.1769628438
 20
16.2847741576
 10
46.245987376
 20
16.2058773414
 10
46.3034255378
 20
16.1219279535
 10
46.3492889453
 20
16.0354956937
 10
46.3873971292
 20
15.9388425196
 10
46.4215812363
 20
15.8268000887
 10
46.4492774884
 20
15.700672546
 10
46.4730438556
 20
15.5578708965
 10
46.4903165598
 20
15.3996992852
 10
46.502380394
 20
15.2261480647
 10
46.5092353582
 20
15.0372172349
 10
46.5108814526
 20
14.8329067958
 10
46.5108814526
 20
14.8329067958
 10
46.5096094732
 20
14.5515246541
  0
LINE
  5
183
330
1F
100
AcDbEntity
  8
0
  6
Continuous
 62
     7
370
    25
100
AcDbLine
 10
58.1734728221
 20
0.7501137198
 30
0.0
 11
58.4368329338
 21
1.0080466554
 31
0.0
  0
LINE
  5
184
330
1F
100
AcDbEntity
  8
0
  6
Continuous
 62
     7
370
    25
100
AcDbLine
 10
1.7149764347
 20
52.4617476013
 30
0.0
 11
1.451616323
 21
52.2038146658
 31
0.0
  0
LINE
  5
185
330
1F
100
AcDbEntity
  8
0
  6
Continuous
 62
     7
370
    25
100
AcDbLine
 10
54.8961103192
 20
53.2493490004
 30
0.0
 11
4.9727209431
 21
53.6242257927
 31
0.0
  0
LINE
  5
186
330
1F
100
AcDbEntity
  8
0
  6
Continuous
 62
     7
370
    25
100
AcDbLine
 10
59.6672758542
 20
4.2847747662
 30
0.0
 11
59.8658805423
 21
48.2193014686
 31
0.0
  0
LINE
  5
187
330
1F
100
AcDbEntity
  8
0
  6
Continuous
 62
     7
370
    25
100
AcDbLine
 10
4.7289788259
 20
-0.2954206148
 30
0.0
 11
54.652368202
 21
-0.6702974071
 31
0.0
  0
LINE
  5
188
330
1F
100
AcDbEntity
  8
0
  6
Continuous
 62
     7
370
    25
100
AcDbLine
 10
-0.0421867091
 20
48.6691536194
 30
0.0
 11
-0.2407913972
 21
4.734626917
 31
0.0
  0
LINE
  5
189
330
1F
100
AcDbEntity
  8
0
  6
Continuous
 62
     7
370
    25
100
AcDbLine
 10
59.8658805423
 20
48.2193014686
 30
0.0
 11
60.129240654
 21
48.4772344041
 31
0.0
  0
LINE
  5
18A
330
1F
100
AcDbEntity
  8
0
  6
Continuous
 62
     7
370
    25
100
AcDbLine
 10
54.8961103192
 20
53.2493490004
 30
0.0
 11
55.1594704309
 21
53.5072819359
 31
0.0
  0
LINE
  5
18B
330
1F
100
AcDbEntity
  8
0
  6
Continuous
 62
     7
370
    25
100
AcDbLine
 10
59.6672758542
 20
4.2847747662
 30
0.0
 11
59.9306359659
 21
4.5427077017
 31
0.0
  0
LINE
  5
18C
330
1F
100
AcDbEntity
  8
0
  6
Continuous
 62
     7
370
    25
100
AcDbLine
 10
59.9306359659
 20
4.5427077017
 30
0.0
 11
60.129240654
 21
48.4772344041
 31
0.0
  0
LINE
  5
18D
330
1F
100
AcDbEntity
  8
0
  6
Continuous
 62
     7
370
    25
100
AcDbLine
 10
4.9727209431
 20
53.6242257927
 30
0.0
 11
5.2360810548
 21
53.8821587282
 31
0.0
  0
LINE
  5
18E
330
1F
100
AcDbEntity
  8
0
  6
Continuous
 62
     7
370
    25
100
AcDbLine
 10
55.1594704309
 20
53.5072819359
 30
0.0
 11
5.2360810548
 21
53.8821587282
 31
0.0
  0
ARC
  5
18F
330
1F
100
AcDbEntity
  8
0
  6
Continuous
 62
     7
370
    25
100
AcDbCircle
 10
54.8560328561
 20
48.2396204154
 30
0.0
 40
5.009888890765977
100
AcDbArc
 50
359.7676209762
 51
89.5416477232
  0
ARC
  5
190
330
1F
100
AcDbEntity
  8
0
  6
Continuous
 62
     7
370
    25
100
AcDbCircle
 10
54.6920544789
 20
4.3048060073
 30
0.0
 40
4.975261700074315
100
AcDbArc
 50
269.5429626785
 51
359.7693169242
  0
ARC
  5
191
330
1F
100
AcDbEntity
  8
0
  6
Continuous
 62
     7
370
    25
100
AcDbCircle
 10
4.769056289
 20
4.7143079702
 30
0.0
 40
5.009888890765989
100
AcDbArc
 50
179.7676209762
 51
269.5416477232
  0
ARC
  5
192
330
1F
100
AcDbEntity
  8
0
  6
Continuous
 62
     7
370
    25
100
AcDbCircle
 10
4.9330346662
 20
48.6491223783
 30
0.0
 40
4.975261700074313
100
AcDbArc
 50
89.5429626785
 51
179.7693169242
  0
ARC
  5
193
330
1F
100
AcDbEntity
  8
0
  6
Continuous
 62
     7
370
    25
100
AcDbCircle
 10
55.1193929679
 20
48.497553351
 30
0.0
 40
5.009888890765977
100
AcDbArc
 50
359.7676209762
 51
89.5416477232
  0
ARC
  5
194
330
1F
100
AcDbEntity
  8
0
  6
Continuous
 62
     7
370
    25
100
AcDbCircle
 10
54.9533941145
 20
4.563185157
 30
0.0
 40
4.977283975648277
100
AcDbArc
 50
314.4163668434
 51
359.7642740341
  0
ARC
  5
195
330
1F
100
AcDbEntity
  8
0
  6
Continuous
 62
     7
370
    25
100
AcDbCircle
 10
5.1967283382
 20
48.9052139611
 30
0.0
 40
4.977100345703498
100
AcDbArc
 50
89.5469715479
 51
134.3912556335
  0
MTEXT
  5
197
330
1F
100
AcDbEntity
  8
0
  6
Continuous
 62
     7
100
AcDbMText
 10
-0.2408326018
 20
-1.6900220845
 30
0.0
 40
4.83362
 41
0.0
 71
     1
 72
     1
  1
SOLIDWORKS Educational Product.
  7
SLDTEXTSTYLE0
 73
     1
 44
1.0
  0
MTEXT
  5
198
330
1F
100
AcDbEntity
  8
0
  6
Continuous
 62
     7
100
AcDbMText
 10
-0.2408326018
 20
-8.9404520845
 30
0.0
 40
4.83362
 41
0.0
 71
     1
 72
     1
  1
For Instructional Use Only.
  7
SLDTEXTSTYLE0
 73
     1
 44
1.0
  0
ENDSEC
  0
SECTION
  2
OBJECTS
  0
DICTIONARY
  5
C
330
0
100
AcDbDictionary
281
     1
  3
ACAD_GROUP
350
D
  3
ACAD_LAYOUT
350
1A
  3
ACAD_MLINESTYLE
350
17
  3
ACAD_PLOTSETTINGS
350
19
  3
ACAD_PLOTSTYLENAME
350
E
  3
ACAD_SCALELIST
350
47
  3
DWGPROPS
350
199
  0
DICTIONARY
  5
D
102
{ACAD_REACTORS
330
C
102
}
330
C
100
AcDbDictionary
281
     1
  0
DICTIONARY
  5
1A
102
{ACAD_REACTORS
330
C
102
}
330
C
100
AcDbDictionary
281
     1
  3
Layout1
350
1E
  3
Layout2
350
26
  3
Model
350
22
  0
DICTIONARY
  5
17
102
{ACAD_REACTORS
330
C
102
}
330
C
100
AcDbDictionary
281
     1
  3
Standard
350
18
  0
DICTIONARY
  5
19
102
{ACAD_REACTORS
330
C
102
}
330
C
100
AcDbDictionary
281
     1
  0
ACDBDICTIONARYWDFLT
  5
E
102
{ACAD_REACTORS
330
C
102
}
330
C
100
AcDbDictionary
281
     1
  3
Normal
350
F
100
AcDbDictionaryWithDefault
340
F
  0
DICTIONARY
  5
47
102
{ACAD_REACTORS
330
C
102
}
330
C
100
AcDbDictionary
281
     1
  3
A0
350
48
  3
A1
350
49
  3
A2
350
4A
  3
A3
350
4B
  3
A4
350
4C
  3
A5
350
4D
  3
A6
350
4E
  3
A7
350
4F
  3
A8
350
50
  3
A9
350
51
  3
B0
350
52
  3
B1
350
53
  3
B2
350
54
  3
B3
350
55
  3
B4
350
56
  3
B5
350
57
  3
B6
350
58
  0
XRECORD
  5
199
102
{ACAD_REACTORS
330
C
102
}
330
C
100
AcDbXrecord
280
     1
  1
DWGPROPS COOKIE
  2

  3

  4

  6

  7

  8
samue
  9

300
=
301
=
302
=
303
=
304
=
305
=
306
=
307
=
308
=
309
=
 40
0.0
 41
2460884.590294248
 42
2460884.590906065
  1

 90
        0
  0
LAYOUT
  5
1E
102
{ACAD_REACTORS
330
1A
102
}
330
1A
100
AcDbPlotSettings
  1

  2
none_device
  4

  6

 40
0.0
 41
0.0
 42
0.0
 43
0.0
 44
0.0
 45
0.0
 46
0.0
 47
0.0
 48
0.0
 49
0.0
140
0.0
141
0.0
142
1.0
143
1.0
 70
   688
 72
     1
 73
     0
 74
     5
  7

 75
    16
147
1.0
148
0.0
149
0.0
100
AcDbLayout
  1
Layout1
 70
     1
 71
     1
 10
0.0
 20
0.0
 11
420.0
 21
297.0
 12
0.0
 22
0.0
 32
0.0
 14
1.0000000000E+20
 24
1.0000000000E+20
 34
1.0000000000E+20
 15
-1.0000000000E+20
 25
-1.0000000000E+20
 35
-1.0000000000E+20
146
0.0
 13
0.0
 23
0.0
 33
0.0
 16
1.0
 26
0.0
 36
0.0
 17
0.0
 27
1.0
 37
0.0
 76
     0
330
1B
  0
LAYOUT
  5
26
102
{ACAD_REACTORS
330
1A
102
}
330
1A
100
AcDbPlotSettings
  1

  2
none_device
  4

  6

 40
0.0
 41
0.0
 42
0.0
 43
0.0
 44
0.0
 45
0.0
 46
0.0
 47
0.0
 48
0.0
 49
0.0
140
0.0
141
0.0
142
1.0
143
1.0
 70
   688
 72
     1
 73
     0
 74
     5
  7

 75
    16
147
1.0
148
0.0
149
0.0
100
AcDbLayout
  1
Layout2
 70
     1
 71
     2
 10
0.0
 20
0.0
 11
0.0
 21
0.0
 12
0.0
 22
0.0
 32
0.0
 14
0.0
 24
0.0
 34
0.0
 15
0.0
 25
0.0
 35
0.0
146
0.0
 13
0.0
 23
0.0
 33
0.0
 16
1.0
 26
0.0
 36
0.0
 17
0.0
 27
1.0
 37
0.0
 76
     0
330
23
  0
LAYOUT
  5
22
102
{ACAD_REACTORS
330
1A
102
}
330
1A
100
AcDbPlotSettings
  1

  2
none_device
  4
ANSI_A_(11.00_x_8.50_Inches)
  6

 40
6.35
 41
19.05
 42
6.35000508
 43
19.05000254
 44
279.4
 45
215.9
 46
16.0267429975
 47
-15.343615958
 48
0.0
 49
0.0
140
0.0
141
0.0
142
0.1542543119
143
1.0
 70
  1696
 72
     0
 73
     0
 74
     0
  7

 75
     0
147
0.0179189148
148
-1300.4909072572
149
0.0
100
AcDbLayout
  1
Model
 70
     1
 71
     0
 10
0.0
 20
0.0
 11
420.0
 21
297.0
 12
0.0
 22
0.0
 32
0.0
 14
-0.2408326018
 24
-0.6704556928
 34
0.0
 15
60.1292818586
 25
53.8823143068
 35
0.0
146
0.0
 13
0.0
 23
0.0
 33
0.0
 16
1.0
 26
0.0
 36
0.0
 17
0.0
 27
1.0
 37
0.0
 76
     0
330
1F
331
29
  0
MLINESTYLE
  5
18
102
{ACAD_REACTORS
330
17
102
}
330
17
100
AcDbMlineStyle
  2
Standard
 70
     0
  3

 62
   256
 51
90.0
 52
90.0
 71
     2
 49
0.5
 62
   256
  6
BYLAYER
 49
-0.5
 62
   256
  6
BYLAYER
  0
ACDBPLACEHOLDER
  5
F
102
{ACAD_REACTORS
330
E
102
}
330
E
  0
SCALE
  5
48
102
{ACAD_REACTORS
330
47
102
}
330
47
100
AcDbScale
 70
     0
300
1:1
140
1.0
141
1.0
290
     1
  0
SCALE
  5
49
102
{ACAD_REACTORS
330
47
102
}
330
47
100
AcDbScale
 70
     0
300
1:2
140
1.0
141
2.0
290
     0
  0
SCALE
  5
4A
102
{ACAD_REACTORS
330
47
102
}
330
47
100
AcDbScale
 70
     0
300
1:4
140
1.0
141
4.0
290
     0
  0
SCALE
  5
4B
102
{ACAD_REACTORS
330
47
102
}
330
47
100
AcDbScale
 70
     0
300
1:5
140
1.0
141
5.0
290
     0
  0
SCALE
  5
4C
102
{ACAD_REACTORS
330
47
102
}
330
47
100
AcDbScale
 70
     0
300
1:8
140
1.0
141
8.0
290
     0
  0
SCALE
  5
4D
102
{ACAD_REACTORS
330
47
102
}
330
47
100
AcDbScale
 70
     0
300
1:10
140
1.0
141
10.0
290
     0
  0
SCALE
  5
4E
102
{ACAD_REACTORS
330
47
102
}
330
47
100
AcDbScale
 70
     0
300
1:16
140
1.0
141
16.0
290
     0
  0
SCALE
  5
4F
102
{ACAD_REACTORS
330
47
102
}
330
47
100
AcDbScale
 70
     0
300
1:20
140
1.0
141
20.0
290
     0
  0
SCALE
  5
50
102
{ACAD_REACTORS
330
47
102
}
330
47
100
AcDbScale
 70
     0
300
1:30
140
1.0
141
30.0
290
     0
  0
SCALE
  5
51
102
{ACAD_REACTORS
330
47
102
}
330
47
100
AcDbScale
 70
     0
300
1:40
140
1.0
141
40.0
290
     0
  0
SCALE
  5
52
102
{ACAD_REACTORS
330
47
102
}
330
47
100
AcDbScale
 70
     0
300
1:50
140
1.0
141
50.0
290
     0
  0
SCALE
  5
53
102
{ACAD_REACTORS
330
47
102
}
330
47
100
AcDbScale
 70
     0
300
1:100
140
1.0
141
100.0
290
     0
  0
SCALE
  5
54
102
{ACAD_REACTORS
330
47
102
}
330
47
100
AcDbScale
 70
     0
300
2:1
140
2.0
141
1.0
290
     0
  0
SCALE
  5
55
102
{ACAD_REACTORS
330
47
102
}
330
47
100
AcDbScale
 70
     0
300
4:1
140
4.0
141
1.0
290
     0
  0
SCALE
  5
56
102
{ACAD_REACTORS
330
47
102
}
330
47
100
AcDbScale
 70
     0
300
8:1
140
8.0
141
1.0
290
     0
  0
SCALE
  5
57
102
{ACAD_REACTORS
330
47
102
}
330
47
100
AcDbScale
 70
     0
300
10:1
140
10.0
141
1.0
290
     0
  0
SCALE
  5
58
102
{ACAD_REACTORS
330
47
102
}
330
47
100
AcDbScale
 70
     0
300
100:1
140
100.0
141
1.0
290
     0
  0
ENDSEC
  0
EOF
