  0
SECTION
  2
HEADER
  9
$ACADVER
  1
AC1015
  9
$ACADMAINTVER
 70
     6
  9
$DWGCODEPAGE
  3
ANSI_1252
  9
$INSBASE
 10
0.0
 20
0.0
 30
0.0
  9
$EXTMIN
 10
0.0
 20
0.0
 30
0.0
  9
$EXTMAX
 10
60.0
 20
54.0
 30
0.0
  9
$LIMMIN
 10
0.0
 20
0.0
  9
$LIMMAX
 10
420.0
 20
297.0
  9
$ORTHOMODE
 70
     0
  9
$REGENMODE
 70
     1
  9
$FILLMODE
 70
     1
  9
$QTEXTMODE
 70
     0
  9
$MIRRTEXT
 70
     1
  9
$LTSCALE
 40
1.0
  9
$ATTMODE
 70
     1
  9
$TEXTSIZE
 40
3.5
  9
$TRACEWID
 40
1.0
  9
$TEXTSTYLE
  7
Standard
  9
$CLAYER
  8
0
  9
$CELTYPE
  6
ByLayer
  9
$CECOLOR
 62
   256
  9
$CELTSCALE
 40
1.0
  9
$DISPSILH
 70
     0
  9
$DIMSCALE
 40
1.0
  9
$DIMASZ
 40
3.302
  9
$DIMEXO
 40
0.0
  9
$DIMDLI
 40
3.75
  9
$DIMRND
 40
0.0
  9
$DIMDLE
 40
0.0
  9
$DIMEXE
 40
1.0
  9
$DIMTP
 40
0.0
  9
$DIMTM
 40
0.0
  9
$DIMTXT
 40
3.5
  9
$DIMCEN
 40
2.5
  9
$DIMTSZ
 40
0.0
  9
$DIMTOL
 70
     0
  9
$DIMLIM
 70
     0
  9
$DIMTIH
 70
     1
  9
$DIMTOH
 70
     1
  9
$DIMSE1
 70
     0
  9
$DIMSE2
 70
     0
  9
$DIMTAD
 70
     1
  9
$DIMZIN
 70
     1
  9
$DIMBLK
  1

  9
$DIMASO
 70
     1
  9
$DIMSHO
 70
     1
  9
$DIMPOST
  1

  9
$DIMAPOST
  1

  9
$DIMALT
 70
     0
  9
$DIMALTD
 70
     3
  9
$DIMALTF
 40
0.0393700787
  9
$DIMLFAC
 40
1.0
  9
$DIMTOFL
 70
     1
  9
$DIMTVP
 40
0.0
  9
$DIMTIX
 70
     0
  9
$DIMSOXD
 70
     0
  9
$DIMSAH
 70
     0
  9
$DIMBLK1
  1

  9
$DIMBLK2
  1

  9
$DIMSTYLE
  2
ISO-25
  9
$DIMCLRD
 70
     0
  9
$DIMCLRE
 70
     0
  9
$DIMCLRT
 70
     0
  9
$DIMTFAC
 40
1.0
  9
$DIMGAP
 40
1.524
  9
$DIMJUST
 70
     0
  9
$DIMSD1
 70
     0
  9
$DIMSD2
 70
     0
  9
$DIMTOLJ
 70
     0
  9
$DIMTZIN
 70
     1
  9
$DIMALTZ
 70
     0
  9
$DIMALTTZ
 70
     0
  9
$DIMUPT
 70
     0
  9
$DIMDEC
 70
     2
  9
$DIMTDEC
 70
     2
  9
$DIMALTU
 70
     2
  9
$DIMALTTD
 70
     3
  9
$DIMTXSTY
  7
Standard
  9
$DIMAUNIT
 70
     0
  9
$DIMADEC
 70
     2
  9
$DIMALTRND
 40
0.0
  9
$DIMAZIN
 70
     0
  9
$DIMDSEP
 70
    44
  9
$DIMATFIT
 70
     3
  9
$DIMFRAC
 70
     0
  9
$DIMLDRBLK
  1

  9
$DIMLUNIT
 70
     2
  9
$DIMLWD
 70
    -2
  9
$DIMLWE
 70
    -2
  9
$DIMTMOVE
 70
     0
  9
$LUNITS
 70
     2
  9
$LUPREC
 70
     2
  9
$SKETCHINC
 40
1.0
  9
$FILLETRAD
 40
0.0
  9
$AUNITS
 70
     0
  9
$AUPREC
 70
     2
  9
$MENU
  1
.
  9
$ELEVATION
 40
0.0
  9
$PELEVATION
 40
0.0
  9
$THICKNESS
 40
0.0
  9
$LIMCHECK
 70
     0
  9
$CHAMFERA
 40
0.0
  9
$CHAMFERB
 40
0.0
  9
$CHAMFERC
 40
0.0
  9
$CHAMFERD
 40
0.0
  9
$SKPOLY
 70
     0
  9
$TDCREATE
 40
2460884.399855996
  9
$TDUCREATE
 40
2460884.691522662
  9
$TDUPDATE
 40
2460884.40020588
  9
$TDUUPDATE
 40
2460884.691872547
  9
$TDINDWG
 40
0.0000000116
  9
$TDUSRTIMER
 40
0.0000000116
  9
$USRTIMER
 70
     1
  9
$ANGBASE
 50
0.0
  9
$ANGDIR
 70
     0
  9
$PDMODE
 70
     0
  9
$PDSIZE
 40
-1.0
  9
$PLINEWID
 40
0.0
  9
$SPLFRAME
 70
     0
  9
$SPLINETYPE
 70
     6
  9
$SPLINESEGS
 70
     8
  9
$HANDSEED
  5
186
  9
$SURFTAB1
 70
     6
  9
$SURFTAB2
 70
     6
  9
$SURFTYPE
 70
     6
  9
$SURFU
 70
     6
  9
$SURFV
 70
     6
  9
$UCSBASE
  2

  9
$UCSNAME
  2

  9
$UCSORG
 10
0.0
 20
0.0
 30
0.0
  9
$UCSXDIR
 10
1.0
 20
0.0
 30
0.0
  9
$UCSYDIR
 10
0.0
 20
1.0
 30
0.0
  9
$UCSORTHOREF
  2

  9
$UCSORTHOVIEW
 70
     0
  9
$UCSORGTOP
 10
0.0
 20
0.0
 30
0.0
  9
$UCSORGBOTTOM
 10
0.0
 20
0.0
 30
0.0
  9
$UCSORGLEFT
 10
0.0
 20
0.0
 30
0.0
  9
$UCSORGRIGHT
 10
0.0
 20
0.0
 30
0.0
  9
$UCSORGFRONT
 10
0.0
 20
0.0
 30
0.0
  9
$UCSORGBACK
 10
0.0
 20
0.0
 30
0.0
  9
$PUCSBASE
  2

  9
$PUCSNAME
  2

  9
$PUCSORG
 10
0.0
 20
0.0
 30
0.0
  9
$PUCSXDIR
 10
1.0
 20
0.0
 30
0.0
  9
$PUCSYDIR
 10
0.0
 20
1.0
 30
0.0
  9
$PUCSORTHOREF
  2

  9
$PUCSORTHOVIEW
 70
     0
  9
$PUCSORGTOP
 10
0.0
 20
0.0
 30
0.0
  9
$PUCSORGBOTTOM
 10
0.0
 20
0.0
 30
0.0
  9
$PUCSORGLEFT
 10
0.0
 20
0.0
 30
0.0
  9
$PUCSORGRIGHT
 10
0.0
 20
0.0
 30
0.0
  9
$PUCSORGFRONT
 10
0.0
 20
0.0
 30
0.0
  9
$PUCSORGBACK
 10
0.0
 20
0.0
 30
0.0
  9
$USERI1
 70
     0
  9
$USERI2
 70
     0
  9
$USERI3
 70
     0
  9
$USERI4
 70
     0
  9
$USERI5
 70
     0
  9
$USERR1
 40
0.0
  9
$USERR2
 40
0.0
  9
$USERR3
 40
0.0
  9
$USERR4
 40
0.0
  9
$USERR5
 40
0.0
  9
$WORLDVIEW
 70
     1
  9
$SHADEDGE
 70
     3
  9
$SHADEDIF
 70
    70
  9
$TILEMODE
 70
     1
  9
$MAXACTVP
 70
    64
  9
$PINSBASE
 10
0.0
 20
0.0
 30
0.0
  9
$PLIMCHECK
 70
     0
  9
$PEXTMIN
 10
1.0000000000E+20
 20
1.0000000000E+20
 30
1.0000000000E+20
  9
$PEXTMAX
 10
-1.0000000000E+20
 20
-1.0000000000E+20
 30
-1.0000000000E+20
  9
$PLIMMIN
 10
0.0
 20
0.0
  9
$PLIMMAX
 10
420.0
 20
297.0
  9
$UNITMODE
 70
     0
  9
$VISRETAIN
 70
     1
  9
$PLINEGEN
 70
     0
  9
$PSLTSCALE
 70
     1
  9
$TREEDEPTH
 70
  3020
  9
$CMLSTYLE
  2
Standard
  9
$CMLJUST
 70
     0
  9
$CMLSCALE
 40
20.0
  9
$PROXYGRAPHICS
 70
     1
  9
$MEASUREMENT
 70
     1
  9
$CELWEIGHT
370
    -1
  9
$ENDCAPS
280
     0
  9
$JOINSTYLE
280
     0
  9
$LWDISPLAY
290
     1
  9
$INSUNITS
 70
     4
  9
$HYPERLINKBASE
  1

  9
$STYLESHEET
  1

  9
$XEDIT
290
     1
  9
$CEPSNTYPE
380
     0
  9
$PSTYLEMODE
290
     1
  9
$FINGERPRINTGUID
  2
{873fe4f5-59cb-400f-963c-881cd892481d}
  9
$VERSIONGUID
  2
{FAEB1C32-E019-11D5-929B-00C0DF256EC4}
  9
$EXTNAMES
290
     1
  9
$PSVPSCALE
 40
0.0
  9
$OLESTARTUP
290
     0
  0
ENDSEC
  0
SECTION
  2
CLASSES
  0
CLASS
  1
ACDBDICTIONARYWDFLT
  2
AcDbDictionaryWithDefault
  3
ObjectDBX Classes
 90
        0
280
     0
281
     0
  0
CLASS
  1
VISUALSTYLE
  2
AcDbVisualStyle
  3
ObjectDBX Classes
 90
     4095
280
     0
281
     0
  0
CLASS
  1
MATERIAL
  2
AcDbMaterial
  3
ObjectDBX Classes
 90
     1153
280
     0
281
     0
  0
CLASS
  1
SCALE
  2
AcDbScale
  3
ObjectDBX Classes
 90
     1153
280
     0
281
     0
  0
CLASS
  1
TABLESTYLE
  2
AcDbTableStyle
  3
ObjectDBX Classes
 90
     4095
280
     0
281
     0
  0
CLASS
  1
MLEADERSTYLE
  2
AcDbMLeaderStyle
  3
ACDB_MLEADERSTYLE_CLASS
 90
     4095
280
     0
281
     0
  0
CLASS
  1
SUN
  2
AcDbSun
  3
SCENEOE
 90
     1153
280
     0
281
     0
  0
CLASS
  1
ACDBPLACEHOLDER
  2
AcDbPlaceHolder
  3
ObjectDBX Classes
 90
        0
280
     0
281
     0
  0
CLASS
  1
LAYOUT
  2
AcDbLayout
  3
ObjectDBX Classes
 90
        0
280
     0
281
     0
  0
ENDSEC
  0
SECTION
  2
TABLES
  0
TABLE
  2
VPORT
  5
8
330
0
100
AcDbSymbolTable
 70
     1
  0
VPORT
  5
29
330
8
100
AcDbSymbolTableRecord
100
AcDbViewportTableRecord
  2
*Active
 70
     0
 10
0.0
 20
0.0
 11
1.0
 21
1.0
 12
30.0
 22
27.0
 13
0.0
 23
0.0
 14
10.0
 24
10.0
 15
10.0
 25
10.0
 16
0.0
 26
0.0
 36
1.0
 17
0.0
 27
0.0
 37
0.0
 40
55.08
 41
1.1111111111
 42
50.0
 43
0.0
 44
0.0
 50
0.0
 51
0.0
 71
     0
 72
   100
 73
     1
 74
     3
 75
     0
 76
     0
 77
     0
 78
     0
281
     0
 65
     1
110
0.0
120
0.0
130
0.0
111
1.0
121
0.0
131
0.0
112
0.0
122
1.0
132
0.0
 79
     0
146
0.0
  0
ENDTAB
  0
TABLE
  2
LTYPE
  5
5
330
0
100
AcDbSymbolTable
 70
     6
  0
LTYPE
  5
14
330
5
100
AcDbSymbolTableRecord
100
AcDbLinetypeTableRecord
  2
ByBlock
 70
     0
  3

 72
    65
 73
     0
 40
0.0
  0
LTYPE
  5
15
330
5
100
AcDbSymbolTableRecord
100
AcDbLinetypeTableRecord
  2
ByLayer
 70
     0
  3

 72
    65
 73
     0
 40
0.0
  0
LTYPE
  5
16
330
5
100
AcDbSymbolTableRecord
100
AcDbLinetypeTableRecord
  2
Continuous
 70
     0
  3
Solid line
 72
    65
 73
     0
 40
0.0
  0
LTYPE
  5
5E
330
5
100
AcDbSymbolTableRecord
100
AcDbLinetypeTableRecord
  2
HIDDEN
 70
     0
  3
Hidden __ __ __ __ __ __ __ __ __ __ __ __ __ __
 72
    65
 73
     2
 40
1.905
 49
1.27
 74
     0
 49
-0.635
 74
     0
  0
LTYPE
  5
5F
330
5
100
AcDbSymbolTableRecord
100
AcDbLinetypeTableRecord
  2
PHANTOM
 70
     0
  3
Phantom ______  __  __  ______  __  __  ______
 72
    65
 73
     6
 40
12.7
 49
6.35
 74
     0
 49
-1.27
 74
     0
 49
1.27
 74
     0
 49
-1.27
 74
     0
 49
1.27
 74
     0
 49
-1.27
 74
     0
  0
LTYPE
  5
60
330
5
100
AcDbSymbolTableRecord
100
AcDbLinetypeTableRecord
  2
CENTER
 70
     0
  3
Center ____ _ ____ _ ____ _ ____ _ ____ _ ____
 72
    65
 73
     4
 40
10.16
 49
6.35
 74
     0
 49
-1.27
 74
     0
 49
1.27
 74
     0
 49
-1.27
 74
     0
  0
LTYPE
  5
61
330
5
100
AcDbSymbolTableRecord
100
AcDbLinetypeTableRecord
  2
CENTERX2
 70
     0
  3
Center (2x) ________  __  ________  __  _____
 72
    65
 73
     4
 40
20.32
 49
12.7
 74
     0
 49
-2.54
 74
     0
 49
2.54
 74
     0
 49
-2.54
 74
     0
  0
LTYPE
  5
62
330
5
100
AcDbSymbolTableRecord
100
AcDbLinetypeTableRecord
  2
DOT2
 70
     0
  3
Dot (.5x) ........................................
 72
    65
 73
     2
 40
0.635
 49
0.0
 74
     0
 49
-0.635
 74
     0
  0
ENDTAB
  0
TABLE
  2
LAYER
  5
2
330
0
100
AcDbSymbolTable
 70
     1
  0
LAYER
  5
10
330
2
100
AcDbSymbolTableRecord
100
AcDbLayerTableRecord
  2
0
 70
     0
 62
     7
  6
Continuous
370
    -3
390
F
  0
ENDTAB
  0
TABLE
  2
STYLE
  5
3
330
0
100
AcDbSymbolTable
 70
     2
  0
STYLE
  5
11
330
3
100
AcDbSymbolTableRecord
100
AcDbTextStyleTableRecord
  2
Standard
 70
     0
 40
0.0
 41
1.0
 50
0.0
 71
     0
 42
3.5
  3
txt
  4

  0
STYLE
  5
182
330
3
100
AcDbSymbolTableRecord
100
AcDbTextStyleTableRecord
  2
SLDTEXTSTYLE0
 70
     0
 40
0.0
 41
0.7
 50
0.0
 71
     0
 42
3.5
  3
TXT
  4

  0
ENDTAB
  0
TABLE
  2
VIEW
  5
6
330
0
100
AcDbSymbolTable
 70
     0
  0
ENDTAB
  0
TABLE
  2
UCS
  5
7
330
0
100
AcDbSymbolTable
 70
     0
  0
ENDTAB
  0
TABLE
  2
APPID
  5
9
330
0
100
AcDbSymbolTable
 70
     1
  0
APPID
  5
12
330
9
100
AcDbSymbolTableRecord
100
AcDbRegAppTableRecord
  2
ACAD
 70
     0
  0
ENDTAB
  0
TABLE
  2
DIMSTYLE
  5
A
330
0
100
AcDbSymbolTable
 70
     1
100
AcDbDimStyleTable
  0
DIMSTYLE
105
27
330
A
100
AcDbSymbolTableRecord
100
AcDbDimStyleTableRecord
  2
ISO-25
 70
     0
 41
2.5
 42
0.625
 43
3.75
 44
1.25
 73
     0
 74
     0
 77
     1
 78
     8
140
2.5
141
2.5
143
0.0393700787
147
0.625
171
     3
172
     1
178
     0
271
     2
272
     2
274
     3
278
    44
283
     0
284
     8
340
11
  0
ENDTAB
  0
TABLE
  2
BLOCK_RECORD
  5
1
330
0
100
AcDbSymbolTable
 70
     1
  0
BLOCK_RECORD
  5
1F
330
1
100
AcDbSymbolTableRecord
100
AcDbBlockTableRecord
  2
*Model_Space
340
22
  0
BLOCK_RECORD
  5
1B
330
1
100
AcDbSymbolTableRecord
100
AcDbBlockTableRecord
  2
*Paper_Space
340
1E
  0
BLOCK_RECORD
  5
23
330
1
100
AcDbSymbolTableRecord
100
AcDbBlockTableRecord
  2
*Paper_Space0
340
26
  0
ENDTAB
  0
ENDSEC
  0
SECTION
  2
BLOCKS
  0
BLOCK
  5
20
330
1F
100
AcDbEntity
  8
0
100
AcDbBlockBegin
  2
*Model_Space
 70
     0
 10
0.0
 20
0.0
 30
0.0
  3
*Model_Space
  1

  0
ENDBLK
  5
21
330
1F
100
AcDbEntity
  8
0
100
AcDbBlockEnd
  0
BLOCK
  5
1C
330
1B
100
AcDbEntity
 67
     1
  8
0
100
AcDbBlockBegin
  2
*Paper_Space
 70
     0
 10
0.0
 20
0.0
 30
0.0
  3
*Paper_Space
  1

  0
ENDBLK
  5
1D
330
1B
100
AcDbEntity
 67
     1
  8
0
100
AcDbBlockEnd
  0
BLOCK
  5
24
330
23
100
AcDbEntity
  8
0
100
AcDbBlockBegin
  2
*Paper_Space0
 70
     0
 10
0.0
 20
0.0
 30
0.0
  3
*Paper_Space0
  1

  0
ENDBLK
  5
25
330
23
100
AcDbEntity
  8
0
100
AcDbBlockEnd
  0
ENDSEC
  0
SECTION
  2
ENTITIES
  0
ARC
  5
63
330
1F
100
AcDbEntity
  8
0
  6
Continuous
 62
     7
100
AcDbCircle
 10
18.9471380342
 20
55.0611828767
 30
0.0
 40
20.66970268041905
100
AcDbArc
 50
275.1946315643
 51
299.7256959632
  0
ARC
  5
64
330
1F
100
AcDbEntity
  8
0
  6
Continuous
 62
     7
100
AcDbCircle
 10
33.0316934942
 20
29.3227866104
 30
0.0
 40
12.56981304331283
100
AcDbArc
 50
199.6551954567
 51
257.1947658062
  0
ARC
  5
65
330
1F
100
AcDbEntity
  8
0
  6
Continuous
 62
     7
100
AcDbCircle
 10
2.1137297729
 20
64.6767050715
 30
0.0
 40
56.03161942595425
100
AcDbArc
 50
303.625192318
 51
305.7830979001
  0
ARC
  5
66
330
1F
100
AcDbEntity
  8
0
  6
Continuous
 62
     7
100
AcDbCircle
 10
30.8517490003
 20
39.7789938399
 30
0.0
 40
1.077604769845695
100
AcDbArc
 50
201.5229775568
 51
265.2329939258
  0
ARC
  5
67
330
1F
100
AcDbEntity
  8
0
  6
Continuous
 62
     7
100
AcDbCircle
 10
31.4803341959
 20
39.7948546382
 30
0.0
 40
1.336006312822883
100
AcDbArc
 50
251.8533393265
 51
293.2453255999
  0
ARC
  5
68
330
1F
100
AcDbEntity
  8
0
  6
Continuous
 62
     7
100
AcDbCircle
 10
32.2474016697
 20
40.0598799447
 30
0.0
 40
1.084306618253486
100
AcDbArc
 50
306.4230368157
 51
358.9086051655
  0
ARC
  5
69
330
1F
100
AcDbEntity
  8
0
  6
Continuous
 62
     7
100
AcDbCircle
 10
33.9697801658
 20
38.776493636
 30
0.0
 40
0.7851578690087506
100
AcDbArc
 50
110.5491269638
 51
185.2158363086
  0
ARC
  5
6A
330
1F
100
AcDbEntity
  8
0
  6
Continuous
 62
     7
100
AcDbCircle
 10
34.891534626
 20
33.9415126678
 30
0.0
 40
5.103043142325194
100
AcDbArc
 50
112.4771096244
 51
140.2529847615
  0
ARC
  5
6B
330
1F
100
AcDbEntity
  8
0
  6
Continuous
 62
     7
100
AcDbCircle
 10
14.2088422747
 20
79.2251872597
 30
0.0
 40
46.37202668304851
100
AcDbArc
 50
279.5346855637
 51
289.3283625692
  0
ARC
  5
6C
330
1F
100
AcDbEntity
  8
0
  6
Continuous
 62
     7
100
AcDbCircle
 10
28.8047593208
 20
27.6426529774
 30
0.0
 40
6.916152110859497
100
AcDbArc
 50
181.1985712838
 51
211.4911922867
  0
ARC
  5
6D
330
1F
100
AcDbEntity
  8
0
  6
Continuous
 62
     7
100
AcDbCircle
 10
35.9173473049
 20
32.988773902
 30
0.0
 40
15.83321973785293
100
AcDbArc
 50
224.1527771579
 51
246.3154428914
  0
ARC
  5
6E
330
1F
100
AcDbEntity
  8
0
  6
Continuous
 62
     7
100
AcDbCircle
 10
30.819475794
 20
27.8387273895
 30
0.0
 40
3.020358168738556
100
AcDbArc
 50
114.7050091372
 51
245.2949908628
  0
ARC
  5
6F
330
1F
100
AcDbEntity
  8
0
  6
Continuous
 62
     7
100
AcDbCircle
 10
30.0710091501
 20
27.8387273895
 30
0.0
 40
2.788998275696993
100
AcDbArc
 50
280.3165237866
 51
75.6510903529
  0
ARC
  5
70
330
1F
100
AcDbEntity
  8
0
  6
Continuous
 62
     7
100
AcDbCircle
 10
41.611237929
 20
62.6125300429
 30
0.0
 40
28.86767641623151
100
AcDbArc
 50
247.925014138
 51
263.3083143188
  0
ARC
  5
71
330
1F
100
AcDbEntity
  8
0
  6
Continuous
 62
     7
100
AcDbCircle
 10
29.8722443551
 20
28.1139123024
 30
0.0
 40
8.377677058746439
100
AcDbArc
 50
322.2722991637
 51
358.5901621652
  0
ARC
  5
72
330
1F
100
AcDbEntity
  8
0
  6
Continuous
 62
     7
100
AcDbCircle
 10
-10.6731244855
 20
84.7636097488
 30
0.0
 40
78.04008501215978
100
AcDbArc
 50
301.8713470964
 51
305.1255953033
  0
ARC
  5
73
330
1F
100
AcDbEntity
  8
0
  6
Continuous
 62
     7
100
AcDbCircle
 10
29.0679493553
 20
30.4202909008
 30
0.0
 40
2.674961173109786
100
AcDbArc
 50
79.4628480808
 51
110.6391165684
  0
ARC
  5
74
330
1F
100
AcDbEntity
  8
0
  6
Continuous
 62
     7
100
AcDbCircle
 10
27.5357133474
 20
29.9359640196
 30
0.0
 40
2.905311895313387
100
AcDbArc
 50
109.9390957162
 51
125.5800400192
  0
ARC
  5
75
330
1F
100
AcDbEntity
  8
0
  6
Continuous
 62
     7
100
AcDbCircle
 10
26.4181729529
 20
29.4329876689
 30
0.0
 40
2.548356812792556
100
AcDbArc
 50
132.2068007741
 51
156.7881383588
  0
ARC
  5
76
330
1F
100
AcDbEntity
  8
0
  6
Continuous
 62
     7
100
AcDbCircle
 10
26.2951534414
 20
28.4332618147
 30
0.0
 40
2.887205504942672
100
AcDbArc
 50
169.5137030322
 51
190.4862969678
  0
ARC
  5
77
330
1F
100
AcDbEntity
  8
0
  6
Continuous
 62
     7
100
AcDbCircle
 10
25.310084058
 20
26.4479174959
 30
0.0
 40
1.669320612640016
100
AcDbArc
 50
185.3427922399
 51
222.3353509246
  0
ARC
  5
78
330
1F
100
AcDbEntity
  8
0
  6
Continuous
 62
     7
100
AcDbCircle
 10
26.9730591099
 20
25.6472487559
 30
0.0
 40
2.643240178937344
100
AcDbArc
 50
220.3512331887
 51
244.744059476
  0
ARC
  5
79
330
1F
100
AcDbEntity
  8
0
  6
Continuous
 62
     7
100
AcDbCircle
 10
28.0983221474
 20
24.547921931
 30
0.0
 40
2.221690043771896
100
AcDbArc
 50
246.4623335798
 51
270.6900144091
  0
CIRCLE
  5
7A
330
1F
100
AcDbEntity
  8
0
  6
Continuous
 62
     7
100
AcDbCircle
 10
31.8028786406
 20
33.791592352
 30
0.0
 40
0.4867917172638505
  0
CIRCLE
  5
7B
330
1F
100
AcDbEntity
  8
0
  6
Continuous
 62
     7
100
AcDbCircle
 10
31.8028786406
 20
33.791592352
 30
0.0
 40
0.1499203158016044
  0
CIRCLE
  5
7C
330
1F
100
AcDbEntity
  8
0
  6
Continuous
 62
     7
100
AcDbCircle
 10
34.2534016529
 20
34.2200709369
 30
0.0
 40
0.4626745661692026
  0
CIRCLE
  5
7D
330
1F
100
AcDbEntity
  8
0
  6
Continuous
 62
     7
100
AcDbCircle
 10
34.2534016529
 20
34.2200709369
 30
0.0
 40
0.2001914486269414
  0
CIRCLE
  5
7E
330
1F
100
AcDbEntity
  8
0
  6
Continuous
 62
     7
100
AcDbCircle
 10
37.1630533488
 20
33.4937667193
 30
0.0
 40
0.4965090670567795
  0
CIRCLE
  5
7F
330
1F
100
AcDbEntity
  8
0
  6
Continuous
 62
     7
100
AcDbCircle
 10
37.1630533488
 20
33.4937667193
 30
0.0
 40
0.1818053091727065
  0
CIRCLE
  5
80
330
1F
100
AcDbEntity
  8
0
  6
Continuous
 62
     7
100
AcDbCircle
 10
36.5449077702
 20
31.8608318289
 30
0.0
 40
0.5810346100708266
  0
CIRCLE
  5
81
330
1F
100
AcDbEntity
  8
0
  6
Continuous
 62
     7
100
AcDbCircle
 10
36.5449077702
 20
31.8608318289
 30
0.0
 40
0.2228428623612141
  0
CIRCLE
  5
82
330
1F
100
AcDbEntity
  8
0
  6
Continuous
 62
     7
100
AcDbCircle
 10
37.7425646981
 20
29.4329876689
 30
0.0
 40
0.3590064033459964
  0
CIRCLE
  5
83
330
1F
100
AcDbEntity
  8
0
  6
Continuous
 62
     7
100
AcDbCircle
 10
37.7425646981
 20
29.4329876689
 30
0.0
 40
0.1640252032177995
  0
CIRCLE
  5
84
330
1F
100
AcDbEntity
  8
0
  6
Continuous
 62
     7
100
AcDbCircle
 10
37.5685235635
 20
26.2924799857
 30
0.0
 40
0.4056862609333955
  0
CIRCLE
  5
85
330
1F
100
AcDbEntity
  8
0
  6
Continuous
 62
     7
100
AcDbCircle
 10
37.5685235635
 20
26.2924799857
 30
0.0
 40
0.1581106197443801
  0
CIRCLE
  5
86
330
1F
100
AcDbEntity
  8
0
  6
Continuous
 62
     7
100
AcDbCircle
 10
36.498381915
 20
24.9039493967
 30
0.0
 40
0.5182634405684452
  0
CIRCLE
  5
87
330
1F
100
AcDbEntity
  8
0
  6
Continuous
 62
     7
100
AcDbCircle
 10
36.498381915
 20
24.9039493967
 30
0.0
 40
0.1908682489483218
  0
CIRCLE
  5
88
330
1F
100
AcDbEntity
  8
0
  6
Continuous
 62
     7
100
AcDbCircle
 10
31.5420053096
 20
19.7163275695
 30
0.0
 40
0.4265402989830503
  0
CIRCLE
  5
89
330
1F
100
AcDbEntity
  8
0
  6
Continuous
 62
     7
100
AcDbCircle
 10
31.5420053096
 20
19.7163275695
 30
0.0
 40
0.1649475397604691
  0
CIRCLE
  5
8A
330
1F
100
AcDbEntity
  8
0
  6
Continuous
 62
     7
100
AcDbCircle
 10
33.6259378376
 20
21.5529948573
 30
0.0
 40
0.4826770651366851
  0
CIRCLE
  5
8B
330
1F
100
AcDbEntity
  8
0
  6
Continuous
 62
     7
100
AcDbCircle
 10
33.6259378376
 20
21.5529948573
 30
0.0
 40
0.2231485780808281
  0
CIRCLE
  5
8C
330
1F
100
AcDbEntity
  8
0
  6
Continuous
 62
     7
100
AcDbCircle
 10
33.4952780396
 20
23.5806832602
 30
0.0
 40
0.4061200969929946
  0
CIRCLE
  5
8D
330
1F
100
AcDbEntity
  8
0
  6
Continuous
 62
     7
100
AcDbCircle
 10
34.8764479555
 20
22.3801672762
 30
0.0
 40
0.3805162317740187
  0
CIRCLE
  5
8E
330
1F
100
AcDbEntity
  8
0
  6
Continuous
 62
     7
100
AcDbCircle
 10
33.4952780396
 20
23.5806832602
 30
0.0
 40
0.1420328889865615
  0
CIRCLE
  5
8F
330
1F
100
AcDbEntity
  8
0
  6
Continuous
 62
     7
100
AcDbCircle
 10
34.8764479555
 20
22.3801672762
 30
0.0
 40
0.1953113455399099
  0
ARC
  5
90
330
1F
100
AcDbEntity
  8
0
  6
Continuous
 62
     7
100
AcDbCircle
 10
15.6398372824
 20
12.4650293924
 30
0.0
 40
4.999999999999999
100
AcDbArc
 50
180.0
 51
270.0
  0
ARC
  5
91
330
1F
100
AcDbEntity
  8
0
  6
Continuous
 62
     7
100
AcDbCircle
 10
44.7901094865
 20
12.4650293924
 30
0.0
 40
5.0
100
AcDbArc
 50
270.0
 51
0.0
  0
ARC
  5
92
330
1F
100
AcDbEntity
  8
0
  6
Continuous
 62
     7
100
AcDbCircle
 10
44.7901094865
 20
41.2890493281
 30
0.0
 40
5.0
100
AcDbArc
 50
0.0
 51
90.0
  0
ARC
  5
93
330
1F
100
AcDbEntity
  8
0
  6
Continuous
 62
     7
100
AcDbCircle
 10
15.6398372824
 20
41.2890493281
 30
0.0
 40
5.0
100
AcDbArc
 50
90.0
 51
180.0
  0
LINE
  5
94
330
1F
100
AcDbEntity
  8
0
  6
Continuous
 62
     7
100
AcDbLine
 10
19.869059937
 20
28.8437503835
 30
0.0
 11
19.2880538545
 21
28.3572342771
 31
0.0
  0
LINE
  5
95
330
1F
100
AcDbEntity
  8
0
  6
Continuous
 62
     7
100
AcDbLine
 10
19.2880538545
 20
28.3572342771
 30
0.0
 11
18.8821611728
 21
27.9077893675
 31
0.0
  0
LINE
  5
96
330
1F
100
AcDbEntity
  8
0
  6
Continuous
 62
     7
100
AcDbLine
 10
18.8821611728
 20
27.9077893675
 30
0.0
 11
18.3075021907
 21
27.2714695572
 31
0.0
  0
LINE
  5
97
330
1F
100
AcDbEntity
  8
0
  6
Continuous
 62
     7
100
AcDbLine
 10
18.3075021907
 20
27.2714695572
 30
0.0
 11
17.8606079909
 21
26.7766236724
 31
0.0
  0
LINE
  5
98
330
1F
100
AcDbEntity
  8
0
  6
Continuous
 62
     7
100
AcDbLine
 10
17.8606079909
 20
26.7766236724
 30
0.0
 11
17.5763146374
 21
26.4618256819
 31
0.0
  0
LINE
  5
99
330
1F
100
AcDbEntity
  8
0
  6
Continuous
 62
     7
100
AcDbLine
 10
17.5763146374
 20
26.4618256819
 30
0.0
 11
17.4224310171
 21
26.2372111185
 31
0.0
  0
LINE
  5
9A
330
1F
100
AcDbEntity
  8
0
  6
Continuous
 62
     7
100
AcDbLine
 10
17.4224310171
 20
26.2372111185
 30
0.0
 11
17.2491968108
 21
25.9064875058
 31
0.0
  0
LINE
  5
9B
330
1F
100
AcDbEntity
  8
0
  6
Continuous
 62
     7
100
AcDbLine
 10
17.2491968108
 20
25.9064875058
 30
0.0
 11
17.2491968108
 21
25.6605648194
 31
0.0
  0
LINE
  5
9C
330
1F
100
AcDbEntity
  8
0
  6
Continuous
 62
     7
100
AcDbLine
 10
17.2491968108
 20
25.6605648194
 30
0.0
 11
17.2491968108
 21
25.3807217625
 31
0.0
  0
LINE
  5
9D
330
1F
100
AcDbEntity
  8
0
  6
Continuous
 62
     7
100
AcDbLine
 10
17.2491968108
 20
25.3807217625
 30
0.0
 11
17.4224310171
 21
24.2786346348
 31
0.0
  0
LINE
  5
9E
330
1F
100
AcDbEntity
  8
0
  6
Continuous
 62
     7
100
AcDbLine
 10
17.4224310171
 20
24.2786346348
 30
0.0
 11
17.682804991
 21
23.5806832602
 31
0.0
  0
LINE
  5
9F
330
1F
100
AcDbEntity
  8
0
  6
Continuous
 62
     7
100
AcDbLine
 10
17.682804991
 20
23.5806832602
 30
0.0
 11
17.8362020722
 21
23.1694912269
 31
0.0
  0
LINE
  5
A0
330
1F
100
AcDbEntity
  8
0
  6
Continuous
 62
     7
100
AcDbLine
 10
17.8362020722
 20
23.1694912269
 30
0.0
 11
17.9803026112
 21
22.7832192515
 31
0.0
  0
LINE
  5
A1
330
1F
100
AcDbEntity
  8
0
  6
Continuous
 62
     7
100
AcDbLine
 10
17.9803026112
 20
22.7832192515
 30
0.0
 11
18.1007376818
 21
22.4603842851
 31
0.0
  0
LINE
  5
A2
330
1F
100
AcDbEntity
  8
0
  6
Continuous
 62
     7
100
AcDbLine
 10
18.1007376818
 20
22.4603842851
 30
0.0
 11
18.2144018543
 21
22.1556992036
 31
0.0
  0
LINE
  5
A3
330
1F
100
AcDbEntity
  8
0
  6
Continuous
 62
     7
100
AcDbLine
 10
18.4085188181
 20
20.4831266058
 30
0.0
 11
17.7442088647
 21
19.7163275695
 31
0.0
  0
LINE
  5
A4
330
1F
100
AcDbEntity
  8
0
  6
Continuous
 62
     7
100
AcDbLine
 10
21.1826262432
 20
20.9351885938
 30
0.0
 11
21.7476646625
 21
18.6362278888
 31
0.0
  0
LINE
  5
A5
330
1F
100
AcDbEntity
  8
0
  6
Continuous
 62
     7
100
AcDbLine
 10
30.0623498648
 20
41.0300893899
 30
0.0
 11
30.3938558044
 21
40.800463155
 31
0.0
  0
LINE
  5
A6
330
1F
100
AcDbEntity
  8
0
  6
Continuous
 62
     7
100
AcDbLine
 10
30.3938558044
 20
40.800463155
 30
0.0
 11
30.5706589722
 21
40.800463155
 31
0.0
  0
LINE
  5
A7
330
1F
100
AcDbEntity
  8
0
  6
Continuous
 62
     7
100
AcDbLine
 10
30.5706589722
 20
40.800463155
 30
0.0
 11
30.7621957373
 21
40.9152762725
 31
0.0
  0
LINE
  5
A8
330
1F
100
AcDbEntity
  8
0
  6
Continuous
 62
     7
100
AcDbLine
 10
38.1811924656
 20
40.4732966264
 30
0.0
 11
38.4921144976
 21
39.9546015371
 31
0.0
  0
LINE
  5
A9
330
1F
100
AcDbEntity
  8
0
  6
Continuous
 62
     7
100
AcDbLine
 10
38.0446937013
 20
39.3280492596
 30
0.0
 11
38.0815547673
 21
39.0467248481
 31
0.0
  0
LINE
  5
AA
330
1F
100
AcDbEntity
  8
0
  6
Continuous
 62
     7
100
AcDbLine
 10
36.2954697809
 20
38.0196227137
 30
0.0
 11
36.6941608473
 21
37.6823395032
 31
0.0
  0
LINE
  5
AB
330
1F
100
AcDbEntity
  8
0
  6
Continuous
 62
     7
100
AcDbLine
 10
37.0924926871
 20
36.8801951933
 30
0.0
 11
37.8941451125
 21
35.8610623225
 31
0.0
  0
LINE
  5
AC
330
1F
100
AcDbEntity
  8
0
  6
Continuous
 62
     7
100
AcDbLine
 10
38.638467984
 20
35.2423982312
 30
0.0
 11
39.1212307504
 21
35.2829922963
 31
0.0
  0
LINE
  5
AD
330
1F
100
AcDbEntity
  8
0
  6
Continuous
 62
     7
100
AcDbLine
 10
39.1212307504
 20
35.2829922963
 30
0.0
 11
40.0165809004
 21
36.0841487022
 31
0.0
  0
LINE
  5
AE
330
1F
100
AcDbEntity
  8
0
  6
Continuous
 62
     7
100
AcDbLine
 10
40.0165809004
 20
36.0841487022
 30
0.0
 11
40.7210670434
 21
36.9168979257
 31
0.0
  0
LINE
  5
AF
330
1F
100
AcDbEntity
  8
0
  6
Continuous
 62
     7
100
AcDbLine
 10
42.8214777061
 20
41.0300893899
 30
0.0
 11
43.274845385
 21
41.9093010364
 31
0.0
  0
LINE
  5
B0
330
1F
100
AcDbEntity
  8
0
  6
Continuous
 62
     7
100
AcDbLine
 10
43.274845385
 20
41.9093010364
 30
0.0
 11
43.185373774
 21
41.9728310929
 31
0.0
  0
LINE
  5
B1
330
1F
100
AcDbEntity
  8
0
  6
Continuous
 62
     7
100
AcDbLine
 10
43.185373774
 20
41.9728310929
 30
0.0
 11
44.4974584819
 21
43.2914968919
 31
0.0
  0
LINE
  5
B2
330
1F
100
AcDbEntity
  8
0
  6
Continuous
 62
     7
100
AcDbLine
 10
44.4974584819
 20
43.2914968919
 30
0.0
 11
44.3553643049
 21
42.3658868151
 31
0.0
  0
LINE
  5
B3
330
1F
100
AcDbEntity
  8
0
  6
Continuous
 62
     7
100
AcDbLine
 10
44.3553643049
 20
42.3658868151
 30
0.0
 11
44.2137263383
 21
41.4319353011
 31
0.0
  0
LINE
  5
B4
330
1F
100
AcDbEntity
  8
0
  6
Continuous
 62
     7
100
AcDbLine
 10
44.2137263383
 20
41.4319353011
 30
0.0
 11
44.1203238866
 21
41.4319353011
 31
0.0
  0
LINE
  5
B5
330
1F
100
AcDbEntity
  8
0
  6
Continuous
 62
     7
100
AcDbLine
 10
44.1203238866
 20
41.4319353011
 30
0.0
 11
43.5538914955
 21
40.2139490818
 31
0.0
  0
LINE
  5
B6
330
1F
100
AcDbEntity
  8
0
  6
Continuous
 62
     7
100
AcDbLine
 10
43.2100072209
 20
37.2315875649
 30
0.0
 11
43.2100072209
 21
36.9572709314
 31
0.0
  0
LINE
  5
B7
330
1F
100
AcDbEntity
  8
0
  6
Continuous
 62
     7
100
AcDbLine
 10
43.2570031518
 20
36.7903348594
 30
0.0
 11
43.2570031518
 21
36.4774853786
 31
0.0
  0
LINE
  5
B8
330
1F
100
AcDbEntity
  8
0
  6
Continuous
 62
     7
100
AcDbLine
 10
42.7088750211
 20
35.7793366022
 30
0.0
 11
42.7088750211
 21
35.2023446252
 31
0.0
  0
LINE
  5
B9
330
1F
100
AcDbEntity
  8
0
  6
Continuous
 62
     7
100
AcDbLine
 10
40.0907872
 20
30.5826371334
 30
0.0
 11
40.0907872
 21
28.8437503835
 31
0.0
  0
LINE
  5
BA
330
1F
100
AcDbEntity
  8
0
  6
Continuous
 62
     7
100
AcDbLine
 10
40.0907872
 20
28.8437503835
 30
0.0
 11
40.0907872
 21
28.3572342771
 31
0.0
  0
LINE
  5
BB
330
1F
100
AcDbEntity
  8
0
  6
Continuous
 62
     7
100
AcDbLine
 10
40.0907872
 20
28.3572342771
 30
0.0
 11
42.0557921726
 21
26.1360929449
 31
0.0
  0
LINE
  5
BC
330
1F
100
AcDbEntity
  8
0
  6
Continuous
 62
     7
100
AcDbLine
 10
42.0557921726
 20
26.1360929449
 30
0.0
 11
42.3352153515
 21
25.8202472446
 31
0.0
  0
LINE
  5
BD
330
1F
100
AcDbEntity
  8
0
  6
Continuous
 62
     7
100
AcDbLine
 10
42.6677326246
 20
24.2006394814
 30
0.0
 11
42.9386554208
 21
23.1122773114
 31
0.0
  0
LINE
  5
BE
330
1F
100
AcDbEntity
  8
0
  6
Continuous
 62
     7
100
AcDbLine
 10
42.9386554208
 20
23.1122773114
 30
0.0
 11
43.3368453462
 21
21.4955543624
 31
0.0
  0
LINE
  5
BF
330
1F
100
AcDbEntity
  8
0
  6
Continuous
 62
     7
100
AcDbLine
 10
43.6061935064
 20
21.3545199959
 30
0.0
 11
43.8551772977
 21
20.5894831379
 31
0.0
  0
LINE
  5
C0
330
1F
100
AcDbEntity
  8
0
  6
Continuous
 62
     7
100
AcDbLine
 10
44.1203238866
 20
20.034585
 30
0.0
 11
44.8963146809
 21
19.3792351311
 31
0.0
  0
LINE
  5
C1
330
1F
100
AcDbEntity
  8
0
  6
Continuous
 62
     7
100
AcDbLine
 10
46.2642355848
 20
17.9577904273
 30
0.0
 11
45.8969110092
 21
17.9577904273
 31
0.0
  0
LINE
  5
C2
330
1F
100
AcDbEntity
  8
0
  6
Continuous
 62
     7
100
AcDbLine
 10
40.5892729674
 20
21.609193338
 30
0.0
 11
41.2489566776
 21
20.5894831379
 31
0.0
  0
LINE
  5
C3
330
1F
100
AcDbEntity
  8
0
  6
Continuous
 62
     7
100
AcDbLine
 10
41.2881406875
 20
20.20468779
 30
0.0
 11
41.5990824301
 21
19.5763562061
 31
0.0
  0
LINE
  5
C4
330
1F
100
AcDbEntity
  8
0
  6
Continuous
 62
     7
100
AcDbLine
 10
30.1879714217
 20
37.6446432846
 30
0.0
 11
30.9360752299
 21
37.2065824977
 31
0.0
  0
LINE
  5
C5
330
1F
100
AcDbEntity
  8
0
  6
Continuous
 62
     7
100
AcDbLine
 10
39.862775425
 20
35.2829922963
 30
0.0
 11
40.0907872
 21
30.5826371334
 31
0.0
  0
LINE
  5
C6
330
1F
100
AcDbEntity
  8
0
  6
Continuous
 62
     7
100
AcDbLine
 10
39.492602638
 20
24.7928305502
 30
0.0
 11
39.3340736898
 21
24.4293875333
 31
0.0
  0
LINE
  5
C7
330
1F
100
AcDbEntity
  8
0
  6
Continuous
 62
     7
100
AcDbLine
 10
39.3340736898
 20
24.4293875333
 30
0.0
 11
38.0631242343
 21
22.194556187
 31
0.0
  0
LINE
  5
C8
330
1F
100
AcDbEntity
  8
0
  6
Continuous
 62
     7
100
AcDbLine
 10
33.141671704
 20
18.0204172314
 30
0.0
 11
30.2457505451
 21
17.0655959931
 31
0.0
  0
LINE
  5
C9
330
1F
100
AcDbEntity
  8
0
  6
Continuous
 62
     7
100
AcDbLine
 10
20.8185577959
 20
34.4763730167
 30
0.0
 11
20.8185577959
 21
28.357234277
 31
0.0
  0
LINE
  5
CA
330
1F
100
AcDbEntity
  8
0
  6
Continuous
 62
     7
100
AcDbLine
 10
30.1879714217
 20
37.6446432846
 30
0.0
 11
29.1961725252
 21
37.1114224075
 31
0.0
  0
LINE
  5
CB
330
1F
100
AcDbEntity
  8
0
  6
Continuous
 62
     7
100
AcDbLine
 10
21.1942749252
 20
25.3236822623
 30
0.0
 11
21.1942749252
 21
25.0948176456
 31
0.0
  0
LINE
  5
CC
330
1F
100
AcDbEntity
  8
0
  6
Continuous
 62
     7
100
AcDbLine
 10
30.7621957373
 20
38.7051166341
 30
0.0
 11
31.0642344823
 21
38.5252980635
 31
0.0
  0
LINE
  5
CD
330
1F
100
AcDbEntity
  8
0
  6
Continuous
 62
     7
100
AcDbLine
 10
32.0076143334
 20
38.5673007597
 30
0.0
 11
32.3931604421
 21
38.7558562096
 31
0.0
  0
LINE
  5
CE
330
1F
100
AcDbEntity
  8
0
  6
Continuous
 62
     7
100
AcDbLine
 10
30.9679316058
 20
37.2043930904
 30
0.0
 11
30.9773710938
 21
37.1856565376
 31
0.0
  0
LINE
  5
CF
330
1F
100
AcDbEntity
  8
0
  6
Continuous
 62
     7
100
AcDbLine
 10
29.5571276705
 20
35.4668166993
 30
0.0
 11
29.5571276705
 21
30.5826371334
 31
0.0
  0
LINE
  5
D0
330
1F
100
AcDbEntity
  8
0
  6
Continuous
 62
     7
100
AcDbLine
 10
21.8901204269
 20
33.4937667193
 30
0.0
 11
21.8901204269
 21
27.4979844379
 31
0.0
  0
LINE
  5
D1
330
1F
100
AcDbEntity
  8
0
  6
Continuous
 62
     7
100
AcDbLine
 10
24.1234545649
 20
22.3263929961
 30
0.0
 11
24.5572502202
 21
21.9597648126
 31
0.0
  0
LINE
  5
D2
330
1F
100
AcDbEntity
  8
0
  6
Continuous
 62
     7
100
AcDbLine
 10
29.5571276705
 20
18.4891720637
 30
0.0
 11
29.5571276705
 21
25.0948176456
 31
0.0
  0
LINE
  5
D3
330
1F
100
AcDbEntity
  8
0
  6
Continuous
 62
     7
100
AcDbLine
 10
30.7621957373
 20
35.8610623225
 30
0.0
 11
30.7621957373
 21
30.5407215574
 31
0.0
  0
LINE
  5
D4
330
1F
100
AcDbEntity
  8
0
  6
Continuous
 62
     7
100
AcDbLine
 10
30.5704795689
 20
25.0948176456
 30
0.0
 11
30.5331102154
 21
18.4891720637
 31
0.0
  0
LINE
  5
D5
330
1F
100
AcDbEntity
  8
0
  6
Continuous
 62
     7
100
AcDbLine
 10
38.2473853233
 20
33.9415126678
 30
0.0
 11
38.2473853233
 21
27.9077893674
 31
0.0
  0
LINE
  5
D6
330
1F
100
AcDbEntity
  8
0
  6
Continuous
 62
     7
100
AcDbLine
 10
36.498381915
 20
22.987532104
 30
0.0
 11
35.2616389377
 21
21.7507891267
 31
0.0
  0
LINE
  5
D7
330
1F
100
AcDbEntity
  8
0
  6
Continuous
 62
     7
100
AcDbLine
 10
35.2616389377
 20
21.7507891267
 30
0.0
 11
34.2288523258
 21
20.9351885938
 31
0.0
  0
LINE
  5
D8
330
1F
100
AcDbEntity
  8
0
  6
Continuous
 62
     7
100
AcDbLine
 10
27.5438477386
 20
34.1253398587
 30
0.0
 11
28.1250773657
 21
32.9235706872
 31
0.0
  0
LINE
  5
D9
330
1F
100
AcDbEntity
  8
0
  6
Continuous
 62
     7
100
AcDbLine
 10
27.5438477386
 20
34.1253398587
 30
0.0
 11
26.4478223298
 21
33.7659257113
 31
0.0
  0
LINE
  5
DA
330
1F
100
AcDbEntity
  8
0
  6
Continuous
 62
     7
100
AcDbLine
 10
26.4478223298
 20
33.7659257113
 30
0.0
 11
26.5449407601
 21
32.6671188833
 31
0.0
  0
LINE
  5
DB
330
1F
100
AcDbEntity
  8
0
  6
Continuous
 62
     7
100
AcDbLine
 10
24.8544764118
 20
33.1854789125
 30
0.0
 11
25.8452876125
 21
32.2988643654
 31
0.0
  0
LINE
  5
DC
330
1F
100
AcDbEntity
  8
0
  6
Continuous
 62
     7
100
AcDbLine
 10
24.8544764118
 20
33.1854789125
 30
0.0
 11
23.9227431424
 21
32.253745643
 31
0.0
  0
LINE
  5
DD
330
1F
100
AcDbEntity
  8
0
  6
Continuous
 62
     7
100
AcDbLine
 10
23.9227431424
 20
32.253745643
 30
0.0
 11
24.7061651467
 21
31.3206189137
 31
0.0
  0
LINE
  5
DE
330
1F
100
AcDbEntity
  8
0
  6
Continuous
 62
     7
100
AcDbLine
 10
22.7754658755
 20
30.7888437349
 30
0.0
 11
22.4877397309
 21
29.7240902955
 31
0.0
  0
LINE
  5
DF
330
1F
100
AcDbEntity
  8
0
  6
Continuous
 62
     7
100
AcDbLine
 10
22.7754658755
 20
30.7888437349
 30
0.0
 11
24.0760960325
 21
30.4373771073
 31
0.0
  0
LINE
  5
E0
330
1F
100
AcDbEntity
  8
0
  6
Continuous
 62
     7
100
AcDbLine
 10
22.4877397309
 20
29.7240902955
 30
0.0
 11
23.4561687047
 21
28.9587342619
 31
0.0
  0
LINE
  5
E1
330
1F
100
AcDbEntity
  8
0
  6
Continuous
 62
     7
100
AcDbLine
 10
22.2027571748
 20
27.6433709769
 30
0.0
 11
23.4561687047
 21
27.9077893674
 31
0.0
  0
LINE
  5
E2
330
1F
100
AcDbEntity
  8
0
  6
Continuous
 62
     7
100
AcDbLine
 10
22.2027571748
 20
27.6433709769
 30
0.0
 11
22.4877397309
 21
26.2924799857
 31
0.0
  0
LINE
  5
E3
330
1F
100
AcDbEntity
  8
0
  6
Continuous
 62
     7
100
AcDbLine
 10
22.4877397309
 20
26.2924799857
 30
0.0
 11
23.6480159222
 21
26.2924799857
 31
0.0
  0
LINE
  5
E4
330
1F
100
AcDbEntity
  8
0
  6
Continuous
 62
     7
100
AcDbLine
 10
24.0760960325
 20
25.3236822623
 30
0.0
 11
23.1740908574
 21
24.4216770872
 31
0.0
  0
LINE
  5
E5
330
1F
100
AcDbEntity
  8
0
  6
Continuous
 62
     7
100
AcDbLine
 10
23.1740908574
 20
24.4216770872
 30
0.0
 11
23.9227431424
 21
23.4499751127
 31
0.0
  0
LINE
  5
E6
330
1F
100
AcDbEntity
  8
0
  6
Continuous
 62
     7
100
AcDbLine
 10
23.9227431424
 20
23.4499751127
 30
0.0
 11
24.9586730654
 21
23.9358260999
 31
0.0
  0
LINE
  5
E7
330
1F
100
AcDbEntity
  8
0
  6
Continuous
 62
     7
100
AcDbLine
 10
25.8452876125
 20
23.2566734918
 30
0.0
 11
25.4701634649
 21
22.1203319003
 31
0.0
  0
LINE
  5
E8
330
1F
100
AcDbEntity
  8
0
  6
Continuous
 62
     7
100
AcDbLine
 10
25.4701634649
 20
22.1203319003
 30
0.0
 11
26.5449407601
 21
21.5529948573
 31
0.0
  0
LINE
  5
E9
330
1F
100
AcDbEntity
  8
0
  6
Continuous
 62
     7
100
AcDbLine
 10
26.5449407601
 20
21.5529948573
 30
0.0
 11
27.2110860943
 21
22.5110815257
 31
0.0
  0
LINE
  5
EA
330
1F
100
AcDbEntity
  8
0
  6
Continuous
 62
     7
100
AcDbLine
 10
28.1250773657
 20
22.3263929961
 30
0.0
 11
28.2487381737
 21
20.9976417841
 31
0.0
  0
LINE
  5
EB
330
1F
100
AcDbEntity
  8
0
  6
Continuous
 62
     7
100
AcDbLine
 10
28.2487381737
 20
20.9976417841
 30
0.0
 11
29.5571276705
 21
20.9976417841
 31
0.0
  0
LINE
  5
EC
330
1F
100
AcDbEntity
  8
0
  6
Continuous
 62
     7
100
AcDbLine
 10
31.6904123683
 20
33.2973355503
 30
0.0
 11
31.6904123683
 21
30.1094199268
 31
0.0
  0
LINE
  5
ED
330
1F
100
AcDbEntity
  8
0
  6
Continuous
 62
     7
100
AcDbLine
 10
32.0076143334
 20
33.3499482962
 30
0.0
 11
32.0076143334
 21
32.2588748629
 31
0.0
  0
LINE
  5
EE
330
1F
100
AcDbEntity
  8
0
  6
Continuous
 62
     7
100
AcDbLine
 10
32.0076143334
 20
32.2588748629
 30
0.0
 11
32.5839816532
 21
32.8352421827
 31
0.0
  0
LINE
  5
EF
330
1F
100
AcDbEntity
  8
0
  6
Continuous
 62
     7
100
AcDbLine
 10
32.5839816532
 20
32.8352421827
 30
0.0
 11
32.5839816532
 21
35.1926214762
 31
0.0
  0
LINE
  5
F0
330
1F
100
AcDbEntity
  8
0
  6
Continuous
 62
     7
100
AcDbLine
 10
33.0316934942
 20
35.0492544943
 30
0.0
 11
33.0316934942
 21
32.6671188833
 31
0.0
  0
LINE
  5
F1
330
1F
100
AcDbEntity
  8
0
  6
Continuous
 62
     7
100
AcDbLine
 10
33.0316934942
 20
32.6671188833
 30
0.0
 11
32.0645402192
 21
31.6999656083
 31
0.0
  0
LINE
  5
F2
330
1F
100
AcDbEntity
  8
0
  6
Continuous
 62
     7
100
AcDbLine
 10
32.0645402192
 20
31.6999656083
 30
0.0
 11
32.0645402192
 21
29.7892004752
 31
0.0
  0
LINE
  5
F3
330
1F
100
AcDbEntity
  8
0
  6
Continuous
 62
     7
100
AcDbLine
 10
33.1878733921
 20
31.1762907978
 30
0.0
 11
32.0645402192
 21
29.7892004752
 31
0.0
  0
LINE
  5
F4
330
1F
100
AcDbEntity
  8
0
  6
Continuous
 62
     7
100
AcDbLine
 10
33.1878733921
 20
31.1762907978
 30
0.0
 11
33.1878733921
 21
32.2988643654
 31
0.0
  0
LINE
  5
F5
330
1F
100
AcDbEntity
  8
0
  6
Continuous
 62
     7
100
AcDbLine
 10
33.1878733921
 20
32.2988643654
 30
0.0
 11
34.0894880737
 21
33.200479047
 31
0.0
  0
LINE
  5
F6
330
1F
100
AcDbEntity
  8
0
  6
Continuous
 62
     7
100
AcDbLine
 10
34.0894880737
 20
33.200479047
 30
0.0
 11
34.0894880737
 21
33.7874046767
 31
0.0
  0
LINE
  5
F7
330
1F
100
AcDbEntity
  8
0
  6
Continuous
 62
     7
100
AcDbLine
 10
34.501349028
 20
33.8294434246
 30
0.0
 11
34.501349028
 21
33.0672918606
 31
0.0
  0
LINE
  5
F8
330
1F
100
AcDbEntity
  8
0
  6
Continuous
 62
     7
100
AcDbLine
 10
34.501349028
 20
33.0672918606
 30
0.0
 11
33.5407919129
 21
32.2988643654
 31
0.0
  0
LINE
  5
F9
330
1F
100
AcDbEntity
  8
0
  6
Continuous
 62
     7
100
AcDbLine
 10
33.5407919129
 20
32.2988643654
 30
0.0
 11
33.5407919129
 21
31.3849255091
 31
0.0
  0
LINE
  5
FA
330
1F
100
AcDbEntity
  8
0
  6
Continuous
 62
     7
100
AcDbLine
 10
33.5407919129
 20
31.3849255091
 30
0.0
 11
35.5058147
 21
33.3499482962
 31
0.0
  0
LINE
  5
FB
330
1F
100
AcDbEntity
  8
0
  6
Continuous
 62
     7
100
AcDbLine
 10
35.5058147
 20
33.3499482962
 30
0.0
 11
35.5058147
 21
34.3978787272
 31
0.0
  0
LINE
  5
FC
330
1F
100
AcDbEntity
  8
0
  6
Continuous
 62
     7
100
AcDbLine
 10
36.0281333987
 20
34.2898944756
 30
0.0
 11
35.9173473049
 21
33.065713063
 31
0.0
  0
LINE
  5
FD
330
1F
100
AcDbEntity
  8
0
  6
Continuous
 62
     7
100
AcDbLine
 10
35.9173473049
 20
33.065713063
 30
0.0
 11
32.2474016697
 21
29.5828108114
 31
0.0
  0
LINE
  5
FE
330
1F
100
AcDbEntity
  8
0
  6
Continuous
 62
     7
100
AcDbLine
 10
34.2534016529
 20
29.7892004752
 30
0.0
 11
32.5839816532
 21
29.9022365738
 31
0.0
  0
LINE
  5
FF
330
1F
100
AcDbEntity
  8
0
  6
Continuous
 62
     7
100
AcDbLine
 10
34.2534016529
 20
29.7892004752
 30
0.0
 11
36.0367808615
 21
31.5790371114
 31
0.0
  0
LINE
  5
100
330
1F
100
AcDbEntity
  8
0
  6
Continuous
 62
     7
100
AcDbLine
 10
36.2520741807
 20
31.3589855308
 30
0.0
 11
34.501349028
 21
29.5908047563
 31
0.0
  0
LINE
  5
101
330
1F
100
AcDbEntity
  8
0
  6
Continuous
 62
     7
100
AcDbLine
 10
34.501349028
 20
29.5908047563
 30
0.0
 11
32.4323815499
 21
29.3227866104
 31
0.0
  0
LINE
  5
102
330
1F
100
AcDbEntity
  8
0
  6
Continuous
 62
     7
100
AcDbLine
 10
34.891534626
 20
28.6876450626
 30
0.0
 11
32.7600432465
 21
28.578732126
 31
0.0
  0
LINE
  5
103
330
1F
100
AcDbEntity
  8
0
  6
Continuous
 62
     7
100
AcDbLine
 10
34.891534626
 20
28.6876450626
 30
0.0
 11
38.2473853233
 21
32.2988643654
 31
0.0
  0
LINE
  5
104
330
1F
100
AcDbEntity
  8
0
  6
Continuous
 62
     7
100
AcDbLine
 10
38.2473853233
 20
31.6592632706
 30
0.0
 11
35.1611167489
 21
28.3572342771
 31
0.0
  0
LINE
  5
105
330
1F
100
AcDbEntity
  8
0
  6
Continuous
 62
     7
100
AcDbLine
 10
35.1611167489
 20
28.3572342771
 30
0.0
 11
32.8456489124
 21
28.1213677462
 31
0.0
  0
LINE
  5
106
330
1F
100
AcDbEntity
  8
0
  6
Continuous
 62
     7
100
AcDbLine
 10
32.8582808234
 20
27.7406050109
 30
0.0
 11
35.7607970166
 21
27.7406050109
 31
0.0
  0
LINE
  5
107
330
1F
100
AcDbEntity
  8
0
  6
Continuous
 62
     7
100
AcDbLine
 10
35.7607970166
 20
27.7406050109
 30
0.0
 11
36.1430829472
 21
27.3583190803
 31
0.0
  0
LINE
  5
108
330
1F
100
AcDbEntity
  8
0
  6
Continuous
 62
     7
100
AcDbLine
 10
36.1430829472
 20
27.3583190803
 30
0.0
 11
37.5685235635
 21
28.3572342771
 31
0.0
  0
LINE
  5
109
330
1F
100
AcDbEntity
  8
0
  6
Continuous
 62
     7
100
AcDbLine
 10
37.5685235635
 20
28.3572342771
 30
0.0
 11
37.5685235635
 21
29.1299286912
 31
0.0
  0
LINE
  5
10A
330
1F
100
AcDbEntity
  8
0
  6
Continuous
 62
     7
100
AcDbLine
 10
37.8941451125
 20
29.1299286912
 30
0.0
 11
37.8941451125
 21
28.1213677462
 31
0.0
  0
LINE
  5
10B
330
1F
100
AcDbEntity
  8
0
  6
Continuous
 62
     7
100
AcDbLine
 10
37.8941451125
 20
28.1213677462
 30
0.0
 11
36.498381915
 21
26.9892375058
 31
0.0
  0
LINE
  5
10C
330
1F
100
AcDbEntity
  8
0
  6
Continuous
 62
     7
100
AcDbLine
 10
36.498381915
 20
26.9892375058
 30
0.0
 11
36.8796080049
 21
26.519237388
 31
0.0
  0
LINE
  5
10D
330
1F
100
AcDbEntity
  8
0
  6
Continuous
 62
     7
100
AcDbLine
 10
36.8796080049
 20
26.519237388
 30
0.0
 11
37.2321273346
 21
26.519237388
 31
0.0
  0
LINE
  5
10E
330
1F
100
AcDbEntity
  8
0
  6
Continuous
 62
     7
100
AcDbLine
 10
37.1941915775
 20
26.1360929449
 30
0.0
 11
36.8048469295
 21
26.1360929449
 31
0.0
  0
LINE
  5
10F
330
1F
100
AcDbEntity
  8
0
  6
Continuous
 62
     7
100
AcDbLine
 10
36.8048469295
 20
26.1360929449
 30
0.0
 11
35.5486095073
 21
27.1748716965
 31
0.0
  0
LINE
  5
110
330
1F
100
AcDbEntity
  8
0
  6
Continuous
 62
     7
100
AcDbLine
 10
35.5486095073
 20
27.1748716965
 30
0.0
 11
32.7798478313
 21
27.1748716965
 31
0.0
  0
LINE
  5
111
330
1F
100
AcDbEntity
  8
0
  6
Continuous
 62
     7
100
AcDbLine
 10
32.4900146587
 20
26.4505906055
 30
0.0
 11
35.2616389377
 21
26.4505906055
 31
0.0
  0
LINE
  5
112
330
1F
100
AcDbEntity
  8
0
  6
Continuous
 62
     7
100
AcDbLine
 10
35.2616389377
 20
26.4505906055
 30
0.0
 11
36.2520741807
 21
25.3599422627
 31
0.0
  0
LINE
  5
113
330
1F
100
AcDbEntity
  8
0
  6
Continuous
 62
     7
100
AcDbLine
 10
35.1611167489
 20
26.0597259522
 30
0.0
 11
32.2189535786
 21
26.0597259522
 31
0.0
  0
LINE
  5
114
330
1F
100
AcDbEntity
  8
0
  6
Continuous
 62
     7
100
AcDbLine
 10
35.1611167489
 20
26.0597259522
 30
0.0
 11
36.0446143314
 21
25.1543330501
 31
0.0
  0
LINE
  5
115
330
1F
100
AcDbEntity
  8
0
  6
Continuous
 62
     7
100
AcDbLine
 10
34.2534016529
 20
25.4691954356
 30
0.0
 11
31.5420053096
 21
25.4691954356
 31
0.0
  0
LINE
  5
116
330
1F
100
AcDbEntity
  8
0
  6
Continuous
 62
     7
100
AcDbLine
 10
34.0894880737
 20
25.1543330501
 30
0.0
 11
31.0642344823
 21
25.2325779653
 31
0.0
  0
LINE
  5
117
330
1F
100
AcDbEntity
  8
0
  6
Continuous
 62
     7
100
AcDbLine
 10
34.2534016529
 20
25.4691954356
 30
0.0
 11
36.6004074123
 21
23.1221896762
 31
0.0
  0
LINE
  5
118
330
1F
100
AcDbEntity
  8
0
  6
Continuous
 62
     7
100
AcDbLine
 10
34.0894880737
 20
25.1543330501
 30
0.0
 11
36.3773354674
 21
22.8664856564
 31
0.0
  0
LINE
  5
119
330
1F
100
AcDbEntity
  8
0
  6
Continuous
 62
     7
100
AcDbLine
 10
30.9679316058
 20
23.6363731042
 30
0.0
 11
30.9679316058
 21
25.2350687352
 31
0.0
  0
LINE
  5
11A
330
1F
100
AcDbEntity
  8
0
  6
Continuous
 62
     7
100
AcDbLine
 10
31.2189372541
 20
25.2285767453
 30
0.0
 11
31.2189372541
 21
21.5529948573
 31
0.0
  0
LINE
  5
11B
330
1F
100
AcDbEntity
  8
0
  6
Continuous
 62
     7
100
AcDbLine
 10
30.9679316058
 20
23.5806832602
 30
0.0
 11
30.9679316058
 21
21.4914441404
 31
0.0
  0
LINE
  5
11C
330
1F
100
AcDbEntity
  8
0
  6
Continuous
 62
     7
100
AcDbLine
 10
30.9679316058
 20
21.4914441404
 30
0.0
 11
31.4624935728
 21
20.7540669765
 31
0.0
  0
LINE
  5
11D
330
1F
100
AcDbEntity
  8
0
  6
Continuous
 62
     7
100
AcDbLine
 10
31.4624935728
 20
20.7540669765
 30
0.0
 11
31.4624935728
 21
20.1353914194
 31
0.0
  0
LINE
  5
11E
330
1F
100
AcDbEntity
  8
0
  6
Continuous
 62
     7
100
AcDbLine
 10
31.2189372541
 20
21.5529948573
 30
0.0
 11
31.6688973036
 21
20.8347326292
 31
0.0
  0
LINE
  5
11F
330
1F
100
AcDbEntity
  8
0
  6
Continuous
 62
     7
100
AcDbLine
 10
31.6688973036
 20
20.8347326292
 30
0.0
 11
31.6688973036
 21
20.1235560661
 31
0.0
  0
LINE
  5
120
330
1F
100
AcDbEntity
  8
0
  6
Continuous
 62
     7
100
AcDbLine
 10
32.0645402192
 20
25.2067061383
 30
0.0
 11
32.0645402192
 21
22.7319976638
 31
0.0
  0
LINE
  5
121
330
1F
100
AcDbEntity
  8
0
  6
Continuous
 62
     7
100
AcDbLine
 10
32.0645402192
 20
22.7319976638
 30
0.0
 11
33.1856486415
 21
21.7507891267
 31
0.0
  0
LINE
  5
122
330
1F
100
AcDbEntity
  8
0
  6
Continuous
 62
     7
100
AcDbLine
 10
32.3931604421
 20
25.1982067313
 30
0.0
 11
32.3931604421
 21
23.1221896762
 31
0.0
  0
LINE
  5
123
330
1F
100
AcDbEntity
  8
0
  6
Continuous
 62
     7
100
AcDbLine
 10
32.3931604421
 20
23.1221896762
 30
0.0
 11
33.4952780396
 21
22.0176508229
 31
0.0
  0
LINE
  5
124
330
1F
100
AcDbEntity
  8
0
  6
Continuous
 62
     7
100
AcDbLine
 10
33.8797893051
 20
23.4499751127
 30
0.0
 11
34.7365827504
 21
22.7340462485
 31
0.0
  0
LINE
  5
125
330
1F
100
AcDbEntity
  8
0
  6
Continuous
 62
     7
100
AcDbLine
 10
33.6941816033
 20
23.2266057185
 30
0.0
 11
34.5191608693
 21
22.5110815257
 31
0.0
  0
LINE
  5
127
330
1F
100
AcDbEntity
  8
0
  6
Continuous
 62
     7
100
AcDbLine
 10
15.6398372824
 20
46.2890493281
 30
0.0
 11
44.7901094865
 21
46.2890493281
 31
0.0
  0
LINE
  5
128
330
1F
100
AcDbEntity
  8
0
  6
Continuous
 62
     7
100
AcDbLine
 10
49.7901094865
 20
41.2890493281
 30
0.0
 11
49.7901094865
 21
12.4650293924
 31
0.0
  0
LINE
  5
129
330
1F
100
AcDbEntity
  8
0
  6
Continuous
 62
     7
100
AcDbLine
 10
44.7901094865
 20
7.4650293924
 30
0.0
 11
15.6398372824
 21
7.4650293924
 31
0.0
  0
LINE
  5
12A
330
1F
100
AcDbEntity
  8
0
  6
Continuous
 62
     7
100
AcDbLine
 10
10.6398372824
 20
12.4650293924
 30
0.0
 11
10.6398372824
 21
41.2890493281
 31
0.0
  0
LINE
  5
12B
330
1F
100
AcDbEntity
  8
0
  6
Continuous
 62
     7
100
AcDbLine
 10
16.3200402304
 20
18.2559110998
 30
0.0
 11
21.7620813192
 21
18.2237268123
 31
0.0
  0
LINE
  5
12C
330
1F
100
AcDbEntity
  8
0
  6
Continuous
 62
     7
100
AcDbLine
 10
41.3569072186
 20
18.0204172314
 30
0.0
 11
45.8969110092
 21
17.9577904273
 31
0.0
  0
SPLINE
  5
12D
330
1F
100
AcDbEntity
  8
0
  6
Continuous
 62
     7
100
AcDbSpline
210
0.0
220
0.0
230
1.0
 70
     8
 71
     3
 72
    26
 73
    22
 74
     0
 42
0.00000001
 43
0.00000001
 40
0.0
 40
0.0
 40
0.0
 40
0.0
 40
0.0939054154932353
 40
0.1639923549602862
 40
0.201773257846428
 40
0.2342484402312104
 40
0.3743859818847017
 40
0.4216094208426949
 40
0.4678487332236112
 40
0.4914951891649219
 40
0.5152065813989307
 40
0.5623159966549085
 40
0.654787176868107
 40
0.6723213079217887
 40
0.6775497357812302
 40
0.7027860769813121
 40
0.7493891981686691
 40
0.8753107184222391
 40
0.9373913981790359
 40
0.9683830259233752
 40
0.9999999999999999
 40
0.9999999999999999
 40
0.9999999999999999
 40
0.9999999999999999
 10
22.73789048194885
 20
43.31123164696306
 30
0.0
 10
22.97164865083712
 20
43.90391282013448
 30
0.0
 10
23.39183430926901
 20
44.12652833377047
 30
0.0
 10
23.64579650668421
 20
44.09177164776078
 30
0.0
 10
23.84776100768285
 20
44.17984322270831
 30
0.0
 10
24.7041391317212
 20
44.59288349154765
 30
0.0
 10
25.02382992741434
 20
44.61409411420997
 30
0.0
 10
25.33377094510181
 20
44.56556838836494
 30
0.0
 10
25.46280135390701
 20
44.47022825264774
 30
0.0
 10
25.61446250560079
 20
44.52388494067199
 30
0.0
 10
25.93391598315314
 20
44.53420243894554
 30
0.0
 10
26.4981274998098
 20
44.25984007343978
 30
0.0
 10
26.54673592535317
 20
44.15126140306982
 30
0.0
 10
26.58220122169793
 20
44.15052411968115
 30
0.0
 10
26.74813482194958
 20
44.19273887110853
 30
0.0
 10
27.05362277263092
 20
44.11119082032922
 30
0.0
 10
27.66588859832152
 20
43.51536171337315
 30
0.0
 10
27.93755048732553
 20
43.19348490023371
 30
0.0
 10
28.04888327178417
 20
43.0151113195485
 30
0.0
 10
28.04173380622267
 20
42.8007209609631
 30
0.0
 10
28.0543393376001
 20
42.87474009847239
 30
0.0
 10
28.04173380622267
 20
42.8007209609631
 30
0.0
  0
SPLINE
  5
12E
330
1F
100
AcDbEntity
  8
0
  6
Continuous
 62
     7
100
AcDbSpline
210
0.0
220
0.0
230
1.0
 70
     8
 71
     3
 72
    32
 73
    28
 74
     0
 42
0.00000001
 43
0.00000001
 40
0.0
 40
0.0
 40
0.0
 40
0.0
 40
0.0622940674295244
 40
0.1251044256271177
 40
0.1879916474463225
 40
0.2036805635601295
 40
0.2115424661658629
 40
0.2194495697266586
 40
0.2507254208266057
 40
0.37566575279201
 40
0.4375320337583948
 40
0.4997055678986747
 40
0.5311714786984806
 40
0.5622745241748793
 40
0.5661376625377647
 40
0.5705018584063094
 40
0.5758930132892464
 40
0.5819021154338764
 40
0.594000688239335
 40
0.609936079628909
 40
0.6253897052974726
 40
0.6489043915104352
 40
0.6611341281728755
 40
0.6724058744806789
 40
0.719065241470551
 40
0.812896286002635
 40
1.0
 40
1.0
 40
1.0
 40
1.0
 10
28.04172039031982
 20
42.8007209609631
 30
0.0
 10
28.33561518952231
 20
42.47252485901655
 30
0.0
 10
28.37692155303019
 20
42.03024540147291
 30
0.0
 10
28.3636858604337
 20
41.58569464300181
 30
0.0
 10
28.32603956577308
 20
41.48132212821525
 30
0.0
 10
28.32411462635342
 20
41.4257549198136
 30
0.0
 10
28.29542789427673
 20
41.3777534506507
 30
0.0
 10
28.20524207262745
 20
41.17578710033437
 30
0.0
 10
28.05928945664392
 20
40.30432816601027
 30
0.0
 10
27.82553279574303
 20
39.93447935845678
 30
0.0
 10
27.50916758338576
 20
39.62911149334781
 30
0.0
 10
27.4259385296114
 20
39.42273022017072
 30
0.0
 10
27.26955309655366
 20
39.26804231015537
 30
0.0
 10
27.26810784273433
 20
39.24075987681051
 30
0.0
 10
27.27854497212662
 20
39.21171391971527
 30
0.0
 10
27.31120069492193
 20
39.19203460554572
 30
0.0
 10
27.35340610485612
 20
39.18706263108291
 30
0.0
 10
27.42657805120677
 20
39.14271315540554
 30
0.0
 10
27.50033300547987
 20
39.05750211353116
 30
0.0
 10
27.51529743399481
 20
38.94924112269319
 30
0.0
 10
27.61084332153071
 20
38.81312920051941
 30
0.0
 10
27.60387863886657
 20
38.72691956403569
 30
0.0
 10
27.64922005501129
 20
38.66135501183221
 30
0.0
 10
27.97580863942555
 20
38.61415344774709
 30
0.0
 10
28.56727537948872
 20
38.31329656287197
 30
0.0
 10
29.55712767046602
 20
37.4351636971981
 30
0.0
 10
29.23903285915896
 20
37.72892523703038
 30
0.0
 10
29.55712767046602
 20
37.4351636971981
 30
0.0
  0
SPLINE
  5
12F
330
1F
100
AcDbEntity
  8
0
  6
Continuous
 62
     7
100
AcDbSpline
210
0.0
220
0.0
230
1.0
 70
     8
 71
     3
 72
    53
 73
    49
 74
     0
 42
0.00000001
 43
0.00000001
 40
0.0
 40
0.0
 40
0.0
 40
0.0
 40
0.0059695149668819
 40
0.0097243096006942
 40
0.017067774470339
 40
0.02872642649831
 40
0.0346975288450857
 40
0.0400274621574344
 40
0.0641490365224743
 40
0.0782412490309221
 40
0.0837138230256873
 40
0.088789900902582
 40
0.0912312214190709
 40
0.0944827973466784
 40
0.1020547492024076
 40
0.1138164483880663
 40
0.1602000755904954
 40
0.2071820223313938
 40
0.2187360276956653
 40
0.2305130353024308
 40
0.2539954960975478
 40
0.3238102283524251
 40
0.3413245567336293
 40
0.3502691128110219
 40
0.3595627643196243
 40
0.3673684988612813
 40
0.3761706217752817
 40
0.3935862342045429
 40
0.4287459065861998
 40
0.4631684572390461
 40
0.4982315948740468
 40
0.5156822338887598
 40
0.5326458918995786
 40
0.6110981695699035
 40
0.6309349512478644
 40
0.6502604280068175
 40
0.6899319889702842
 40
0.6916670846226755
 40
0.6930337885851677
 40
0.6981639463919446
 40
0.7030706363896396
 40
0.7423942479719745
 40
0.812238120801529
 40
0.9059831774208087
 40
0.9527154163831947
 40
0.975424396535211
 40
0.9879845996528852
 40
1.0
 40
1.0
 40
1.0
 40
1.0
 10
22.73789048194885
 20
43.31123164696306
 30
0.0
 10
22.69612306328995
 20
43.34143951727589
 30
0.0
 10
22.66389413008652
 20
43.34497646231096
 30
0.0
 10
22.61632900015235
 20
43.30304275286144
 30
0.0
 10
22.54316562503385
 20
43.23389126950732
 30
0.0
 10
22.49162945242296
 20
43.23546253561661
 30
0.0
 10
22.44963322429152
 20
43.21663451511863
 30
0.0
 10
22.33034063339744
 20
43.04589105484007
 30
0.0
 10
22.31490641735125
 20
42.92518840674374
 30
0.0
 10
22.297250330952
 20
42.881355412881
 30
0.0
 10
22.25478143367129
 20
42.87051082578377
 30
0.0
 10
22.2429158036896
 20
42.85308667437579
 30
0.0
 10
22.23964717249685
 20
42.82520041571401
 30
0.0
 10
22.24378845468989
 20
42.75994833687201
 30
0.0
 10
22.24387325627652
 20
42.65838678698139
 30
0.0
 10
22.30059758556148
 20
42.26190406411817
 30
0.0
 10
22.63875279724287
 20
42.03777802876571
 30
0.0
 10
22.68211016777119
 20
41.94792356629289
 30
0.0
 10
22.66800052895063
 20
41.8472133807044
 30
0.0
 10
22.61322878807864
 20
41.65198121553546
 30
0.0
 10
22.69734294327334
 20
41.05503208008597
 30
0.0
 10
22.73467420671209
 20
40.90847675542854
 30
0.0
 10
22.75754020508166
 20
40.83470343755249
 30
0.0
 10
22.82317900224446
 20
40.78853382716207
 30
0.0
 10
22.8386433091478
 20
40.7229297637511
 30
0.0
 10
22.82178034641212
 20
40.64881819433744
 30
0.0
 10
22.71299188672161
 20
40.5449911443062
 30
0.0
 10
22.60480559754107
 20
40.26131927525568
 30
0.0
 10
22.68460608192852
 20
39.97499507666555
 30
0.0
 10
22.79318713445147
 20
39.69236686750355
 30
0.0
 10
22.89917640999669
 20
39.58525796246873
 30
0.0
 10
22.93964203719931
 20
39.44447806054906
 30
0.0
 10
23.08835808673019
 20
38.78357256681757
 30
0.0
 10
23.17059156749069
 20
38.63331368818472
 30
0.0
 10
23.27677173614768
 20
38.50457820465386
 30
0.0
 10
23.47739628103187
 20
38.22691248944356
 30
0.0
 10
23.48256603050199
 20
38.21285021772056
 30
0.0
 10
23.48007567706944
 20
38.20131456034773
 30
0.0
 10
23.43783056574295
 20
38.18798348098974
 30
0.0
 10
23.39591550241806
 20
38.19416879070495
 30
0.0
 10
23.05636158211962
 20
38.19563562052125
 30
0.0
 10
22.51276137183837
 20
37.93443508254808
 30
0.0
 10
21.8356341059789
 20
37.49085697919504
 30
0.0
 10
21.52747093083674
 20
37.23033434684692
 30
0.0
 10
21.33669461829413
 20
37.18499156565452
 30
0.0
 10
21.23012242268791
 20
37.20512128413451
 30
0.0
 10
21.1355566793405
 20
37.16243808145977
 30
0.0
 10
21.16649490334526
 20
37.18254066698787
 30
0.0
 10
21.1355566793405
 20
37.16243808145977
 30
0.0
  0
SPLINE
  5
130
330
1F
100
AcDbEntity
  8
0
  6
Continuous
 62
     7
100
AcDbSpline
210
0.0
220
0.0
230
1.0
 70
     8
 71
     3
 72
    19
 73
    15
 74
     0
 42
0.00000001
 43
0.00000001
 40
0.0
 40
0.0
 40
0.0
 40
0.0
 40
0.0628885525162522
 40
0.1249491983522531
 40
0.2494652476159405
 40
0.5002780824654369
 40
0.5649566634193401
 40
0.6262700154820601
 40
0.7543321694578385
 40
0.769069387961127
 40
0.7843616767538595
 40
0.815594143514606
 40
0.8766692961206367
 40
1.0
 40
1.0
 40
1.0
 40
1.0
 10
21.13555371761322
 20
37.16243808145977
 30
0.0
 10
20.99283201577145
 20
37.10663873471942
 30
0.0
 10
20.84306992016617
 20
37.08565915343625
 30
0.0
 10
20.55531563382458
 20
36.98945329147102
 30
0.0
 10
19.97042088650651
 20
36.81220900103852
 30
0.0
 10
19.8128501458437
 20
36.81542738538683
 30
0.0
 10
19.69649237704961
 20
36.90914115494657
 30
0.0
 10
19.50614156639974
 20
37.15641184402062
 30
0.0
 10
19.47062257925683
 20
37.16169994278992
 30
0.0
 10
19.44070538838396
 20
37.18391469072945
 30
0.0
 10
19.39242814460031
 20
37.2427470431922
 30
0.0
 10
19.27620798198713
 20
37.3357049718342
 30
0.0
 10
19.05682664035805
 20
37.54109618549501
 30
0.0
 10
19.12580994855779
 20
37.46846188966739
 30
0.0
 10
19.05682664035805
 20
37.54109618549501
 30
0.0
  0
SPLINE
  5
131
330
1F
100
AcDbEntity
  8
0
  6
Continuous
 62
     7
100
AcDbSpline
210
0.0
220
0.0
230
1.0
 70
     8
 71
     3
 72
    18
 73
    14
 74
     0
 42
0.00000001
 43
0.00000001
 40
0.0
 40
0.0
 40
0.0
 40
0.0
 40
0.1465363374871193
 40
0.2684903722882323
 40
0.4546572818206586
 40
0.4949406904144769
 40
0.5423505281503079
 40
0.6374519802858456
 40
0.658836848590553
 40
0.6790303221079282
 40
0.7284496895226968
 40
0.8202706248175149
 40
1.0
 40
1.0
 40
1.0
 40
1.0
 10
19.05681192874908
 20
37.54109618549501
 30
0.0
 10
18.49725178983086
 20
37.99699479434705
 30
0.0
 10
18.4488121455997
 20
38.59572701587237
 30
0.0
 10
18.10595158361622
 20
39.44618722767098
 30
0.0
 10
18.09795762880047
 20
39.64444334687933
 30
0.0
 10
18.20441651925572
 20
39.85228336897297
 30
0.0
 10
18.34250077308057
 20
40.29989363237811
 30
0.0
 10
18.40881604089565
 20
40.38172934861752
 30
0.0
 10
18.50494923473065
 20
40.40725221459459
 30
0.0
 10
18.74632393208715
 20
40.37578901443827
 30
0.0
 10
19.1760400908023
 20
40.51681886913909
 30
0.0
 10
19.89731921246532
 20
41.03008938992525
 30
0.0
 10
19.6700724572521
 20
40.8505710419003
 30
0.0
 10
19.89731921246532
 20
41.03008938992525
 30
0.0
  0
SPLINE
  5
132
330
1F
100
AcDbEntity
  8
0
  6
Continuous
 62
     7
100
AcDbSpline
210
0.0
220
0.0
230
1.0
 70
     8
 71
     3
 72
    19
 73
    15
 74
     0
 42
0.00000001
 43
0.00000001
 40
0.0
 40
0.0
 40
0.0
 40
0.0
 40
0.2143869413116032
 40
0.3322321367790622
 40
0.4329926960149209
 40
0.5017110870598396
 40
0.5689895762626083
 40
0.6622675390261359
 40
0.7090720747012944
 40
0.7527825713944226
 40
0.8006797809549204
 40
0.8454752853644684
 40
0.9342083195777244
 40
1.0
 40
1.0
 40
1.0
 40
1.0
 10
19.89731192588806
 20
41.03008938992525
 30
0.0
 10
20.38642724214233
 20
42.07167997990244
 30
0.0
 10
20.30896966659324
 20
42.69944969277776
 30
0.0
 10
19.96229316109042
 20
43.11455378784127
 30
0.0
 10
19.5956659547121
 20
43.15492923181368
 30
0.0
 10
19.34858773643784
 20
42.89157308429958
 30
0.0
 10
19.10393301191921
 20
42.45475399110651
 30
0.0
 10
18.92556006129017
 20
42.27784867883593
 30
0.0
 10
18.69229356684174
 20
42.25273332463116
 30
0.0
 10
18.43521684832089
 20
42.25046748895394
 30
0.0
 10
18.26796115392946
 20
42.42319895184313
 30
0.0
 10
18.06335792434611
 20
42.85328290637912
 30
0.0
 10
18.27407088994693
 20
43.1366627846585
 30
0.0
 10
18.17711064511136
 20
43.04492404463461
 30
0.0
 10
18.27407088994693
 20
43.1366627846585
 30
0.0
  0
SPLINE
  5
133
330
1F
100
AcDbEntity
  8
0
  6
Continuous
 62
     7
100
AcDbSpline
210
0.0
220
0.0
230
1.0
 70
     8
 71
     3
 72
     9
 73
     5
 74
     0
 42
0.00000001
 43
0.00000001
 40
0.0
 40
0.0
 40
0.0
 40
0.0
 40
0.5635633673852034
 40
1.0
 40
1.0
 40
1.0
 40
1.0
 10
18.27406883239746
 20
43.1366627846585
 30
0.0
 10
18.63022509425795
 20
43.60521487442778
 30
0.0
 10
18.81651666882565
 20
44.0211901867747
 30
0.0
 10
18.76093141387182
 20
43.87866800259119
 30
0.0
 10
18.81651666882565
 20
44.0211901867747
 30
0.0
  0
SPLINE
  5
134
330
1F
100
AcDbEntity
  8
0
  6
Continuous
 62
     7
100
AcDbSpline
210
0.0
220
0.0
230
1.0
 70
     8
 71
     3
 72
    15
 73
    11
 74
     0
 42
0.00000001
 43
0.00000001
 40
0.0
 40
0.0
 40
0.0
 40
0.0
 40
0.0613259672385089
 40
0.1249648372632018
 40
0.2505009887036062
 40
0.5025383498757278
 40
0.5659039086588159
 40
0.6265009958291639
 40
0.7513995502518747
 40
1.0
 40
1.0
 40
1.0
 40
1.0
 10
18.8165158033371
 20
44.0211901867747
 30
0.0
 10
18.7196215325218
 20
44.15299183500706
 30
0.0
 10
18.57811786768901
 20
44.24676531588564
 30
0.0
 10
18.24327087306447
 20
44.25017133759837
 30
0.0
 10
17.57098182484281
 20
44.2458555002027
 30
0.0
 10
17.4133115061524
 20
44.18494708433985
 30
0.0
 10
17.26205844331425
 20
44.12793517565434
 30
0.0
 10
16.97054151139712
 20
43.96664095540196
 30
0.0
 10
16.53824439753503
 20
43.46378185379209
 30
0.0
 10
16.66663872396579
 20
43.64884082336518
 30
0.0
 10
16.53824439753503
 20
43.46378185379209
 30
0.0
  0
SPLINE
  5
135
330
1F
100
AcDbEntity
  8
0
  6
Continuous
 62
     7
100
AcDbSpline
210
0.0
220
0.0
230
1.0
 70
     8
 71
     3
 72
     9
 73
     5
 74
     0
 42
0.00000001
 43
0.00000001
 40
0.0
 40
0.0
 40
0.0
 40
0.0
 40
0.5603561459943518
 40
1.0
 40
1.0
 40
1.0
 40
1.0
 10
16.53823256492615
 20
43.46378185379209
 30
0.0
 10
16.39410704730833
 20
43.18705632055758
 30
0.0
 10
16.32004023038823
 20
42.9537350131544
 30
0.0
 10
16.34187067197583
 20
43.03269641947205
 30
0.0
 10
16.32004023038823
 20
42.9537350131544
 30
0.0
  0
SPLINE
  5
136
330
1F
100
AcDbEntity
  8
0
  6
Continuous
 62
     7
100
AcDbSpline
210
0.0
220
0.0
230
1.0
 70
     8
 71
     3
 72
    19
 73
    15
 74
     0
 42
0.00000001
 43
0.00000001
 40
0.0
 40
0.0
 40
0.0
 40
0.0
 40
0.2448668373857406
 40
0.3075826054320136
 40
0.3404710000230849
 40
0.369512795149966
 40
0.4992727525092884
 40
0.6313310888575948
 40
0.7510047633906359
 40
0.8136118661209872
 40
0.8460257887749706
 40
0.8758747260638672
 40
0.9370767393447872
 40
1.0
 40
1.0
 40
1.0
 40
1.0
 10
16.32003486156464
 20
42.9537350131544
 30
0.0
 10
16.45507187596028
 20
41.92671471028383
 30
0.0
 10
16.56666613167673
 20
41.68601940994039
 30
0.0
 10
16.6486518481799
 20
41.57361447645458
 30
0.0
 10
16.71242908399755
 20
41.46861004408917
 30
0.0
 10
16.51199725242104
 20
40.95758757089077
 30
0.0
 10
16.36530636159272
 20
40.41854454793407
 30
0.0
 10
15.92825018762059
 20
40.16305202339174
 30
0.0
 10
15.83606546346089
 20
39.91476634569258
 30
0.0
 10
15.82692701337946
 20
39.77795062479111
 30
0.0
 10
15.72693741247649
 20
39.70083919140205
 30
0.0
 10
15.56140841729909
 20
39.50176429927647
 30
0.0
 10
15.55715475376939
 20
39.23561409580338
 30
0.0
 10
15.54617702837728
 20
39.32782739982009
 30
0.0
 10
15.55715475376939
 20
39.23561409580338
 30
0.0
  0
SPLINE
  5
137
330
1F
100
AcDbEntity
  8
0
  6
Continuous
 62
     7
100
AcDbSpline
210
0.0
220
0.0
230
1.0
 70
     8
 71
     3
 72
    22
 73
    18
 74
     0
 42
0.00000001
 43
0.00000001
 40
0.0
 40
0.0
 40
0.0
 40
0.0
 40
0.0180481688096017
 40
0.0327191311968252
 40
0.0641421367601869
 40
0.1569800750309862
 40
0.2002721463237326
 40
0.2475911971686942
 40
0.3402315411574157
 40
0.4323378886206963
 40
0.45664007538375
 40
0.4796143275227985
 40
0.526685866244654
 40
0.6203344595173726
 40
0.8131001318511913
 40
0.9060296079003247
 40
1.0
 40
1.0
 40
1.0
 40
1.0
 10
15.55714756250381
 20
39.23561409580338
 30
0.0
 10
15.49823857481891
 20
39.22704652928795
 30
0.0
 10
15.4618419612785
 20
39.19515857027292
 30
0.0
 10
15.4121841419691
 20
39.1041858279881
 30
0.0
 10
15.31953960724308
 20
38.81232723352598
 30
0.0
 10
15.2342520932037
 20
38.69780467156185
 30
0.0
 10
15.13236176567126
 20
38.57957882259679
 30
0.0
 10
15.10320219491578
 20
38.27541527996454
 30
0.0
 10
15.22762780844529
 20
37.99826774816123
 30
0.0
 10
15.28160027041903
 20
37.93900524337127
 30
0.0
 10
15.28074665671315
 20
37.86323347174768
 30
0.0
 10
15.22169694962295
 20
37.71964392040316
 30
0.0
 10
15.08305598502739
 20
37.44362259584087
 30
0.0
 10
14.80648226295357
 20
36.87112472746129
 30
0.0
 10
14.6120588617402
 20
36.634166959451
 30
0.0
 10
14.32747471653069
 20
36.5113753630265
 30
0.0
 10
14.42903513147611
 20
36.54268607937392
 30
0.0
 10
14.32747471653069
 20
36.5113753630265
 30
0.0
  0
SPLINE
  5
138
330
1F
100
AcDbEntity
  8
0
  6
Continuous
 62
     7
100
AcDbSpline
210
0.0
220
0.0
230
1.0
 70
     8
 71
     3
 72
    46
 73
    42
 74
     0
 42
0.00000001
 43
0.00000001
 40
0.0
 40
0.0
 40
0.0
 40
0.0
 40
0.0525081748730469
 40
0.1041852845119243
 40
0.1221215316532213
 40
0.1393431255606081
 40
0.1449707184478091
 40
0.1510175922205172
 40
0.162808068262548
 40
0.1864538134109053
 40
0.2020942246534283
 40
0.20997158744922
 40
0.2180303272042775
 40
0.2259385187028546
 40
0.2338419129085863
 40
0.2495801353575341
 40
0.2732512904879089
 40
0.2850178997532326
 40
0.2966644705374729
 40
0.3311184377253981
 40
0.3667314326146378
 40
0.4017017428835469
 40
0.4369546491415517
 40
0.4463400225041484
 40
0.4538354802554934
 40
0.4713741800879588
 40
0.5018457340061637
 40
0.5037775133029803
 40
0.5050530901073633
 40
0.5197224158055666
 40
0.5791978095948257
 40
0.6857039384040691
 40
0.7151325852472624
 40
0.7445029072132949
 40
0.7493720132525197
 40
0.760930961092253
 40
0.7874917541235015
 40
0.8936044074263095
 40
0.9474446491679446
 40
0.9740905052743413
 40
1.0
 40
1.0
 40
1.0
 40
1.0
 10
14.32747393846512
 20
36.5113753630265
 30
0.0
 10
13.69768901356282
 20
35.64284220415107
 30
0.0
 10
13.73655987570721
 20
34.58770126988627
 30
0.0
 10
13.92587642540501
 20
34.27391878345647
 30
0.0
 10
14.25113999871418
 20
34.1396992420396
 30
0.0
 10
14.35709522680398
 20
34.18435709557022
 30
0.0
 10
14.42676604319175
 20
34.28638759162845
 30
0.0
 10
14.55760846046996
 20
34.48865824888848
 30
0.0
 10
14.74684422812173
 20
34.93318030679922
 30
0.0
 10
14.90169178833159
 20
35.21271922857135
 30
0.0
 10
15.05509359105406
 20
35.26142638156212
 30
0.0
 10
15.21845360945383
 20
35.24081948211811
 30
0.0
 10
15.30112026729117
 20
35.10198908551211
 30
0.0
 10
15.29066943516515
 20
34.94084700524294
 30
0.0
 10
15.18185119475021
 20
34.63825879830849
 30
0.0
 10
14.9854368120143
 20
34.19629347660544
 30
0.0
 10
14.96272373817862
 20
33.95695571378431
 30
0.0
 10
15.10304758486684
 20
33.76477245206183
 30
0.0
 10
15.80179947701546
 20
33.8502179678952
 30
0.0
 10
16.36226583237414
 20
34.31425917362833
 30
0.0
 10
16.63258112651284
 20
34.97565869011083
 30
0.0
 10
16.49506068637054
 20
35.6826892349376
 30
0.0
 10
16.38706092142488
 20
35.84114426854054
 30
0.0
 10
16.37595810945963
 20
35.99388700985277
 30
0.0
 10
16.56445189885538
 20
36.29865395153887
 30
0.0
 10
16.77082068267277
 20
36.8860455069831
 30
0.0
 10
16.79318670566003
 20
36.91856659845139
 30
0.0
 10
16.81825871400576
 20
36.92568276700219
 30
0.0
 10
16.97793400116646
 20
36.67203661302985
 30
0.0
 10
17.66398403436035
 20
35.6690304368482
 30
0.0
 10
19.06332977270637
 20
34.00250788268083
 30
0.0
 10
19.55189168050804
 20
33.65201481805195
 30
0.0
 10
20.14483891667294
 20
33.74431893805558
 30
0.0
 10
20.23756379495244
 20
33.78036458454976
 30
0.0
 10
20.31938401410433
 20
33.55882044442223
 30
0.0
 10
20.31976071748317
 20
33.01613560256567
 30
0.0
 10
20.31490570047958
 20
30.8480678834124
 30
0.0
 10
20.31375355094347
 20
29.74801510809223
 30
0.0
 10
20.25428683415173
 20
29.20684963038946
 30
0.0
 10
19.86905993698075
 20
28.84375038349135
 30
0.0
 10
20.02479212902037
 20
28.95070292840065
 30
0.0
 10
19.86905993698075
 20
28.84375038349135
 30
0.0
  0
SPLINE
  5
139
330
1F
100
AcDbEntity
  8
0
  6
Continuous
 62
     7
100
AcDbSpline
210
0.0
220
0.0
230
1.0
 70
     8
 71
     3
 72
    10
 73
     6
 74
     0
 42
0.00000001
 43
0.00000001
 40
0.0
 40
0.0
 40
0.0
 40
0.0
 40
0.2432045456714848
 40
0.4979897691334779
 40
1.0
 40
1.0
 40
1.0
 40
1.0
 10
18.2143896818161
 20
22.15569920364736
 30
0.0
 10
18.03745247617027
 20
21.76483286104681
 30
0.0
 10
18.14184478594298
 20
21.32764422664602
 30
0.0
 10
18.40851881810233
 20
20.48312660583337
 30
0.0
 10
18.32945454507483
 20
20.76106787789152
 30
0.0
 10
18.40851881810233
 20
20.48312660583337
 30
0.0
  0
SPLINE
  5
13A
330
1F
100
AcDbEntity
  8
0
  6
Continuous
 62
     7
100
AcDbSpline
210
0.0
220
0.0
230
1.0
 70
     8
 71
     3
 72
    10
 73
     6
 74
     0
 42
0.00000001
 43
0.00000001
 40
0.0
 40
0.0
 40
0.0
 40
0.0
 40
0.5018001566932534
 40
0.7485237746261578
 40
0.9999999999999999
 40
0.9999999999999999
 40
0.9999999999999999
 40
0.9999999999999999
 10
17.74419844150543
 20
19.7163275694518
 30
0.0
 10
16.61316555045315
 20
19.353942458709
 30
0.0
 10
16.31627464454077
 20
18.85109747340882
 30
0.0
 10
16.32004023038823
 20
18.25591109983292
 30
0.0
 10
16.29573263395423
 20
18.45677261704706
 30
0.0
 10
16.32004023038823
 20
18.25591109983292
 30
0.0
  0
SPLINE
  5
13C
330
1F
100
AcDbEntity
  8
0
  6
Continuous
 62
     7
100
AcDbSpline
210
0.0
220
0.0
230
1.0
 70
     8
 71
     3
 72
    35
 73
    31
 74
     0
 42
0.00000001
 43
0.00000001
 40
0.0
 40
0.0
 40
0.0
 40
0.0
 40
0.0506733951980483
 40
0.0666352650362368
 40
0.0675146722189016
 40
0.0685395888906242
 40
0.0715528096434553
 40
0.0848091841904584
 40
0.129029873302153
 40
0.1748849920174685
 40
0.2207432146400237
 40
0.2646538788267961
 40
0.4476343408975078
 40
0.49231611920829
 40
0.5178617763620712
 40
0.5359726292988848
 40
0.540077099733954
 40
0.5876610262088072
 40
0.5996538508594733
 40
0.6096430704755328
 40
0.6337372350993254
 40
0.6566293941483504
 40
0.678869749644335
 40
0.7249939110892967
 40
0.8169567348834326
 40
0.952726761230338
 40
0.970428186189339
 40
0.9874416765744887
 40
0.992321875371988
 40
1.0
 40
1.0
 40
1.0
 40
1.0
 10
20.78919112682343
 20
24.82379734644525
 30
0.0
 10
20.57035662391642
 20
24.76343712002927
 30
0.0
 10
20.50652652771362
 20
24.73120652406685
 30
0.0
 10
20.50679669525602
 20
24.72727623560068
 30
0.0
 10
20.50945183829814
 20
24.72353039607109
 30
0.0
 10
20.52081943545572
 20
24.71625096114335
 30
0.0
 10
20.5757118337799
 20
24.69359039337558
 30
0.0
 10
20.68329299378907
 20
24.52724815703156
 30
0.0
 10
20.72204777634972
 20
24.32551552035398
 30
0.0
 10
20.72288954393991
 20
24.12008184684993
 30
0.0
 10
20.80220068235574
 20
23.94006835447454
 30
0.0
 10
20.79723174650374
 20
23.12036860882133
 30
0.0
 10
20.80249998957177
 20
22.92027277982687
 30
0.0
 10
20.7925360379909
 20
22.80626808777127
 30
0.0
 10
20.78910954516041
 20
22.72520758246426
 30
0.0
 10
20.80613724963539
 20
22.71826886730941
 30
0.0
 10
21.01886582568255
 20
22.7046167575252
 30
0.0
 10
21.0660300600827
 20
22.67888832808701
 30
0.0
 10
21.08690392327575
 20
22.63930534174023
 30
0.0
 10
21.0754499243531
 20
22.53197789942892
 30
0.0
 10
21.11942825465552
 20
22.43933421594877
 30
0.0
 10
21.13717389938986
 20
22.34129508952441
 30
0.0
 10
21.1351498780057
 20
22.13467825369821
 30
0.0
 10
21.13554775132107
 20
21.72270392449052
 30
0.0
 10
21.22702153299888
 20
21.12140011542228
 30
0.0
 10
21.22025384338832
 20
21.04239069460013
 30
0.0
 10
21.16918451467288
 20
20.98581380147568
 30
0.0
 10
21.16454534667641
 20
20.96444939946039
 30
0.0
 10
21.18262624315943
 20
20.93518859382146
 30
0.0
 10
21.174214983227
 20
20.94435554332713
 30
0.0
 10
21.18262624315943
 20
20.93518859382146
 30
0.0
  0
LWPOLYLINE
  5
13D
330
1F
100
AcDbEntity
  8
0
  6
Continuous
 62
     7
100
AcDbPolyline
 90
        2
 70
   128
 43
0.0
 10
0.0
 20
0.0
 10
0.0
 20
0.0
  0
SPLINE
  5
13E
330
1F
100
AcDbEntity
  8
0
  6
Continuous
 62
     7
100
AcDbSpline
210
0.0
220
0.0
230
1.0
 70
     8
 71
     3
 72
     9
 73
     5
 74
     0
 42
0.00000001
 43
0.00000001
 40
0.0
 40
0.0
 40
0.0
 40
0.0
 40
0.5590551669749362
 40
1.0
 40
1.0
 40
1.0
 40
1.0
 10
30.7621955871582
 20
40.91527627245527
 30
0.0
 10
31.08329060069723
 20
41.50184643962967
 30
0.0
 10
31.218937254141
 20
42.01153424253559
 30
0.0
 10
31.1823650547535
 20
41.83818122709064
 30
0.0
 10
31.218937254141
 20
42.01153424253559
 30
0.0
  0
SPLINE
  5
13F
330
1F
100
AcDbEntity
  8
0
  6
Continuous
 62
     7
100
AcDbSpline
210
0.0
220
0.0
230
1.0
 70
     8
 71
     3
 72
    22
 73
    18
 74
     0
 42
0.00000001
 43
0.00000001
 40
0.0
 40
0.0
 40
0.0
 40
0.0
 40
0.1262388415521696
 40
0.2507742466920435
 40
0.3098745664201486
 40
0.3563929776266603
 40
0.4026649071955877
 40
0.4394124537347412
 40
0.4844149773471887
 40
0.510556617520307
 40
0.5325117844805899
 40
0.5487019861749441
 40
0.5627116652809492
 40
0.585725046250046
 40
0.6273249469761482
 40
0.8119929765666971
 40
1.0
 40
1.0
 40
1.0
 40
1.0
 10
31.21893107891083
 20
42.01153424253559
 30
0.0
 10
31.49612037619974
 20
42.76705955984752
 30
0.0
 10
32.03495183158547
 20
43.35011399099105
 30
0.0
 10
32.36228179117578
 20
43.53667545333798
 30
0.0
 10
32.63222694931367
 20
43.65944969310355
 30
0.0
 10
32.92717584945105
 20
43.66387254809278
 30
0.0
 10
33.16143028112724
 20
43.66603630847195
 30
0.0
 10
33.44464822143733
 20
43.62028412517872
 30
0.0
 10
33.56879076886315
 20
43.50910159591137
 30
0.0
 10
33.70186092627947
 20
43.4657183112288
 30
0.0
 10
33.78529366399961
 20
43.52647765690057
 30
0.0
 10
33.84715973658759
 20
43.59089107877096
 30
0.0
 10
33.96023538840188
 20
43.68436616898995
 30
0.0
 10
34.16826720331602
 20
43.84884339241123
 30
0.0
 10
35.30021108871853
 20
44.17230443131556
 30
0.0
 10
36.49838191498439
 20
44.14261067345355
 30
0.0
 10
36.10337050773404
 20
44.16972829909583
 30
0.0
 10
36.49838191498439
 20
44.14261067345355
 30
0.0
  0
SPLINE
  5
140
330
1F
100
AcDbEntity
  8
0
  6
Continuous
 62
     7
100
AcDbSpline
210
0.0
220
0.0
230
1.0
 70
     8
 71
     3
 72
    15
 73
    11
 74
     0
 42
0.00000001
 43
0.00000001
 40
0.0
 40
0.0
 40
0.0
 40
0.0
 40
0.3730031889180587
 40
0.5593333764379559
 40
0.7442145524373
 40
0.9324332546980322
 40
0.956072746377963
 40
0.9680241703118363
 40
0.9772570505585867
 40
1.0
 40
1.0
 40
1.0
 40
1.0
 10
36.49836778640747
 20
44.14261067345355
 30
0.0
 10
38.25317471755703
 20
43.2303431102112
 30
0.0
 10
38.86544133209949
 20
42.45495431062168
 30
0.0
 10
38.94301430238386
 20
41.47773465706173
 30
0.0
 10
38.28605160299331
 20
40.72647930775122
 30
0.0
 10
38.19387610253412
 20
40.64154015716872
 30
0.0
 10
38.13945592228859
 20
40.60907184573501
 30
0.0
 10
38.10955985126124
 20
40.5703051383459
 30
0.0
 10
38.18119246558663
 20
40.47329662643659
 30
0.0
 10
38.14041968560984
 20
40.50477635178689
 30
0.0
 10
38.18119246558663
 20
40.47329662643659
 30
0.0
  0
SPLINE
  5
141
330
1F
100
AcDbEntity
  8
0
  6
Continuous
 62
     7
100
AcDbSpline
210
0.0
220
0.0
230
1.0
 70
     8
 71
     3
 72
    10
 73
     6
 74
     0
 42
0.00000001
 43
0.00000001
 40
0.0
 40
0.0
 40
0.0
 40
0.0
 40
0.2529723328760977
 40
0.5051586519794758
 40
1.0
 40
1.0
 40
1.0
 40
1.0
 10
38.4921133518219
 20
39.9546015371279
 30
0.0
 10
38.5520337600859
 20
39.7307605770818
 30
0.0
 10
38.45473070254558
 20
39.52125117458549
 30
0.0
 10
38.04469370125634
 20
39.32804925958445
 30
0.0
 10
38.19776169220085
 20
39.36810503963321
 30
0.0
 10
38.04469370125635
 20
39.32804925958446
 30
0.0
  0
SPLINE
  5
142
330
1F
100
AcDbEntity
  8
0
  6
Continuous
 62
     7
100
AcDbSpline
210
0.0
220
0.0
230
1.0
 70
     8
 71
     3
 72
    11
 73
     7
 74
     0
 42
0.00000001
 43
0.00000001
 40
0.0
 40
0.0
 40
0.0
 40
0.0
 40
0.2434711759625375
 40
0.5088781777412001
 40
0.7529327884281641
 40
1.0
 40
1.0
 40
1.0
 40
1.0
 10
38.08152675628662
 20
39.04672484807686
 30
0.0
 10
38.01233284583782
 20
38.86503253620756
 30
0.0
 10
37.88494180147624
 20
38.6956527790335
 30
0.0
 10
37.85594821388042
 20
38.50293369949848
 30
0.0
 10
37.74256469805564
 20
38.34147498596059
 30
0.0
 10
37.79022955487414
 20
38.39126015657104
 30
0.0
 10
37.74256469805564
 20
38.34147498596059
 30
0.0
  0
SPLINE
  5
143
330
1F
100
AcDbEntity
  8
0
  6
Continuous
 62
     7
100
AcDbSpline
210
0.0
220
0.0
230
1.0
 70
     8
 71
     3
 72
    10
 73
     6
 74
     0
 42
0.00000001
 43
0.00000001
 40
0.0
 40
0.0
 40
0.0
 40
0.0
 40
0.2590128856563023
 40
0.501379577278478
 40
1.0
 40
1.0
 40
1.0
 40
1.0
 10
37.74255514144897
 20
38.34147498596059
 30
0.0
 10
37.48984274963409
 20
37.96902040833309
 30
0.0
 10
37.08648453505882
 20
37.84783728196334
 30
0.0
 10
36.25207418073674
 20
38.08135187580927
 30
0.0
 10
36.52105613783053
 20
37.96033492990857
 30
0.0
 10
36.25207418073674
 20
38.08135187580927
 30
0.0
  0
SPLINE
  5
144
330
1F
100
AcDbEntity
  8
0
  6
Continuous
 62
     7
100
AcDbSpline
210
0.0
220
0.0
230
1.0
 70
     8
 71
     3
 72
    10
 73
     6
 74
     0
 42
0.00000001
 43
0.00000001
 40
0.0
 40
0.0
 40
0.0
 40
0.0
 40
0.2320799403097917
 40
0.3311038747872178
 40
1.0
 40
1.0
 40
1.0
 40
1.0
 10
36.25205159187317
 20
38.08135187580927
 30
0.0
 10
36.2292867580484
 20
38.06702914601305
 30
0.0
 10
36.22691208222577
 20
38.05580166584579
 30
0.0
 10
36.29546978089655
 20
38.01962271369785
 30
0.0
 10
36.26130271399929
 20
38.02511090320547
 30
0.0
 10
36.29546978089655
 20
38.01962271369785
 30
0.0
  0
SPLINE
  5
145
330
1F
100
AcDbEntity
  8
0
  6
Continuous
 62
     7
100
AcDbSpline
210
0.0
220
0.0
230
1.0
 70
     8
 71
     3
 72
    11
 73
     7
 74
     0
 42
0.00000001
 43
0.00000001
 40
0.0
 40
0.0
 40
0.0
 40
0.0
 40
0.2469237262117236
 40
0.50074074479207
 40
0.7494943774827247
 40
1.0
 40
1.0
 40
1.0
 40
1.0
 10
36.69413924217224
 20
37.68233950322423
 30
0.0
 10
36.77470944827661
 20
37.45964152852508
 30
0.0
 10
36.752768924282
 20
37.21719620035454
 30
0.0
 10
36.91587694735976
 20
37.04308105328338
 30
0.0
 10
37.09249268711111
 20
36.88019519333246
 30
0.0
 10
37.03753513635191
 20
36.93496901235922
 30
0.0
 10
37.09249268711111
 20
36.88019519333246
 30
0.0
  0
SPLINE
  5
146
330
1F
100
AcDbEntity
  8
0
  6
Continuous
 62
     7
100
AcDbSpline
210
0.0
220
0.0
230
1.0
 70
     8
 71
     3
 72
    11
 73
     7
 74
     0
 42
0.00000001
 43
0.00000001
 40
0.0
 40
0.0
 40
0.0
 40
0.0
 40
0.4928034405317243
 40
0.750719961823043
 40
0.8712301354163725
 40
1.0
 40
1.0
 40
1.0
 40
1.0
 10
37.89412975311279
 20
35.86106232247087
 30
0.0
 10
38.35944551472833
 20
35.64438071304006
 30
0.0
 10
38.57055860663345
 20
35.47825203941599
 30
0.0
 10
38.64393280676254
 20
35.37641064729873
 30
0.0
 10
38.63846798403556
 20
35.24239823120266
 30
0.0
 10
38.64745025554978
 20
35.28900604972037
 30
0.0
 10
38.63846798403556
 20
35.24239823120266
 30
0.0
  0
SPLINE
  5
147
330
1F
100
AcDbEntity
  8
0
  6
Continuous
 62
     7
100
AcDbSpline
210
0.0
220
0.0
230
1.0
 70
     8
 71
     3
 72
    18
 73
    14
 74
     0
 42
0.00000001
 43
0.00000001
 40
0.0
 40
0.0
 40
0.0
 40
0.0
 40
0.24979726388626
 40
0.4997677657286483
 40
0.5632899320055109
 40
0.6280899735353486
 40
0.6580363303840332
 40
0.6884468158068046
 40
0.7501589497043691
 40
0.8747079737379165
 40
0.9381333176803789
 40
0.9688821637738346
 40
1.0
 40
1.0
 40
1.0
 40
1.0
 10
40.72105884552002
 20
36.9168979257389
 30
0.0
 10
40.674024203363
 20
37.95086205639725
 30
0.0
 10
41.22940934634721
 20
38.82512051625108
 30
0.0
 10
41.49257112815567
 20
38.82042373446633
 30
0.0
 10
41.67610568635258
 20
39.01639960627035
 30
0.0
 10
41.71070134100684
 20
39.13556175266088
 30
0.0
 10
41.6465457024912
 20
39.24401210328291
 30
0.0
 10
41.59398963732009
 20
39.49425660494644
 30
0.0
 10
41.77539303873599
 20
39.97739124169864
 30
0.0
 10
41.95100290025126
 20
40.17290680399774
 30
0.0
 10
42.07800130859913
 20
40.18311038341127
 30
0.0
 10
42.20687230020772
 20
40.18722171530403
 30
0.0
 10
42.16446440639025
 20
40.18514701775351
 30
0.0
 10
42.20687230020772
 20
40.18722171530403
 30
0.0
  0
SPLINE
  5
148
330
1F
100
AcDbEntity
  8
0
  6
Continuous
 62
     7
100
AcDbSpline
210
0.0
220
0.0
230
1.0
 70
     8
 71
     3
 72
    10
 73
     6
 74
     0
 42
0.00000001
 43
0.00000001
 40
0.0
 40
0.0
 40
0.0
 40
0.0
 40
0.4980445814829172
 40
0.7442164910886118
 40
1.0
 40
1.0
 40
1.0
 40
1.0
 10
42.20685362815857
 20
40.18722171530403
 30
0.0
 10
42.53759520576642
 20
40.59206433149718
 30
0.0
 10
42.70684650608949
 20
40.787309737067
 30
0.0
 10
42.821477706134
 20
41.03008938992525
 30
0.0
 10
42.78877500444518
 20
40.94555604188435
 30
0.0
 10
42.821477706134
 20
41.03008938992525
 30
0.0
  0
SPLINE
  5
149
330
1F
100
AcDbEntity
  8
0
  6
Continuous
 62
     7
100
AcDbSpline
210
0.0
220
0.0
230
1.0
 70
     8
 71
     3
 72
    12
 73
     8
 74
     0
 42
0.00000001
 43
0.00000001
 40
0.0
 40
0.0
 40
0.0
 40
0.0
 40
0.2544566529466388
 40
0.5011407528442359
 40
0.6356237715581131
 40
0.7429989493653392
 40
1.0
 40
1.0
 40
1.0
 40
1.0
 10
43.55388879776001
 20
40.21394908178225
 30
0.0
 10
43.66784559289473
 20
39.99831796915699
 30
0.0
 10
43.59825660018567
 20
39.77234915231958
 30
0.0
 10
43.51235439101224
 20
39.67624617367403
 30
0.0
 10
43.49459696871509
 20
39.57487289953289
 30
0.0
 10
43.64987611612418
 20
39.38364831588255
 30
0.0
 10
43.57775690700083
 20
39.43913920875464
 30
0.0
 10
43.64987611612418
 20
39.38364831588255
 30
0.0
  0
SPLINE
  5
14A
330
1F
100
AcDbEntity
  8
0
  6
Continuous
 62
     7
100
AcDbSpline
210
0.0
220
0.0
230
1.0
 70
     8
 71
     3
 72
     9
 73
     5
 74
     0
 42
0.00000001
 43
0.00000001
 40
0.0
 40
0.0
 40
0.0
 40
0.0
 40
0.5572558343738774
 40
1.0
 40
1.0
 40
1.0
 40
1.0
 10
43.64985227584839
 20
39.38364831588255
 30
0.0
 10
43.6574618391223
 20
39.06836773161241
 30
0.0
 10
43.5811566917114
 20
38.82970315919958
 30
0.0
 10
43.61266847872455
 20
38.90838519494404
 30
0.0
 10
43.5811566917114
 20
38.82970315919958
 30
0.0
  0
SPLINE
  5
14B
330
1F
100
AcDbEntity
  8
0
  6
Continuous
 62
     7
100
AcDbSpline
210
0.0
220
0.0
230
1.0
 70
     8
 71
     3
 72
    15
 73
    11
 74
     0
 42
0.00000001
 43
0.00000001
 40
0.0
 40
0.0
 40
0.0
 40
0.0
 40
0.2491166514566533
 40
0.3788506703093337
 40
0.5012213223499774
 40
0.7500652699391819
 40
0.8134936243731699
 40
0.8431679734875069
 40
0.8754886522534867
 40
1.0
 40
1.0
 40
1.0
 40
1.0
 10
43.58112812042236
 20
38.82970315919958
 30
0.0
 10
43.18989502503882
 20
38.55172589024946
 30
0.0
 10
43.02477562175375
 20
38.3640981827389
 30
0.0
 10
43.15857731431861
 20
38.16999561018624
 30
0.0
 10
43.22969249290693
 20
37.69589296600311
 30
0.0
 10
43.23077976788416
 20
37.57370085254971
 30
0.0
 10
43.21608345603007
 20
37.51845344708978
 30
0.0
 10
43.1778600775388
 20
37.46929917062503
 30
0.0
 10
43.21000722085056
 20
37.23158756489583
 30
0.0
 10
43.17211920291091
 20
37.31893347729953
 30
0.0
 10
43.21000722085056
 20
37.23158756489583
 30
0.0
  0
SPLINE
  5
14C
330
1F
100
AcDbEntity
  8
0
  6
Continuous
 62
     7
100
AcDbSpline
210
0.0
220
0.0
230
1.0
 70
     8
 71
     3
 72
    11
 73
     7
 74
     0
 42
0.00000001
 43
0.00000001
 40
0.0
 40
0.0
 40
0.0
 40
0.0
 40
0.2531280392764573
 40
0.435640379125527
 40
0.6260721938955821
 40
1.0
 40
1.0
 40
1.0
 40
1.0
 10
43.20999979972839
 20
36.95727093138596
 30
0.0
 10
43.17400316943613
 20
36.91875937211616
 30
0.0
 10
43.18392776793091
 20
36.88206879518446
 30
0.0
 10
43.21136019930047
 20
36.85342873908002
 30
0.0
 10
43.25700315178779
 20
36.79033485942944
 30
0.0
 10
43.24330456136808
 20
36.81286797786137
 30
0.0
 10
43.25700315178779
 20
36.79033485942944
 30
0.0
  0
SPLINE
  5
14D
330
1F
100
AcDbEntity
  8
0
  6
Continuous
 62
     7
100
AcDbSpline
210
0.0
220
0.0
230
1.0
 70
     8
 71
     3
 72
    10
 73
     6
 74
     0
 42
0.00000001
 43
0.00000001
 40
0.0
 40
0.0
 40
0.0
 40
0.0
 40
0.3166223523294955
 40
0.5626244239331321
 40
1.0
 40
1.0
 40
1.0
 40
1.0
 10
43.25699806213379
 20
36.47748537855779
 30
0.0
 10
43.15095242867443
 20
36.24822518913703
 30
0.0
 10
43.01322910641908
 20
36.10840552361809
 30
0.0
 10
42.72144659317986
 20
35.9170472976184
 30
0.0
 10
42.82152927134548
 20
35.97613164977364
 30
0.0
 10
42.72144659317987
 20
35.9170472976184
 30
0.0
  0
SPLINE
  5
14E
330
1F
100
AcDbEntity
  8
0
  6
Continuous
 62
     7
100
AcDbSpline
210
0.0
220
0.0
230
1.0
 70
     8
 71
     3
 72
     9
 73
     5
 74
     0
 42
0.00000001
 43
0.00000001
 40
0.0
 40
0.0
 40
0.0
 40
0.0
 40
0.5598638895800719
 40
1.0
 40
1.0
 40
1.0
 40
1.0
 10
42.72142052650452
 20
35.9170472976184
 30
0.0
 10
42.71001641231435
 20
35.8403130190582
 30
0.0
 10
42.7088750210783
 20
35.77933660217977
 30
0.0
 10
42.70868155209796
 20
35.7997098941807
 30
0.0
 10
42.7088750210783
 20
35.77933660217977
 30
0.0
  0
SPLINE
  5
14F
330
1F
100
AcDbEntity
  8
0
  6
Continuous
 62
     7
100
AcDbSpline
210
0.0
220
0.0
230
1.0
 70
     8
 71
     3
 72
     9
 73
     5
 74
     0
 42
0.00000001
 43
0.00000001
 40
0.0
 40
0.0
 40
0.0
 40
0.0
 40
0.558026632752846
 40
1.0
 40
1.0
 40
1.0
 40
1.0
 10
42.7088737487793
 20
35.20234462521378
 30
0.0
 10
43.3560622347536
 20
33.92639299006876
 30
0.0
 10
43.28531367219659
 20
32.79544677613912
 30
0.0
 10
43.35186670326848
 20
33.18129448753281
 30
0.0
 10
43.28531367219659
 20
32.79544677613913
 30
0.0
  0
SPLINE
  5
150
330
1F
100
AcDbEntity
  8
0
  6
Continuous
 62
     7
100
AcDbSpline
210
0.0
220
0.0
230
1.0
 70
     8
 71
     3
 72
    10
 73
     6
 74
     0
 42
0.00000001
 43
0.00000001
 40
0.0
 40
0.0
 40
0.0
 40
0.0
 40
0.2518230889642286
 40
0.5044751408414303
 40
1.0
 40
1.0
 40
1.0
 40
1.0
 10
43.2853102684021
 20
32.79544677613912
 30
0.0
 10
42.85302069153366
 20
31.84134992185565
 30
0.0
 10
42.07725596308519
 20
31.13240738218316
 30
0.0
 10
40.09078720004185
 20
30.58263713339288
 30
0.0
 10
40.78717219506871
 20
30.68305447564085
 30
0.0
 10
40.09078720004185
 20
30.58263713339288
 30
0.0
  0
SPLINE
  5
151
330
1F
100
AcDbEntity
  8
0
  6
Continuous
 62
     7
100
AcDbSpline
210
0.0
220
0.0
230
1.0
 70
     8
 71
     3
 72
    11
 73
     7
 74
     0
 42
0.00000001
 43
0.00000001
 40
0.0
 40
0.0
 40
0.0
 40
0.0
 40
0.1287707352732503
 40
0.2525223700175029
 40
0.5024410402244414
 40
1.0
 40
1.0
 40
1.0
 40
1.0
 10
42.33521223068237
 20
25.82024724457566
 30
0.0
 10
42.45377494282061
 20
25.63882943323569
 30
0.0
 10
42.46030858706195
 20
25.43065464861365
 30
0.0
 10
42.4531898419263
 20
25.01009512998256
 30
0.0
 10
42.66773262462108
 20
24.20063948144399
 30
0.0
 10
42.57195862816612
 20
24.46853601182179
 30
0.0
 10
42.66773262462108
 20
24.20063948144399
 30
0.0
  0
SPLINE
  5
152
330
1F
100
AcDbEntity
  8
0
  6
Continuous
 62
     7
100
AcDbSpline
210
0.0
220
0.0
230
1.0
 70
     8
 71
     3
 72
     9
 73
     5
 74
     0
 42
0.00000001
 43
0.00000001
 40
0.0
 40
0.0
 40
0.0
 40
0.0
 40
0.547227845758191
 40
1.0
 40
1.0
 40
1.0
 40
1.0
 10
43.33683848381042
 20
21.49555436241848
 30
0.0
 10
43.51343033332508
 20
21.46945352842868
 30
0.0
 10
43.60619350639441
 20
21.35451999588775
 30
0.0
 10
43.57929816508658
 20
21.39987464049889
 30
0.0
 10
43.60619350639441
 20
21.35451999588775
 30
0.0
  0
SPLINE
  5
153
330
1F
100
AcDbEntity
  8
0
  6
Continuous
 62
     7
100
AcDbSpline
210
0.0
220
0.0
230
1.0
 70
     8
 71
     3
 72
    11
 73
     7
 74
     0
 42
0.00000001
 43
0.00000001
 40
0.0
 40
0.0
 40
0.0
 40
0.0
 40
0.2422105477396968
 40
0.4868757558213783
 40
0.7308208915894743
 40
1.0
 40
1.0
 40
1.0
 40
1.0
 10
43.85516047477722
 20
20.58948313789924
 30
0.0
 10
43.96239257318368
 20
20.47102712727657
 30
0.0
 10
43.96905179008173
 20
20.30976243700189
 30
0.0
 10
43.98506040801148
 20
20.1496335627069
 30
0.0
 10
44.12032388658541
 20
20.03458500002337
 30
0.0
 10
44.06521497018803
 20
20.06748466328143
 30
0.0
 10
44.12032388658541
 20
20.03458500002337
 30
0.0
  0
SPLINE
  5
154
330
1F
100
AcDbEntity
  8
0
  6
Continuous
 62
     7
100
AcDbSpline
210
0.0
220
0.0
230
1.0
 70
     8
 71
     3
 72
    12
 73
     8
 74
     0
 42
0.00000001
 43
0.00000001
 40
0.0
 40
0.0
 40
0.0
 40
0.0
 40
0.1232112787399342
 40
0.2493690548692872
 40
0.5004023082708682
 40
0.7473076744690231
 40
1.0
 40
1.0
 40
1.0
 40
1.0
 10
44.89630460739136
 20
19.37923513106401
 30
0.0
 10
45.18002595155185
 20
19.32039814501767
 30
0.0
 10
45.47273962633436
 20
19.27200431588885
 30
0.0
 10
46.02635329450746
 20
19.06697926386021
 30
0.0
 10
46.2933185489727
 20
18.55133868409857
 30
0.0
 10
46.26423558482072
 20
17.95779042731212
 30
0.0
 10
46.29453048157002
 20
18.15468233852624
 30
0.0
 10
46.26423558482072
 20
17.95779042731212
 30
0.0
  0
SPLINE
  5
155
330
1F
100
AcDbEntity
  8
0
  6
Continuous
 62
     7
100
AcDbSpline
210
0.0
220
0.0
230
1.0
 70
     8
 71
     3
 72
    12
 73
     8
 74
     0
 42
0.00000001
 43
0.00000001
 40
0.0
 40
0.0
 40
0.0
 40
0.0
 40
0.1066215108385001
 40
0.2538065603123146
 40
0.3785193464619085
 40
0.5036124027659357
 40
1.0
 40
1.0
 40
1.0
 40
1.0
 10
39.33405876159668
 20
24.42938753328432
 30
0.0
 10
39.54853530458158
 20
24.3823346187202
 30
0.0
 10
39.79706255407851
 20
24.20880541537471
 30
0.0
 10
39.89252588935892
 20
23.97037147190279
 30
0.0
 10
39.85376215447063
 20
23.71568686214804
 30
0.0
 10
40.04404039300679
 20
22.71128677589866
 30
0.0
 10
39.91779154141056
 20
23.0453269124614
 30
0.0
 10
40.04404039300679
 20
22.71128677589866
 30
0.0
  0
SPLINE
  5
156
330
1F
100
AcDbEntity
  8
0
  6
Continuous
 62
     7
100
AcDbSpline
210
0.0
220
0.0
230
1.0
 70
     8
 71
     3
 72
    11
 73
     7
 74
     0
 42
0.00000001
 43
0.00000001
 40
0.0
 40
0.0
 40
0.0
 40
0.0
 40
0.3140667390311994
 40
0.55998651888382
 40
0.8062582554844305
 40
1.0
 40
1.0
 40
1.0
 40
1.0
 10
40.04403948783875
 20
22.71128677589866
 30
0.0
 10
40.20104906125607
 20
22.35758198663452
 30
0.0
 10
40.33837892631866
 20
22.08747038073338
 30
0.0
 10
40.45802734181645
 20
21.80860295987156
 30
0.0
 10
40.58927296739657
 20
21.60919333796237
 30
0.0
 10
40.54223531236107
 20
21.67391710251556
 30
0.0
 10
40.58927296739657
 20
21.60919333796237
 30
0.0
  0
SPLINE
  5
157
330
1F
100
AcDbEntity
  8
0
  6
Continuous
 62
     7
100
AcDbSpline
210
0.0
220
0.0
230
1.0
 70
     8
 71
     3
 72
     9
 73
     5
 74
     0
 42
0.00000001
 43
0.00000001
 40
0.0
 40
0.0
 40
0.0
 40
0.0
 40
0.560374370063549
 40
1.0
 40
1.0
 40
1.0
 40
1.0
 10
41.24894738197327
 20
20.58948313789924
 30
0.0
 10
41.22649212643977
 20
20.3680514757723
 30
0.0
 10
41.288140687543
 20
20.20468779002531
 30
0.0
 10
41.26178333251871
 20
20.25838369219379
 30
0.0
 10
41.288140687543
 20
20.20468779002531
 30
0.0
  0
SPLINE
  5
158
330
1F
100
AcDbEntity
  8
0
  6
Continuous
 62
     7
100
AcDbSpline
210
0.0
220
0.0
230
1.0
 70
     8
 71
     3
 72
     9
 73
     5
 74
     0
 42
0.00000001
 43
0.00000001
 40
0.0
 40
0.0
 40
0.0
 40
0.0
 40
0.5600149451172433
 40
1.0
 40
1.0
 40
1.0
 40
1.0
 10
41.59906506538391
 20
19.57635620608284
 30
0.0
 10
41.49871706861266
 20
19.24065269990995
 30
0.0
 10
41.44361155880596
 20
18.97094220282795
 30
0.0
 10
41.46023958659762
 20
19.06128271368083
 30
0.0
 10
41.44361155880597
 20
18.97094220282796
 30
0.0
  0
SPLINE
  5
159
330
1F
100
AcDbEntity
  8
0
  6
Continuous
 62
     7
100
AcDbSpline
210
0.0
220
0.0
230
1.0
 70
     8
 71
     3
 72
     9
 73
     5
 74
     0
 42
0.00000001
 43
0.00000001
 40
0.0
 40
0.0
 40
0.0
 40
0.0
 40
0.5601369589496373
 40
1.0
 40
1.0
 40
1.0
 40
1.0
 10
41.4435863494873
 20
18.97094220282795
 30
0.0
 10
41.34817643153754
 20
18.44222369909331
 30
0.0
 10
41.35690721862264
 20
18.02041723143257
 30
0.0
 10
41.34786423440747
 20
18.16150438306786
 30
0.0
 10
41.35690721862264
 20
18.02041723143257
 30
0.0
  0
SPLINE
  5
15A
330
1F
100
AcDbEntity
  8
0
  6
Continuous
 62
     7
100
AcDbSpline
210
0.0
220
0.0
230
1.0
 70
     8
 71
     3
 72
     9
 73
     5
 74
     0
 42
0.00000001
 43
0.00000001
 40
0.0
 40
0.0
 40
0.0
 40
0.0
 40
0.5598273413713919
 40
1.0
 40
1.0
 40
1.0
 40
1.0
 10
20.81854641437531
 20
28.35723427703868
 30
0.0
 10
20.99134654237326
 20
26.65420431381673
 30
0.0
 10
21.19427492523008
 20
25.32368226230986
 30
0.0
 10
21.12171234418386
 20
25.76656523924403
 30
0.0
 10
21.19427492523008
 20
25.32368226230986
 30
0.0
  0
SPLINE
  5
15B
330
1F
100
AcDbEntity
  8
0
  6
Continuous
 62
     7
100
AcDbSpline
210
0.0
220
0.0
230
1.0
 70
     8
 71
     3
 72
     9
 73
     5
 74
     0
 42
0.00000001
 43
0.00000001
 40
0.0
 40
0.0
 40
0.0
 40
0.0
 40
0.5593072679849076
 40
1.0
 40
1.0
 40
1.0
 40
1.0
 10
30.93606233596802
 20
37.20658249767557
 30
0.0
 10
35.83749307093348
 20
35.6803969110009
 30
0.0
 10
39.86277542501752
 20
35.2829922962627
 30
0.0
 10
38.50901915330559
 20
35.35632565685675
 30
0.0
 10
39.86277542501752
 20
35.2829922962627
 30
0.0
  0
SPLINE
  5
15C
330
1F
100
AcDbEntity
  8
0
  6
Continuous
 62
     7
100
AcDbSpline
210
0.0
220
0.0
230
1.0
 70
     8
 71
     3
 72
     9
 73
     5
 74
     0
 42
0.00000001
 43
0.00000001
 40
0.0
 40
0.0
 40
0.0
 40
0.0
 40
0.560285446545518
 40
1.0
 40
1.0
 40
1.0
 40
1.0
 10
40.09076952934265
 20
28.35723427706001
 30
0.0
 10
40.08704175217762
 20
26.98363802975577
 30
0.0
 10
40.04404039300679
 20
25.90648750578361
 30
0.0
 10
40.06131116355237
 20
26.26547509251697
 30
0.0
 10
40.04404039300679
 20
25.90648750578361
 30
0.0
  0
SPLINE
  5
15D
330
1F
100
AcDbEntity
  8
0
  6
Continuous
 62
     7
100
AcDbSpline
210
0.0
220
0.0
230
1.0
 70
     8
 71
     3
 72
     9
 73
     5
 74
     0
 42
0.00000001
 43
0.00000001
 40
0.0
 40
0.0
 40
0.0
 40
0.0
 40
0.560019686375023
 40
1.0
 40
1.0
 40
1.0
 40
1.0
 10
40.04403948783875
 20
25.90648750578361
 30
0.0
 10
39.76017104969512
 20
25.27029450776694
 30
0.0
 10
39.49260263802046
 20
24.79283055019721
 30
0.0
 10
39.58505872363728
 20
24.95034539363077
 30
0.0
 10
39.49260263802046
 20
24.79283055019721
 30
0.0
  0
SPLINE
  5
15E
330
1F
100
AcDbEntity
  8
0
  6
Continuous
 62
     7
100
AcDbSpline
210
0.0
220
0.0
230
1.0
 70
     8
 71
     3
 72
     9
 73
     5
 74
     0
 42
0.00000001
 43
0.00000001
 40
0.0
 40
0.0
 40
0.0
 40
0.0
 40
0.559987331191676
 40
0.9999999999999999
 40
0.9999999999999999
 40
0.9999999999999999
 40
0.9999999999999999
 10
38.06310892105103
 20
22.19455618702056
 30
0.0
 10
37.52736542792617
 20
21.60061932286043
 30
0.0
 10
37.09249268711111
 20
21.14686406900065
 30
0.0
 10
37.23847034738451
 20
21.29716734221402
 30
0.0
 10
37.09249268711111
 20
21.14686406900065
 30
0.0
  0
LWPOLYLINE
  5
15F
330
1F
100
AcDbEntity
  8
0
  6
Continuous
 62
     7
100
AcDbPolyline
 90
        2
 70
   128
 43
0.0
 10
0.0
 20
0.0
 10
0.0
 20
0.0
  0
SPLINE
  5
160
330
1F
100
AcDbEntity
  8
0
  6
Continuous
 62
     7
100
AcDbSpline
210
0.0
220
0.0
230
1.0
 70
     8
 71
     3
 72
     9
 73
     5
 74
     0
 42
0.00000001
 43
0.00000001
 40
0.0
 40
0.0
 40
0.0
 40
0.0
 40
0.5603282640624425
 40
1.0
 40
1.0
 40
1.0
 40
1.0
 10
36.54488921165466
 20
20.58948313789924
 30
0.0
 10
35.63054591733554
 20
19.7979059367908
 30
0.0
 10
34.87644795545387
 20
19.22181894489313
 30
0.0
 10
35.13049901152721
 20
19.41054758902703
 30
0.0
 10
34.87644795545387
 20
19.22181894489313
 30
0.0
  0
SPLINE
  5
161
330
1F
100
AcDbEntity
  8
0
  6
Continuous
 62
     7
100
AcDbSpline
210
0.0
220
0.0
230
1.0
 70
     8
 71
     3
 72
     9
 73
     5
 74
     0
 42
0.00000001
 43
0.00000001
 40
0.0
 40
0.0
 40
0.0
 40
0.0
 40
0.5552652595748223
 40
0.9999999999999999
 40
0.9999999999999999
 40
0.9999999999999999
 40
0.9999999999999999
 10
30.06234765052795
 20
41.03008938992525
 30
0.0
 10
30.19748440672605
 20
40.24248671678239
 30
0.0
 10
30.68772917831052
 20
39.83100977710322
 30
0.0
 10
30.49599886846127
 20
39.95191026496136
 30
0.0
 10
30.68772917831052
 20
39.83100977710322
 30
0.0
  0
SPLINE
  5
162
330
1F
100
AcDbEntity
  8
0
  6
Continuous
 62
     7
100
AcDbSpline
210
0.0
220
0.0
230
1.0
 70
     8
 71
     3
 72
    11
 73
     7
 74
     0
 42
0.00000001
 43
0.00000001
 40
0.0
 40
0.0
 40
0.0
 40
0.0
 40
0.2152363117486068
 40
0.2643298576744688
 40
0.3116787673923866
 40
1.0
 40
1.0
 40
1.0
 40
1.0
 10
30.68771958351135
 20
39.83100977710322
 30
0.0
 10
30.76836023956856
 20
39.74555162294843
 30
0.0
 10
30.77211105235194
 20
39.7190148849072
 30
0.0
 10
30.76141504594166
 20
39.69548363946605
 30
0.0
 10
30.39385580441303
 20
39.61741151142083
 30
0.0
 10
30.54224430082399
 20
39.60347824232409
 30
0.0
 10
30.39385580441303
 20
39.61741151142083
 30
0.0
  0
SPLINE
  5
163
330
1F
100
AcDbEntity
  8
0
  6
Continuous
 62
     7
100
AcDbSpline
210
0.0
220
0.0
230
1.0
 70
     8
 71
     3
 72
    15
 73
    11
 74
     0
 42
0.00000001
 43
0.00000001
 40
0.0
 40
0.0
 40
0.0
 40
0.0
 40
0.7442637071048653
 40
0.7663818406999408
 40
0.7965224743094055
 40
0.8785657289608643
 40
0.9597396318130421
 40
0.9871667950917605
 40
0.9954828767550566
 40
0.9999999999999999
 40
0.9999999999999999
 40
0.9999999999999999
 40
0.9999999999999999
 10
30.39385378360748
 20
39.61741151142083
 30
0.0
 10
29.80681089145871
 20
39.57372786879237
 30
0.0
 10
29.79733219912527
 20
39.55902424827241
 30
0.0
 10
29.79776374902779
 20
39.53518880175071
 30
0.0
 10
29.81698772639803
 20
39.47321065851587
 30
0.0
 10
29.84174188958754
 20
39.41397116850247
 30
0.0
 10
29.84908617176416
 20
39.39355903850758
 30
0.0
 10
29.85025645465538
 20
39.38708648577248
 30
0.0
 10
29.84928505747517
 20
39.38364831588255
 30
0.0
 10
29.84970295858826
 20
39.38478854322942
 30
0.0
 10
29.84928505747517
 20
39.38364831588255
 30
0.0
  0
LWPOLYLINE
  5
165
330
1F
100
AcDbEntity
  8
0
  6
Continuous
 62
     7
100
AcDbPolyline
 90
        2
 70
   128
 43
0.0
 10
0.0
 20
0.0
 10
0.0
 20
0.0
  0
LWPOLYLINE
  5
166
330
1F
100
AcDbEntity
  8
0
  6
Continuous
 62
     7
100
AcDbPolyline
 90
        2
 70
   128
 43
0.0
 10
0.0
 20
0.0
 10
0.0
 20
0.0
  0
LWPOLYLINE
  5
167
330
1F
100
AcDbEntity
  8
0
  6
Continuous
 62
     7
100
AcDbPolyline
 90
        2
 70
   128
 43
0.0
 10
0.0
 20
0.0
 10
0.0
 20
0.0
  0
LWPOLYLINE
  5
169
330
1F
100
AcDbEntity
  8
0
  6
Continuous
 62
     7
100
AcDbPolyline
 90
      211
 70
   128
 43
0.0
 10
19.7643339634
 20
15.1827555352
 10
18.0349329977
 20
15.1827555352
 10
18.0349329977
 20
15.1827555352
 10
18.0349329977
 20
15.7360643587
 10
18.0349329977
 20
15.7360643587
 10
18.0310727036
 20
15.9123511234
 10
18.0182050565
 20
16.0526084763
 10
17.9963300565
 20
16.1581231822
 10
17.9654477036
 20
16.228895241
 10
17.9255579977
 20
16.2752187705
 10
17.8728006448
 20
16.3086746528
 10
17.8097491742
 20
16.3292628881
 10
17.7338300565
 20
16.3356967116
 10
17.7338300565
 20
16.3356967116
 10
17.6514771154
 20
16.3266893587
 10
17.5794182918
 20
16.3009540646
 10
17.5176535859
 20
16.2572040646
 10
17.4661829977
 20
16.1967261234
 10
17.4262932918
 20
16.1182334763
 10
17.399271233
 20
16.0217261234
 10
17.3812565271
 20
15.9072040646
 10
17.3761094683
 20
15.7746672999
 10
17.3761094683
 20
15.7746672999
 10
17.3812565271
 20
15.603527594
 10
17.3979844683
 20
15.4555496528
 10
17.4250065271
 20
15.3294467116
 10
17.4636094683
 20
15.2265055352
 10
17.4636094683
 20
15.2265055352
 10
17.4906315271
 20
15.1801820057
 10
17.5279477036
 20
15.1312849469
 10
17.5768447624
 20
15.0798143587
 10
17.6386094683
 20
15.0270570057
 10
17.7093815271
 20
14.9730128881
 10
17.793021233
 20
14.916395241
 10
17.8882418212
 20
14.8584908293
 10
17.9937565271
 20
14.7980128881
 10
17.9937565271
 20
14.7980128881
 10
18.2987197624
 20
14.6255864175
 10
18.5740874095
 20
14.4608805352
 10
18.8198594683
 20
14.3026084763
 10
19.0347491742
 20
14.1520570057
 10
19.2213300565
 20
14.0092261234
 10
19.3770285859
 20
13.8741158293
 10
19.5044182918
 20
13.7467261234
 10
19.6009256448
 20
13.625770241
 10
19.6009256448
 20
13.625770241
 10
19.6781315271
 20
13.4996672999
 10
19.7450432918
 20
13.3555496528
 10
19.8003741742
 20
13.1947040646
 10
19.8466977036
 20
13.0145570057
 10
19.8827271154
 20
12.8176820057
 10
19.9084624095
 20
12.6015055352
 10
19.9239035859
 20
12.3686011234
 10
19.9290506448
 20
12.1176820057
 10
19.9290506448
 20
12.1176820057
 10
19.9264771154
 20
11.9349614175
 10
19.9174697624
 20
11.7638217116
 10
19.9033153507
 20
11.6055496528
 10
19.8840138801
 20
11.460145241
 10
19.8582785859
 20
11.3276084763
 10
19.827396233
 20
11.206652594
 10
19.7913668212
 20
11.0985643587
 10
19.7489035859
 20
11.0020570057
 10
19.6987197624
 20
10.9145570057
 10
19.6382418212
 20
10.8309172999
 10
19.5674697624
 20
10.7498511234
 10
19.4864035859
 20
10.672645241
 10
19.3950432918
 20
10.5992996528
 10
19.2921021154
 20
10.5298143587
 10
19.1801535859
 20
10.4641893587
 10
19.0566241742
 20
10.4011378881
 10
18.7889771154
 20
10.2956231822
 10
18.5020285859
 20
10.2197040646
 10
18.1919182918
 20
10.1746672999
 10
17.8625065271
 20
10.1592261234
 10
17.8625065271
 20
10.1592261234
 10
17.6784991742
 20
10.1630864175
 10
17.5022124095
 20
10.1772408293
 10
17.3323594683
 20
10.1991158293
 10
17.1702271154
 20
10.2299981822
 10
17.0132418212
 20
10.2698878881
 10
16.8639771154
 20
10.3187849469
 10
16.721146233
 20
10.375402594
 10
16.5860359389
 20
10.4423143587
 10
16.4599329977
 20
10.5156599469
 10
16.3441241742
 20
10.594152594
 10
16.2411829977
 20
10.6765055352
 10
16.1485359389
 20
10.7640055352
 10
16.0674697624
 20
10.856652594
 10
15.9979844683
 20
10.9544467116
 10
15.9387932918
 20
11.0561011234
 10
15.8924697624
 20
11.162902594
 10
15.8538668212
 20
11.2787114175
 10
15.8204109389
 20
11.4048143587
 10
15.7933888801
 20
11.5437849469
 10
15.7702271154
 20
11.6930496528
 10
15.7522124095
 20
11.8551820057
 10
15.7393447624
 20
12.0276084763
 10
15.7316241742
 20
12.2116158293
 10
15.7290506448
 20
12.4072040646
 10
15.7290506448
 20
12.4072040646
 10
15.7290506448
 20
12.8768731822
 10
15.7290506448
 20
12.8768731822
 10
17.4584624095
 20
12.8768731822
 10
17.4584624095
 20
12.8768731822
 10
17.4584624095
 20
11.9697040646
 10
17.4584624095
 20
11.9697040646
 10
17.4597491742
 20
11.8693364175
 10
17.4636094683
 20
11.7792628881
 10
17.4687565271
 20
11.6981967116
 10
17.4777638801
 20
11.6261378881
 10
17.4880579977
 20
11.5630864175
 10
17.5022124095
 20
11.5103290646
 10
17.5176535859
 20
11.4665790646
 10
17.5356682918
 20
11.4318364175
 10
17.5819918212
 20
11.3790790646
 10
17.6424697624
 20
11.3417628881
 10
17.7183888801
 20
11.3198878881
 10
17.8097491742
 20
11.3121672999
 10
17.8097491742
 20
11.3121672999
 10
17.902396233
 20
11.3211746528
 10
17.9821756448
 20
11.3494834763
 10
18.0490874095
 20
11.394520241
 10
18.1031315271
 20
11.4588584763
 10
18.1455947624
 20
11.5412114175
 10
18.1751903507
 20
11.6428658293
 10
18.1932050565
 20
11.7599614175
 10
18.1996388801
 20
11.8963584763
 10
18.1996388801
 20
11.8963584763
 10
18.1970653507
 20
12.0481967116
 10
18.1893447624
 20
12.1871672999
 10
18.1764771154
 20
12.3119834763
 10
18.1571756448
 20
12.4239320057
 10
18.1340138801
 20
12.5204393587
 10
18.1044182918
 20
12.6040790646
 10
18.0709624095
 20
12.6735643587
 10
18.0310727036
 20
12.7301820057
 10
18.0310727036
 20
12.7301820057
 10
17.9796021154
 20
12.7829393587
 10
17.9101168212
 20
12.8434172999
 10
17.8239035859
 20
12.9103290646
 10
17.7209624095
 20
12.9862481822
 10
17.6012932918
 20
13.0686011234
 10
17.4636094683
 20
13.1586746528
 10
17.3091977036
 20
13.2551820057
 10
17.136771233
 20
13.3606967116
 10
17.136771233
 20
13.3606967116
 10
16.9643447624
 20
13.4662114175
 10
16.8060727036
 20
13.5652922999
 10
16.6645285859
 20
13.656652594
 10
16.5371388801
 20
13.7415790646
 10
16.4264771154
 20
13.8174981822
 10
16.3299697624
 20
13.8869834763
 10
16.2489035859
 20
13.9487481822
 10
16.1832785859
 20
14.0040790646
 10
16.0726168212
 20
14.1173143587
 10
15.9709624095
 20
14.2498511234
 10
15.8796021154
 20
14.4016893587
 10
15.7985359389
 20
14.5728290646
 10
15.7316241742
 20
14.7671305352
 10
15.6853006448
 20
14.9858805352
 10
15.6557050565
 20
15.2303658293
 10
15.6466977036
 20
15.4992996528
 10
15.6466977036
 20
15.4992996528
 10
15.6505579977
 20
15.6961746528
 10
15.6595653507
 20
15.878895241
 10
15.6762932918
 20
16.0474614175
 10
15.6994550565
 20
16.2031599469
 10
15.7290506448
 20
16.3447040646
 10
15.7650800565
 20
16.4733805352
 10
15.8088300565
 20
16.587902594
 10
15.8577271154
 20
16.688270241
 10
15.9143447624
 20
16.7796305352
 10
15.9799697624
 20
16.8658437705
 10
16.0520285859
 20
16.9469099469
 10
16.1343815271
 20
17.0228290646
 10
16.2231682918
 20
17.0936011234
 10
16.3209624095
 20
17.1605128881
 10
16.4264771154
 20
17.2209908293
 10
16.5397124095
 20
17.2763217116
 10
16.7880579977
 20
17.3689687705
 10
17.0595653507
 20
17.4358805352
 10
17.3568079977
 20
17.475770241
 10
17.6772124095
 20
17.4886378881
 10
17.6772124095
 20
17.4886378881
 10
17.8560727036
 20
17.484777594
 10
18.0284991742
 20
17.4744834763
 10
18.1932050565
 20
17.4551820057
 10
18.3514771154
 20
17.4307334763
 10
18.5033153507
 20
17.397277594
 10
18.6487197624
 20
17.3573878881
 10
18.7864035859
 20
17.309777594
 10
18.9176535859
 20
17.2544467116
 10
19.0411829977
 20
17.1939687705
 10
19.1531315271
 20
17.1309172999
 10
19.2534991742
 20
17.0627187705
 10
19.3448594683
 20
16.9919467116
 10
19.4233521154
 20
16.916027594
 10
19.4928374095
 20
16.8375349469
 10
19.5507418212
 20
16.753895241
 10
19.5970653507
 20
16.6676820057
 10
19.6356682918
 20
16.5711746528
 10
19.6704109389
 20
16.4592261234
 10
19.6987197624
 20
16.3331231822
 10
19.7231682918
 20
16.1902922999
 10
19.7411829977
 20
16.032020241
 10
19.7540506448
 20
15.8583070057
 10
19.761771233
 20
15.669152594
 10
19.7643447624
 20
15.4645570057
 10
19.7643447624
 20
15.4645570057
 10
19.7643447624
 20
15.1827555352
  0
LWPOLYLINE
  5
16A
330
1F
100
AcDbEntity
  8
0
  6
Continuous
 62
     7
100
AcDbPolyline
 90
       54
 70
   128
 43
0.0
 10
20.4231590033
 20
17.3239320057
 10
22.2709624095
 20
17.3239320057
 10
22.2709624095
 20
17.3239320057
 10
22.4536829977
 20
17.322645241
 10
22.6248227036
 20
17.3162114175
 10
22.7843815271
 20
17.3072040646
 10
22.9349329977
 20
17.2956231822
 10
23.0726168212
 20
17.278895241
 10
23.2012932918
 20
17.2583070057
 10
23.3183888801
 20
17.235145241
 10
23.4239035859
 20
17.2081231822
 10
23.6130579977
 20
17.1450717116
 10
23.7764771154
 20
17.0678658293
 10
23.9154477036
 20
16.9790790646
 10
24.0286829977
 20
16.8761378881
 10
24.1226168212
 20
16.762902594
 10
24.1998227036
 20
16.6367996528
 10
24.2603006448
 20
16.500402594
 10
24.3040506448
 20
16.3511378881
 10
24.3207785859
 20
16.2687849469
 10
24.3362197624
 20
16.1761378881
 10
24.3478006448
 20
16.0719099469
 10
24.3580947624
 20
15.9573878881
 10
24.3658153507
 20
15.8325717116
 10
24.3722491742
 20
15.6974614175
 10
24.3748227036
 20
15.5520570057
 10
24.3761094683
 20
15.3950717116
 10
24.3761094683
 20
15.3950717116
 10
24.3761094683
 20
14.794152594
 10
24.3761094683
 20
14.794152594
 10
24.3735359389
 20
14.6345937705
 10
24.3671021154
 20
14.4866158293
 10
24.3568079977
 20
14.3489320057
 10
24.3413668212
 20
14.2241158293
 10
24.3207785859
 20
14.1083070057
 10
24.2963300565
 20
14.0053658293
 10
24.268021233
 20
13.9127187705
 10
24.2345653507
 20
13.831652594
 10
24.1496388801
 20
13.6888217116
 10
24.0351168212
 20
13.5640055352
 10
23.8909991742
 20
13.4572040646
 10
23.7172859389
 20
13.3671305352
 10
23.5139771154
 20
13.2963584763
 10
23.2823594683
 20
13.2461746528
 10
23.0224329977
 20
13.2165790646
 10
22.7329109389
 20
13.2062849469
 10
22.7329109389
 20
13.2062849469
 10
22.2349329977
 20
13.2062849469
 10
22.2349329977
 20
13.2062849469
 10
22.2349329977
 20
10.3239320057
 10
22.2349329977
 20
10.3239320057
 10
20.4231682918
 20
10.3239320057
 10
20.4231682918
 20
10.3239320057
 10
20.4231682918
 20
17.3239320057
  0
LWPOLYLINE
  5
16B
330
1F
100
AcDbEntity
  8
0
  6
Continuous
 62
     7
100
AcDbPolyline
 90
       25
 70
   128
 43
0.0
 10
22.2349315882
 20
16.1709908293
 10
22.2349329977
 20
14.3630864175
 10
22.2349329977
 20
14.3630864175
 10
22.3069918212
 20
14.3605128881
 10
22.3687565271
 20
14.3592261234
 10
22.3687565271
 20
14.3592261234
 10
22.4845653507
 20
14.3669467116
 10
22.5797859389
 20
14.3901084763
 10
22.6569918212
 20
14.4299981822
 10
22.714896233
 20
14.4840422999
 10
22.7573594683
 20
14.5638217116
 10
22.7869550565
 20
14.6770570057
 10
22.8049697624
 20
14.8237481822
 10
22.8114035859
 20
15.003895241
 10
22.8114035859
 20
15.003895241
 10
22.8114035859
 20
15.5880864175
 10
22.8114035859
 20
15.5880864175
 10
22.8049697624
 20
15.7540790646
 10
22.7830947624
 20
15.8891893587
 10
22.7483521154
 20
15.9908437705
 10
22.6994550565
 20
16.0616158293
 10
22.6286829977
 20
16.1092261234
 10
22.5270285859
 20
16.1439687705
 10
22.3957785859
 20
16.1645570057
 10
22.2349329977
 20
16.1709908293
  0
LWPOLYLINE
  5
16C
330
1F
100
AcDbEntity
  8
0
  6
Continuous
 62
     7
100
AcDbPolyline
 90
       40
 70
   128
 43
0.0
 10
28.8231670856
 20
17.3239320057
 10
27.505521233
 20
12.8575717116
 10
27.505521233
 20
12.8575717116
 10
27.505521233
 20
10.3239320057
 10
27.505521233
 20
10.3239320057
 10
25.7761094683
 20
10.3239320057
 10
25.7761094683
 20
10.3239320057
 10
25.7761094683
 20
12.8575717116
 10
25.7761094683
 20
12.8575717116
 10
24.4584624095
 20
17.3239320057
 10
24.4584624095
 20
17.3239320057
 10
26.0849329977
 20
17.3239320057
 10
26.0849329977
 20
17.3239320057
 10
26.1312565271
 20
17.0627187705
 10
26.1750065271
 20
16.8117996528
 10
26.2174697624
 20
16.5724614175
 10
26.258646233
 20
16.3447040646
 10
26.2985359389
 20
16.1272408293
 10
26.3358521154
 20
15.922645241
 10
26.3731682918
 20
15.7283437705
 10
26.4079109389
 20
15.5456231822
 10
26.4413668212
 20
15.3731967116
 10
26.4722491742
 20
15.2136378881
 10
26.5031315271
 20
15.0643731822
 10
26.5314403507
 20
14.9266893587
 10
26.5597491742
 20
14.7992996528
 10
26.5854844683
 20
14.684777594
 10
26.608646233
 20
14.5805496528
 10
26.6318079977
 20
14.487902594
 10
26.6318079977
 20
14.487902594
 10
26.7000065271
 20
14.7735643587
 10
26.7682050565
 20
15.078527594
 10
26.8376903507
 20
15.4040790646
 10
26.9071756448
 20
15.7489320057
 10
26.9779477036
 20
16.1130864175
 10
27.0500065271
 20
16.4965422999
 10
27.1233521154
 20
16.9005864175
 10
27.1966977036
 20
17.3239320057
 10
27.1966977036
 20
17.3239320057
 10
28.8231682918
 20
17.3239320057
  0
LWPOLYLINE
  5
16D
330
1F
100
AcDbEntity
  8
0
  6
Continuous
 62
     7
100
AcDbPolyline
 90
       22
 70
   128
 43
0.0
 10
35.0407958031
 20
17.3239320057
 10
33.9290506448
 20
14.1636378881
 10
33.9290506448
 20
14.1636378881
 10
35.1231682918
 20
10.3239320057
 10
35.1231682918
 20
10.3239320057
 10
33.2290506448
 20
10.3239320057
 10
33.2290506448
 20
10.3239320057
 10
32.4466977036
 20
13.3246672999
 10
32.4466977036
 20
13.3246672999
 10
32.4466977036
 20
10.3239320057
 10
32.4466977036
 20
10.3239320057
 10
30.6349329977
 20
10.3239320057
 10
30.6349329977
 20
10.3239320057
 10
30.6349329977
 20
17.3239320057
 10
30.6349329977
 20
17.3239320057
 10
32.4466977036
 20
17.3239320057
 10
32.4466977036
 20
17.3239320057
 10
32.4466977036
 20
14.6037114175
 10
32.4466977036
 20
14.6037114175
 10
33.3114035859
 20
17.3239320057
 10
33.3114035859
 20
17.3239320057
 10
35.0408153507
 20
17.3239320057
  0
LWPOLYLINE
  5
16E
330
1F
100
AcDbEntity
  8
0
  6
Continuous
 62
     7
100
AcDbPolyline
 90
        8
 70
   128
 43
0.0
 10
37.2231602669
 20
17.3239320057
 10
37.2231682918
 20
10.3239320057
 10
37.2231682918
 20
10.3239320057
 10
35.4114035859
 20
10.3239320057
 10
35.4114035859
 20
10.3239320057
 10
35.4114035859
 20
17.3239320057
 10
35.4114035859
 20
17.3239320057
 10
37.2231682918
 20
17.3239320057
  0
LWPOLYLINE
  5
16F
330
1F
100
AcDbEntity
  8
0
  6
Continuous
 62
     7
100
AcDbPolyline
 90
       58
 70
   128
 43
0.0
 10
37.8819704056
 20
17.3239320057
 10
39.2652638801
 20
17.3239320057
 10
39.2652638801
 20
17.3239320057
 10
39.5869550565
 20
17.322645241
 10
39.8803374095
 20
17.3162114175
 10
40.1479844683
 20
17.3072040646
 10
40.3886094683
 20
17.2943364175
 10
40.6009256448
 20
17.2763217116
 10
40.7862197624
 20
17.2557334763
 10
40.9457785859
 20
17.2312849469
 10
41.0770285859
 20
17.2029761234
 10
41.2996388801
 20
17.1322040646
 10
41.4926535859
 20
17.0434172999
 10
41.658646233
 20
16.9340422999
 10
41.7950432918
 20
16.8053658293
 10
41.9069918212
 20
16.6625349469
 10
41.9944918212
 20
16.513270241
 10
42.0601168212
 20
16.3549981822
 10
42.1025800565
 20
16.1890055352
 10
42.1167344683
 20
16.0937849469
 10
42.1296021154
 20
15.9779761234
 10
42.139896233
 20
15.8415790646
 10
42.1489035859
 20
15.6858805352
 10
42.1553374095
 20
15.5083070057
 10
42.1604844683
 20
15.3114320057
 10
42.1630579977
 20
15.0926820057
 10
42.1643447624
 20
14.8546305352
 10
42.1643447624
 20
14.8546305352
 10
42.1643447624
 20
12.4033437705
 10
42.1643447624
 20
12.4033437705
 10
42.1630579977
 20
12.1781599469
 10
42.1591977036
 20
11.9709908293
 10
42.1514771154
 20
11.7844099469
 10
42.1424697624
 20
11.6171305352
 10
42.1296021154
 20
11.469152594
 10
42.1141609389
 20
11.3417628881
 10
42.0948594683
 20
11.2323878881
 10
42.074271233
 20
11.1436011234
 10
42.0215138801
 20
10.9930496528
 10
41.9507418212
 20
10.8605128881
 10
41.8645285859
 20
10.7447040646
 10
41.7603006448
 20
10.6456231822
 10
41.6419182918
 20
10.563270241
 10
41.5106682918
 20
10.4937849469
 10
41.3652638801
 20
10.4371672999
 10
41.2069918212
 20
10.3947040646
 10
41.1194918212
 20
10.3779761234
 10
41.0216977036
 20
10.3638217116
 10
40.9123227036
 20
10.3509540646
 10
40.7939403507
 20
10.3419467116
 10
40.6639771154
 20
10.3342261234
 10
40.5250065271
 20
10.3277922999
 10
40.3744550565
 20
10.3252187705
 10
40.2136094683
 20
10.3239320057
 10
40.2136094683
 20
10.3239320057
 10
37.8819918212
 20
10.3239320057
 10
37.8819918212
 20
10.3239320057
 10
37.8819918212
 20
17.3239320057
  0
LWPOLYLINE
  5
170
330
1F
100
AcDbEntity
  8
0
  6
Continuous
 62
     7
100
AcDbPolyline
 90
       38
 70
   128
 43
0.0
 10
39.6937429905
 20
16.1709908293
 10
39.6937565271
 20
11.4768731822
 10
39.6937565271
 20
11.4768731822
 10
39.8005579977
 20
11.4794467116
 10
39.8970653507
 20
11.4871672999
 10
39.9832785859
 20
11.5000349469
 10
40.0579109389
 20
11.5167628881
 10
40.1209624095
 20
11.5399246528
 10
40.1750065271
 20
11.5669467116
 10
40.2174697624
 20
11.600402594
 10
40.2483521154
 20
11.6377187705
 10
40.2728006448
 20
11.6866158293
 10
40.2933888801
 20
11.7522408293
 10
40.3114035859
 20
11.8358805352
 10
40.3268447624
 20
11.9375349469
 10
40.3384256448
 20
12.0546305352
 10
40.346146233
 20
12.1897408293
 10
40.3512932918
 20
12.3428658293
 10
40.3525800565
 20
12.5127187705
 10
40.3525800565
 20
12.5127187705
 10
40.3525800565
 20
15.2856967116
 10
40.3525800565
 20
15.2856967116
 10
40.3525800565
 20
15.4015055352
 10
40.3500065271
 20
15.5057334763
 10
40.3474329977
 20
15.5996672999
 10
40.3435727036
 20
15.6833070057
 10
40.3384256448
 20
15.7553658293
 10
40.3332785859
 20
15.8158437705
 10
40.3255579977
 20
15.866027594
 10
40.3178374095
 20
15.9059172999
 10
40.2946756448
 20
15.9702555352
 10
40.2612197624
 20
16.0255864175
 10
40.2161829977
 20
16.0706231822
 10
40.1595653507
 20
16.106652594
 10
40.083646233
 20
16.1349614175
 10
39.9819918212
 20
16.1555496528
 10
39.8507418212
 20
16.1671305352
 10
39.6937565271
 20
16.1709908293
  0
LWPOLYLINE
  5
171
330
1F
100
AcDbEntity
  8
0
  6
Continuous
 62
     7
100
AcDbPolyline
 90
      211
 70
   128
 43
0.0
 10
46.776086092
 20
15.1827555352
 10
45.0466977036
 20
15.1827555352
 10
45.0466977036
 20
15.1827555352
 10
45.0466977036
 20
15.7360643587
 10
45.0466977036
 20
15.7360643587
 10
45.0428374095
 20
15.9123511234
 10
45.0299697624
 20
16.0526084763
 10
45.0080947624
 20
16.1581231822
 10
44.9772124095
 20
16.228895241
 10
44.9373227036
 20
16.2752187705
 10
44.8845653507
 20
16.3086746528
 10
44.8215138801
 20
16.3292628881
 10
44.7455947624
 20
16.3356967116
 10
44.7455947624
 20
16.3356967116
 10
44.6632418212
 20
16.3266893587
 10
44.5911829977
 20
16.3009540646
 10
44.5294182918
 20
16.2572040646
 10
44.4779477036
 20
16.1967261234
 10
44.4380579977
 20
16.1182334763
 10
44.4110359389
 20
16.0217261234
 10
44.393021233
 20
15.9072040646
 10
44.3878741742
 20
15.7746672999
 10
44.3878741742
 20
15.7746672999
 10
44.393021233
 20
15.603527594
 10
44.4097491742
 20
15.4555496528
 10
44.436771233
 20
15.3294467116
 10
44.4753741742
 20
15.2265055352
 10
44.4753741742
 20
15.2265055352
 10
44.502396233
 20
15.1801820057
 10
44.5397124095
 20
15.1312849469
 10
44.5886094683
 20
15.0798143587
 10
44.6503741742
 20
15.0270570057
 10
44.721146233
 20
14.9730128881
 10
44.8047859389
 20
14.916395241
 10
44.9000065271
 20
14.8584908293
 10
45.005521233
 20
14.7980128881
 10
45.005521233
 20
14.7980128881
 10
45.3104844683
 20
14.6255864175
 10
45.5858521154
 20
14.4608805352
 10
45.8316241742
 20
14.3026084763
 10
46.0465138801
 20
14.1520570057
 10
46.2330947624
 20
14.0092261234
 10
46.3887932918
 20
13.8741158293
 10
46.5161829977
 20
13.7467261234
 10
46.6126903507
 20
13.625770241
 10
46.6126903507
 20
13.625770241
 10
46.689896233
 20
13.4996672999
 10
46.7568079977
 20
13.3555496528
 10
46.8121388801
 20
13.1947040646
 10
46.8584624095
 20
13.0145570057
 10
46.8944918212
 20
12.8176820057
 10
46.9202271154
 20
12.6015055352
 10
46.9356682918
 20
12.3686011234
 10
46.9408153507
 20
12.1176820057
 10
46.9408153507
 20
12.1176820057
 10
46.9382418212
 20
11.9349614175
 10
46.9292344683
 20
11.7638217116
 10
46.9150800565
 20
11.6055496528
 10
46.8957785859
 20
11.460145241
 10
46.8700432918
 20
11.3276084763
 10
46.8391609389
 20
11.206652594
 10
46.8031315271
 20
11.0985643587
 10
46.7606682918
 20
11.0020570057
 10
46.7104844683
 20
10.9145570057
 10
46.6500065271
 20
10.8309172999
 10
46.5792344683
 20
10.7498511234
 10
46.4981682918
 20
10.672645241
 10
46.4068079977
 20
10.5992996528
 10
46.3038668212
 20
10.5298143587
 10
46.1919182918
 20
10.4641893587
 10
46.0683888801
 20
10.4011378881
 10
45.8007418212
 20
10.2956231822
 10
45.5137932918
 20
10.2197040646
 10
45.2036829977
 20
10.1746672999
 10
44.874271233
 20
10.1592261234
 10
44.874271233
 20
10.1592261234
 10
44.6902638801
 20
10.1630864175
 10
44.5139771154
 20
10.1772408293
 10
44.3441241742
 20
10.1991158293
 10
44.1819918212
 20
10.2299981822
 10
44.0250065271
 20
10.2698878881
 10
43.8757418212
 20
10.3187849469
 10
43.7329109389
 20
10.375402594
 10
43.5978006448
 20
10.4423143587
 10
43.4716977036
 20
10.5156599469
 10
43.3558888801
 20
10.594152594
 10
43.2529477036
 20
10.6765055352
 10
43.1603006448
 20
10.7640055352
 10
43.0792344683
 20
10.856652594
 10
43.0097491742
 20
10.9544467116
 10
42.9505579977
 20
11.0561011234
 10
42.9042344683
 20
11.162902594
 10
42.8656315271
 20
11.2787114175
 10
42.8321756448
 20
11.4048143587
 10
42.8051535859
 20
11.5437849469
 10
42.7819918212
 20
11.6930496528
 10
42.7639771154
 20
11.8551820057
 10
42.7511094683
 20
12.0276084763
 10
42.7433888801
 20
12.2116158293
 10
42.7408153507
 20
12.4072040646
 10
42.7408153507
 20
12.4072040646
 10
42.7408153507
 20
12.8768731822
 10
42.7408153507
 20
12.8768731822
 10
44.4702271154
 20
12.8768731822
 10
44.4702271154
 20
12.8768731822
 10
44.4702271154
 20
11.9697040646
 10
44.4702271154
 20
11.9697040646
 10
44.4715138801
 20
11.8693364175
 10
44.4753741742
 20
11.7792628881
 10
44.480521233
 20
11.6981967116
 10
44.4895285859
 20
11.6261378881
 10
44.4998227036
 20
11.5630864175
 10
44.5139771154
 20
11.5103290646
 10
44.5294182918
 20
11.4665790646
 10
44.5474329977
 20
11.4318364175
 10
44.5937565271
 20
11.3790790646
 10
44.6542344683
 20
11.3417628881
 10
44.7301535859
 20
11.3198878881
 10
44.8215138801
 20
11.3121672999
 10
44.8215138801
 20
11.3121672999
 10
44.9141609389
 20
11.3211746528
 10
44.9939403507
 20
11.3494834763
 10
45.0608521154
 20
11.394520241
 10
45.114896233
 20
11.4588584763
 10
45.1573594683
 20
11.5412114175
 10
45.1869550565
 20
11.6428658293
 10
45.2049697624
 20
11.7599614175
 10
45.2114035859
 20
11.8963584763
 10
45.2114035859
 20
11.8963584763
 10
45.2088300565
 20
12.0481967116
 10
45.2011094683
 20
12.1871672999
 10
45.1882418212
 20
12.3119834763
 10
45.1689403507
 20
12.4239320057
 10
45.1457785859
 20
12.5204393587
 10
45.1161829977
 20
12.6040790646
 10
45.0827271154
 20
12.6735643587
 10
45.0428374095
 20
12.7301820057
 10
45.0428374095
 20
12.7301820057
 10
44.9913668212
 20
12.7829393587
 10
44.9218815271
 20
12.8434172999
 10
44.8356682918
 20
12.9103290646
 10
44.7327271154
 20
12.9862481822
 10
44.6130579977
 20
13.0686011234
 10
44.4753741742
 20
13.1586746528
 10
44.3209624095
 20
13.2551820057
 10
44.1485359389
 20
13.3606967116
 10
44.1485359389
 20
13.3606967116
 10
43.9761094683
 20
13.4662114175
 10
43.8178374095
 20
13.5652922999
 10
43.6762932918
 20
13.656652594
 10
43.5489035859
 20
13.7415790646
 10
43.4382418212
 20
13.8174981822
 10
43.3417344683
 20
13.8869834763
 10
43.2606682918
 20
13.9487481822
 10
43.1950432918
 20
14.0040790646
 10
43.0843815271
 20
14.1173143587
 10
42.9827271154
 20
14.2498511234
 10
42.8913668212
 20
14.4016893587
 10
42.8103006448
 20
14.5728290646
 10
42.7433888801
 20
14.7671305352
 10
42.6970653507
 20
14.9858805352
 10
42.6674697624
 20
15.2303658293
 10
42.6584624095
 20
15.4992996528
 10
42.6584624095
 20
15.4992996528
 10
42.6623227036
 20
15.6961746528
 10
42.6713300565
 20
15.878895241
 10
42.6880579977
 20
16.0474614175
 10
42.7112197624
 20
16.2031599469
 10
42.7408153507
 20
16.3447040646
 10
42.7768447624
 20
16.4733805352
 10
42.8205947624
 20
16.587902594
 10
42.8694918212
 20
16.688270241
 10
42.9261094683
 20
16.7796305352
 10
42.9917344683
 20
16.8658437705
 10
43.0637932918
 20
16.9469099469
 10
43.146146233
 20
17.0228290646
 10
43.2349329977
 20
17.0936011234
 10
43.3327271154
 20
17.1605128881
 10
43.4382418212
 20
17.2209908293
 10
43.5514771154
 20
17.2763217116
 10
43.7998227036
 20
17.3689687705
 10
44.0713300565
 20
17.4358805352
 10
44.3685727036
 20
17.475770241
 10
44.6889771154
 20
17.4886378881
 10
44.6889771154
 20
17.4886378881
 10
44.8678374095
 20
17.484777594
 10
45.0402638801
 20
17.4744834763
 10
45.2049697624
 20
17.4551820057
 10
45.3632418212
 20
17.4307334763
 10
45.5150800565
 20
17.397277594
 10
45.6604844683
 20
17.3573878881
 10
45.7981682918
 20
17.309777594
 10
45.9294182918
 20
17.2544467116
 10
46.0529477036
 20
17.1939687705
 10
46.164896233
 20
17.1309172999
 10
46.2652638801
 20
17.0627187705
 10
46.3566241742
 20
16.9919467116
 10
46.4351168212
 20
16.916027594
 10
46.5046021154
 20
16.8375349469
 10
46.5625065271
 20
16.753895241
 10
46.6088300565
 20
16.6676820057
 10
46.6474329977
 20
16.5711746528
 10
46.6821756448
 20
16.4592261234
 10
46.7104844683
 20
16.3331231822
 10
46.7349329977
 20
16.1902922999
 10
46.7529477036
 20
16.032020241
 10
46.7658153507
 20
15.8583070057
 10
46.7735359389
 20
15.669152594
 10
46.7761094683
 20
15.4645570057
 10
46.7761094683
 20
15.4645570057
 10
46.7761094683
 20
15.1827555352
  0
LINE
  5
17A
330
1F
100
AcDbEntity
  8
0
  6
Continuous
 62
     7
370
    25
100
AcDbLine
 10
55.0
 20
54.0
 30
0.0
 11
5.0
 21
54.0
 31
0.0
  0
LINE
  5
17B
330
1F
100
AcDbEntity
  8
0
  6
Continuous
 62
     7
370
    25
100
AcDbLine
 10
60.0
 20
5.0
 30
0.0
 11
60.0
 21
49.0
 31
0.0
  0
LINE
  5
17C
330
1F
100
AcDbEntity
  8
0
  6
Continuous
 62
     7
370
    25
100
AcDbLine
 10
5.0
 20
0.0
 30
0.0
 11
55.0
 21
0.0
 31
0.0
  0
LINE
  5
17D
330
1F
100
AcDbEntity
  8
0
  6
Continuous
 62
     7
370
    25
100
AcDbLine
 10
0.0
 20
49.0
 30
0.0
 11
0.0
 21
5.0
 31
0.0
  0
ARC
  5
17E
330
1F
100
AcDbEntity
  8
0
  6
Continuous
 62
     7
370
    25
100
AcDbCircle
 10
55.0
 20
49.0
 30
0.0
 40
4.999999999999993
100
AcDbArc
 50
0.0
 51
90.0
  0
ARC
  5
17F
330
1F
100
AcDbEntity
  8
0
  6
Continuous
 62
     7
370
    25
100
AcDbCircle
 10
55.0
 20
5.0
 30
0.0
 40
4.999999999999994
100
AcDbArc
 50
270.0
 51
0.0
  0
ARC
  5
180
330
1F
100
AcDbEntity
  8
0
  6
Continuous
 62
     7
370
    25
100
AcDbCircle
 10
5.0
 20
5.0
 30
0.0
 40
4.999999999999997
100
AcDbArc
 50
180.0
 51
270.0
  0
ARC
  5
181
330
1F
100
AcDbEntity
  8
0
  6
Continuous
 62
     7
370
    25
100
AcDbCircle
 10
5.0
 20
49.0
 30
0.0
 40
5.0
100
AcDbArc
 50
90.0
 51
180.0
  0
MTEXT
  5
183
330
1F
100
AcDbEntity
  8
0
  6
Continuous
 62
     7
100
AcDbMText
 10
0.0
 20
-1.0195663917
 30
0.0
 40
4.83362
 41
0.0
 71
     1
 72
     1
  1
SOLIDWORKS Educational Product.
  7
SLDTEXTSTYLE0
 73
     1
 44
1.0
  0
MTEXT
  5
184
330
1F
100
AcDbEntity
  8
0
  6
Continuous
 62
     7
100
AcDbMText
 10
0.0
 20
-8.2699963917
 30
0.0
 40
4.83362
 41
0.0
 71
     1
 72
     1
  1
For Instructional Use Only.
  7
SLDTEXTSTYLE0
 73
     1
 44
1.0
  0
ENDSEC
  0
SECTION
  2
OBJECTS
  0
DICTIONARY
  5
C
330
0
100
AcDbDictionary
281
     1
  3
ACAD_GROUP
350
D
  3
ACAD_LAYOUT
350
1A
  3
ACAD_MLINESTYLE
350
17
  3
ACAD_PLOTSETTINGS
350
19
  3
ACAD_PLOTSTYLENAME
350
E
  3
ACAD_SCALELIST
350
47
  3
DWGPROPS
350
185
  0
DICTIONARY
  5
D
102
{ACAD_REACTORS
330
C
102
}
330
C
100
AcDbDictionary
281
     1
  0
DICTIONARY
  5
1A
102
{ACAD_REACTORS
330
C
102
}
330
C
100
AcDbDictionary
281
     1
  3
Layout1
350
1E
  3
Layout2
350
26
  3
Model
350
22
  0
DICTIONARY
  5
17
102
{ACAD_REACTORS
330
C
102
}
330
C
100
AcDbDictionary
281
     1
  3
Standard
350
18
  0
DICTIONARY
  5
19
102
{ACAD_REACTORS
330
C
102
}
330
C
100
AcDbDictionary
281
     1
  0
ACDBDICTIONARYWDFLT
  5
E
102
{ACAD_REACTORS
330
C
102
}
330
C
100
AcDbDictionary
281
     1
  3
Normal
350
F
100
AcDbDictionaryWithDefault
340
F
  0
DICTIONARY
  5
47
102
{ACAD_REACTORS
330
C
102
}
330
C
100
AcDbDictionary
281
     1
  3
A0
350
48
  3
A1
350
49
  3
A2
350
4A
  3
A3
350
4B
  3
A4
350
4C
  3
A5
350
4D
  3
A6
350
4E
  3
A7
350
4F
  3
A8
350
50
  3
A9
350
51
  3
B0
350
52
  3
B1
350
53
  3
B2
350
54
  3
B3
350
55
  3
B4
350
56
  3
B5
350
57
  3
B6
350
58
  0
XRECORD
  5
185
102
{ACAD_REACTORS
330
C
102
}
330
C
100
AcDbXrecord
280
     1
  1
DWGPROPS COOKIE
  2

  3

  4

  6

  7

  8
samue
  9

300
=
301
=
302
=
303
=
304
=
305
=
306
=
307
=
308
=
309
=
 40
0.0
 41
2460884.691522662
 42
2460884.691872547
  1

 90
        0
  0
LAYOUT
  5
1E
102
{ACAD_REACTORS
330
1A
102
}
330
1A
100
AcDbPlotSettings
  1

  2
none_device
  4

  6

 40
0.0
 41
0.0
 42
0.0
 43
0.0
 44
0.0
 45
0.0
 46
0.0
 47
0.0
 48
0.0
 49
0.0
140
0.0
141
0.0
142
1.0
143
1.0
 70
   688
 72
     1
 73
     0
 74
     5
  7

 75
    16
147
1.0
148
0.0
149
0.0
100
AcDbLayout
  1
Layout1
 70
     1
 71
     1
 10
0.0
 20
0.0
 11
420.0
 21
297.0
 12
0.0
 22
0.0
 32
0.0
 14
1.0000000000E+20
 24
1.0000000000E+20
 34
1.0000000000E+20
 15
-1.0000000000E+20
 25
-1.0000000000E+20
 35
-1.0000000000E+20
146
0.0
 13
0.0
 23
0.0
 33
0.0
 16
1.0
 26
0.0
 36
0.0
 17
0.0
 27
1.0
 37
0.0
 76
     0
330
1B
  0
LAYOUT
  5
26
102
{ACAD_REACTORS
330
1A
102
}
330
1A
100
AcDbPlotSettings
  1

  2
none_device
  4

  6

 40
0.0
 41
0.0
 42
0.0
 43
0.0
 44
0.0
 45
0.0
 46
0.0
 47
0.0
 48
0.0
 49
0.0
140
0.0
141
0.0
142
1.0
143
1.0
 70
   688
 72
     1
 73
     0
 74
     5
  7

 75
    16
147
1.0
148
0.0
149
0.0
100
AcDbLayout
  1
Layout2
 70
     1
 71
     2
 10
0.0
 20
0.0
 11
0.0
 21
0.0
 12
0.0
 22
0.0
 32
0.0
 14
0.0
 24
0.0
 34
0.0
 15
0.0
 25
0.0
 35
0.0
146
0.0
 13
0.0
 23
0.0
 33
0.0
 16
1.0
 26
0.0
 36
0.0
 17
0.0
 27
1.0
 37
0.0
 76
     0
330
23
  0
LAYOUT
  5
22
102
{ACAD_REACTORS
330
1A
102
}
330
1A
100
AcDbPlotSettings
  1

  2
none_device
  4
ANSI_A_(11.00_x_8.50_Inches)
  6

 40
6.35
 41
19.05
 42
6.35000508
 43
19.05000254
 44
279.4
 45
215.9
 46
14.60499746
 47
-17.97050127
 48
0.0
 49
0.0
140
0.0
141
0.0
142
0.1558333333
143
1.0
 70
  1696
 72
     0
 73
     0
 74
     0
  7

 75
     0
147
0.0179189148
148
-1300.4909072572
149
0.0
100
AcDbLayout
  1
Model
 70
     1
 71
     0
 10
0.0
 20
0.0
 11
420.0
 21
297.0
 12
0.0
 22
0.0
 32
0.0
 14
0.0
 24
0.0
 34
0.0
 15
60.0
 25
54.0
 35
0.0
146
0.0
 13
0.0
 23
0.0
 33
0.0
 16
1.0
 26
0.0
 36
0.0
 17
0.0
 27
1.0
 37
0.0
 76
     0
330
1F
331
29
  0
MLINESTYLE
  5
18
102
{ACAD_REACTORS
330
17
102
}
330
17
100
AcDbMlineStyle
  2
Standard
 70
     0
  3

 62
   256
 51
90.0
 52
90.0
 71
     2
 49
0.5
 62
   256
  6
BYLAYER
 49
-0.5
 62
   256
  6
BYLAYER
  0
ACDBPLACEHOLDER
  5
F
102
{ACAD_REACTORS
330
E
102
}
330
E
  0
SCALE
  5
48
102
{ACAD_REACTORS
330
47
102
}
330
47
100
AcDbScale
 70
     0
300
1:1
140
1.0
141
1.0
290
     1
  0
SCALE
  5
49
102
{ACAD_REACTORS
330
47
102
}
330
47
100
AcDbScale
 70
     0
300
1:2
140
1.0
141
2.0
290
     0
  0
SCALE
  5
4A
102
{ACAD_REACTORS
330
47
102
}
330
47
100
AcDbScale
 70
     0
300
1:4
140
1.0
141
4.0
290
     0
  0
SCALE
  5
4B
102
{ACAD_REACTORS
330
47
102
}
330
47
100
AcDbScale
 70
     0
300
1:5
140
1.0
141
5.0
290
     0
  0
SCALE
  5
4C
102
{ACAD_REACTORS
330
47
102
}
330
47
100
AcDbScale
 70
     0
300
1:8
140
1.0
141
8.0
290
     0
  0
SCALE
  5
4D
102
{ACAD_REACTORS
330
47
102
}
330
47
100
AcDbScale
 70
     0
300
1:10
140
1.0
141
10.0
290
     0
  0
SCALE
  5
4E
102
{ACAD_REACTORS
330
47
102
}
330
47
100
AcDbScale
 70
     0
300
1:16
140
1.0
141
16.0
290
     0
  0
SCALE
  5
4F
102
{ACAD_REACTORS
330
47
102
}
330
47
100
AcDbScale
 70
     0
300
1:20
140
1.0
141
20.0
290
     0
  0
SCALE
  5
50
102
{ACAD_REACTORS
330
47
102
}
330
47
100
AcDbScale
 70
     0
300
1:30
140
1.0
141
30.0
290
     0
  0
SCALE
  5
51
102
{ACAD_REACTORS
330
47
102
}
330
47
100
AcDbScale
 70
     0
300
1:40
140
1.0
141
40.0
290
     0
  0
SCALE
  5
52
102
{ACAD_REACTORS
330
47
102
}
330
47
100
AcDbScale
 70
     0
300
1:50
140
1.0
141
50.0
290
     0
  0
SCALE
  5
53
102
{ACAD_REACTORS
330
47
102
}
330
47
100
AcDbScale
 70
     0
300
1:100
140
1.0
141
100.0
290
     0
  0
SCALE
  5
54
102
{ACAD_REACTORS
330
47
102
}
330
47
100
AcDbScale
 70
     0
300
2:1
140
2.0
141
1.0
290
     0
  0
SCALE
  5
55
102
{ACAD_REACTORS
330
47
102
}
330
47
100
AcDbScale
 70
     0
300
4:1
140
4.0
141
1.0
290
     0
  0
SCALE
  5
56
102
{ACAD_REACTORS
330
47
102
}
330
47
100
AcDbScale
 70
     0
300
8:1
140
8.0
141
1.0
290
     0
  0
SCALE
  5
57
102
{ACAD_REACTORS
330
47
102
}
330
47
100
AcDbScale
 70
     0
300
10:1
140
10.0
141
1.0
290
     0
  0
SCALE
  5
58
102
{ACAD_REACTORS
330
47
102
}
330
47
100
AcDbScale
 70
     0
300
100:1
140
100.0
141
1.0
290
     0
  0
ENDSEC
  0
EOF
